<svg viewBox="0 0 750 500" xmlns="http://www.w3.org/2000/svg"><path d="m735.11 238.32c-7-79-57.52-146.21-134.17-175.14-20.15-7.61-42-12.7-64.29-12.76-91.28-.26-206.5 49.83-263.88 56.75s-116.27-51.8-200.4 19.62-90.11 256.96 53.63 308.91 237.41-27.79 300.83-1.32 182.37 30.85 259.17-18.9c45.58-29.48 55.19-108.59 49.11-177.16z" fill="#92e3a9"/><path d="m735.11 238.32c-7-79-57.52-146.21-134.17-175.14-20.15-7.61-42-12.7-64.29-12.76-91.28-.26-206.5 49.83-263.88 56.75s-116.27-51.8-200.4 19.62-90.11 256.96 53.63 308.91 237.41-27.79 300.83-1.32 182.37 30.85 259.17-18.9c45.58-29.48 55.19-108.59 49.11-177.16z" fill="#fff" opacity=".8"/><g fill="#263238"><path d="m668.52 454.34h28.88v1h-28.88z"/><path d="m55.32 454.34h607.28v1h-607.28z"/><path d="m61.6 405.22c1.69.74 5.82.65 5.82.65s-.89-2.71-1-2.87c-.91-1.9-3.78-5-6.11-4.71a2.78 2.78 0 0 0 -2.23 3.49c.42 1.61 2.08 2.81 3.52 3.44z"/><path d="m63 417.19c1.75.25 5.43-.82 5.73-.9a48.83 48.83 0 0 0 2.27 6.18c.51 1.18 1.06 2.34 1.62 3.51-.34-.5-.64-.93-.69-1-1.38-1.59-5-3.85-7.13-2.93a2.78 2.78 0 0 0 -1.25 3.95c.8 1.46 2.72 2.18 4.27 2.4s4.74-.61 5.57-.85l.66 1.33c1.07 2.13 2.14 4.24 3.13 6.35.35.75.67 1.49 1 2.23-.3-.43-.55-.8-.6-.85-1.37-1.59-5-3.85-7.13-2.93a2.78 2.78 0 0 0 -1.24 3.95c.81 1.46 2.72 2.18 4.27 2.41a17.86 17.86 0 0 0 5.42-.82c.31.77.61 1.55.87 2.31.17.52.37 1 .5 1.55s.3 1.05.44 1.56c.24 1 .5 2.05.71 3 .15.69.28 1.34.42 2-.34-.74-1-2.18-1.11-2.3-1.12-1.77-4.32-4.55-6.6-4a2.78 2.78 0 0 0 -1.82 3.72c.57 1.56 2.35 2.56 3.85 3 1.66.51 5.31 0 5.77 0 .22 1.1.42 2.16.6 3.17.09.53.17 1 .26 1.54h1.45l-.34-1.8c-.22-1.11-.48-2.29-.75-3.5a30 30 0 0 0 3.21-1.47 20.23 20.23 0 0 0 4.69 3c-.42 1-.84 2-1.25 3-.12.29-.24.55-.36.82h1.56l.12-.28c.43-1 .87-2.17 1.31-3.33.44.09 4.06.83 5.75.45 1.53-.35 3.38-1.22 4.07-2.73a2.79 2.79 0 0 0 -1.54-3.85c-2.23-.75-5.63 1.79-6.88 3.48-.08.1-.75 1.27-1.17 2 .18-.47.36-.93.53-1.42.36-1 .69-1.95 1-3 .16-.52.31-1 .47-1.56s.27-1.09.42-1.63c.3-1.28.55-2.58.76-3.9.85.31 3.89 1.36 5.46 1.25s3.53-.68 4.44-2.07a2.78 2.78 0 0 0 -.94-4c-2.09-1.08-5.84.91-7.33 2.39-.09.09-1 1.28-1.55 1.94.13-.8.26-1.59.36-2.4.29-2.33.51-4.7.74-7.07.07-.72.15-1.44.22-2.16.3.11 3.88 1.44 5.65 1.32 1.56-.11 3.53-.69 4.43-2.08a2.78 2.78 0 0 0 -.93-4c-2.1-1.08-5.85.9-7.33 2.39-.12.11-1.48 1.81-1.81 2.26.17-1.59.35-3.17.6-4.72a48.42 48.42 0 0 1 1.35-6.21c.14 0 3.88 1.46 5.68 1.33 1.57-.11 3.53-.68 4.44-2.08a2.78 2.78 0 0 0 -.94-4c-2.09-1.08-5.84.91-7.33 2.39-.12.11-1.58 2-1.82 2.3 0-.12.05-.24.09-.36a36.78 36.78 0 0 1 2.46-5.88c.54-1 1.11-2 1.68-2.95.67.33 3.74 1.82 5.38 1.89s3.58-.29 4.63-1.58a2.77 2.77 0 0 0 -.48-4.11c-2-1.31-5.91.26-7.55 1.57-.09.07-.92.89-1.51 1.5.26-.41.53-.85.79-1.24 1-1.49 2-2.78 2.87-3.92.51-.65 1-1.22 1.43-1.75.83 0 4.16-.12 5.62-.8s3-1.91 3.38-3.54a2.78 2.78 0 0 0 -2.32-3.43c-2.34-.25-5.12 3-6 4.88-.07.16-.93 2.89-.89 2.89q-.66.75-1.41 1.65c-.91 1.13-1.94 2.4-3 3.87a50.49 50.49 0 0 0 -3.07 4.89 36.54 36.54 0 0 0 -2.62 5.9s0 .05 0 .07c0-.69 0-2.61 0-2.76-.27-2.09-2-5.95-4.33-6.38a2.79 2.79 0 0 0 -3.21 2.62c-.13 1.65 1.07 3.31 2.24 4.36 1.32 1.18 5 2.32 5.27 2.41a49.68 49.68 0 0 0 -1.49 6.37c-.22 1.26-.41 2.53-.58 3.81 0-.59 0-1.12 0-1.2-.27-2.08-2-5.95-4.33-6.38a2.78 2.78 0 0 0 -3.28 2.57c-.14 1.66 1.06 3.31 2.23 4.36s4.29 2.1 5.12 2.36c-.06.49-.13 1-.19 1.47-.28 2.37-.55 4.72-.89 7-.11.81-.26 1.61-.4 2.4 0-.53 0-1 0-1-.27-2.09-2-5.95-4.33-6.38a2.79 2.79 0 0 0 -3.22 2.62c-.13 1.65 1.07 3.31 2.24 4.36s4 2 5 2.31c-.17.81-.34 1.62-.55 2.4-.15.53-.25 1.05-.44 1.57s-.33 1-.49 1.55c-.36 1-.72 2-1.09 2.91-.25.66-.5 1.28-.75 1.9.13-.8.34-2.39.35-2.52a10.88 10.88 0 0 0 -1.45-5.26 4.21 4.21 0 0 0 0-.62 2.78 2.78 0 0 0 -3.41-2.36c-2.27.6-3.71 4.59-3.82 6.69 0 .13.07 1.48.14 2.33-.12-.5-.22-1-.35-1.48-.23-1-.5-2-.79-3.08-.15-.51-.31-1-.47-1.56s-.36-1.05-.55-1.59c-.45-1.23-1-2.45-1.51-3.67.88-.21 4-1 5.25-2s2.56-2.52 2.55-4.18a2.79 2.79 0 0 0 -3-2.85c-2.34.26-4.37 4-4.79 6 0 .13-.17 1.64-.23 2.47-.33-.73-.66-1.46-1-2.19-1-2.11-2.17-4.21-3.28-6.31-.34-.64-.68-1.28-1-1.93.31-.07 4-.93 5.44-2 1.24-.95 2.56-2.52 2.55-4.18a2.79 2.79 0 0 0 -3-2.85c-2.34.26-4.37 4-4.79 6 0 .16-.23 2.33-.25 2.89-.74-1.42-1.46-2.84-2.11-4.27a48.26 48.26 0 0 1 -2.3-5.93c.15 0 4-.92 5.47-2 1.24-1 2.57-2.52 2.55-4.18a2.77 2.77 0 0 0 -3-2.85c-2.34.25-4.37 4-4.8 6 0 .16-.24 2.5-.25 2.92a3.59 3.59 0 0 1 -.12-.35 35.46 35.46 0 0 1 -1.27-6.15c-.13-1.17-.19-2.29-.23-3.39.74-.09 4.13-.54 5.53-1.39s2.83-2.22 3-3.87a2.8 2.8 0 0 0 -2.68-3.17c-2.35 0-4.78 3.48-5.43 5.48 0 .11-.27 1.25-.43 2.09 0-.5 0-1 0-1.48 0-1.78.11-3.41.22-4.85.07-.82.15-1.56.24-2.25.68-.47 3.4-2.39 4.24-3.76s1.48-3.28.87-4.82a2.78 2.78 0 0 0 -3.83-1.58c-2.09 1.08-2.64 5.29-2.3 7.36 0 .18.82 2.93.86 2.91-.09.66-.18 1.37-.27 2.15-.14 1.45-.29 3.08-.33 4.86a47.47 47.47 0 0 0 .14 5.77 35.33 35.33 0 0 0 1.06 6.37.24.24 0 0 0 0 .08c-.37-.59-1.46-2.18-1.56-2.29-1.37-1.59-5-3.85-7.13-2.93a2.77 2.77 0 0 0 -1.23 3.95c.82 1.43 2.73 2.19 4.26 2.38z"/><path d="m103.38 406.13s.75-2.74.77-2.92c.29-2.09-.37-6.28-2.49-7.3a2.78 2.78 0 0 0 -3.79 1.68c-.57 1.56.15 3.47 1 4.79 1.01 1.55 4.5 3.75 4.51 3.75z"/><path d="m610.69 412.73c1.44.62 4.94.54 4.94.54s-.75-2.29-.82-2.43c-.76-1.61-3.2-4.27-5.18-4a2.36 2.36 0 0 0 -1.89 3 5 5 0 0 0 2.95 2.89z"/><path d="m611.9 422.88c1.49.22 4.62-.69 4.87-.76a41.89 41.89 0 0 0 1.89 5.25c.43 1 .9 2 1.38 3l-.59-.84c-1.16-1.35-4.21-3.27-6.05-2.48a2.36 2.36 0 0 0 -1 3.35 4.93 4.93 0 0 0 3.63 2 15.47 15.47 0 0 0 4.72-.72c.19.37.37.75.56 1.13.91 1.8 1.82 3.6 2.66 5.39.3.63.57 1.26.84 1.89l-.51-.73c-1.17-1.34-4.22-3.26-6-2.48a2.35 2.35 0 0 0 -1.05 3.35 4.91 4.91 0 0 0 3.62 2 14.74 14.74 0 0 0 4.6-.69c.26.66.52 1.31.74 2 .14.44.31.86.42 1.32s.25.89.38 1.32c.2.86.42 1.74.6 2.57.12.59.24 1.14.35 1.7-.29-.63-.88-1.85-.94-1.95-.95-1.51-3.67-3.87-5.6-3.37a2.36 2.36 0 0 0 -1.55 3.16 5 5 0 0 0 3.27 2.56 16.29 16.29 0 0 0 4.9 0c.19.92.36 1.83.51 2.68.08.46.15.88.22 1.31h1.23c-.09-.49-.18-1-.29-1.52-.18-.95-.4-1.95-.63-3a27.06 27.06 0 0 0 2.73-1.28 17.22 17.22 0 0 0 4 2.56c-.36.88-.71 1.73-1.06 2.53l-.31.69h1.3c0-.08.07-.15.1-.23.36-.89.74-1.85 1.11-2.84a16 16 0 0 0 4.88.38 4.92 4.92 0 0 0 3.46-2.31 2.36 2.36 0 0 0 -1.31-3.27c-1.89-.63-4.78 1.52-5.84 2.95-.06.09-.64 1.08-1 1.72.15-.41.3-.8.45-1.22.31-.82.58-1.65.88-2.54.13-.44.27-.88.4-1.32s.23-.92.36-1.39c.25-1.08.46-2.19.65-3.31a15.65 15.65 0 0 0 4.63 1.07 4.91 4.91 0 0 0 3.76-1.77 2.35 2.35 0 0 0 -.79-3.42c-1.77-.92-5 .77-6.22 2-.08.08-.89 1.08-1.32 1.64.11-.67.22-1.35.3-2 .25-2 .44-4 .63-6 .06-.62.13-1.23.19-1.84.26.1 3.3 1.23 4.79 1.12a4.94 4.94 0 0 0 3.77-1.76 2.37 2.37 0 0 0 -.8-3.43c-1.77-.91-5 .78-6.22 2-.09.1-1.25 1.55-1.53 1.93.15-1.35.3-2.69.51-4a41.84 41.84 0 0 1 1.15-5.28 16.67 16.67 0 0 0 4.82 1.14 5 5 0 0 0 3.76-1.77 2.36 2.36 0 0 0 -.79-3.42c-1.78-.92-5 .77-6.22 2-.1.1-1.35 1.65-1.55 1.95 0-.1.05-.21.08-.31a29.52 29.52 0 0 1 2.09-5c.45-.89.93-1.71 1.42-2.5a16 16 0 0 0 4.56 1.6 4.91 4.91 0 0 0 3.94-1.34 2.36 2.36 0 0 0 -.41-3.49c-1.67-1.1-5 .22-6.41 1.34-.07.06-.78.76-1.28 1.27.22-.35.45-.72.67-1.05.84-1.26 1.68-2.36 2.44-3.33.43-.55.83-1 1.21-1.49a15.75 15.75 0 0 0 4.77-.67 5 5 0 0 0 2.87-3 2.36 2.36 0 0 0 -2-2.91c-2-.21-4.35 2.51-5.08 4.14-.06.14-.79 2.46-.75 2.46-.37.42-.77.88-1.19 1.4-.78.95-1.65 2-2.52 3.28a42.54 42.54 0 0 0 -2.6 4.15 31 31 0 0 0 -2.23 5s0 0 0 .06c0-.58 0-2.22 0-2.35-.22-1.76-1.71-5.05-3.67-5.41a2.37 2.37 0 0 0 -2.73 2.22 5 5 0 0 0 1.9 3.7c1.12 1 4.23 2 4.48 2.05a42.46 42.46 0 0 0 -1.32 5.42c-.19 1.07-.35 2.16-.49 3.24 0-.5 0-1 0-1-.23-1.77-1.71-5.05-3.67-5.41a2.35 2.35 0 0 0 -2.83 2.33 5 5 0 0 0 1.9 3.7 15.57 15.57 0 0 0 4.34 2c-.05.42-.11.84-.16 1.25-.24 2-.47 4-.75 6-.1.69-.23 1.37-.35 2 0-.44 0-.82 0-.88-.23-1.77-1.71-5-3.68-5.42a2.36 2.36 0 0 0 -2.72 2.23 4.94 4.94 0 0 0 1.89 3.7 15.19 15.19 0 0 0 4.22 2c-.14.69-.29 1.38-.46 2-.13.45-.22.89-.37 1.33s-.29.88-.43 1.31c-.3.83-.6 1.68-.92 2.48-.21.55-.42 1.08-.64 1.61.11-.68.29-2 .3-2.14a9.36 9.36 0 0 0 -1.23-4.47 3 3 0 0 0 0-.52 2.37 2.37 0 0 0 -2.89-2c-1.93.52-3.15 3.91-3.24 5.69 0 .1.06 1.25.12 2-.1-.42-.19-.83-.3-1.26-.2-.85-.42-1.7-.67-2.61-.13-.44-.26-.88-.4-1.32s-.31-.9-.46-1.35c-.38-1-.82-2.08-1.28-3.12a15.46 15.46 0 0 0 4.45-1.67 5 5 0 0 0 2.17-3.54 2.36 2.36 0 0 0 -2.56-2.42c-2 .21-3.71 3.37-4.07 5.12 0 .11-.14 1.39-.19 2.1-.28-.62-.56-1.24-.87-1.86-.89-1.79-1.84-3.57-2.78-5.35l-.86-1.64a16.5 16.5 0 0 0 4.62-1.71 5 5 0 0 0 2.16-3.55 2.37 2.37 0 0 0 -2.55-2.42c-2 .22-3.71 3.38-4.07 5.13 0 .13-.19 2-.21 2.45-.63-1.21-1.24-2.41-1.79-3.63a41 41 0 0 1 -2-5c.12 0 3.42-.78 4.64-1.71a4.94 4.94 0 0 0 2.17-3.55 2.37 2.37 0 0 0 -2.56-2.42c-2 .22-3.7 3.38-4.06 5.13 0 .13-.21 2.12-.22 2.48 0-.1-.07-.2-.1-.3a30.86 30.86 0 0 1 -1-5.32c-.11-1-.16-1.94-.19-2.87a16 16 0 0 0 4.69-1.18 4.93 4.93 0 0 0 2.54-3.29 2.36 2.36 0 0 0 -2.27-2.68c-2 0-4.06 2.95-4.61 4.64 0 .1-.23 1.07-.36 1.78 0-.42 0-.86 0-1.26 0-1.51.1-2.89.19-4.11.06-.7.13-1.33.2-1.91a16 16 0 0 0 3.59-3.2 5 5 0 0 0 .75-4.09 2.38 2.38 0 0 0 -3.26-1.34c-1.77.92-2.24 4.49-1.94 6.25 0 .15.69 2.49.72 2.47-.08.57-.16 1.17-.23 1.83-.12 1.23-.25 2.61-.28 4.13a43.31 43.31 0 0 0 .11 4.9 31.58 31.58 0 0 0 .91 5.4.14.14 0 0 1 0 .06c-.31-.49-1.24-1.84-1.32-1.94-1.17-1.35-4.21-3.27-6-2.49a2.36 2.36 0 0 0 -1.05 3.36 4.93 4.93 0 0 0 3.57 1.89z"/><path d="m646.15 413.5s.64-2.33.66-2.49c.25-1.76-.32-5.32-2.11-6.19a2.37 2.37 0 0 0 -3.22 1.43 4.94 4.94 0 0 0 .85 4.06c.85 1.32 3.82 3.19 3.82 3.19z"/><path d="m690.85 430.42a9.9 9.9 0 0 1 -2.87.31s.44-1.33.47-1.41c.45-.93 1.86-2.47 3-2.32a1.37 1.37 0 0 1 1.1 1.72 2.9 2.9 0 0 1 -1.7 1.7z"/><path d="m690.14 436.3a9.53 9.53 0 0 1 -2.82-.44 22.8 22.8 0 0 1 -1.1 3.05c-.25.57-.52 1.15-.79 1.72l.33-.48c.68-.79 2.45-1.9 3.52-1.45a1.38 1.38 0 0 1 .6 1.95 2.83 2.83 0 0 1 -2.1 1.18 8.77 8.77 0 0 1 -2.74-.42l-.33.66c-.52 1-1.05 2.09-1.54 3.12-.17.37-.32.73-.48 1.1l.29-.42c.68-.78 2.45-1.9 3.51-1.44a1.36 1.36 0 0 1 .61 1.94 2.86 2.86 0 0 1 -2.1 1.19 8.88 8.88 0 0 1 -2.67-.4c-.15.38-.3.76-.43 1.13s-.18.5-.24.77-.15.51-.22.77c-.12.49-.24 1-.35 1.49-.07.33-.14.66-.2 1l.54-1.13c.55-.88 2.13-2.24 3.25-2a1.37 1.37 0 0 1 .9 1.83 2.85 2.85 0 0 1 -1.9 1.49 9.37 9.37 0 0 1 -2.84 0c-.11.54-.21 1.07-.29 1.56 0 .27-.09.51-.13.76h-.72c.06-.29.11-.58.17-.88.11-.55.24-1.13.37-1.73a14.32 14.32 0 0 1 -1.58-.74 10.1 10.1 0 0 1 -2.31 1.48c.2.51.41 1 .61 1.47l.18.4h-.75l-.06-.14c-.21-.51-.43-1.07-.65-1.64a9.17 9.17 0 0 1 -2.83.22 2.85 2.85 0 0 1 -2-1.34 1.37 1.37 0 0 1 .76-1.89c1.09-.37 2.77.87 3.38 1.71 0 .05.37.62.58 1-.09-.23-.18-.46-.26-.7-.18-.48-.34-1-.51-1.48-.08-.25-.16-.51-.23-.77s-.14-.53-.21-.8c-.15-.63-.27-1.27-.38-1.92a9.21 9.21 0 0 1 -2.68.62 2.91 2.91 0 0 1 -2.19-1 1.38 1.38 0 0 1 .46-2c1-.53 2.88.45 3.61 1.18.05 0 .51.62.76.95-.06-.39-.12-.78-.17-1.18-.14-1.15-.25-2.32-.36-3.48 0-.36-.08-.71-.11-1.07a9.46 9.46 0 0 1 -2.78.66 2.9 2.9 0 0 1 -2.19-1 1.37 1.37 0 0 1 .46-2c1-.54 2.88.44 3.61 1.17.06.06.73.9.89 1.12-.08-.78-.17-1.56-.29-2.33a26.74 26.74 0 0 0 -.67-3.06 9.65 9.65 0 0 1 -2.8.66 2.87 2.87 0 0 1 -2.18-1 1.37 1.37 0 0 1 .46-2c1-.53 2.88.45 3.61 1.18.06.06.78 1 .9 1.13 0-.05 0-.12-.05-.18a17.52 17.52 0 0 0 -1.21-2.89 16.67 16.67 0 0 0 -.83-1.45 9.31 9.31 0 0 1 -2.64.93 2.89 2.89 0 0 1 -2.29-.78 1.37 1.37 0 0 1 .24-2c1-.64 2.91.13 3.72.77 0 0 .45.44.74.74-.13-.2-.26-.42-.39-.61-.48-.73-1-1.37-1.41-1.93-.25-.32-.48-.6-.71-.86a9.2 9.2 0 0 1 -2.76-.4 2.87 2.87 0 0 1 -1.67-1.74 1.38 1.38 0 0 1 1.15-1.69c1.15-.12 2.52 1.46 2.94 2.4 0 .09.46 1.43.44 1.43.22.24.45.51.7.81.45.55 1 1.18 1.46 1.91a24.93 24.93 0 0 1 1.51 2.4 18 18 0 0 1 1.29 2.91 0 0 0 0 0 0 0c0-.34 0-1.29 0-1.36.13-1 1-2.93 2.13-3.14a1.37 1.37 0 0 1 1.58 1.29 2.88 2.88 0 0 1 -1.1 2.15 9.41 9.41 0 0 1 -2.6 1.18 24.54 24.54 0 0 1 .76 3.15c.11.62.21 1.25.29 1.88a5.77 5.77 0 0 1 0-.6c.13-1 1-2.93 2.13-3.14a1.38 1.38 0 0 1 1.58 1.29 2.88 2.88 0 0 1 -1.1 2.15 9.18 9.18 0 0 1 -2.52 1.16l.09.73c.14 1.16.27 2.32.44 3.45.06.4.13.8.2 1.19 0-.26 0-.48 0-.52.14-1 1-2.93 2.14-3.14a1.38 1.38 0 0 1 1.58 1.29 2.92 2.92 0 0 1 -1.1 2.15 8.89 8.89 0 0 1 -2.45 1.14c.08.4.17.8.27 1.18s.13.52.21.77.17.51.25.76c.17.48.35 1 .53 1.44l.37.93c-.06-.39-.16-1.17-.17-1.24a5.36 5.36 0 0 1 .72-2.59 1 1 0 0 1 0-.3 1.37 1.37 0 0 1 1.67-1.17c1.12.3 1.83 2.27 1.88 3.3 0 .06 0 .73-.06 1.15 0-.25.1-.48.17-.73.11-.5.24-1 .38-1.52l.24-.76c.07-.26.18-.52.27-.79.22-.6.47-1.21.74-1.81a8.89 8.89 0 0 1 -2.58-1 2.9 2.9 0 0 1 -1.26-2.06 1.38 1.38 0 0 1 1.48-1.41c1.15.13 2.15 2 2.36 3 0 .06.08.8.11 1.21.17-.36.33-.72.51-1.08.51-1 1.07-2.07 1.61-3.1l.5-.95a9.72 9.72 0 0 1 -2.68-1 2.85 2.85 0 0 1 -1.25-2.06 1.37 1.37 0 0 1 1.48-1.4c1.15.12 2.15 2 2.36 3 0 .08.11 1.15.12 1.42.36-.7.72-1.39 1-2.1a24.38 24.38 0 0 0 1.13-2.92 9.44 9.44 0 0 1 -2.69-1 2.83 2.83 0 0 1 -1.26-2.06 1.37 1.37 0 0 1 1.48-1.4c1.15.12 2.15 2 2.36 3 0 .08.12 1.23.12 1.44a1.15 1.15 0 0 0 .06-.17 17.84 17.84 0 0 0 .59-3.09c.06-.57.09-1.12.11-1.66a9.4 9.4 0 0 1 -2.72-.69 2.84 2.84 0 0 1 -1.47-1.9 1.36 1.36 0 0 1 1.31-1.56c1.16 0 2.36 1.71 2.67 2.69 0 .06.14.62.22 1 0-.24 0-.49 0-.73 0-.87-.06-1.67-.11-2.38 0-.41-.08-.77-.12-1.11a9.34 9.34 0 0 1 -2.08-1.85 2.86 2.86 0 0 1 -.44-2.38 1.38 1.38 0 0 1 1.89-.77c1 .53 1.3 2.6 1.13 3.62 0 .09-.4 1.44-.42 1.43.05.32.09.67.13 1.06.07.71.14 1.51.17 2.39a25.13 25.13 0 0 1 -.07 2.84 18.08 18.08 0 0 1 -.53 3.14s0 0 0 0c.18-.28.72-1.07.77-1.12.67-.78 2.44-1.9 3.51-1.45a1.37 1.37 0 0 1 .6 1.95 2.83 2.83 0 0 1 -2.03 1.19z"/><path d="m670.28 430.86s-.37-1.35-.38-1.44c-.15-1 .18-3.09 1.22-3.59a1.37 1.37 0 0 1 1.87.83 2.87 2.87 0 0 1 -.5 2.36 9.73 9.73 0 0 1 -2.21 1.84z"/><path d="m144.72 148.56h-83.06a.5.5 0 0 1 -.49-.41.52.52 0 0 1 .31-.56c3.29-1.31 8.49-3.58 9.35-4.44a7 7 0 0 0 .89-1.41 12.32 12.32 0 0 1 7.16-6.57 10.63 10.63 0 0 1 7.32.06c1.55.48 1.7.42 1.89-.16.62-1.85 1.91-5.72 5.38-7.75a.49.49 0 0 1 .68.18.51.51 0 0 1 -.18.69c-3.14 1.83-4.35 5.46-4.93 7.2s-1.86 1.19-3.14.8a9.65 9.65 0 0 0 -6.69-.08 11.42 11.42 0 0 0 -6.61 6.11 7.51 7.51 0 0 1 -1.06 1.64c-.89.88-4.75 2.6-7.35 3.7h80.53a.5.5 0 0 1 0 1z"/><path d="m158.92 148.56h-10.07a.5.5 0 1 1 0-1h9.64c.26-1.8 1.07-9.06-2-12.84-1.54-1.88-4-1.64-6.56-1.39-3 .3-6.49.64-8-3.24-.56-.78-7.7-10.56-16.16-11.33-7.68-.7-11.42 4.45-14.14 8.21q-.6.82-1.14 1.53c-1.83 2.35-3.44 1.48-5.3.48a12.86 12.86 0 0 0 -6.69-1.98.5.5 0 0 1 0-1 14 14 0 0 1 7.16 2.06c1.87 1 2.72 1.47 4-.21.36-.46.73-1 1.12-1.51 2.86-3.95 6.8-9.36 15-8.62 9.23.84 16.6 11.36 16.91 11.81a.27.27 0 0 1 .06.1c1.21 3.23 3.88 3 7 2.67 2.73-.27 5.56-.55 7.43 1.75 3.83 4.67 2.25 13.68 2.18 14.06a.49.49 0 0 1 -.44.45z"/><path d="m107.19 144.83h-.06a.5.5 0 0 1 -.44-.55 6.94 6.94 0 0 1 2.08-4 .5.5 0 0 1 .68.73 6.09 6.09 0 0 0 -1.77 3.36.49.49 0 0 1 -.49.46z"/><path d="m118.65 140.4a12.23 12.23 0 0 1 -2.65-.4 8.18 8.18 0 0 0 -4.5-.16.5.5 0 0 1 -.63-.31.51.51 0 0 1 .32-.64 9 9 0 0 1 5 .14c1.79.4 3.33.75 4.73-.46 1-.82 1.27-2.43 1.6-4.14.55-2.88 1.23-6.45 5.73-6.73 6.78-.42 12.56 5.28 12.8 5.52a.5.5 0 0 1 0 .71.51.51 0 0 1 -.71 0c0-.06-5.72-5.64-12-5.24-3.73.24-4.25 3-4.81 5.92-.36 1.89-.7 3.67-1.93 4.72a4.24 4.24 0 0 1 -2.95 1.07z"/><path d="m360.67 53.24h-68.5a.51.51 0 0 1 -.49-.41.52.52 0 0 1 .31-.56c2.6-1 7-3 7.68-3.64a5.84 5.84 0 0 0 .72-1.15 10.26 10.26 0 0 1 5.95-5.48 8.79 8.79 0 0 1 6.09 0c1.3.4 1.33.32 1.46-.07.51-1.54 1.58-4.75 4.47-6.44a.51.51 0 0 1 .69.18.51.51 0 0 1 -.18.68c-2.57 1.5-3.56 4.47-4 5.89s-1.65 1-2.7.72a7.87 7.87 0 0 0 -5.46-.06 9.35 9.35 0 0 0 -5.41 5 6.1 6.1 0 0 1 -.89 1.38c-.69.69-3.57 2-5.69 2.9h66a.5.5 0 0 1 .5.5.5.5 0 0 1 -.55.56z"/><path d="m372.39 53.24h-8.3a.5.5 0 0 1 -.5-.5.5.5 0 0 1 .5-.5h7.91c.22-1.59.82-7.41-1.67-10.45-1.24-1.51-3.23-1.32-5.33-1.11-2.54.25-5.41.53-6.67-2.72-.5-.7-6.35-8.67-13.26-9.3-6.29-.57-9.35 3.65-11.59 6.73-.32.46-.64.89-.94 1.27-1.55 2-2.91 1.27-4.47.42a10.61 10.61 0 0 0 -5.48-1.59.5.5 0 0 1 0-1 11.63 11.63 0 0 1 5.95 1.71c1.54.83 2.18 1.18 3.21-.15.3-.38.6-.8.92-1.24 2.25-3.1 5.63-7.77 12.5-7.14 7.65.69 13.76 9.4 14 9.77a.27.27 0 0 1 .06.1c1 2.6 3.14 2.39 5.66 2.14 2.17-.21 4.63-.45 6.21 1.48 3.18 3.89 1.86 11.35 1.81 11.67a.5.5 0 0 1 -.52.41z"/><path d="m329.72 50.17h-.06a.5.5 0 0 1 -.44-.55 5.82 5.82 0 0 1 1.78-3.34.5.5 0 0 1 .69.73 4.82 4.82 0 0 0 -1.43 2.71.51.51 0 0 1 -.54.45z"/><path d="m339.18 46.51a10.73 10.73 0 0 1 -2.23-.33 6.68 6.68 0 0 0 -3.66-.14.5.5 0 0 1 -.63-.31.49.49 0 0 1 .32-.63 7.53 7.53 0 0 1 4.2.1c1.5.34 2.69.61 3.82-.35.77-.66 1-2 1.29-3.37.45-2.4 1-5.39 4.81-5.62 5.62-.37 10.42 4.38 10.62 4.58a.5.5 0 0 1 0 .71.51.51 0 0 1 -.71 0s-4.7-4.63-9.85-4.3c-3 .19-3.44 2.44-3.89 4.82-.3 1.57-.58 3-1.62 3.94a3.59 3.59 0 0 1 -2.47.9z"/><path d="m665.75 146.28h-68.5a.5.5 0 0 1 -.18-1c2.6-1 7-2.95 7.68-3.65a5.7 5.7 0 0 0 .72-1.14 10.27 10.27 0 0 1 5.95-5.46 8.83 8.83 0 0 1 6.09.05c1.3.4 1.32.31 1.45-.08.52-1.54 1.59-4.75 4.48-6.44a.49.49 0 0 1 .68.18.51.51 0 0 1 -.18.69c-2.56 1.5-3.55 4.46-4 5.89s-1.65 1-2.69.71a7.87 7.87 0 0 0 -5.46-.06 9.36 9.36 0 0 0 -5.41 5 6.12 6.12 0 0 1 -.89 1.37c-.7.69-3.57 2-5.69 2.9h66a.5.5 0 0 1 .5.5.5.5 0 0 1 -.55.54z"/><path d="m677.46 146.28h-8.29a.5.5 0 0 1 -.5-.5.5.5 0 0 1 .5-.5h7.83c.22-1.59.82-7.4-1.67-10.44-1.24-1.52-3.23-1.32-5.33-1.12-2.54.25-5.42.54-6.67-2.72-.5-.69-6.35-8.67-13.26-9.29-6.29-.58-9.35 3.64-11.59 6.73-.33.45-.64.88-.94 1.27-1.55 2-2.9 1.26-4.48.41a10.54 10.54 0 0 0 -5.47-1.59.5.5 0 0 1 -.5-.5.5.5 0 0 1 .5-.5 11.63 11.63 0 0 1 6 1.71c1.54.84 2.18 1.18 3.21-.15.3-.38.6-.8.92-1.24 2.25-3.09 5.66-7.76 12.49-7.14 7.66.7 13.77 9.4 14 9.77a.39.39 0 0 1 .06.11c1 2.6 3.14 2.38 5.66 2.14 2.17-.21 4.63-.46 6.2 1.47 3.19 3.89 1.87 11.36 1.82 11.67a.5.5 0 0 1 -.49.41z"/><path d="m634.8 143.21h-.06a.5.5 0 0 1 -.44-.55 5.86 5.86 0 0 1 1.74-3.34.5.5 0 0 1 .71 0 .48.48 0 0 1 0 .7 4.86 4.86 0 0 0 -1.42 2.72.51.51 0 0 1 -.53.47z"/><path d="m644.25 139.56a10 10 0 0 1 -2.22-.34 6.59 6.59 0 0 0 -3.66-.13.5.5 0 0 1 -.32-1 7.52 7.52 0 0 1 4.2.11c1.51.34 2.7.61 3.83-.36.77-.66 1-2 1.29-3.37.45-2.4 1-5.38 4.8-5.62 5.64-.36 10.43 4.38 10.63 4.58a.51.51 0 0 1 0 .71.5.5 0 0 1 -.71 0c0-.05-4.67-4.62-9.85-4.29-3 .19-3.44 2.43-3.89 4.81-.3 1.57-.58 3-1.62 3.94a3.63 3.63 0 0 1 -2.48.96z"/><path d="m598.85 271.14-22.33-50.69-60.4 26.61-14.29-32.45-7.28-156.93 44.19-19.47 59.43 134.91 19.15-8.43 13.94 31.64-19.15 8.44 22.34 50.69zm-66.72-68.92 30.44-13.42-40.64-92.26z"/><path d="m598.59 271.8-22.33-50.69-60.39 26.61-14.54-33.09-7.33-157.27 45-19.81.21.46 59.23 134.45 19.14-8.46 14.34 32.56-19.15 8.44 22.34 50.69zm-21.82-52 .2.46 22.13 50.24 34.69-15.28-22.33-50.7 19.14-8.43-13.54-30.74-19.14 8.44-.21-.46-59.23-134.46-43.42 19.13 7.26 156.49 14.06 31.91zm-45.07-16.8-10.57-109.51 42.1 95.57zm-9-103.36 9.84 101.89 29.35-12.93z"/></g><path d="m594 273.35-22.33-50.69-60.4 26.6-14.27-32.45-7.3-156.93 44.19-19.46 59.43 134.91 19.15-8.44 13.94 31.65-19.14 8.46 22.33 50.7zm-66.72-68.93 30.44-13.42-40.64-92.26z" fill="#92e3a9"/><path d="m593.74 274-22.33-50.69-60.41 26.61-14.54-33.09-7.3-157.27 45-19.8.21.45 59.23 134.46 19.15-8.44 14.34 32.56-19.15 8.44 22.34 50.69zm-21.82-52 .2.46 22.13 50.23 34.69-15.28-22.33-50.69 19.15-8.44-13.54-30.73-19.15 8.45-.21-.45-59.23-134.47-43.42 19.12 7.26 156.49 14.06 31.91zm-45.07-16.84-10.57-109.46 42.1 95.56zm-9-103.37 9.84 101.89 29.35-12.93z" fill="#263238"/><path d="m534.59 299s-3.56 23.79-2.22 31.8 19.12 43.58 19.12 43.58v4.89l-13.57 6.67 4 9.11 5.56-1.33-5.34 25.35 11.56 2.44 14.9-32.46s25.79-8 26.23-10-4.22-32.91-4.22-32.91-5.78-28-9.56-37.35a186.23 186.23 0 0 0 -8.44-17.79z" fill="#263238"/><path d="m554 422.08-12.44-2.63 5.27-25.06-5.19 1.25-4.37-9.94 13.73-6.7v-4.47c-1.27-2.53-17.81-35.76-19.12-43.61s2.08-31 2.23-31.95v-.34l.34-.08 38.38-8.08.18.33a190.81 190.81 0 0 1 8.47 17.84c3.76 9.27 9.53 37.16 9.59 37.44.48 3.2 4.67 31.08 4.22 33.11s-18.37 7.81-26.29 10.27zm-11.26-3.4 10.68 2.26 14.83-32.3.21-.07c12-3.73 25.2-8.39 25.91-9.67.3-1.36-2.37-20.3-4.24-32.69-.06-.25-5.82-28-9.54-37.24a187.91 187.91 0 0 0 -8.24-17.41l-37.35 7.86c-.42 2.95-3.39 24-2.17 31.3 1.31 7.83 18.9 43.08 19.07 43.43l.06.11v5.32l-13.41 6.59 3.64 8.3 5.92-1.42z" fill="#263238"/><path d="m553.92 379.5-.42-.91 16.47-7.58-13.52-34.91-8.66-2.6.28-.96 9.13 2.74 14.04 36.24z" fill="#fff"/><path d="m550.66 391.22h15.65v1h-15.65z" fill="#fff" transform="matrix(.97995949 -.1991969 .1991969 .97995949 -66.81 119.05)"/><path d="m521.83 240.58-12.42 9.69-3-6-8.28 4.65s-.31 26.25 1.91 27.31 29.47-15 29.47-15 1.82 28.89 1.37 33.21 2.5 6.37 4.55 6.14 40.71-5.23 41.62-6.36a8.59 8.59 0 0 0 1.37-5.92c-.46-1.82-8.87-33.44-8.87-33.44s23 3.64 23.88 1.6 7.73-21.61 7.73-21.61l-11.6-2.73-4.32 6.59s-24.79-10.23-32.75-10.23-28.16 10.28-30.66 12.1z" fill="#fff"/><path d="m535.15 301.15a4.46 4.46 0 0 1 -3.09-1.37 6.39 6.39 0 0 1 -1.63-5.34c.4-3.83-1-27.6-1.32-32.31-7.15 4.18-27 15.6-29.23 14.55s-2.27-21.53-2.2-27.76v-.29l9-5.06 2.91 5.93 11.95-9.32c2.59-1.89 23-12.15 31-12.15 7.52 0 29.28 8.77 32.56 10.12l4.29-6.55 12.48 2.94-.18.52c-.28.8-6.85 19.61-7.75 21.65s-16.28 0-23.66-1.18c1.27 4.78 8.26 31 8.67 32.7a9 9 0 0 1 -1.46 6.35c-1.14 1.43-41.56 6.51-42 6.55a2.36 2.36 0 0 1 -.34.02zm-5.15-40.71v.81c.08 1.18 1.82 29 1.36 33.3a5.44 5.44 0 0 0 1.35 4.52 3.38 3.38 0 0 0 2.65 1.07c2.91-.33 39.58-5.13 41.35-6.25a8.12 8.12 0 0 0 1.21-5.42c-.45-1.79-8.78-33.11-8.87-33.43l-.19-.74.75.12c10.74 1.7 22.42 2.86 23.37 1.85.79-1.79 6.43-17.88 7.52-21l-10.72-2.53-4.36 6.65-.38-.15c-.25-.11-24.79-10.2-32.56-10.2s-27.77 10.07-30.35 11.96l-12.9 10.07-3-6.09-7.57 4.26c-.14 12.43.43 25.7 1.64 26.56 1.54.47 16.09-7.36 29-14.93z" fill="#263238"/><path d="m587.72 236.79h1v6.32h-1z" fill="#263238" transform="matrix(.37541557 -.9268566 .9268566 .37541557 144.98 695.06)"/><path d="m554.16 257.73-.15-.99 12.08-1.8-10.73-1.48.14-.99 17.61 2.42z" fill="#263238"/><path d="m499.87 259h2.85v1h-2.85z" fill="#263238" transform="matrix(.66065702 -.75068789 .75068789 .66065702 -24.71 464.33)"/><path d="m502.79 252.77h7.97v1h-7.97z" fill="#263238" transform="matrix(.66065702 -.75068789 .75068789 .66065702 -18.17 466.33)"/><path d="m542 292-.56-.83c6.4-4.29 16.25-17.53 21.56-25l.81.57c-5.32 7.53-15.26 20.88-21.81 25.26z" fill="#263238"/><path d="m565.3 264.61-.83-.57c.9-1.29 1.42-2.07 1.42-2.07l.83.56s-.52.78-1.42 2.08z" fill="#263238"/><path d="m538 292.47-.6-.8a37.06 37.06 0 0 0 4.08-3.76l.72.69a37.36 37.36 0 0 1 -4.2 3.87z" fill="#263238"/><path d="m543.56 287.16-.73-.68c3.93-4.28 7.77-9.21 7.8-9.26l.8.61c-.04.05-3.9 5.02-7.87 9.33z" fill="#263238"/><path d="m498.18 248.92-1.1-24.92s-4.47-8.55-4.57-9.22a91.57 91.57 0 0 1 2.16-10.43c.48-1.45 3 0 4.29 2.59s.66 6.11.66 6.11 2.94 4.4 3.46 6.39a10.72 10.72 0 0 1 -.44 4.9l3.82 19.9z" fill="#fff"/><path d="m497.71 249.76-1.13-25.6c-1.11-2.13-4.46-8.59-4.56-9.28-.13-.85 1.77-9.44 2.18-10.66a1.26 1.26 0 0 1 1.13-.91c1.26-.09 3.06 1.42 4.07 3.44a11.45 11.45 0 0 1 .74 6.22c.55.83 2.94 4.53 3.42 6.38a10.78 10.78 0 0 1 -.4 5.05l3.84 20.13zm-2.26-45.45h-.05c-.12 0-.2.05-.26.23a96.94 96.94 0 0 0 -2.14 10.21c.13.55 2.84 5.85 4.51 9.05l.06.21 1.06 24.08 7.27-4.08-3.78-19.68v-.12a10.23 10.23 0 0 0 .42-4.61c-.49-1.89-3.36-6.2-3.39-6.24l-.11-.17v-.19s.58-3.42-.62-5.8c-.83-1.82-2.29-2.89-2.97-2.89z" fill="#263238"/><path d="m497.66 214.2-1-.13c.16-1.18-.81-5.15-1.28-7-.1-.43-.18-.78-.24-1a1.78 1.78 0 0 1 .21-1.37 2.26 2.26 0 0 1 1.32-.9l.22 1-.11-.49.11.49a.88.88 0 0 0 -.77 1.07c.05.23.13.57.24 1 .72 2.84 1.47 6.07 1.3 7.33z" fill="#263238"/><path d="m589.61 231.1s17.27-29.34 18.85-30.19 13.67-.53 13.67-.53 4.66-6.46 5.29-5.72l.64.75s1.69-1 2.22-.43l.53.53s1.17-.95 1.8-.63.64 1.27.64 1.27 1.27-.74 1 .63-4.24 8.16-5.82 9.11-17.8 1-17.8 1l-8.79 26.06z" fill="#fff"/><path d="m602.13 233.45-13.32-2 .37-.64c2.9-4.92 17.42-29.5 19.05-30.37s11.57-.64 13.65-.59c1.62-2.24 4.32-5.73 5.37-5.77a.65.65 0 0 1 .55.23l.38.44c.67-.32 1.85-.75 2.46-.15l.22.23a2.17 2.17 0 0 1 2-.43 1.64 1.64 0 0 1 .8 1 1 1 0 0 1 .76.14c.33.24.43.68.29 1.29-.35 1.53-4.35 8.39-6.06 9.42-1.56.94-14.29 1-17.69 1zm-11.71-2.74 11 1.63 8.77-26h.36c6.21 0 16.47-.24 17.54-.88 1.44-.86 5.3-7.51 5.59-8.79 0-.08 0-.15 0-.2a1.17 1.17 0 0 0 -.25.11l-.75.44v-.87c0-.17-.07-.68-.36-.83s-.8.2-1.26.58l-.35.28-.85-.84a3 3 0 0 0 -1.63.5l-.35.2-.76-.88c-.76.47-2.93 3.13-4.66 5.52l-.15.21h-.27c-4.61-.12-12.34-.1-13.41.47-1.14.83-11.38 17.77-18.21 29.35z" fill="#263238"/><path d="m623.51 204-.65-.75c.56-.5 3.22-5.24 4.76-8.12l.88.47c-.68 1.31-4.11 7.68-4.99 8.4z" fill="#263238"/><path d="m623.13 199.57h10.38v1h-10.38z" fill="#263238" transform="matrix(.47976416 -.87739749 .87739749 .47976416 151.35 655.38)"/><path d="m626.19 199.67h9.35v1h-9.35z" fill="#263238" transform="matrix(.50934184 -.86056429 .86056429 .50934184 137.29 641.13)"/><path d="m495.25 247.74 2.43 7.23 12.52-8.72-3.01-6.46z" fill="#fff"/><path d="m497.42 255.76-2.77-8.22 12.75-8.49 3.43 7.37zm-1.58-7.76 2.1 6.23 11.63-8.1-2.57-5.6z" fill="#263238"/><path d="m570.28 202.14a32.25 32.25 0 0 1 -1.14 8.19c-1.14 3.64 2.05 6.82 1.14 8a17.55 17.55 0 0 1 -3.87 2.73s-1.36 6.14-3.64 7-8.64-1.82-8.64-1.82-5.69-7.28-1.82-13.64 17.97-10.46 17.97-10.46z" fill="#fff"/><path d="m561.57 228.76c-2.78 0-7.07-1.81-7.64-2l-.12-.05-.07-.1c-.25-.31-5.86-7.63-1.86-14.21s17.68-10.52 18.26-10.69l.64-.18v.66a32.29 32.29 0 0 1 -1.16 8.34c-.61 1.94.13 3.76.72 5.23.5 1.22.89 2.19.33 2.89a16.34 16.34 0 0 1 -3.82 2.75c-.3 1.25-1.62 6.28-3.89 7.19a3.86 3.86 0 0 1 -1.39.17zm-7.12-2.91c1.81.76 6.47 2.43 8.14 1.76s3-5.06 3.33-6.7l.05-.22.2-.11a16.27 16.27 0 0 0 3.72-2.6c.2-.25-.16-1.13-.47-1.9-.62-1.53-1.47-3.62-.76-5.9a30.31 30.31 0 0 0 1.1-7.35c-2.8.89-13.77 4.68-17 10-3.43 5.64 1.05 12.17 1.69 13.02z" fill="#263238"/><path d="m566.18 213.42c-.27.85-.77 1.44-1.11 1.33s-.41-.88-.14-1.73.77-1.44 1.11-1.33.41.89.14 1.73z" fill="#263238"/><path d="m564.69 209.42-.82-.58a3 3 0 0 1 4-.9l-.5.87a2 2 0 0 0 -2.68.61z" fill="#263238"/><path d="m564.85 221.9a4.87 4.87 0 0 1 -4.38-3.29l1-.27a3.85 3.85 0 0 0 3.5 2.56z" fill="#263238"/><path d="m575.06 191.45s2.5 5.92-.46 9.78-10.46 4.1-15 10-2.73 13.65-1.59 16.15-.69 12.06-3.87 13.42-8.42 2.28-7 5.46 2.95 8.64 1.59 11.37-10 7.51-16.83 5-6.6-7.51-4.78-10.92-1.82-1.82-5.69-7.28-8.64-15-2.5-19.79 10.92-6.37 11.38-10.92-1.89-15.35 4-19.9 9.26-3.47 9.26-3.47 5.59-6.2 11.74-6.2 8.64 3.87 8.64 3.87 7.69-6.12 11.11 3.43z" fill="#263238"/><path d="m536 263.85a12.48 12.48 0 0 1 -4.31-.73c-3-1.1-4.94-2.76-5.77-4.92a8.31 8.31 0 0 1 .72-6.71c.77-1.43.55-1.56-.85-2.4a14.26 14.26 0 0 1 -4.8-4.35c-2.4-3.38-9.64-14.84-2.4-20.47 1.72-1.34 3.34-2.44 4.76-3.4 3.68-2.48 6.11-4.13 6.42-7.18a36 36 0 0 0 0-4.16c-.19-5.27-.46-12.48 4.23-16.09 5.08-3.91 8.38-3.79 9.39-3.62 1.08-1.13 6.2-6.15 11.91-6.15a11 11 0 0 1 8.74 3.68c1-.71 3.86-2.34 6.69-1.54 2.12.61 3.74 2.45 4.82 5.46.17.4 2.53 6.27-.52 10.27-1.4 1.83-3.74 2.88-6.22 4-3 1.33-6.36 2.85-8.8 6-4.43 5.76-2.54 13.41-1.53 15.63.81 1.78.3 6.45-1.07 10-.59 1.52-1.6 3.47-3 4.09-.67.29-1.43.55-2.16.81-2 .7-4.18 1.48-4.7 2.66a1.61 1.61 0 0 0 .07 1.33c1.59 3.72 3 9 1.58 11.8-1.2 2.3-7.2 5.99-13.2 5.99zm6.57-73.09c-1.29 0-4 .45-8 3.48-4.28 3.29-4 10.2-3.84 15.25a33.94 33.94 0 0 1 0 4.3c-.35 3.52-3.07 5.36-6.85 7.91-1.41 1-3 2-4.71 3.36-6.54 5.08.34 15.91 2.6 19.1a13.16 13.16 0 0 0 4.5 4.07c1.41.85 2.44 1.46 1.22 3.73a7.28 7.28 0 0 0 -.66 5.88c.72 1.88 2.46 3.34 5.17 4.34 6.5 2.38 14.94-2.21 16.21-4.76 1.15-2.3 0-7.16-1.6-11a2.61 2.61 0 0 1 -.07-2.13c.69-1.58 3-2.4 5.28-3.2.76-.27 1.47-.52 2.1-.79.89-.38 1.78-1.63 2.51-3.53 1.37-3.54 1.72-7.86 1.1-9.22-1.15-2.54-3.11-10.48 1.65-16.66 2.59-3.37 6.09-4.94 9.18-6.32 2.46-1.11 4.59-2.06 5.83-3.69 2.75-3.59.42-9.23.39-9.28-1-2.7-2.37-4.33-4.16-4.84-3-.86-6.18 1.63-6.21 1.65l-.43.34-.3-.46c-.1-.15-2.45-3.64-8.22-3.64s-11.31 6-11.36 6l-.22.24-.31-.1a3.55 3.55 0 0 0 -.82-.03z" fill="#263238"/><path d="m588.7 228.53-2.04 5.23 14.78 5.23 2.05-8.19z" fill="#fff"/><path d="m601.79 239.65-15.79-5.59 2.38-6.09 15.73 2.42zm-14.48-6.19 13.78 4.88 1.78-7.13-13.87-2.13z" fill="#263238"/><path d="m537.92 385.94s-29.23 10.25-28.87 12.36 7.22 20.62 10 23.62 4.06 4.76 4.58 2.29-.17-5.46-.17-6.7 1.41-15.33 1.94-16 16.49-6.43 16.49-6.43z" fill="#fff"/><path d="m522.88 425.88c-.81 0-1.7-1-3.19-2.58l-1-1c-2.91-3.09-9.85-21.89-10.18-23.87-.1-.65-.28-1.73 14.62-7.53 7.19-2.8 14.52-5.37 14.59-5.39l.44-.16 4.4 10-.5.18c-5.93 2.13-15.59 5.71-16.3 6.3-.42.91-1.8 14.49-1.8 15.69 0 .34.06.86.13 1.45a16.76 16.76 0 0 1 0 5.35c-.13.62-.36 1.36-1 1.53a.84.84 0 0 1 -.21.03zm-13.33-27.59c.46 2.26 7.21 20.42 9.91 23.29l1 1c.94 1 2.1 2.32 2.46 2.26 0 0 .15-.1.29-.77a15.94 15.94 0 0 0 0-5 13.81 13.81 0 0 1 -.14-1.57c0-.87 1.33-15.4 2-16.33.52-.7 10.15-4.24 16.21-6.42l-3.6-8.2c-13.16 4.63-27.27 10.24-28.13 11.74z" fill="#263238"/><path d="m520.68 402.89-3.28-9.16c-4.78 2-8.48 3.82-8.35 4.57.35 2.12 7.22 20.62 10 23.62s4.06 4.76 4.58 2.29-.17-5.46-.17-6.7 1.41-15.33 1.94-16z" fill="#fff"/><path d="m522.88 425.88c-.81 0-1.7-1-3.19-2.58l-1-1c-2.91-3.09-9.85-21.89-10.18-23.87-.09-.56-.23-1.4 8.65-5.12l.49-.21 3.3 9.21 5.75-1.7-.9 1.21c-.46 1-1.84 14.53-1.84 15.73 0 .34.06.85.13 1.45a16.76 16.76 0 0 1 0 5.35c-.13.62-.36 1.36-1 1.53a.84.84 0 0 1 -.21 0zm-13.33-27.59c.46 2.26 7.21 20.42 9.91 23.29l1 1c.94 1 2.1 2.32 2.46 2.26 0 0 .15-.1.29-.77a15.94 15.94 0 0 0 0-5 13.81 13.81 0 0 1 -.14-1.57c0-.75 1-11.77 1.73-15.3l-4.36 1.29-3.27-9.11c-6.39 2.69-7.45 3.62-7.62 3.91z" fill="#263238"/><path d="m542.15 419.07s-8.35 28.77-8.08 30.34 8.23 4 11.28 4.91 10.81.56 12.88-.28 3.37-2.5 1.74-3.11-6.11-1.73-6.11-1.73l-6.54-8.6 6.39-19.09z" fill="#fff"/><path d="m550.87 455.34a23 23 0 0 1 -5.65-.54c-4.21-1.19-11.32-3.47-11.64-5.3-.28-1.61 6.69-25.75 8.09-30.57l.13-.45 12.56 2.66-6.49 19.37 6.28 8.24c.85.22 4.52 1.17 6 1.71a1.38 1.38 0 0 1 1.05 1.28c0 1.12-1.39 2.2-2.79 2.77a26.59 26.59 0 0 1 -7.54.83zm-8.37-35.69c-3.3 11.39-8 28.38-7.94 29.68.13.73 4.25 2.62 10.93 4.51 3 .84 10.54.55 12.55-.26 1.42-.58 2.17-1.43 2.16-1.83 0-.13-.13-.25-.4-.35-1.59-.59-6-1.71-6.06-1.72h-.17l-6.81-8.95.08-.25 6.22-18.56z" fill="#263238"/><path d="m560 450.93c-1.63-.6-6.11-1.73-6.11-1.73l-6.54-8.6-1.52 4-10-3.17c-1.07 4.53-1.86 7.47-1.77 8 .28 1.57 8.23 4 11.28 4.91s10.81.56 12.88-.28 3.38-2.52 1.78-3.13z" fill="#fff"/><path d="m550.87 455.34a23 23 0 0 1 -5.65-.54c-4.21-1.19-11.32-3.47-11.64-5.3-.08-.48.2-1.68 1-5.1.22-.92.48-2 .75-3.11l.12-.53 10 3.2 1.67-4.38 7 9.17c.85.22 4.52 1.17 6 1.71a1.38 1.38 0 0 1 1.05 1.28c0 1.12-1.39 2.2-2.79 2.77a26.59 26.59 0 0 1 -7.51.83zm-14.66-13.29-.63 2.59a40.66 40.66 0 0 0 -1 4.69c.13.73 4.25 2.62 10.93 4.51 3 .84 10.54.55 12.55-.26 1.42-.58 2.17-1.43 2.16-1.83 0-.13-.13-.25-.4-.35-1.59-.59-6-1.71-6.06-1.72h-.17l-6.11-8-1.36 3.58z" fill="#263238"/><path d="m409.17 315.3q-19.26 3.54-33.51-2.77a53.47 53.47 0 0 1 -23.38-20.28q-9.12-14-12.78-33.85l-19.28-104.63q-3.77-20.46-.54-37t14.32-27.52q11.07-11 30.86-14.63 19.52-3.59 33.65 2.74t23 20.65q8.91 14.3 12.68 34.76l19.28 104.63q3.66 19.89.12 36.19a53.43 53.43 0 0 1 -14.59 27.28q-11.1 10.98-29.83 14.43zm-7.17-39.2q7.13-1.32 9.39-6.8a30.08 30.08 0 0 0 2.07-12.45 84.59 84.59 0 0 0 -1.25-12.73l-19-102.9a103 103 0 0 0 -3.36-13.09 30.2 30.2 0 0 0 -6.3-11.21q-4.1-4.45-11.48-3.1t-9.76 7a28.82 28.82 0 0 0 -2 12.74 100.89 100.89 0 0 0 1.5 13.44l18.95 102.9a84 84 0 0 0 3.36 12.35 27.88 27.88 0 0 0 6.64 10.84q4.34 4.28 11.24 3.01z" fill="#263238"/><path d="m396 317.06a50.41 50.41 0 0 1 -20.55-4.06 54.25 54.25 0 0 1 -23.59-20.47c-6.09-9.32-10.41-20.77-12.85-34l-19.28-104.67c-2.51-13.65-2.69-26.16-.54-37.19a52.4 52.4 0 0 1 14.44-27.78c7.42-7.36 17.89-12.32 31.12-14.76 13.06-2.4 24.47-1.47 33.94 2.78s17.31 11.26 23.31 20.83 10.23 21.31 12.74 34.94l19.26 104.63c2.45 13.26 2.49 25.51.12 36.39a54.2 54.2 0 0 1 -14.75 27.52c-7.42 7.36-17.54 12.26-30.07 14.57a73.19 73.19 0 0 1 -13.3 1.27zm-17.78-243.23a74 74 0 0 0 -13.29 1.28c-13 2.4-23.32 7.28-30.6 14.49a51.46 51.46 0 0 0 -14.16 27.26c-2.13 10.91-1.94 23.29.55 36.82l19.28 104.63c2.42 13.13 6.69 24.46 12.71 33.67a53.26 53.26 0 0 0 23.16 20.09c9.36 4.15 20.54 5.07 33.22 2.74 12.33-2.28 22.27-7.08 29.54-14.3a53.17 53.17 0 0 0 14.48-27c2.34-10.75 2.3-22.86-.12-36l-19.28-104.65c-2.49-13.51-6.73-25.15-12.61-34.59a51.8 51.8 0 0 0 -22.82-20.45 48.54 48.54 0 0 0 -20.06-3.99zm20.78 203.05a11.7 11.7 0 0 1 -8.55-3.43 28.46 28.46 0 0 1 -6.76-11 84.33 84.33 0 0 1 -3.42-12.45l-19-102.9a103 103 0 0 1 -1.52-13.49 29.5 29.5 0 0 1 2-13c1.64-3.91 5.05-6.37 10.13-7.31s9.1.16 11.94 3.25a30.77 30.77 0 0 1 6.4 11.4 101.49 101.49 0 0 1 3.38 13.15l19 102.9a85.11 85.11 0 0 1 1.26 12.81 30.71 30.71 0 0 1 -2.11 12.65c-1.57 3.81-4.85 6.2-9.76 7.1a16.75 16.75 0 0 1 -2.99.32zm-23.7-162.88a17.71 17.71 0 0 0 -3.15.3c-4.72.87-7.88 3.13-9.39 6.72a28.41 28.41 0 0 0 -2 12.52 99.15 99.15 0 0 0 1.51 13.36l18.95 102.9a82.42 82.42 0 0 0 3.35 12.27 27.5 27.5 0 0 0 6.51 10.66c2.79 2.75 6.3 3.68 10.75 2.87 4.62-.85 7.56-3 9-6.5a30 30 0 0 0 2-12.24 83.1 83.1 0 0 0 -1.25-12.66l-19-102.9a102.81 102.81 0 0 0 -3.35-13 29.64 29.64 0 0 0 -6.19-11 10.2 10.2 0 0 0 -7.74-3.3z" fill="#263238"/><path d="m403.44 316.62q-19.26 3.56-33.52-2.77a53.5 53.5 0 0 1 -23.37-20.28q-9.12-14-12.78-33.85l-19.28-104.63q-3.76-20.46-.54-37t14.3-27.52q11.07-11 30.86-14.63 19.51-3.59 33.65 2.75t23 20.64q8.91 14.31 12.68 34.77l19.27 104.62q3.66 19.89.12 36.19a53.46 53.46 0 0 1 -14.62 27.28q-11.04 10.98-29.77 14.43zm-7.22-39.2q7.13-1.31 9.39-6.79a30.16 30.16 0 0 0 2.07-12.46 83.25 83.25 0 0 0 -1.26-12.73l-18.95-102.9a101.82 101.82 0 0 0 -3.37-13.09 30.13 30.13 0 0 0 -6.29-11.21q-4.1-4.45-11.48-3.1t-9.76 7a28.94 28.94 0 0 0 -2 12.74 104.72 104.72 0 0 0 1.52 13.43l19 102.89a83.71 83.71 0 0 0 3.36 12.35 27.92 27.92 0 0 0 6.55 10.87q4.35 4.26 11.22 3z" fill="#92e3a9"/><path d="m390.28 318.39a50.25 50.25 0 0 1 -20.56-4.08 54.17 54.17 0 0 1 -23.59-20.46c-6.09-9.33-10.41-20.78-12.86-34l-19.27-104.67c-2.51-13.64-2.69-26.16-.54-37.19a52.4 52.4 0 0 1 14.44-27.78c7.42-7.35 17.89-12.32 31.12-14.76 13.05-2.4 24.47-1.47 33.94 2.78a52.73 52.73 0 0 1 23.25 20.83c6 9.55 10.24 21.31 12.75 34.94l19.27 104.63c2.45 13.27 2.48 25.51.12 36.39a54.2 54.2 0 0 1 -14.75 27.52c-7.42 7.36-17.54 12.26-30.07 14.57a73.24 73.24 0 0 1 -13.25 1.28zm-17.79-243.24a73.15 73.15 0 0 0 -13.29 1.29c-13 2.4-23.33 7.27-30.6 14.48a51.46 51.46 0 0 0 -14.16 27.26c-2.13 10.91-1.95 23.3.54 36.82l19.28 104.63c2.42 13.13 6.69 24.46 12.71 33.67a53.23 53.23 0 0 0 23.16 20.1c9.36 4.14 20.54 5.06 33.22 2.73 12.33-2.27 22.27-7.08 29.54-14.3a53.17 53.17 0 0 0 14.48-27c2.34-10.75 2.3-22.85-.12-36l-19.25-104.64c-2.49-13.52-6.74-25.15-12.61-34.6s-13.54-16.28-22.82-20.45a48.71 48.71 0 0 0 -20.08-3.99zm20.74 203.06a11.71 11.71 0 0 1 -8.55-3.44 28.39 28.39 0 0 1 -6.76-11 83.89 83.89 0 0 1 -3.38-12.41l-19-102.9a103.13 103.13 0 0 1 -1.52-13.5 29.5 29.5 0 0 1 2.05-13c1.64-3.91 5.05-6.37 10.13-7.31s9.1.16 11.94 3.26a30.86 30.86 0 0 1 6.4 11.39 102.71 102.71 0 0 1 3.46 13.15l19 102.9a85.24 85.24 0 0 1 1.26 12.81 30.76 30.76 0 0 1 -2.11 12.66c-1.57 3.8-4.85 6.19-9.76 7.09a16.8 16.8 0 0 1 -3.16.3zm-23.66-162.88a16.79 16.79 0 0 0 -3.15.31c-4.73.87-7.88 3.13-9.39 6.71a28.55 28.55 0 0 0 -2 12.52 100.76 100.76 0 0 0 1.52 13.36l18.95 102.9a83.21 83.21 0 0 0 3.34 12.27 27.45 27.45 0 0 0 6.52 10.66c2.79 2.75 6.3 3.69 10.75 2.87 4.61-.85 7.56-3 9-6.5a29.73 29.73 0 0 0 2-12.24 83.1 83.1 0 0 0 -1.25-12.66l-18.86-102.9a102.37 102.37 0 0 0 -3.35-13 29.8 29.8 0 0 0 -6.19-11 10.21 10.21 0 0 0 -7.89-3.3z" fill="#263238"/><path d="m339.46 184.69s8.84 7.92 10.13 7.92 2.58-3.87 4.61-1.11 0 5.9 0 5.9 8.11 8.85 6.82 10.51-7.37 5.16-7.37 5.16l-1.29 15.48-16.59-4.61-.18-5.71-8.67-5.72s-4.6-7.74-1.47-15.29 14.01-12.53 14.01-12.53z" fill="#fff"/><path d="m352.81 229.19-17.53-4.87-.18-5.82-8.55-5.63-.06-.1c-.19-.32-4.69-8-1.5-15.74s13.81-12.59 14.26-12.8l.3-.14.24.22c4.18 3.75 9 7.69 9.82 7.8.21 0 .64-.44 1-.79.63-.64 1.33-1.37 2.26-1.31a2.49 2.49 0 0 1 1.75 1.2 5.76 5.76 0 0 1 .22 6.12c2.62 2.9 7.95 9.14 6.59 10.88-1.2 1.55-6.15 4.49-7.29 5.16zm-16.55-5.63 15.65 4.35 1.26-15.15.23-.13c1.67-1 6.22-3.73 7.23-5 .54-.71-2.63-5.31-6.8-9.86l-.26-.28.21-.33c.08-.11 1.81-2.88 0-5.33-.37-.5-.71-.77-1-.79s-1 .52-1.47 1-1.06 1.1-1.72 1.1c-1.29 0-7.39-5.3-10.22-7.83-1.74.86-10.72 5.53-13.46 12.13-2.81 6.79.89 13.85 1.39 14.75l8.78 5.79z" fill="#263238"/><path d="m339.46 184.69s-8.67 7.55-7.74 8.47 5.53 2.21 4.79 3.5-2.77 5.35-2.77 5.35 3.69 2 3.51 3.13-1.11 2.21-1.66 2-5.9-2-6.45.92 1.84 5.71 3.87 6.64 5.34-1.11 5.34-1.11-2.21 4.42-2.76 4.61-10.51-4.24-14.38-5.9-7.37-4.05-6.45-8.11 2-9.21 5.53-12.16a71.19 71.19 0 0 0 6.45-6.27s-5-2.76-1.29-4.24a11.58 11.58 0 0 1 7.56 0s-1.29-4.05 2-3.31 4.99 2.97 4.45 6.48z" fill="#263238"/><path d="m335.57 218.73c-.62 0-2.56-.73-11.83-4.76l-2.74-1.18c-3.4-1.46-7.81-3.95-6.74-8.68l.07-.27c.92-4.09 2.08-9.17 5.63-12.16a70.59 70.59 0 0 0 6-5.78c-.87-.57-2.45-1.78-2.37-3.05.05-.74.61-1.34 1.67-1.76a11.71 11.71 0 0 1 7.07-.27 3.18 3.18 0 0 1 .48-2.59 2.31 2.31 0 0 1 2.33-.48c3.69.82 5.4 3.31 4.81 7v.18l-.13.12c-3.52 3.07-7.34 6.85-7.63 7.83a12.08 12.08 0 0 0 1.72.92c1.74.82 2.9 1.42 3.16 2.25a1 1 0 0 1 -.1.85c-.58 1-2 3.83-2.54 4.9 1.33.77 3.53 2.24 3.34 3.41a3.53 3.53 0 0 1 -1.41 2.28 1 1 0 0 1 -.9.14c-2.34-.78-4.26-.92-5.17-.39a1.3 1.3 0 0 0 -.63.93c-.5 2.68 1.76 5.26 3.58 6.09 1.46.66 4-.55 4.88-1.08l1.49-.9-.78 1.55c-2.31 4.61-2.87 4.8-3.06 4.86a.4.4 0 0 1 -.2.04zm-6.57-37.33a9 9 0 0 0 -3.4.62c-.47.18-1 .49-1.05.9 0 .73 1.37 1.87 2.39 2.43l.55.31-.42.46a71 71 0 0 1 -6.5 6.32c-3.29 2.77-4.41 7.68-5.3 11.62l-.06.27c-.69 3 1.26 5.44 6.16 7.54l2.73 1.18c3.6 1.57 10.22 4.44 11.32 4.67a23 23 0 0 0 1.74-3c-1.23.52-3 1-4.4.42-2-.93-4.78-3.85-4.16-7.18a2.3 2.3 0 0 1 1.11-1.61c1.61-.94 4.43-.22 6 .3a2.28 2.28 0 0 0 1-1.63c0-.4-1.54-1.67-3.25-2.61l-.42-.23.22-.43c.08-.17 2-4.09 2.77-5.37-.14-.53-1.69-1.27-2.62-1.71a8.86 8.86 0 0 1 -2.09-1.19.78.78 0 0 1 -.21-.58c.05-1.56 5.84-6.76 7.84-8.51.42-3.05-1-5-4.06-5.71-.67-.15-1.13-.08-1.38.19-.52.57-.22 2-.07 2.49l.32 1-1-.37a12 12 0 0 0 -3.76-.59z" fill="#263238"/><path d="m353.65 213.07-5.9 3.31 5.16 3.69z" fill="#263238"/><path d="m353.32 221-6.5-4.65 7.43-4.17zm-4.64-4.54 3.82 2.73.55-5.19z" fill="#263238"/><path d="m338.59 194.14a3.47 3.47 0 0 1 .78-2.81 4.49 4.49 0 0 1 3-1.25v1a3.48 3.48 0 0 0 -2.3.93 2.5 2.5 0 0 0 -.52 2z" fill="#263238"/><path d="m346.56 195.08c.67.83.8 1.84.29 2.26s-1.48.08-2.15-.75-.8-1.84-.29-2.26 1.48-.08 2.15.75z" fill="#263238"/><path d="m325.91 432.21s.91 9.1 1.82 10.47 9.55 5.68 11.37 7.5-2.28 3.19-4.32 4.1-4.33.68-8.42-.46-8-4.55-10.46-5.68-8.87-3.19-8.42-4.78 8.42-14.56 8.42-14.56z" fill="#fff"/><path d="m332 455.34a22.18 22.18 0 0 1 -5.73-1 28 28 0 0 1 -7.4-3.84 28.56 28.56 0 0 0 -3.14-1.88c-.54-.24-1.26-.53-2.06-.85-4.16-1.66-7.08-3-6.63-4.52s7.65-13.35 8.47-14.68l.21-.34 10.69 3.65v.32c.35 3.46 1.13 9.31 1.74 10.23.41.61 3.16 2.24 5.38 3.55a39.36 39.36 0 0 1 5.93 3.88 1.68 1.68 0 0 1 .58 1.54c-.27 1.35-2.38 2.24-4.24 3l-.81.35a7.28 7.28 0 0 1 -2.99.59zm-15.85-25.93c-3.18 5.19-7.83 13-8.15 14.09-.23.81 4.33 2.63 6 3.31.82.33 1.55.62 2.1.87a26.72 26.72 0 0 1 3.28 2 27 27 0 0 0 7.11 3.7c4.22 1.17 6.26 1.29 8.08.48l.83-.35c1.3-.55 3.48-1.47 3.65-2.29 0-.07.05-.29-.3-.64a41.66 41.66 0 0 0 -5.74-3.73c-3.22-1.9-5.21-3.11-5.7-3.85-.88-1.33-1.68-8.57-1.87-10.38z" fill="#263238"/><path d="m415.53 436.76s10 13 10.69 13.2c1.64.54 8.35-6.81 9.66-7.88a49.51 49.51 0 0 0 10-10.77c1.12-1.7 4.52-7.48 1.75-9.33-3.44-2.29-7.6 3.09-10.46 4.32-1.63.7-6.17 2.7-6.17 2.7z" fill="#fff"/><path d="m426.39 450.48a1.14 1.14 0 0 1 -.33-.05c-.55-.18-4.23-4.68-10.93-13.36l-.37-.48 16-8s4.57-2.06 6.17-2.74a15.9 15.9 0 0 0 2.84-1.9c2.42-1.86 5.42-4.16 8.1-2.38 3.31 2.21-.76 8.74-1.61 10a49.6 49.6 0 0 1 -10.08 10.87c-.29.25-.94.89-1.7 1.64-4.11 4.11-6.7 6.4-8.09 6.4zm-10.1-13.54c3.73 4.81 9.48 12.1 10.16 12.58.89.24 5.74-4.55 7.34-6.13.8-.8 1.44-1.43 1.77-1.7a48.74 48.74 0 0 0 9.87-10.69c1.69-2.56 4-7.25 1.89-8.65s-4.65.6-6.93 2.34a15.81 15.81 0 0 1 -3.06 2c-1.59.68-6.13 2.73-6.13 2.73z" fill="#263238"/><path d="m334.55 315.07s.68 11.6 1.59 13 4.1 12 4.1 12l-7.24 41.65-18.43 46.17 13.2 5.92 26.38-48.68s9.1-23.43 9.33-24.11 52.09 75.74 52.09 75.74l10.92-7.05-34.58-75.29-17.06-40.49z" fill="#263238"/><path d="m415.39 437.45-.28-.41c-16.46-24.25-47.17-69.34-51.5-75.06-1.58 4.13-8.7 22.47-9 23.33l-26.64 49.14-14.05-6.3 18.58-46.57 7.25-41.46c-1.27-4.27-3.36-10.86-4-11.81-.94-1.4-1.56-11.25-1.68-13.21v-.52l41.12-1.16 17.19 40.81 34.75 75.67zm-52-76.94c.47 0 1.69 1.45 26.7 38.06 11.76 17.22 23.6 34.66 25.54 37.51l10.14-6.55-34.39-74.9-16.94-40.19-39.4 1.12c.28 4.46.89 11.32 1.48 12.2.92 1.39 3.83 11.09 4.15 12.19v.11.12l-7.31 41.72-18.25 45.73 12.34 5.53 26.16-48.27c3.12-8 9.12-23.5 9.29-24l.1-.29.31-.05z" fill="#263238"/><path d="m314.76 419.7-1.82 10.24 14.56 6.37 5.46-8.19z" fill="#fff"/><path d="m327.68 436.93-15.3-6.69 2-11.26 19.32 8.93zm-14.18-7.29 13.81 6 4.91-7.35-17.08-7.9z" fill="#263238"/><path d="m410.52 434.26 5.92 5.92 14.55-11.15-5.45-6.82z" fill="#fff"/><path d="m416.39 440.84-6.62-6.62 15.84-12.72 6.09 7.62zm-5.12-6.54 5.21 5.21 13.8-10.57-4.82-6z" fill="#263238"/><path d="m333.37 227.26s-6.08 22.48-5.34 28.38-1.29 61.56-1.29 61.56a80.3 80.3 0 0 0 28.75 2.39c15.51-1.66 24.51-4.59 24.51-4.59s-15.48-61.37-18.06-68.74-9-15.85-9-15.85z" fill="#fff"/><path d="m347.92 320.49a81.06 81.06 0 0 1 -21.33-2.82l-.36-.11v-.38c0-.56 2-55.69 1.29-61.48s5.11-27.65 5.36-28.57l.12-.44 20.18 3.24.12.16c.06.08 6.53 8.62 9.1 16s17.92 68.17 18.08 68.78l.11.45-.44.15c-.09 0-9.26 3-24.62 4.63a71.72 71.72 0 0 1 -7.61.39zm-20.67-3.67a80.93 80.93 0 0 0 28.19 2.28 139 139 0 0 0 24-4.45c-1.43-5.67-15.5-61.31-17.93-68.24-2.33-6.67-8-14.36-8.84-15.56l-18.89-3c-.83 3.16-5.87 22.47-5.21 27.76.67 5.64-1.12 55.84-1.32 61.21z" fill="#263238"/><path d="m333.93 221.36-2.4 7.19 24.88 6.45.74-8.29z" fill="#fff"/><path d="m356.86 235.63-26-6.73 2.71-8.13 24.09 5.55zm-24.68-7.43 23.82 6.17.64-7.27-22.38-5.1z" fill="#263238"/><path d="m391.24 310.38 5.17 1.29s2.21-3.14 3.87-3.69 3.68-.18 5.71-.18 3.87-2.77 5.53-1.48-.92 2.77-1.85 3.14-5.34 1.29-5.34 1.29 10.5 3.13 11.24 3.13-.55 1.84-1.47 2.39-4.1.73-4.1.73-5.16 1.85-7.74 2-9.4-2-9.4-2l-4.24-1.66-2.58-.92z" fill="#fff"/><path d="m402 319.55c-2.84 0-9-2-9.23-2.06l-4.27-1.67-3.42-1.22 6.07-4.77 5.07 1.27c.62-.83 2.4-3.09 3.92-3.59a11.05 11.05 0 0 1 4.14-.27c.57 0 1.15.06 1.73.06a4.94 4.94 0 0 0 2.21-.89c1.12-.68 2.4-1.44 3.62-.48a1.6 1.6 0 0 1 .73 1.51c-.21 1.47-2.67 2.47-2.69 2.48a35.51 35.51 0 0 1 -3.52.9c3.88 1.14 8.72 2.53 9.24 2.56a.67.67 0 0 1 .68.5c.23.82-1.14 2.36-1.9 2.82-.95.57-3.66.77-4.22.81a41.83 41.83 0 0 1 -7.8 2zm-14.87-5.28 1.72.61 4.26 1.67s6.71 2.16 9.18 2a42.18 42.18 0 0 0 7.6-2h.14a13.38 13.38 0 0 0 3.83-.66 4.65 4.65 0 0 0 1.36-1.53c-1.8-.36-8.76-2.42-11-3.09l-1.9-.57 1.94-.4c1.22-.26 4.54-1 5.26-1.27s2-1.09 2.07-1.69c0-.07 0-.28-.35-.58-.66-.51-1.38-.13-2.5.54a5.51 5.51 0 0 1 -2.72 1c-.6 0-1.19 0-1.78-.07a10.52 10.52 0 0 0 -3.78.23c-1.23.41-3 2.66-3.62 3.5l-.19.28-5.26-1.32z" fill="#263238"/><path d="m339.27 237.4s-7.74 7-5.71 13.45 50.87 68.15 50.87 68.15l10.13-9.58-42.56-70.92" fill="#fff"/><path d="m384.37 319.78-.34-.43c-2-2.52-48.92-61.89-50.95-68.35-2.1-6.68 5.53-13.68 5.86-14l.67.75c-.08.06-7.48 6.86-5.57 12.93s46.1 62.1 50.44 67.6l9.45-8.93-42.37-70.61.86-.52 42.78 71.3z" fill="#263238"/><path d="m354.64 338.32h1v23.34h-1z" fill="#fff" transform="matrix(.78940562 -.61387195 .61387195 .78940562 -140.06 291.75)"/><path d="m179.67 289.6 12.72-53.91-64.23-15.16 8.15-34.53 88.75-129.6 47 11.09-33.87 143.51 20.37 4.8-7.95 33.66-20.36-4.8-12.73 53.91zm-11.67-95.21 32.34 7.61 23.15-98.12z" fill="#263238"/><path d="m217.9 299.14-38.84-9.14 12.73-53.91-64.23-15.19 8.33-35.17 89-129.9 47.82 11.29-33.91 143.48 20.36 4.8-8.16 34.6-20.37-4.8zm-37.63-9.91 36.88 8.71 12.73-53.94 20.36 4.81 7.76-32.66-20.37-4.81 33.83-143.48-46.18-10.86-88.51 129.22-8 33.94 64.23 15.16zm20.44-86.6-33.54-7.91 57.53-93.72zm-32-8.57 31.29 7.37 22.33-94.61z" fill="#263238"/><path d="m174.49 288.46 12.73-53.91-64.22-15.16 8.14-34.52 88.75-129.62 47 11.1-33.89 143.47 20.36 4.81-7.94 33.66-20.37-4.81-12.72 53.91zm-11.71-95.21 32.38 7.64 23.16-98.13z" fill="#92e3a9"/><path d="m212.72 298-38.83-9.17 12.72-53.91-64.23-15.16 8.34-35.17 88.95-129.9 47.82 11.31-33.87 143.45 20.38 4.81-8.18 34.63-20.36-4.81zm-37.63-9.91 36.89 8.7 12.72-53.91 20.37 4.81 7.71-32.69-20.36-4.8 33.86-143.48-46.17-10.9-88.51 129.26-8 33.94 64.23 15.16zm20.44-86.6-33.53-7.92.36-.58 57.16-93.14zm-32-8.57 31.22 7.37 22.33-94.61z" fill="#263238"/><path d="m135.25 189.33s-5.93 5.79-6.36 9.41-5.5 18.66-3.76 21.56 11 8.68 11 8.68-11.28 2.89-10.42 8.82 4.92 6.51 4.92 6.51-9.11 5.36-6.07 9.26 10.27 3.33 11.43.15-1-7.24-1-7.24 5.79-1.73 7.24-4.19a7.47 7.47 0 0 0 1-4.78s5.07.87 8.11-1.3 4.34-9 4.34-9 10.7-6.08 14.46-15.92 2.46-13.89 0-16.92-20.4-12-25.89-10.86a16.89 16.89 0 0 0 -9 5.82z" fill="#263238"/><path d="m130.79 256.8a8.39 8.39 0 0 1 -6.64-2.92 3.28 3.28 0 0 1 -.66-2.73c.54-2.78 4.21-5.52 6-6.69-1.38-.61-3.62-2.26-4.25-6.58-.77-5.23 6.83-8.16 9.71-9.07-2.42-1.57-8.76-5.82-10.22-8.26-1.21-2 .32-8.4 2.29-15.94.68-2.59 1.27-4.84 1.4-5.93.44-3.66 6-9.2 6.49-9.68a17.15 17.15 0 0 1 9.24-5.95c5.68-1.19 23.78 7.81 26.39 11 2.38 2.94 4 7.08.08 17.42-3.54 9.27-13 15.15-14.49 16.06-.26 1.23-1.61 7-4.49 9.06-2.55 1.82-6.34 1.63-7.84 1.47a8.21 8.21 0 0 1 -1.14 4.45c-1.27 2.16-5.44 3.73-7 4.24.56 1.25 1.75 4.42.78 7.11-.52 1.42-2.1 2.47-4.24 2.81a9.31 9.31 0 0 1 -1.41.13zm14.61-72.87a5.81 5.81 0 0 0 -1.07.1c-5.24 1.11-8.64 5.56-8.68 5.6l-.05.06c0 .06-5.81 5.71-6.22 9.11-.14 1.16-.73 3.43-1.42 6.07-1.39 5.32-3.49 13.36-2.41 15.17 1.66 2.76 10.75 8.46 10.84 8.51l1 .62-1.13.29c-.11 0-10.84 2.85-10 8.27s4.35 6.07 4.5 6.09l1.39.21-1.21.72c-.06 0-5.8 3.44-6.4 6.59a2.28 2.28 0 0 0 .46 1.93c1.71 2.19 4.8 2.8 7.11 2.44 1.78-.28 3.07-1.09 3.46-2.16 1.06-2.93-1-6.79-1-6.83l-.28-.54.58-.17c.06 0 5.62-1.71 7-4a6.93 6.93 0 0 0 .95-4.43l-.13-.71.71.12s4.89.81 7.72-1.21 4.13-8.6 4.14-8.66l.05-.23.2-.11c.1-.06 10.6-6.11 14.25-15.66 3.56-9.32 2.61-13.31.08-16.44-2.32-2.68-18.11-10.75-24.44-10.75z" fill="#263238"/><path d="m147.55 225.94 2.9 13.46 14.9-8.69-4-5.78s-10.35 3.47-13.8 1.01z" fill="#fff"/><path d="m150.1 240.17-3.31-15.38 1.05.74c3.23 2.28 13.2-1 13.3-1.08l.35-.12 4.58 6.54zm-1.84-13.31 2.53 11.76 13.84-8.07-3.53-5c-1.73.52-9.05 2.69-12.84 1.31z" fill="#263238"/><path d="m146.68 197.72-9.11 16.06s3.33 7.38 5.35 9.7 4.49 5.21 11.29 5.93 10.85-5.93 11.14-10.27-4.35-17.22-4.35-17.22z" fill="#fff"/><path d="m155.21 230a9.23 9.23 0 0 1 -1.05-.05c-6.92-.74-9.48-3.67-11.54-6l-.07-.08c-2.05-2.35-5.3-9.52-5.44-9.82l-.1-.23 9.44-16.63 14.94 4.38.09.24c.19.53 4.66 13 4.37 17.42a13 13 0 0 1 -4.43 8.48 9.55 9.55 0 0 1 -6.21 2.29zm-17.08-16.15c.58 1.26 3.41 7.33 5.17 9.34l.07.08c1.94 2.22 4.36 5 10.89 5.68a8.53 8.53 0 0 0 6.52-2 11.9 11.9 0 0 0 4.07-7.78c.26-3.86-3.6-15-4.23-16.77l-13.7-4z" fill="#263238"/><path d="m138.73 215.23s-4.34-1.73-3.33 1.88 5.64 3.62 5.64 3.62z" fill="#fff"/><path d="m141.8 221.23h-.8c-.2 0-5 0-6.12-4a2.3 2.3 0 0 1 .36-2.47c1.1-1 3.38-.12 3.63 0l.2.07zm-5.07-5.92a1.15 1.15 0 0 0 -.78.22c-.31.28-.21.94-.07 1.45.66 2.35 3.11 3 4.38 3.18l-1.91-4.54a5.75 5.75 0 0 0 -1.62-.31z" fill="#263238"/><path d="m162.17 205.68a1.65 1.65 0 0 1 2.75-1c2.17 1.45-.73 6.8-.73 6.8z" fill="#fff"/><path d="m164.09 212.7-2.44-7v-.14a2.56 2.56 0 0 1 1.35-1.74 2.31 2.31 0 0 1 2.16.42c2.48 1.65-.24 6.87-.56 7.46zm-1.4-7 1.57 4.49c.73-1.68 1.54-4.3.38-5.08a1.45 1.45 0 0 0 -1.24-.32 1.53 1.53 0 0 0 -.71.88z" fill="#263238"/><path d="m152.5 218.48-2.08-4.79.92-.39 1.69 3.89 2.44-.98.37.93z" fill="#263238"/><path d="m153.32 221.9a7.84 7.84 0 0 1 -2.93-.57l.4-.91a6.45 6.45 0 0 0 4.58.08 5.71 5.71 0 0 0 3-3.56l.94.34a6.73 6.73 0 0 1 -3.55 4.15 6.28 6.28 0 0 1 -2.44.47z" fill="#263238"/><path d="m155.18 210.76-.79-.61c.09-.11 2.12-2.72 4.88-1.91l-.28 1c-2.11-.66-3.79 1.5-3.81 1.52z" fill="#263238"/><path d="m152.14 205.27-.78-.62a6.19 6.19 0 0 1 6.32-2.05l-.28 1a5.23 5.23 0 0 0 -5.26 1.67z" fill="#263238"/><path d="m141.22 209.91-.94-.35a5.25 5.25 0 0 1 2.75-3.19 5.12 5.12 0 0 1 3.71 0l-.4.92a4.1 4.1 0 0 0 -2.93 0 4.27 4.27 0 0 0 -2.19 2.62z" fill="#263238"/><path d="m147.45 213.19c.37.76.26 1.57-.24 1.81s-1.21-.16-1.58-.91-.26-1.57.24-1.81 1.21.16 1.58.91z" fill="#263238"/><path d="m218.66 201.94s8.26-5.61 8.85-6.2 4.14-3 5.76-4.29 2.07-5.75 3.84-5a2.83 2.83 0 0 1 1.62 3.83c-.59 1.33-3.54 3.7-3.54 3.7s8.12-1.63 8.56-.74a4.2 4.2 0 0 1 -.14 3.54c-.59.74-1.33 1.62-1.33 1.62s-.59 5-1.48 6.65-4.28 2.66-6.64 2.66-7.24.59-7.24.59l-5.46 2.21z" fill="#fff"/><path d="m221.15 211.17-3.09-9.43.31-.22c3.19-2.16 8.38-5.73 8.79-6.14a29.93 29.93 0 0 1 2.56-1.92c1.14-.81 2.44-1.74 3.24-2.39a7.15 7.15 0 0 0 1.44-2.47c.66-1.53 1.41-3.25 2.9-2.63a3.49 3.49 0 0 1 1.95 1.91 3.35 3.35 0 0 1 -.06 2.6 10.31 10.31 0 0 1 -2.26 2.64c6.73-1.2 7.13-.4 7.27-.12a4.67 4.67 0 0 1 -.2 4.08l-1.24 1.52c-.11.87-.68 5.13-1.52 6.68-1 1.9-4.78 2.92-7.08 2.92s-6.52.51-7.11.57zm-1.9-9 2.52 7.7 5.09-2.05c.2 0 4.93-.59 7.3-.59s5.45-1 6.2-2.4 1.26-5.09 1.42-6.46v-.15l.09-.12s.74-.88 1.33-1.61a3.85 3.85 0 0 0 .12-2.93c-.73-.28-4.69.25-8.05.93l-2 .4 1.61-1.29c.79-.63 3-2.5 3.4-3.5a2.39 2.39 0 0 0 0-1.82 2.48 2.48 0 0 0 -1.4-1.35c-.54-.23-1 .68-1.6 2.09a7.48 7.48 0 0 1 -1.73 2.85c-.83.68-2.14 1.61-3.29 2.44s-2.17 1.54-2.43 1.81c-.52.53-6.92 4.88-8.58 6.02z" fill="#263238"/><path d="m146.43 291.21-.39 6.76 42.26-3.86-1.93-6.17z" fill="#fff"/><path d="m145.51 298.52.44-7.77 40.77-3.35 2.24 7.15zm1.39-6.84-.33 5.74 41.06-3.75-1.62-5.2z" fill="#263238"/><path d="m149.78 236.9s-7.35 4.3-9.3 7.64-17.25 27.82-16.14 30.61 6.12 6.12 8.35 6.12 22 3.06 22 3.06l-3.13-44.33z" fill="#fff"/><path d="m155.21 284.92-.62-.1c-.2 0-19.74-3.05-21.9-3.05-2.46 0-7.62-3.45-8.81-6.44-.75-1.86 3.49-10.11 14.62-28.48.73-1.19 1.27-2.09 1.55-2.56 2-3.41 9.18-7.65 9.48-7.83l.44-.25 2.08 3.59v.12zm-5.6-47.33c-1.59 1-7.11 4.47-8.7 7.2-.28.48-.82 1.38-1.55 2.58-10.23 16.88-15.13 26.16-14.55 27.59 1 2.51 5.82 5.81 7.88 5.81s18 2.44 21.44 3l-3.06-43.64z" fill="#263238"/><path d="m133.09 277.58-.24-1c5.39-1.35 11.71-6.26 11.77-6.31l.62.79c-.24.23-6.55 5.12-12.15 6.52z" fill="#263238"/><path d="m139 278.71-.54-.84c2.65-1.69 4.77-6.13 4.79-6.17l.91.42c-.1.2-2.28 4.75-5.16 6.59z" fill="#263238"/><path d="m218.66 201.94s-65.26 32.18-70 34.4-9.59 12.55-8.41 20.67 6.79 17 7.23 18.31-1.48 12.4-1.92 14.47-.29 3.69 1.63 4.57 38.38-4.13 39.71-4.87 2.51-2.51 1.63-5.61-4.58-11.22-4.58-12-6.35-21-6.35-21 29.82-25.25 33.22-29.39 10.63-11.07 10.63-11.07z" fill="#fff"/><path d="m148.25 294.94a4 4 0 0 1 -1.26-.12c-2.43-1.12-2.29-3.34-1.91-5.14.61-2.81 2.29-13.13 1.94-14.21-.09-.25-.47-1-.94-1.86-1.75-3.29-5.39-10.15-6.32-16.53-1.23-8.48 3.84-18.92 8.7-21.19 4.67-2.19 69.32-34.08 70-34.4l.52-.26 3.08 9.41-.22.22c-.08.07-7.26 7-10.59 11s-29.93 26.61-33 29.23c1.6 5.1 6.27 20.06 6.27 20.8 0 .35.93 2.52 1.72 4.43 1.11 2.68 2.36 5.72 2.84 7.39 1.17 4.13-1.13 5.78-1.87 6.19-1.33.74-32.09 5.04-38.96 5.04zm70.11-92.3c-6.17 3-65 32.06-69.48 34.15s-9.27 12.27-8.13 20.15c.9 6.21 4.49 13 6.21 16.2a17.91 17.91 0 0 1 1 2c.52 1.56-1.59 13.29-1.9 14.73-.48 2.23-.1 3.35 1.35 4 2.12.78 37.72-4.15 39.27-4.86.72-.4 2.32-1.71 1.37-5-.46-1.62-1.7-4.63-2.79-7.29-1.33-3.23-1.8-4.4-1.8-4.81-.09-.77-3.83-12.87-6.33-20.81l-.1-.32.26-.22c.3-.25 29.83-25.26 33.15-29.31 3-3.7 9.19-9.69 10.45-10.9z" fill="#263238"/><path d="m154 277.51-.54-.84a23.63 23.63 0 0 0 3.17-2.62l.69.73a25.47 25.47 0 0 1 -3.32 2.73z" fill="#263238"/><path d="m159.66 272.44-.72-.7c5.31-5.42 12.11-13.55 15.74-18-3.61 2.67-9.62 7-14.84 10.41l-.55-.84c8-5.2 17.92-12.71 18-12.78l3.22-2.45-2.51 3.19c-.11.13-10.74 13.4-18.34 21.17z" fill="#263238"/><path d="m150.56 269.16-.23-1a28.86 28.86 0 0 0 6.57-3.34l.53.85c-3.26 2.04-5.51 3.17-6.87 3.49z" fill="#263238"/><path d="m159 277.79-.57-.82a74.8 74.8 0 0 0 6.56-6.28l.73.69a73.08 73.08 0 0 1 -6.72 6.41z" fill="#263238"/><path d="m179.13 246.6-.67-.74a18.28 18.28 0 0 0 2.23-2.5l.79.61a19.6 19.6 0 0 1 -2.35 2.63z" fill="#263238"/><path d="m183.52 241-.84-.54a146.47 146.47 0 0 0 9.23-17.93l.92.39a147.66 147.66 0 0 1 -9.31 18.08z" fill="#263238"/><path d="m216.31 203.51h1v10.28h-1z" fill="#263238" transform="matrix(.93333001 -.35901962 .35901962 .93333001 -60.45 91.73)"/><path d="m165.14 395-7.91 30.68-5 7.71-3.28 11 6.75 3.28s3.66-3.66 5.79-1.54 2.31 5.79 2.31 5.79 10.2 3.08 12.34 2.91 5.4.39 5.79-.58.58-8.29-.39-9.26c-.67-.67-7.68-2.91-12.15-6.75-2-1.68-3.43-6.77-3.67-6.95-.77-.58 15.82-34.15 15.82-34.15z" fill="#fff"/><path d="m175.94 455.34c-2.53 0-11.27-2.62-12.29-2.92l-.34-.11v-.35s-.21-3.5-2.17-5.46c-.7-.7-1.74-.68-3.09.06a9.94 9.94 0 0 0 -2 1.49l-.25.25-7.46-3.62 3.47-11.54 5-7.65 8-31 17.53 2.27-.31.62c-6.21 12.57-15.42 31.69-15.78 33.76.09.16.19.45.41 1 .57 1.49 1.75 4.59 3.09 5.74 3 2.6 7.3 4.48 9.85 5.6a10.56 10.56 0 0 1 2.34 1.18c1.23 1.23.88 8.83.49 9.8s-1.93.92-3.89.87a21.93 21.93 0 0 0 -2.31 0zm-11.68-3.78c3 .9 10.23 2.92 11.83 2.77.75-.06 1.61 0 2.44 0s2.77.07 2.93-.24c.39-1 .43-8-.27-8.73a16.87 16.87 0 0 0 -2-1c-2.6-1.14-6.95-3.05-10.1-5.75-1.53-1.32-2.73-4.46-3.38-6.14-.14-.37-.28-.74-.34-.86-.34-.46.11-3 15.44-34.07l-15.26-2-7.9 30.46-5 7.66-3.13 10.52 6.06 2.94a10.24 10.24 0 0 1 2-1.4c2.22-1.23 3.55-.62 4.28.11a10.08 10.08 0 0 1 2.4 5.73z" fill="#263238"/><path d="m181.93 454.25c.38-1 .58-8.29-.39-9.26-.67-.67-7.68-2.91-12.15-6.75-2-1.68-3.43-6.77-3.67-6.95-.08-.06 0-.47.27-1.14l-9.33-3.58-4.44 6.84-3.28 11 6.75 3.28s3.66-3.66 5.79-1.54 2.31 5.79 2.31 5.79 10.21 3.06 12.35 2.89 5.4.39 5.79-.58z" fill="#263238"/><path d="m175.94 455.34c-2.53 0-11.27-2.62-12.29-2.92l-.34-.11v-.35s-.21-3.5-2.17-5.46c-.7-.7-1.74-.68-3.09.06a9.94 9.94 0 0 0 -2 1.49l-.25.25-7.46-3.62 3.47-11.54 4.66-7.18 10.17 3.9-.17.47a8.09 8.09 0 0 0 -.25.79c.09.17.2.45.41 1 .57 1.49 1.75 4.59 3.09 5.74 3 2.6 7.3 4.48 9.85 5.6a10.56 10.56 0 0 1 2.34 1.18c1.23 1.23.88 8.83.49 9.8-.38 1-1.93.92-3.89.87a21.93 21.93 0 0 0 -2.31 0zm-11.68-3.78c3 .9 10.23 2.92 11.83 2.77.75-.06 1.61 0 2.44 0s2.77.07 2.93-.24c.39-1 .43-8-.27-8.73a16.87 16.87 0 0 0 -2-1c-2.6-1.14-6.95-3.05-10.1-5.75-1.53-1.32-2.73-4.46-3.38-6.14-.13-.36-.28-.73-.34-.86-.22-.23-.18-.57 0-1.17l-8.5-3.27-4.19 6.45-3.13 10.52 6.06 2.94a10.24 10.24 0 0 1 2-1.4c2.22-1.23 3.55-.62 4.28.11a10.08 10.08 0 0 1 2.37 5.77z" fill="#263238"/><path d="m194.47 385.56 18.89 47.14s-1.22 7.12 0 9a95.78 95.78 0 0 1 4 8.86l10.07-2.43s-.86-3.48 1.91-3.3a12.1 12.1 0 0 1 4.87 1.39s8.16-4.35 10.59-5.74 3.65-3.29 3.47-4-2.6-6.08-5.38-5.56-8 2.78-10.59 2.78-8.34-1.91-9.55-4-9.36-37.05-9.36-37.05l-2.32-16.78-8.29-28.37z" fill="#fff"/><path d="m217.05 451.17-.16-.4c0-.07-2.78-6.92-3.95-8.77s-.3-8-.1-9.24l-18.84-47.15v-.15l8.72-39.93 8.84 30.25 2.33 16.85c2.26 9.66 8.33 35.21 9.3 36.87 1.08 1.85 6.63 3.74 9.12 3.74a26.32 26.32 0 0 0 6.24-1.54 39.83 39.83 0 0 1 4.26-1.23c3.28-.61 5.79 5.28 6 5.93.25 1-1.18 3.1-3.71 4.55s-10.53 5.69-10.61 5.74l-.24.13-.24-.14a11.77 11.77 0 0 0 -4.65-1.32 1.28 1.28 0 0 0 -1.16.37 3.07 3.07 0 0 0 -.23 2.3l.12.49zm-22.05-65.65 18.89 47.13v.14c-.33 1.92-1 7.24-.07 8.67a84.37 84.37 0 0 1 3.88 8.54l9.19-2.22a3.55 3.55 0 0 1 .53-2.69 2.24 2.24 0 0 1 2-.73 12.55 12.55 0 0 1 4.83 1.32c1.36-.73 8.18-4.36 10.34-5.6 2.43-1.39 3.31-3.11 3.24-3.44-.18-.7-2.49-5.62-4.81-5.18a37.63 37.63 0 0 0 -4.13 1.19 26.2 26.2 0 0 1 -6.55 1.59c-2.83 0-8.67-2-10-4.24-1.21-2.09-8.57-33.6-9.41-37.18l-2.36-16.82-7.73-26.41z" fill="#263238"/><path d="m248.26 436.52c-.17-.69-2.6-6.08-5.38-5.56s-8 2.78-10.59 2.78-8.34-1.91-9.55-4a10 10 0 0 1 -.55-1.52l-9.1 3.81.27.66s-1.22 7.12 0 9a95.78 95.78 0 0 1 4 8.86l10.07-2.43s-.86-3.48 1.91-3.3a12.1 12.1 0 0 1 4.87 1.39s8.16-4.35 10.59-5.74 3.64-3.25 3.46-3.95z" fill="#263238"/><path d="m217.05 451.17-.16-.4c0-.07-2.78-6.92-3.95-8.77s-.3-8-.1-9.24l-.39-1 10.05-4.2.17.52a9.17 9.17 0 0 0 .5 1.42c1.08 1.85 6.63 3.74 9.12 3.74a26.32 26.32 0 0 0 6.24-1.54 39.83 39.83 0 0 1 4.26-1.23c3.28-.61 5.79 5.28 6 5.93.25 1-1.18 3.1-3.71 4.55s-10.53 5.69-10.61 5.74l-.24.13-.24-.14a11.77 11.77 0 0 0 -4.65-1.32 1.26 1.26 0 0 0 -1.15.37 3.1 3.1 0 0 0 -.24 2.31l.12.48zm-3.31-18.86.14.34v.14c-.33 1.92-1 7.24-.07 8.67a84.37 84.37 0 0 1 3.88 8.54l9.19-2.22a3.55 3.55 0 0 1 .53-2.69 2.24 2.24 0 0 1 2-.73 12.55 12.55 0 0 1 4.83 1.32c1.36-.73 8.18-4.36 10.34-5.6 2.43-1.39 3.31-3.11 3.24-3.44-.18-.7-2.5-5.63-4.81-5.18a37.63 37.63 0 0 0 -4.13 1.19 26.2 26.2 0 0 1 -6.55 1.59c-2.51 0-8.58-1.83-10-4.24a5.72 5.72 0 0 1 -.42-1.1z" fill="#263238"/><path d="m146 298-12.69 100.3a255 255 0 0 0 35.69 1.54c19.1-.58 24.12-1.35 24.12-1.35l9.88-45.73 10.42 39.94 4.82-1.54s-5.4-32.41-8.49-39.36-21.41-57.69-21.41-57.69z" fill="#263238"/><path d="m162.33 400.44a257.49 257.49 0 0 1 -29.09-1.65l-.49-.06 12.85-101.22h.4l42.63-3.89.14.36c.18.51 18.36 50.81 21.4 57.66s8.3 38.15 8.53 39.48l.07.42-5.77 1.8-10-38.42-9.47 44-.34.06c-.21 0-5.27.78-24.18 1.35-2.26.08-4.5.11-6.68.11zm-28.46-2.58a258.1 258.1 0 0 0 35.13 1.48c16.21-.49 22.31-1.13 23.71-1.3l10.21-47.44 10.82 41.47 3.91-1.25c-.65-3.85-5.55-32.44-8.38-38.82-2.93-6.57-19.64-52.77-21.3-57.36l-41.47 3.79z" fill="#263238"/></svg>