<svg viewBox="0 0 500 500" xmlns="http://www.w3.org/2000/svg" xmlns:xlink="http://www.w3.org/1999/xlink"><clipPath id="a"><path d="m259.8 198.79a33.43 33.43 0 0 0 -1.22 6.74c0 2.45 0 3.88 4.08 9.6s11 10.82 11 10.82 1.22.41 1.43-1.63 3.27-19.4 3.27-19.4 2-1 5.71 0 2 7.55 2.66 10.21-1.84 25.12-2.66 27.77-3.67 1.84-10.82-2.65-12.25-14.25-14.47-18.79-3.06-9-6.12-12.25-5.72-5.92-6.74-8.58 5.71-4.08 8.57-3.47a34 34 0 0 1 5.31 1.63z"/></clipPath><clipPath id="b"><path d="m279.75 321.09s5.25 21.5 7.25 30.25 1.75 16.5 5 27.5 6.5 28.5 6.75 33-4.25 8.75-2 9.5 8.25-4.5 8.75-8.75-.5-7.5.25-9.25 3.25-2.25 2.75-5-4-4-4-5.5-1.75-15.25-.75-23.25c.92-7.38-5.5-24.25-5.5-24.25l1.25-26.25z"/></clipPath><clipPath id="c"><path d="m292.33 324.17s3.34 23 1.34 39.33-8.34 47.34-11.67 52.34-10.67 14.66-12.33 17.33 4.85 1.21 7.53 1c6.4-.52 6.91-7.78 10.47-9 3.35-1.15 6.63-3 6.3-5.35s-4-8.32.7-17 17.66-33 17.33-45-4.67-17.34-2.67-21.67 6.34-14.67 6.34-14.67-17.67 5.02-23.34 2.69z"/></clipPath><clipPath id="d"><path d="m308.36 163.07s1 7.92-3.05 14.82-10.15 16.05-6.3 16.05 15-13.81 16.26-22.14a111.22 111.22 0 0 0 1.21-14.42z"/></clipPath><clipPath id="e"><path d="m337.67 210.17 9.66 16.67s-11 13.33-15 18.33-6.61 4.4-6.61 4.4-1.05-3.73-2.39-7.4-5.67-4.4-4.67-2.07 2.34 4.74 1.34 5.07-6.67-2.67-9.67-2.67-9 0-8.33 1.34 6.67 1 6.67 1l2.66 2a66.51 66.51 0 0 0 -8.66 1c-2.67.66-5 1.66-4.34 3a1.2 1.2 0 0 0 .66.6 2 2 0 0 1 1.27 1.89c0 .47.16.84.74.84h6.33s-7.33 2-7 3.67 4 .33 6.34.33a82.47 82.47 0 0 1 8.46 1s6 .64 10.2-1c23-9.08 35.05-26.09 36.67-29 2-3.55-15-25.67-15-25.67z"/></clipPath><clipPath id="f"><path d="m189.08 318.48s5.58 13.95 6 19.37-6.81 17.31-6.47 28.43-.77 28.81-.63 33.15 3.53 9.12 4.14 11.28.24 8.14 3 10.5 8.57 5.17 7.76-3.77-7.89-18.49-8-23.65 10.32-26.92 13-36.23-1.09-36.08-1.76-40.41-17.04 1.33-17.04 1.33z"/></clipPath><clipPath id="g"><path d="m189.33 326.84s10.67 19.33 8.67 26-4.33 23.33-1.33 29.66 8.33 20 9.66 22.67 2 3.67.34 6.67-2 5 1.33 8 4 7.33 6.67 10 11.66 6 13 4-7-11-9-16.34-4.67-21-4.67-40.33-3-55-3-55z"/></clipPath><clipPath id="h"><path d="m188.55 144.68s-9.6 16.54-11.47 19.48c-6 9.49 9.56 23.76 15.74 14.14 2.4-3.73.27-6.67 1.87-10.67a72.14 72.14 0 0 1 3.2-6.94 23 23 0 0 1 -3.47-7.74c-1.07-4.54-4.8-10.41-5.87-8.27z"/></clipPath><clipPath id="i"><path d="m157.59 176.17s-10.14 4-10.67 10.41 2.93 19.48 8 28.55 12 27.49 15.21 27.49 54.17-39 54.17-39 10.94-1.34 12.55-1.34 4.53-.8 4-2.93l-2.4-.54s4.53 0 4.53-1.33a2.89 2.89 0 0 0 -1.06-2.14l-3.21-.26 4.27-1.6s3.21-2.14.54-2.94a32.48 32.48 0 0 0 -5.07-1.07s6.4.27 6.67-2.4-3.2-2.4-5.07-2.13-8.28.26-9.61.26-3.2-1.33-5.07 1.07-4.54 12.28-4.54 12.28-19.48 11.21-25.62 14.14-19.48 9.61-19.48 9.61l-13.61-32.29"/></clipPath><path d="m381.36 161.25s3.42-46.21-44.5-77-116.38-24.81-162.59-.85-39.36 78.7-54.77 113.79-50.48 41.07-47.92 89 32.52 71 66.75 78.73 65.89-1.71 96.7 3.42 73.59 15.41 123.22-4.27 59.05-73.6 52.2-116.38-29.09-58.2-29.09-86.44z" fill="#92e3a9"/><path d="m381.36 161.25s3.42-46.21-44.5-77-116.38-24.81-162.59-.85-39.36 78.7-54.77 113.79-50.48 41.07-47.92 89 32.52 71 66.75 78.73 65.89-1.71 96.7 3.42 73.59 15.41 123.22-4.27 59.05-73.6 52.2-116.38-29.09-58.2-29.09-86.44z" fill="#fff" opacity=".7"/><g fill="none"><path d="m137 148.72 1.83-13.11h3.4l2 13.46a4.11 4.11 0 0 0 .69 1.74l.17.23a4 4 0 0 1 .74 2.35v20.41a2.19 2.19 0 0 1 -2.2 2.2h-6.31a2.2 2.2 0 0 1 -2.21-2.2v-20.41a4.11 4.11 0 0 1 1-2.62 4 4 0 0 0 .89-2.05z" stroke="#263238" stroke-linecap="round" stroke-linejoin="round" stroke-width=".75"/><path d="m142.07 136.08h-3a.66.66 0 0 1 -.66-.66.67.67 0 0 1 .66-.66h3a.67.67 0 0 1 .66.66.66.66 0 0 1 -.66.66z" stroke="#263238" stroke-linecap="round" stroke-linejoin="round" stroke-width=".75"/><path d="m157.09 148.72 1.82-13.11h3.4l2 13.46a4 4 0 0 0 .7 1.74l.16.23a4.05 4.05 0 0 1 .75 2.35v20.41a2.2 2.2 0 0 1 -2.21 2.2h-6.31a2.2 2.2 0 0 1 -2.21-2.2v-20.41a4.11 4.11 0 0 1 .95-2.62 4.08 4.08 0 0 0 .95-2.05z" stroke="#263238" stroke-linecap="round" stroke-linejoin="round" stroke-width=".75"/><path d="m162.12 136.08h-3a.65.65 0 0 1 -.66-.66.66.66 0 0 1 .66-.66h3a.66.66 0 0 1 .66.66.65.65 0 0 1 -.66.66z" stroke="#263238" stroke-linecap="round" stroke-linejoin="round" stroke-width=".75"/><path d="m177.14 148.72 1.86-13.11h3.4l2 13.46a4.26 4.26 0 0 0 .7 1.74l.17.23a4.12 4.12 0 0 1 .74 2.35v20.41a2.2 2.2 0 0 1 -2.2 2.2h-6.32a2.19 2.19 0 0 1 -2.2-2.2v-20.41a4.06 4.06 0 0 1 .95-2.62 4.07 4.07 0 0 0 .9-2.05z" stroke="#263238" stroke-linecap="round" stroke-linejoin="round" stroke-width=".75"/><path d="m182.17 136.08h-3a.66.66 0 0 1 -.66-.66.67.67 0 0 1 .66-.66h3a.67.67 0 0 1 .67.66.66.66 0 0 1 -.67.66z" stroke="#263238" stroke-linecap="round" stroke-linejoin="round" stroke-width=".75"/><path d="m197.19 148.72 1.81-13.11h3.41l2 13.46a4.26 4.26 0 0 0 .7 1.74l.17.23a4.12 4.12 0 0 1 .74 2.35v20.41a2.19 2.19 0 0 1 -2.2 2.2h-6.32a2.2 2.2 0 0 1 -2.2-2.2v-20.41a4.11 4.11 0 0 1 .95-2.62 4 4 0 0 0 .94-2.05z" stroke="#263238" stroke-linecap="round" stroke-linejoin="round" stroke-width=".75"/><path d="m202.23 136.08h-3a.66.66 0 0 1 -.66-.66.67.67 0 0 1 .66-.66h3a.67.67 0 0 1 .66.66.66.66 0 0 1 -.66.66z" stroke="#263238" stroke-linecap="round" stroke-linejoin="round" stroke-width=".75"/><path d="m217.24 148.72 1.83-13.11h3.4l2 13.46a4 4 0 0 0 .7 1.74l.16.23a4.05 4.05 0 0 1 .75 2.35v20.41a2.2 2.2 0 0 1 -2.21 2.2h-6.31a2.2 2.2 0 0 1 -2.21-2.2v-20.41a4.11 4.11 0 0 1 1-2.62 4 4 0 0 0 .89-2.05z" stroke="#263238" stroke-linecap="round" stroke-linejoin="round" stroke-width=".75"/><path d="m222.28 136.08h-3a.66.66 0 0 1 -.67-.66.67.67 0 0 1 .67-.66h3a.67.67 0 0 1 .66.66.66.66 0 0 1 -.66.66z" stroke="#263238" stroke-linecap="round" stroke-linejoin="round" stroke-width=".75"/><path d="m237.3 148.72 1.82-13.11h3.4l2 13.46a4 4 0 0 0 .7 1.74l.16.23a4.05 4.05 0 0 1 .75 2.35v20.41a2.2 2.2 0 0 1 -2.13 2.2h-6.31a2.19 2.19 0 0 1 -2.2-2.2v-20.41a4.06 4.06 0 0 1 .95-2.62 4.07 4.07 0 0 0 .86-2.05z" stroke="#263238" stroke-linecap="round" stroke-linejoin="round" stroke-width=".75"/><path d="m242.33 136.08h-3a.65.65 0 0 1 -.66-.66.66.66 0 0 1 .66-.66h3a.66.66 0 0 1 .66.66.65.65 0 0 1 -.66.66z" stroke="#263238" stroke-linecap="round" stroke-linejoin="round" stroke-width=".75"/><path d="m257.35 148.72 1.82-13.11h3.4l2 13.46a4.26 4.26 0 0 0 .7 1.74l.17.23a4.12 4.12 0 0 1 .74 2.35v20.41a2.2 2.2 0 0 1 -2.18 2.2h-6.32a2.19 2.19 0 0 1 -2.2-2.2v-20.41a4.06 4.06 0 0 1 .95-2.62 4.07 4.07 0 0 0 .92-2.05z" stroke="#263238" stroke-linecap="round" stroke-linejoin="round" stroke-width=".75"/><path d="m262.38 136.08h-3a.66.66 0 0 1 -.66-.66.67.67 0 0 1 .66-.66h3a.67.67 0 0 1 .67.66.66.66 0 0 1 -.67.66z" stroke="#263238" stroke-linecap="round" stroke-linejoin="round" stroke-width=".75"/><path d="m277.4 148.72 1.83-13.11h3.4l2 13.46a4.11 4.11 0 0 0 .69 1.74l.17.23a4.12 4.12 0 0 1 .74 2.35v20.41a2.19 2.19 0 0 1 -2.2 2.2h-6.31a2.2 2.2 0 0 1 -2.21-2.2v-20.41a4.11 4.11 0 0 1 .95-2.62 4 4 0 0 0 .94-2.05z" stroke="#263238" stroke-linecap="round" stroke-linejoin="round" stroke-width=".75"/><path d="m282.44 136.08h-3a.66.66 0 0 1 -.66-.66.67.67 0 0 1 .66-.66h3a.67.67 0 0 1 .66.66.66.66 0 0 1 -.66.66z" stroke="#263238" stroke-linecap="round" stroke-linejoin="round" stroke-width=".75"/><path d="m297.45 148.72 1.83-13.11h3.4l2 13.46a4 4 0 0 0 .7 1.74l.16.23a4.05 4.05 0 0 1 .75 2.35v20.41a2.2 2.2 0 0 1 -2.21 2.2h-6.28a2.2 2.2 0 0 1 -2.21-2.2v-20.41a4.11 4.11 0 0 1 1-2.62 4 4 0 0 0 .86-2.05z" stroke="#263238" stroke-linecap="round" stroke-linejoin="round" stroke-width=".75"/><path d="m302.49 136.08h-3a.65.65 0 0 1 -.66-.66.66.66 0 0 1 .66-.66h3a.66.66 0 0 1 .66.66.65.65 0 0 1 -.66.66z" stroke="#263238" stroke-linecap="round" stroke-linejoin="round" stroke-width=".75"/><path d="m317.51 148.72 1.82-13.11h3.4l2 13.46a4.13 4.13 0 0 0 .7 1.74l.17.23a4.12 4.12 0 0 1 .74 2.35v20.41a2.2 2.2 0 0 1 -2.2 2.2h-6.32a2.19 2.19 0 0 1 -2.2-2.2v-20.41a4.06 4.06 0 0 1 1-2.62 4.07 4.07 0 0 0 .89-2.05z" stroke="#263238" stroke-linecap="round" stroke-linejoin="round" stroke-width=".75"/><path d="m322.54 136.08h-3a.65.65 0 0 1 -.66-.66.66.66 0 0 1 .66-.66h3a.66.66 0 0 1 .66.66.65.65 0 0 1 -.66.66z" stroke="#263238" stroke-linecap="round" stroke-linejoin="round" stroke-width=".75"/><path d="m337.56 148.72 1.82-13.11h3.4l2 13.46a4.26 4.26 0 0 0 .7 1.74l.17.23a4.12 4.12 0 0 1 .74 2.35v20.41a2.19 2.19 0 0 1 -2.2 2.2h-6.29a2.2 2.2 0 0 1 -2.2-2.2v-20.41a4.11 4.11 0 0 1 .95-2.62 4 4 0 0 0 .91-2.05z" stroke="#263238" stroke-linecap="round" stroke-linejoin="round" stroke-width=".75"/><path d="m342.6 136.08h-3a.66.66 0 0 1 -.66-.66.67.67 0 0 1 .66-.66h3a.67.67 0 0 1 .66.66.66.66 0 0 1 -.66.66z" stroke="#263238" stroke-linecap="round" stroke-linejoin="round" stroke-width=".75"/><path d="m357.61 148.72 1.83-13.11h3.4l2 13.46a4 4 0 0 0 .7 1.74l.16.23a4.05 4.05 0 0 1 .75 2.35v20.41a2.2 2.2 0 0 1 -2.21 2.2h-6.24a2.2 2.2 0 0 1 -2.21-2.2v-20.41a4.11 4.11 0 0 1 .95-2.62 4 4 0 0 0 .87-2.05z" stroke="#263238" stroke-linecap="round" stroke-linejoin="round" stroke-width=".75"/><path d="m362.65 136.08h-3a.66.66 0 0 1 -.67-.66.67.67 0 0 1 .67-.66h3a.67.67 0 0 1 .66.66.66.66 0 0 1 -.66.66z" stroke="#263238" stroke-linecap="round" stroke-linejoin="round" stroke-width=".75"/><path d="m137 205.5 1.83-13.11h3.4l2 13.46a4.06 4.06 0 0 0 .69 1.74l.17.23a4 4 0 0 1 .74 2.35v20.41a2.19 2.19 0 0 1 -2.2 2.2h-6.31a2.2 2.2 0 0 1 -2.21-2.2v-20.41a4.09 4.09 0 0 1 1-2.61 4.05 4.05 0 0 0 .89-2.06z" stroke="#263238" stroke-linecap="round" stroke-linejoin="round" stroke-width=".75"/><path d="m142.07 192.87h-3a.67.67 0 0 1 -.66-.67.67.67 0 0 1 .66-.66h3a.67.67 0 0 1 .66.66.67.67 0 0 1 -.66.67z" stroke="#263238" stroke-linecap="round" stroke-linejoin="round" stroke-width=".75"/><path d="m157.09 205.5 1.82-13.11h3.4l2 13.46a4 4 0 0 0 .7 1.74l.16.23a4.05 4.05 0 0 1 .75 2.35v20.41a2.2 2.2 0 0 1 -2.21 2.2h-6.31a2.2 2.2 0 0 1 -2.21-2.2v-20.41a4.09 4.09 0 0 1 .95-2.61 4.15 4.15 0 0 0 .95-2.06z" stroke="#263238" stroke-linecap="round" stroke-linejoin="round" stroke-width=".75"/><path d="m162.12 192.87h-3a.66.66 0 0 1 -.66-.67.66.66 0 0 1 .66-.66h3a.66.66 0 0 1 .66.66.66.66 0 0 1 -.66.67z" stroke="#263238" stroke-linecap="round" stroke-linejoin="round" stroke-width=".75"/><path d="m177.14 205.5 1.86-13.11h3.4l2 13.46a4.21 4.21 0 0 0 .7 1.74l.17.23a4.12 4.12 0 0 1 .74 2.35v20.41a2.2 2.2 0 0 1 -2.2 2.2h-6.32a2.19 2.19 0 0 1 -2.2-2.2v-20.41a4 4 0 0 1 .95-2.61 4.14 4.14 0 0 0 .9-2.06z" stroke="#263238" stroke-linecap="round" stroke-linejoin="round" stroke-width=".75"/><path d="m182.17 192.87h-3a.67.67 0 0 1 -.66-.67.67.67 0 0 1 .66-.66h3a.67.67 0 0 1 .67.66.67.67 0 0 1 -.67.67z" stroke="#263238" stroke-linecap="round" stroke-linejoin="round" stroke-width=".75"/><path d="m197.19 205.5 1.81-13.11h3.41l2 13.46a4.21 4.21 0 0 0 .7 1.74l.17.23a4.12 4.12 0 0 1 .74 2.35v20.41a2.19 2.19 0 0 1 -2.2 2.2h-6.32a2.2 2.2 0 0 1 -2.2-2.2v-20.41a4.09 4.09 0 0 1 .95-2.61 4.05 4.05 0 0 0 .94-2.06z" stroke="#263238" stroke-linecap="round" stroke-linejoin="round" stroke-width=".75"/><path d="m202.23 192.87h-3a.67.67 0 0 1 -.66-.67.67.67 0 0 1 .66-.66h3a.67.67 0 0 1 .66.66.67.67 0 0 1 -.66.67z" stroke="#263238" stroke-linecap="round" stroke-linejoin="round" stroke-width=".75"/><path d="m217.24 205.5 1.83-13.11h3.4l2 13.46a4 4 0 0 0 .7 1.74l.16.23a4.05 4.05 0 0 1 .75 2.35v20.41a2.2 2.2 0 0 1 -2.21 2.2h-6.31a2.2 2.2 0 0 1 -2.21-2.2v-20.41a4.09 4.09 0 0 1 1-2.61 4.05 4.05 0 0 0 .89-2.06z" stroke="#263238" stroke-linecap="round" stroke-linejoin="round" stroke-width=".75"/><path d="m222.28 192.87h-3a.67.67 0 0 1 -.67-.67.67.67 0 0 1 .67-.66h3a.67.67 0 0 1 .66.66.67.67 0 0 1 -.66.67z" stroke="#263238" stroke-linecap="round" stroke-linejoin="round" stroke-width=".75"/><path d="m237.3 205.5 1.82-13.11h3.4l2 13.46a4 4 0 0 0 .7 1.74l.16.23a4.05 4.05 0 0 1 .75 2.35v20.41a2.2 2.2 0 0 1 -2.21 2.2h-6.31a2.19 2.19 0 0 1 -2.2-2.2v-20.41a4 4 0 0 1 .95-2.61 4.14 4.14 0 0 0 .94-2.06z" stroke="#263238" stroke-linecap="round" stroke-linejoin="round" stroke-width=".75"/><path d="m242.33 192.87h-3a.66.66 0 0 1 -.66-.67.66.66 0 0 1 .66-.66h3a.66.66 0 0 1 .66.66.66.66 0 0 1 -.66.67z" stroke="#263238" stroke-linecap="round" stroke-linejoin="round" stroke-width=".75"/><path d="m257.35 205.5 1.82-13.11h3.4l2 13.46a4.21 4.21 0 0 0 .7 1.74l.17.23a4.12 4.12 0 0 1 .74 2.35v20.41a2.2 2.2 0 0 1 -2.2 2.2h-6.32a2.19 2.19 0 0 1 -2.2-2.2v-20.41a4 4 0 0 1 .95-2.61 4.14 4.14 0 0 0 .94-2.06z" stroke="#263238" stroke-linecap="round" stroke-linejoin="round" stroke-width=".75"/><path d="m262.38 192.87h-3a.67.67 0 0 1 -.66-.67.67.67 0 0 1 .66-.66h3a.67.67 0 0 1 .67.66.67.67 0 0 1 -.67.67z" stroke="#263238" stroke-linecap="round" stroke-linejoin="round" stroke-width=".75"/><path d="m277.4 205.5 1.83-13.11h3.4l2 13.46a4.06 4.06 0 0 0 .69 1.74l.17.23a4.12 4.12 0 0 1 .74 2.35v20.41a2.19 2.19 0 0 1 -2.2 2.2h-6.31a2.2 2.2 0 0 1 -2.21-2.2v-20.41a4.09 4.09 0 0 1 .95-2.61 4.05 4.05 0 0 0 .94-2.06z" stroke="#263238" stroke-linecap="round" stroke-linejoin="round" stroke-width=".75"/><path d="m282.44 192.87h-3a.67.67 0 0 1 -.66-.67.67.67 0 0 1 .66-.66h3a.67.67 0 0 1 .66.66.67.67 0 0 1 -.66.67z" stroke="#263238" stroke-linecap="round" stroke-linejoin="round" stroke-width=".75"/><path d="m297.45 205.5 1.83-13.11h3.4l2 13.46a4 4 0 0 0 .7 1.74l.16.23a4.05 4.05 0 0 1 .75 2.35v20.41a2.2 2.2 0 0 1 -2.21 2.2h-6.28a2.2 2.2 0 0 1 -2.21-2.2v-20.41a4.09 4.09 0 0 1 1-2.61 4.05 4.05 0 0 0 .86-2.06z" stroke="#263238" stroke-linecap="round" stroke-linejoin="round" stroke-width=".75"/><path d="m302.49 192.87h-3a.66.66 0 0 1 -.66-.67.66.66 0 0 1 .66-.66h3a.66.66 0 0 1 .66.66.66.66 0 0 1 -.66.67z" stroke="#263238" stroke-linecap="round" stroke-linejoin="round" stroke-width=".75"/><path d="m317.51 205.5 1.82-13.11h3.4l2 13.46a4.08 4.08 0 0 0 .7 1.74l.17.23a4.12 4.12 0 0 1 .74 2.35v20.41a2.2 2.2 0 0 1 -2.2 2.2h-6.32a2.19 2.19 0 0 1 -2.2-2.2v-20.41a4 4 0 0 1 1-2.61 4.14 4.14 0 0 0 .89-2.06z" stroke="#263238" stroke-linecap="round" stroke-linejoin="round" stroke-width=".75"/><path d="m322.54 192.87h-3a.66.66 0 0 1 -.66-.67.66.66 0 0 1 .66-.66h3a.66.66 0 0 1 .66.66.66.66 0 0 1 -.66.67z" stroke="#263238" stroke-linecap="round" stroke-linejoin="round" stroke-width=".75"/><path d="m337.56 205.5 1.82-13.11h3.4l2 13.46a4.21 4.21 0 0 0 .7 1.74l.17.23a4.12 4.12 0 0 1 .74 2.35v20.41a2.19 2.19 0 0 1 -2.2 2.2h-6.29a2.2 2.2 0 0 1 -2.2-2.2v-20.41a4.09 4.09 0 0 1 .95-2.61 4.05 4.05 0 0 0 .91-2.06z" stroke="#263238" stroke-linecap="round" stroke-linejoin="round" stroke-width=".75"/><path d="m342.6 192.87h-3a.67.67 0 0 1 -.66-.67.67.67 0 0 1 .66-.66h3a.67.67 0 0 1 .66.66.67.67 0 0 1 -.66.67z" stroke="#263238" stroke-linecap="round" stroke-linejoin="round" stroke-width=".75"/><path d="m357.61 205.5 1.83-13.11h3.4l2 13.46a4 4 0 0 0 .7 1.74l.16.23a4.05 4.05 0 0 1 .75 2.35v20.41a2.2 2.2 0 0 1 -2.21 2.2h-6.24a2.2 2.2 0 0 1 -2.21-2.2v-20.41a4.09 4.09 0 0 1 .95-2.61 4.05 4.05 0 0 0 .87-2.06z" stroke="#263238" stroke-linecap="round" stroke-linejoin="round" stroke-width=".75"/><path d="m362.65 192.87h-3a.67.67 0 0 1 -.67-.67.67.67 0 0 1 .67-.66h3a.67.67 0 0 1 .66.66.67.67 0 0 1 -.66.67z" stroke="#263238" stroke-linecap="round" stroke-linejoin="round" stroke-width=".75"/><path d="m81.68 232.75h334.32" stroke="#263238" stroke-linecap="round" stroke-linejoin="round" stroke-width=".75"/><path d="m81.68 176.08h334.32" stroke="#263238" stroke-linecap="round" stroke-linejoin="round" stroke-width=".75"/><path d="m81.68 180.75h334.32" stroke="#263238" stroke-linecap="round" stroke-linejoin="round" stroke-width=".75"/><path d="m81.68 242.08h334.32" stroke="#263238" stroke-linecap="round" stroke-linejoin="round" stroke-width=".75"/><path d="m81.68 247.68h334.32" stroke="#263238" stroke-linecap="round" stroke-linejoin="round" stroke-width=".75"/><path d="m427.33 270.34c0 3.09-13.07 5.59-29.19 5.59s-29.2-2.5-29.2-5.59 13.07-5.6 29.2-5.6 29.19 2.5 29.19 5.6z" stroke="#263238" stroke-linecap="round" stroke-linejoin="round" stroke-width=".75"/><path d="m427.33 281.53c0 3.09-13.07 5.6-29.19 5.6s-29.2-2.51-29.2-5.6v-7" stroke="#263238" stroke-linecap="round" stroke-linejoin="round" stroke-width=".75"/><path d="m392.68 376.86v-89.15" stroke="#263238" stroke-linecap="round" stroke-linejoin="round" stroke-width=".75"/><path d="m401.07 287.31v41.17" stroke="#263238" stroke-linecap="round" stroke-linejoin="round" stroke-width=".75"/><path d="m328.59 270.34c0 3.09-13.07 5.59-29.2 5.59s-29.19-2.5-29.19-5.59 13.07-5.6 29.19-5.6 29.2 2.5 29.2 5.6z" stroke="#263238" stroke-linecap="round" stroke-linejoin="round" stroke-width=".75"/><path d="m328.59 281.53c0 3.09-13.07 5.6-29.2 5.6s-29.19-2.51-29.19-5.6v-7" stroke="#263238" stroke-linecap="round" stroke-linejoin="round" stroke-width=".75"/><path d="m293.93 376.86v-89.15" stroke="#263238" stroke-linecap="round" stroke-linejoin="round" stroke-width=".75"/><path d="m302.33 287.31v41.17" stroke="#263238" stroke-linecap="round" stroke-linejoin="round" stroke-width=".75"/><path d="m229.84 270.34c0 3.09-13.07 5.59-29.19 5.59s-29.2-2.5-29.2-5.59 13.08-5.6 29.2-5.6 29.19 2.5 29.19 5.6z" stroke="#263238" stroke-linecap="round" stroke-linejoin="round" stroke-width=".75"/><path d="m229.84 281.53c0 3.09-13.07 5.6-29.19 5.6s-29.2-2.51-29.2-5.6v-7" stroke="#263238" stroke-linecap="round" stroke-linejoin="round" stroke-width=".75"/><path d="m195.19 376.86v-89.15" stroke="#263238" stroke-linecap="round" stroke-linejoin="round" stroke-width=".75"/><path d="m203.58 287.31v41.17" stroke="#263238" stroke-linecap="round" stroke-linejoin="round" stroke-width=".75"/><path d="m131.1 270.34c0 3.09-13.07 5.59-29.2 5.59s-29.19-2.5-29.19-5.59 13.07-5.6 29.19-5.6 29.2 2.5 29.2 5.6z" stroke="#263238" stroke-linecap="round" stroke-linejoin="round" stroke-width=".75"/><path d="m131.1 281.53c0 3.09-13.07 5.6-29.2 5.6s-29.19-2.51-29.19-5.6v-7" stroke="#263238" stroke-linecap="round" stroke-linejoin="round" stroke-width=".75"/><path d="m96.44 376.86v-89.15" stroke="#263238" stroke-linecap="round" stroke-linejoin="round" stroke-width=".75"/><path d="m104.84 287.31v41.17" stroke="#263238" stroke-linecap="round" stroke-linejoin="round" stroke-width=".75"/><path d="m173.33 112.5c0 2-13.13 3.67-29.33 3.67s-29.33-1.64-29.33-3.67 13.13-3.66 29.33-3.66 29.33 1.64 29.33 3.66z" stroke="#263238" stroke-linecap="round" stroke-linejoin="round" stroke-width=".75"/><path d="m114.67 112.5 26.66-29.66v-19.33" stroke="#263238" stroke-linecap="round" stroke-linejoin="round" stroke-width=".75"/><path d="m150 66.84v16l23.33 29.66" stroke="#263238" stroke-linecap="round" stroke-linejoin="round" stroke-width=".75"/><path d="m292 112.5c0 2-13.13 3.67-29.33 3.67s-29.34-1.64-29.34-3.67 13.14-3.66 29.34-3.66 29.33 1.64 29.33 3.66z" stroke="#263238" stroke-linecap="round" stroke-linejoin="round" stroke-width=".75"/><path d="m233.33 112.5 26.67-29.66v-19.33" stroke="#263238" stroke-linecap="round" stroke-linejoin="round" stroke-width=".75"/><path d="m268.67 66.84v16l23.33 29.66" stroke="#263238" stroke-linecap="round" stroke-linejoin="round" stroke-width=".75"/><path d="m410.67 112.5c0 2-13.14 3.67-29.34 3.67s-29.33-1.64-29.33-3.67 13.13-3.66 29.33-3.66 29.34 1.64 29.34 3.66z" stroke="#263238" stroke-linecap="round" stroke-linejoin="round" stroke-width=".75"/><path d="m352 112.5 26.67-29.66v-19.33" stroke="#263238" stroke-linecap="round" stroke-linejoin="round" stroke-width=".75"/><path d="m387.33 66.84v16l23.34 29.66" stroke="#263238" stroke-linecap="round" stroke-linejoin="round" stroke-width=".75"/></g><path d="m259.8 198.79a33.43 33.43 0 0 0 -1.22 6.74c0 2.45 0 3.88 4.08 9.6s11 10.82 11 10.82 1.22.41 1.43-1.63 3.27-19.4 3.27-19.4 2-1 5.71 0 2 7.55 2.66 10.21-1.84 25.12-2.66 27.77-3.67 1.84-10.82-2.65-12.25-14.25-14.47-18.79-3.06-9-6.12-12.25-5.72-5.92-6.74-8.58 5.71-4.08 8.57-3.47a34 34 0 0 1 5.31 1.63z" fill="#fff"/><g clip-path="url(#a)"><path d="m283 217.5c-5 13-9.5 18.5-15.5 13.5a81.4 81.4 0 0 1 -7.66-7.48c2.59 5 7.25 12.84 13.44 16.73 7.15 4.49 10 5.31 10.82 2.65.73-2.34 2.72-20.12 2.75-26.08-1.09-2.64-2.38-3.12-3.85.68z" fill="#92e3a9"/><path d="m283 217.5c-5 13-9.5 18.5-15.5 13.5a81.4 81.4 0 0 1 -7.66-7.48c2.59 5 7.25 12.84 13.44 16.73 7.15 4.49 10 5.31 10.82 2.65.73-2.34 2.72-20.12 2.75-26.08-1.09-2.64-2.38-3.12-3.85.68z" fill="#fff" opacity=".5"/></g><path d="m259.8 198.79a33.43 33.43 0 0 0 -1.22 6.74c0 2.45 0 3.88 4.08 9.6s11 10.82 11 10.82 1.22.41 1.43-1.63 3.27-19.4 3.27-19.4 2-1 5.71 0 2 7.55 2.66 10.21-1.84 25.12-2.66 27.77-3.67 1.84-10.82-2.65-12.25-14.25-14.47-18.79-3.06-9-6.12-12.25-5.72-5.92-6.74-8.58 5.71-4.08 8.57-3.47a34 34 0 0 1 5.31 1.63z" fill="none" stroke="#263238" stroke-linecap="round" stroke-linejoin="round"/><path d="m242.57 183.32.79-15.61 4-.36 3.78 15.65a4.81 4.81 0 0 0 1 2l.22.26a4.78 4.78 0 0 1 1.11 2.68l2.12 24a2.6 2.6 0 0 1 -2.37 2.82l-7.43.65a2.6 2.6 0 0 1 -2.79-2.41l-2.11-24a4.85 4.85 0 0 1 .84-3.18 4.73 4.73 0 0 0 .84-2.5z" fill="#92e3a9" stroke="#263238" stroke-linecap="round" stroke-linejoin="round"/><path d="m247.19 167.93-3.56.31a.78.78 0 0 1 -.85-.71.78.78 0 0 1 .71-.84l3.56-.32a.78.78 0 0 1 .85.71.78.78 0 0 1 -.71.85z" fill="#92e3a9" stroke="#263238" stroke-linecap="round" stroke-linejoin="round"/><path d="m241.72 190.29h12.67v16.22h-12.67z" fill="#fff" stroke="#263238" stroke-linecap="round" stroke-linejoin="round" transform="matrix(.99614893 -.08767734 .08767734 .99614893 -16.45 22.53)"/><path d="m242.85 177.87 6.91-.61-.71-2.92-6.05.53z" fill="#fff" stroke="#263238" stroke-linecap="round" stroke-linejoin="round"/><path d="m257.15 195.93s-5.31-1-5.72.62 2.86 2.24 5.11 2.65 3.06.41 3.47-1.22-2.86-2.05-2.86-2.05z" fill="#fff" stroke="#263238" stroke-linecap="round" stroke-linejoin="round"/><ellipse cx="300" cy="427.17" fill="#92e3a9" rx="39" ry="15.33"/><ellipse cx="300" cy="427.17" fill="#fff" opacity=".5" rx="39" ry="15.33"/><path d="m308.25 399.34 3.5 7.25-1.75.75-4.25-4s0-1.75 2.5-4z" fill="#263238" stroke="#263238" stroke-linecap="round" stroke-linejoin="round"/><path d="m279.75 321.09s5.25 21.5 7.25 30.25 1.75 16.5 5 27.5 6.5 28.5 6.75 33-4.25 8.75-2 9.5 8.25-4.5 8.75-8.75-.5-7.5.25-9.25 3.25-2.25 2.75-5-4-4-4-5.5-1.75-15.25-.75-23.25c.92-7.38-5.5-24.25-5.5-24.25l1.25-26.25z" fill="#92e3a9"/><g clip-path="url(#b)"><path d="m279.75 321.09s5.25 21.5 7.25 30.25 1.75 16.5 5 27.5 6.5 28.5 6.75 33-4.25 8.75-2 9.5 8.25-4.5 8.75-8.75-.5-7.5.25-9.25 3.25-2.25 2.75-5-4-4-4-5.5-1.75-15.25-.75-23.25c.92-7.38-5.5-24.25-5.5-24.25l1.25-26.25z" fill="#fff" opacity=".5"/></g><path d="m279.75 321.09s5.25 21.5 7.25 30.25 1.75 16.5 5 27.5 6.5 28.5 6.75 33-4.25 8.75-2 9.5 8.25-4.5 8.75-8.75-.5-7.5.25-9.25 3.25-2.25 2.75-5-4-4-4-5.5-1.75-15.25-.75-23.25c.92-7.38-5.5-24.25-5.5-24.25l1.25-26.25z" fill="none" stroke="#263238" stroke-linecap="round" stroke-linejoin="round"/><path d="m305.75 403.34c.75-1.75 3.25-2.25 2.75-5-.42-2.32-3-3.57-3.76-4.81a13.26 13.26 0 0 1 -7.77 6.68 115.66 115.66 0 0 1 1.78 11.63c.25 4.5-4.25 8.75-2 9.5s8.25-4.5 8.75-8.75-.5-7.5.25-9.25z" fill="#263238" stroke="#263238" stroke-linecap="round" stroke-linejoin="round"/><path d="m293.1 420.68-.86 9.34h-1.73l-1.04-6.74z" fill="#263238" stroke="#263238" stroke-linecap="round" stroke-linejoin="round"/><path d="m292.33 324.17s3.34 23 1.34 39.33-8.34 47.34-11.67 52.34-10.67 14.66-12.33 17.33 4.85 1.21 7.53 1c6.4-.52 6.91-7.78 10.47-9 3.35-1.15 6.63-3 6.3-5.35s-4-8.32.7-17 17.66-33 17.33-45-4.67-17.34-2.67-21.67 6.34-14.67 6.34-14.67-17.67 5.02-23.34 2.69z" fill="#fff"/><g clip-path="url(#c)"><path d="m292.33 324.17s3.34 23 1.34 39.33-8.34 47.34-11.67 52.34-10.67 14.66-12.33 17.33c-1 1.63 1 1.72 3.36 1.5 2.24-3.58 7.1-10.89 12.9-19.87 6.51-10.05 7.1-24.55 9.76-38.16s1.48-27.8 1.19-31.35-.3-11.54-.3-11.54h8.88a30.87 30.87 0 0 0 5.15-.43c2.15-4.89 5.06-11.82 5.06-11.82s-17.67 5-23.34 2.67z" fill="#92e3a9"/><path d="m292.33 324.17s3.34 23 1.34 39.33-8.34 47.34-11.67 52.34-10.67 14.66-12.33 17.33c-1 1.63 1 1.72 3.36 1.5 2.24-3.58 7.1-10.89 12.9-19.87 6.51-10.05 7.1-24.55 9.76-38.16s1.48-27.8 1.19-31.35-.3-11.54-.3-11.54h8.88a30.87 30.87 0 0 0 5.15-.43c2.15-4.89 5.06-11.82 5.06-11.82s-17.67 5-23.34 2.67z" fill="#fff" opacity=".5"/></g><path d="m292.33 324.17s3.34 23 1.34 39.33-8.34 47.34-11.67 52.34-10.67 14.66-12.33 17.33 4.85 1.21 7.53 1c6.4-.52 6.91-7.78 10.47-9 3.35-1.15 6.63-3 6.3-5.35s-4-8.32.7-17 17.66-33 17.33-45-4.67-17.34-2.67-21.67 6.34-14.67 6.34-14.67-17.67 5.02-23.34 2.69z" fill="none" stroke="#263238" stroke-linecap="round" stroke-linejoin="round"/><path d="m287.67 425.17c3.35-1.15 6.63-3 6.3-5.35-.19-1.3-1.39-3.72-1.62-7.1-4.75 3.56-7.82 2.93-9.6 1.68a10.33 10.33 0 0 1 -.75 1.44c-3.33 5-10.67 14.66-12.33 17.33s4.85 1.21 7.53 1c6.4-.52 6.91-7.78 10.47-9z" fill="#263238" stroke="#263238" stroke-linecap="round" stroke-linejoin="round"/><path d="m296.67 178.17s-11.34-.67-17 5.67-5.67 15-4.67 20 7.67 8.66 10.67 8.66 11-34.33 11-34.33z" fill="#92e3a9" stroke="#263238" stroke-linecap="round" stroke-linejoin="round"/><path d="m282.33 208.84a124 124 0 0 1 1.34 16c0 7.33-.67 6.66-2.34 16.66s-9 21.67-8.66 34.67 5 48 5 48 4 4 15.66 5 24-2.67 24-2.67 9.34-22.33 12-36.33-5-29-6.66-33-5-12-5-13 2.66-11 8.33-21 6.33-21.33 9-29.67-7.33-17.66-14-20-21-1.33-26.33 5-10.67 17.34-12.34 30.34z" fill="#92e3a9" stroke="#263238" stroke-linecap="round" stroke-linejoin="round"/><path d="m302.88 261.7s-9.69 11.24-11.63 22.88" fill="none" stroke="#263238" stroke-linecap="round" stroke-linejoin="round"/><path d="m290.86 292.34s-1.55 15.13 0 22.5" fill="none" stroke="#263238" stroke-linecap="round" stroke-linejoin="round"/><path d="m295.33 135.84s-10.33-12-4-17 23.34-9 35-4.67 10.67 21.33 9.34 32 5 27 5 27 3 4.33-1.34 6.33-7.66-1-12.33 7.34-6 23.66-10.67 32-19.33 10.66-20.66-2 16.19-33.74 19.6-45-4.94-20.63-7.94-29-5.66-11.34-5.66-11.34z" fill="#263238" stroke="#263238" stroke-linecap="round" stroke-linejoin="round"/><path d="m311.69 219.26a9.67 9.67 0 0 0 2.48-4.48" fill="none" stroke="#fff" stroke-linecap="round" stroke-linejoin="round"/><path d="m307 121.38s2.06 17.45 11.29 27.2 6.16 21.55 2.57 31.3-23.09 28.23-19.5 37.46c1.78 4.59 4.71 5.25 7.33 4.13" fill="none" stroke="#fff" stroke-linecap="round" stroke-linejoin="round"/><path d="m334.2 161.1a18.89 18.89 0 0 1 -1.56 8" fill="none" stroke="#fff" stroke-linecap="round" stroke-linejoin="round"/><path d="m314.68 117.79s5.13 11.29 11.29 17.45c3.73 3.73 6.89 12.34 7.9 20.39" fill="none" stroke="#fff" stroke-linecap="round" stroke-linejoin="round"/><path d="m308.36 163.07s1 7.92-3.05 14.82-10.15 16.05-6.3 16.05 15-13.81 16.26-22.14a111.22 111.22 0 0 0 1.21-14.42z" fill="#92e3a9"/><g clip-path="url(#d)"><path d="m308.36 163.07s1 7.92-3.05 14.82-10.15 16.05-6.3 16.05 15-13.81 16.26-22.14a111.22 111.22 0 0 0 1.21-14.42z" fill="#fff" opacity=".5"/></g><path d="m308.36 163.07s1 7.92-3.05 14.82-10.15 16.05-6.3 16.05 15-13.81 16.26-22.14a111.22 111.22 0 0 0 1.21-14.42z" fill="none" stroke="#263238" stroke-linecap="round" stroke-linejoin="round"/><path d="m298.33 162.5a48.13 48.13 0 0 1 -7 16c-5.66 8.67-14 25.34-13.33 35.34s9.67 8.66 12.67 3.33 7-21.67 13.33-32.33 9.33-24.34 5.67-26-7-3.67-11.34 3.66z" fill="#263238" stroke="#263238" stroke-linecap="round" stroke-linejoin="round"/><path d="m280 211.28a9.59 9.59 0 0 0 1.3 3.5" fill="none" stroke="#fff" stroke-linecap="round" stroke-linejoin="round"/><path d="m305.58 173.28s-.8 3.11-10 14.92c-6.35 8.11-13.12 13.51-15.05 18.93" fill="none" stroke="#fff" stroke-linecap="round" stroke-linejoin="round"/><path d="m302.87 123.46s-8.32 7.92-9.54 15.43 1.62 19.3 3.45 24 5.28 4.88 7.31 4.07 12.39-6.91 13-7.93-14.42-27.25-14.22-35.57z" fill="#fff" stroke="#263238" stroke-linecap="round" stroke-linejoin="round"/><path d="m299.42 152.91s-3.25.41-4.26-.2 2-9.55 2-10.57-1.43-3.65-1.43-3.65-1.41-1.44-1.87.84" fill="none" stroke="#263238" stroke-linecap="round" stroke-linejoin="round"/><path d="m299.42 156.77s2.84 1.22 6.3-1.63" fill="none" stroke="#263238" stroke-linecap="round" stroke-linejoin="round"/><path d="m302.22 142.81s2.58-1.21 4.09.76" fill="none" stroke="#263238" stroke-linecap="round" stroke-linejoin="round"/><path d="m301 137.36s3.33-1.52 5.45.45" fill="none" stroke="#263238" stroke-linecap="round" stroke-linejoin="round"/><path d="m296.31 143.11s-.6-1.82-2.42-.45" fill="none" stroke="#263238" stroke-linecap="round" stroke-linejoin="round"/><path d="m337.67 210.17 9.66 16.67s-11 13.33-15 18.33-6.61 4.4-6.61 4.4-1.05-3.73-2.39-7.4-5.67-4.4-4.67-2.07 2.34 4.74 1.34 5.07-6.67-2.67-9.67-2.67-9 0-8.33 1.34 6.67 1 6.67 1l2.66 2a66.51 66.51 0 0 0 -8.66 1c-2.67.66-5 1.66-4.34 3a1.2 1.2 0 0 0 .66.6 2 2 0 0 1 1.27 1.89c0 .47.16.84.74.84h6.33s-7.33 2-7 3.67 4 .33 6.34.33a82.47 82.47 0 0 1 8.46 1s6 .64 10.2-1c23-9.08 35.05-26.09 36.67-29 2-3.55-15-25.67-15-25.67z" fill="#fff"/><g clip-path="url(#e)"><path d="m354.5 232c-5.5 5.5-22 20.5-25.5 20-.93-.13-.72-1.58.08-3.63-2.1 1.49-3.36 1.2-3.36 1.2s-1.05-3.73-2.39-7.4-5.67-4.4-4.67-2.07 2.34 4.74 1.34 5.07-6.67-2.67-9.67-2.67-9 0-8.33 1.34 6.67 1 6.67 1l2.66 2a66.51 66.51 0 0 0 -8.66 1c-2.67.66-5 1.66-4.34 3a1.2 1.2 0 0 0 .66.6 2 2 0 0 1 1.27 1.89c0 .47.16.84.74.84h6.33s-7.33 2-7 3.67 4 .33 6.34.33a82.47 82.47 0 0 1 8.46 1s6 .64 10.2-1c23-9.08 35.05-26.09 36.67-29 .68-1.22-.88-4.64-3.23-8.61-.46 4.1-1.6 8.78-4.27 11.44z" fill="#92e3a9"/><path d="m354.5 232c-5.5 5.5-22 20.5-25.5 20-.93-.13-.72-1.58.08-3.63-2.1 1.49-3.36 1.2-3.36 1.2s-1.05-3.73-2.39-7.4-5.67-4.4-4.67-2.07 2.34 4.74 1.34 5.07-6.67-2.67-9.67-2.67-9 0-8.33 1.34 6.67 1 6.67 1l2.66 2a66.51 66.51 0 0 0 -8.66 1c-2.67.66-5 1.66-4.34 3a1.2 1.2 0 0 0 .66.6 2 2 0 0 1 1.27 1.89c0 .47.16.84.74.84h6.33s-7.33 2-7 3.67 4 .33 6.34.33a82.47 82.47 0 0 1 8.46 1s6 .64 10.2-1c23-9.08 35.05-26.09 36.67-29 .68-1.22-.88-4.64-3.23-8.61-.46 4.1-1.6 8.78-4.27 11.44z" fill="#fff" opacity=".5"/></g><path d="m337.67 210.17 9.66 16.67s-11 13.33-15 18.33-6.61 4.4-6.61 4.4-1.05-3.73-2.39-7.4-5.67-4.4-4.67-2.07 2.34 4.74 1.34 5.07-6.67-2.67-9.67-2.67-9 0-8.33 1.34 6.67 1 6.67 1l2.66 2a66.51 66.51 0 0 0 -8.66 1c-2.67.66-5 1.66-4.34 3a1.2 1.2 0 0 0 .66.6 2 2 0 0 1 1.27 1.89c0 .47.16.84.74.84h6.33s-7.33 2-7 3.67 4 .33 6.34.33a82.47 82.47 0 0 1 8.46 1s6 .64 10.2-1c23-9.08 35.05-26.09 36.67-29 2-3.55-15-25.67-15-25.67z" fill="none" stroke="#263238" stroke-linecap="round" stroke-linejoin="round"/><path d="m347 203.5-9.33 6.67 4.76 8.21 11-6.09c-3.43-4.83-6.43-8.79-6.43-8.79z" fill="#92e3a9" stroke="#263238" stroke-linecap="round" stroke-linejoin="round"/><path d="m300.05 252.46s6.74-3.21 10.59-2.41" fill="#fff" stroke="#263238" stroke-linecap="round" stroke-linejoin="round"/><path d="m307.33 254.17s3.31-.75 4.27-.43" fill="#fff" stroke="#263238" stroke-linecap="round" stroke-linejoin="round"/><path d="m342 174.27a17.06 17.06 0 0 0 -18.87 12.33 28 28 0 0 0 -.75 3.57c-1.66 11.67 3.34 21 7 23.67s22-7 24.34-11.67-.35-16.54-4-22.67a10.43 10.43 0 0 0 -7.72-5.23z" fill="#92e3a9" stroke="#263238" stroke-linecap="round" stroke-linejoin="round"/><ellipse cx="206" cy="427.17" fill="#92e3a9" rx="39" ry="15.33"/><ellipse cx="206" cy="427.17" fill="#fff" opacity=".5" rx="39" ry="15.33"/><path d="m218.71 120.66a87.66 87.66 0 0 1 10.67 21.88c4 12.55 5.07 27-1.06 32.83s-13.62 12.27-12.55 16.28 13.35 11.47 12.81 22.95-10.14 15.74-19.75 17.08-14.67-10.94-14.67-15 4.8-20.55.8-29.09a140.07 140.07 0 0 0 -12.82-22.06c-7.37-10.21-.83-13.41 4-19.28s-1.6-8 0-16.55 32.57-9.04 32.57-9.04z" fill="#263238" stroke="#263238" stroke-linecap="round" stroke-linejoin="round"/><path d="m221.11 123.6s-25.35 13.34-34.43 25.88-8.8 19.75-11.47 14.15-9.34-30.69-.27-37.1 19.75-17.61 34.16-15.21 12.01 12.28 12.01 12.28z" fill="#263238" stroke="#263238" stroke-linecap="round" stroke-linejoin="round"/><path d="m225 144.74c1 6.71 1.58 16.68-1.61 23.06-5.18 10.35-18.72 13.58-19.87 23.23s15.91 17.26 15.91 25.78-8.53 13.39-13.09 11" fill="none" stroke="#fff" stroke-linecap="round" stroke-linejoin="round"/><path d="m223.7 137.66s.34 1.39.75 3.63" fill="none" stroke="#fff" stroke-linecap="round" stroke-linejoin="round"/><path d="m176.79 150.74a20.56 20.56 0 0 0 -1.69 6.56" fill="none" stroke="#fff" stroke-linecap="round" stroke-linejoin="round"/><path d="m214.61 118.82s-13.85 6.18-23.61 12.82c-4.82 3.3-8.76 8.48-11.51 13.43" fill="none" stroke="#fff" stroke-linecap="round" stroke-linejoin="round"/><path d="m207.43 118.82s-31.3 9.75-33.87 17.44.51 16.42.51 16.42" fill="none" stroke="#fff" stroke-linecap="round" stroke-linejoin="round"/><path d="m189.08 318.48s5.58 13.95 6 19.37-6.81 17.31-6.47 28.43-.77 28.81-.63 33.15 3.53 9.12 4.14 11.28.24 8.14 3 10.5 8.57 5.17 7.76-3.77-7.89-18.49-8-23.65 10.32-26.92 13-36.23-1.09-36.08-1.76-40.41-17.04 1.33-17.04 1.33z" fill="#92e3a9"/><g clip-path="url(#f)"><path d="m189.08 318.48s5.58 13.95 6 19.37-6.81 17.31-6.47 28.43-.77 28.81-.63 33.15 3.53 9.12 4.14 11.28.24 8.14 3 10.5 8.57 5.17 7.76-3.77-7.89-18.49-8-23.65 10.32-26.92 13-36.23-1.09-36.08-1.76-40.41-17.04 1.33-17.04 1.33z" fill="#fff" opacity=".5"/></g><path d="m189.08 318.48s5.58 13.95 6 19.37-6.81 17.31-6.47 28.43-.77 28.81-.63 33.15 3.53 9.12 4.14 11.28.24 8.14 3 10.5 8.57 5.17 7.76-3.77-7.89-18.49-8-23.65 10.32-26.92 13-36.23-1.09-36.08-1.76-40.41-17.04 1.33-17.04 1.33z" fill="none" stroke="#263238" stroke-linecap="round" stroke-linejoin="round"/><path d="m201.19 410.3c-.84 2.26-2.2 4-4.37 3-4.12-1.91-7.74-12.08-8.84-15.46v1.61c.13 4.34 3.53 9.12 4.14 11.28s.24 8.14 3 10.5 8.57 5.17 7.76-3.77a29.38 29.38 0 0 0 -1.69-7.16z" fill="#263238" stroke="#263238" stroke-linecap="round" stroke-linejoin="round"/><path d="m205.76 416.51.4 10.86 2 .11 1.21-7.22a12.15 12.15 0 0 0 -3.61-3.75z" fill="#263238" stroke="#263238" stroke-linecap="round" stroke-linejoin="round"/><path d="m189.33 326.84s10.67 19.33 8.67 26-4.33 23.33-1.33 29.66 8.33 20 9.66 22.67 2 3.67.34 6.67-2 5 1.33 8 4 7.33 6.67 10 11.66 6 13 4-7-11-9-16.34-4.67-21-4.67-40.33-3-55-3-55z" fill="#fff"/><g clip-path="url(#g)"><path d="m212.24 415.66c-.36-5.48-3.28-13.52-7.66-21.55s-8.4-27-4.39-38.35-1.09-21.91-1.09-21.91a21.77 21.77 0 0 0 6.57-1.1c1.66-.62 4.14-1.59 6-2.32-.38-5-.65-8.26-.65-8.26l-21.67 4.67s10.67 19.33 8.67 26-4.33 23.33-1.33 29.66 8.33 20 9.66 22.67 2 3.67.34 6.67-2 5 1.33 8a19.09 19.09 0 0 1 4 5.94c-.25-2.88.47-6.5.22-10.12z" fill="#92e3a9"/><path d="m212.24 415.66c-.36-5.48-3.28-13.52-7.66-21.55s-8.4-27-4.39-38.35-1.09-21.91-1.09-21.91a21.77 21.77 0 0 0 6.57-1.1c1.66-.62 4.14-1.59 6-2.32-.38-5-.65-8.26-.65-8.26l-21.67 4.67s10.67 19.33 8.67 26-4.33 23.33-1.33 29.66 8.33 20 9.66 22.67 2 3.67.34 6.67-2 5 1.33 8a19.09 19.09 0 0 1 4 5.94c-.25-2.88.47-6.5.22-10.12z" fill="#fff" opacity=".5"/></g><path d="m189.33 326.84s10.67 19.33 8.67 26-4.33 23.33-1.33 29.66 8.33 20 9.66 22.67 2 3.67.34 6.67-2 5 1.33 8 4 7.33 6.67 10 11.66 6 13 4-7-11-9-16.34-4.67-21-4.67-40.33-3-55-3-55z" fill="none" stroke="#263238" stroke-linecap="round" stroke-linejoin="round"/><path d="m217.67 423.84c-5.53-3-9.23-10.9-10.32-13.49a9.81 9.81 0 0 1 -.68 1.49c-1.67 3-2 5 1.33 8s4 7.33 6.67 10 11.66 6 13 4c.84-1.27-2.18-5.32-5-9.48-1.11.64-2.67.75-5-.52z" fill="#263238" stroke="#263238" stroke-linecap="round" stroke-linejoin="round"/><path d="m180.81 160.69s-8.81 6.14-16.81 10.94-12.81 11.74-10.94 17.88l1.87 6.14 15.47 45.64s-12.54 20.28-11.74 34.42 6.67 25.36 13.88 36.3 9.34 17.88 9.34 17.88 19.75-1.6 26.15-2.94a34.65 34.65 0 0 0 9.61-3.2s6.94-47 1.33-63.78-15.21-26.42-15.21-26.42-2.93-7.74 4.54-25.62c3-7.09-4.27-16.55-7.21-20a27.83 27.83 0 0 1 -6.67-18.68c0-9.36-13.61-8.56-13.61-8.56z" fill="#fff" stroke="#263238" stroke-linecap="round" stroke-linejoin="round"/><path d="m175.21 163.63a13.47 13.47 0 0 0 -.29 10.18c2.17 5.14 7 10.29 12.18 10.29s8.12-2.17 7.85-10.83-11.61-18.75-19.74-9.64z" fill="#92e3a9" stroke="#263238" stroke-linecap="round" stroke-linejoin="round"/><path d="m217.64 323.75s6.94-47 1.33-63.78-15.21-26.42-15.21-26.42a10.05 10.05 0 0 1 -.4-1.94c-16.06 4.79-27 6-34.21 6l1.25 3.7s-12.54 20.28-11.74 34.42 6.67 25.36 13.88 36.3 9.34 17.88 9.34 17.88 19.75-1.6 26.15-2.94a34.65 34.65 0 0 0 9.61-3.22z" fill="#263238" stroke="#263238" stroke-linecap="round" stroke-linejoin="round"/><path d="m185.88 252.75s12.83 19.5 18.47 33.87" fill="none" stroke="#fff" stroke-linecap="round" stroke-linejoin="round"/><path d="m205.89 289.7s3.08 6.16 3.59 11.29" fill="none" stroke="#fff" stroke-linecap="round" stroke-linejoin="round"/><path d="m208.3 207.93c2.3-5.51-1.55-12.45-4.77-16.9-8.34 1.69-11.24 11.83-11.24 11.83s-7.48-11.48-17.35-9.61c-5.58 1.05-11.33 9.35-15.28 16.37l10.47 30.86c24.81 2.35 33.63-6.93 33.63-6.93s-2.93-7.74 4.54-25.62z" fill="#92e3a9" stroke="#263238" stroke-linecap="round" stroke-linejoin="round"/><path d="m188.55 144.68s-9.6 16.54-11.47 19.48c-6 9.49 9.56 23.76 15.74 14.14 2.4-3.73.27-6.67 1.87-10.67a72.14 72.14 0 0 1 3.2-6.94 23 23 0 0 1 -3.47-7.74c-1.07-4.54-4.8-10.41-5.87-8.27z" fill="#fff"/><g clip-path="url(#h)"><path d="m187.78 155.63a18.19 18.19 0 0 0 1.46 9.5c1.61 3.22 3 4.66 4.82 5.34a9.19 9.19 0 0 1 .63-2.84 72.14 72.14 0 0 1 3.2-6.94 23 23 0 0 1 -3.47-7.74c-1.07-4.54-4.8-10.41-5.87-8.27l-4.48 7.7a18.92 18.92 0 0 0 3.71 3.25z" fill="#92e3a9"/><path d="m187.78 155.63a18.19 18.19 0 0 0 1.46 9.5c1.61 3.22 3 4.66 4.82 5.34a9.19 9.19 0 0 1 .63-2.84 72.14 72.14 0 0 1 3.2-6.94 23 23 0 0 1 -3.47-7.74c-1.07-4.54-4.8-10.41-5.87-8.27l-4.48 7.7a18.92 18.92 0 0 0 3.71 3.25z" fill="#fff" opacity=".5"/></g><path d="m188.55 144.68s-9.6 16.54-11.47 19.48c-6 9.49 9.56 23.76 15.74 14.14 2.4-3.73.27-6.67 1.87-10.67a72.14 72.14 0 0 1 3.2-6.94 23 23 0 0 1 -3.47-7.74c-1.07-4.54-4.8-10.41-5.87-8.27z" fill="none" stroke="#263238" stroke-linecap="round" stroke-linejoin="round"/><path d="m231.2 176.57 2.15-15.48h4l2.4 15.89a4.86 4.86 0 0 0 .82 2.06l.2.27a4.85 4.85 0 0 1 .88 2.78v24.1a2.61 2.61 0 0 1 -2.61 2.61h-7.44a2.61 2.61 0 0 1 -2.6-2.61v-24.1a4.83 4.83 0 0 1 1.12-3.09 4.88 4.88 0 0 0 1.08-2.43z" fill="#92e3a9" stroke="#263238" stroke-linecap="round" stroke-linejoin="round"/><path d="m237.15 161.65h-3.57a.79.79 0 0 1 -.79-.79.78.78 0 0 1 .79-.78h3.57a.78.78 0 0 1 .78.78.78.78 0 0 1 -.78.79z" fill="#92e3a9" stroke="#263238" stroke-linecap="round" stroke-linejoin="round"/><path d="m229 183.97h12.67v16.22h-12.67z" fill="#fff" stroke="#263238" stroke-linecap="round" stroke-linejoin="round"/><path d="m231.95 171.17h6.94l-.45-2.98h-6.08z" fill="#fff" stroke="#263238" stroke-linecap="round" stroke-linejoin="round"/><path d="m157.59 176.17s-10.14 4-10.67 10.41 2.93 19.48 8 28.55 12 27.49 15.21 27.49 54.17-39 54.17-39 10.94-1.34 12.55-1.34 4.53-.8 4-2.93l-2.4-.54s4.53 0 4.53-1.33a2.89 2.89 0 0 0 -1.06-2.14l-3.21-.26 4.27-1.6s3.21-2.14.54-2.94a32.48 32.48 0 0 0 -5.07-1.07s6.4.27 6.67-2.4-3.2-2.4-5.07-2.13-8.28.26-9.61.26-3.2-1.33-5.07 1.07-4.54 12.28-4.54 12.28-19.48 11.21-25.62 14.14-19.48 9.61-19.48 9.61l-13.61-32.29" fill="#fff"/><g clip-path="url(#i)"><path d="m240.86 199.39a40.39 40.39 0 0 0 -10.36 1.16 24 24 0 0 1 -8.76.37s-45.65 33.23-50 33.23-7.31-9.5-15-23.37a188.22 188.22 0 0 1 -9.74-20.17 70.33 70.33 0 0 0 7.92 24.52c5.07 9.08 12 27.49 15.21 27.49s54.17-39 54.17-39 10.94-1.34 12.55-1.34 4.54-.76 4.01-2.89z" fill="#92e3a9"/><path d="m240.86 199.39a40.39 40.39 0 0 0 -10.36 1.16 24 24 0 0 1 -8.76.37s-45.65 33.23-50 33.23-7.31-9.5-15-23.37a188.22 188.22 0 0 1 -9.74-20.17 70.33 70.33 0 0 0 7.92 24.52c5.07 9.08 12 27.49 15.21 27.49s54.17-39 54.17-39 10.94-1.34 12.55-1.34 4.54-.76 4.01-2.89z" fill="#fff" opacity=".5"/></g><path d="m157.59 176.17s-10.14 4-10.67 10.41 2.93 19.48 8 28.55 12 27.49 15.21 27.49 54.17-39 54.17-39 10.94-1.34 12.55-1.34 4.53-.8 4-2.93l-2.4-.54s4.53 0 4.53-1.33a2.89 2.89 0 0 0 -1.06-2.14l-3.21-.26 4.27-1.6s3.21-2.14.54-2.94a32.48 32.48 0 0 0 -5.07-1.07s6.4.27 6.67-2.4-3.2-2.4-5.07-2.13-8.28.26-9.61.26-3.2-1.33-5.07 1.07-4.54 12.28-4.54 12.28-19.48 11.21-25.62 14.14-19.48 9.61-19.48 9.61l-13.61-32.29" fill="none" stroke="#263238" stroke-linecap="round" stroke-linejoin="round"/><path d="m211.77 128.13a9.53 9.53 0 0 1 5.07 7.21c.8 5.34 1.07 10.94.53 14.14s-4 9.34-5.07 12.28-1.6 5.07-4.8 5.34-9.07-2.14-13.08-5.34-4-10.68-4-10.68-4.54-3.73-3.74-6.67 3.47-4.8 5.07-1.6 1.34 4.54 2.67 1.33-2.67-2.4 1.34-7.74 16.01-8.27 16.01-8.27z" fill="#fff" stroke="#263238" stroke-linecap="round" stroke-linejoin="round"/><path d="m217 142.5s-2.64 2-2.24 3.86 2.65 6.09 1.22 7.31-5.28-.2-5.28-.2" fill="none" stroke="#263238" stroke-linecap="round" stroke-linejoin="round"/><path d="m204.36 143.11s3.45-1.42 6.09.61" fill="none" stroke="#263238" stroke-linecap="round" stroke-linejoin="round"/><path d="m204.36 139.25a8.13 8.13 0 0 1 6.5-3.66" fill="none" stroke="#263238" stroke-linecap="round" stroke-linejoin="round"/><path d="m209.84 157.12a5.33 5.33 0 0 1 -4.67-3.45" fill="none" stroke="#263238" stroke-linecap="round" stroke-linejoin="round"/></svg>