<svg xmlns="http://www.w3.org/2000/svg" viewBox="0 0 500 500"><g id="freepik--background-complete--inject-3"><rect y="382.4" width="500" height="0.25" style="fill:#ebebeb"></rect><rect x="416.78" y="398.49" width="33.12" height="0.25" style="fill:#ebebeb"></rect><rect x="322.53" y="401.21" width="8.69" height="0.25" style="fill:#ebebeb"></rect><rect x="396.59" y="389.21" width="19.19" height="0.25" style="fill:#ebebeb"></rect><rect x="52.46" y="390.89" width="43.19" height="0.25" style="fill:#ebebeb"></rect><rect x="104.56" y="390.89" width="6.33" height="0.25" style="fill:#ebebeb"></rect><rect x="131.47" y="395.11" width="93.68" height="0.25" style="fill:#ebebeb"></rect><path d="M237,337.8H43.91a5.71,5.71,0,0,1-5.7-5.71V60.66A5.71,5.71,0,0,1,43.91,55H237a5.71,5.71,0,0,1,5.71,5.71V332.09A5.71,5.71,0,0,1,237,337.8ZM43.91,55.2a5.46,5.46,0,0,0-5.45,5.46V332.09a5.46,5.46,0,0,0,5.45,5.46H237a5.47,5.47,0,0,0,5.46-5.46V60.66A5.47,5.47,0,0,0,237,55.2Z" style="fill:#ebebeb"></path><path d="M453.31,337.8H260.21a5.72,5.72,0,0,1-5.71-5.71V60.66A5.72,5.72,0,0,1,260.21,55h193.1A5.71,5.71,0,0,1,459,60.66V332.09A5.71,5.71,0,0,1,453.31,337.8ZM260.21,55.2a5.47,5.47,0,0,0-5.46,5.46V332.09a5.47,5.47,0,0,0,5.46,5.46h193.1a5.47,5.47,0,0,0,5.46-5.46V60.66a5.47,5.47,0,0,0-5.46-5.46Z" style="fill:#ebebeb"></path><path d="M196.17,414.93a13.26,13.26,0,0,1-9.91-4.25c-7-7.62-2.44-19.09,3-29.3,4.75-9,12.32-20.76,23.13-36,19.7-27.8,47.19-62.89,73.77-96.83,20.93-26.73,40.76-52.05,56.42-73.27-.43.47-.86.95-1.31,1.43-20.69,22.68-45.62,51.56-72,82.14-29.26,33.9-59.51,69-83.71,95.07-40.6,43.8-49.48,46.53-56.88,45.56a12,12,0,0,1-9.38-6.79c-6.87-14.23,10.07-39.71,106.68-160.39,24.9-31.1,50.65-63.27,69.78-88.92,7.14-9.56,12.66-17.31,16.94-23.59-4.86,4.82-10.71,10.86-17.75,18.44-20.46,22.06-45.81,51.49-70.33,80C197.12,250,168.72,283,145.83,307.26c-35.19,37.27-46.94,43.24-56.33,41.2a13.37,13.37,0,0,1-10.12-9.71c-2.87-9.8,1.29-24.19,30.92-62.55,19.6-25.38,46.31-56,72.14-85.65,22.43-25.72,43.61-50,59.73-70.29,11.3-14.23,17.65-23.44,21.2-29.36-6.19,4.14-16.13,12.18-31.73,27.79-20.41,20.42-43.77,46.89-66.35,72.48C107.22,257,91.06,273.38,78,270.84a12.68,12.68,0,0,1-9.53-8.38C62.32,245.2,83.93,214.27,138,147c7.68-9.57,16.22-20.22,23.37-29.52q-3.36,2.63-7.25,5.85c-13,10.79-26.41,23.45-31.12,29.44a10,10,0,1,1-15.72-12.37c6.18-7.86,21.94-22.68,37.47-35.24C174.83,80.75,183.13,81,189.06,83.24c4.13,1.6,8.35,5.91,7.83,13.23-.65,9.09-11.76,23.67-43.33,63-15.54,19.37-33.17,41.32-46.31,60-5.4,7.68-9.34,13.84-12.2,18.75,2.75-2.68,6-5.91,9.67-9.81,13-13.65,28.85-31.55,45.57-50.5C174,151,198.59,123.21,220,102c28.78-28.43,44.8-38.2,57.17-34.89a13.88,13.88,0,0,1,10,9.45c2.59,8.52-.91,19.84-26.49,52.49-16.69,21.31-39.26,47.2-63.15,74.61C172.7,232.17,147,261.61,128,286.06c-12.62,16.19-19.83,27.05-23.94,34.26,6.59-5.7,16.46-15.17,31.12-30.9C157,266,183.65,235,209.43,205.1,305.33,93.76,324.83,75.39,339.84,82.25a12.53,12.53,0,0,1,7,8.58c2,8.36-2.55,20.5-32.22,60.65-19.66,26.6-46.8,60.5-73.05,93.29-25.45,31.79-51.76,64.65-71.4,91-6.27,8.44-11.34,15.5-15.42,21.42,5.49-5.57,12.09-12.51,20-21.16,23.26-25.33,51.76-58.36,79.33-90.31,28-32.47,54.49-63.14,76-86.5,35.92-39,43.46-41.8,50.22-41.46a11.61,11.61,0,0,1,9,4.94c8.5,12.15-2.94,30.22-87.44,138.12-24.27,31-49.37,63-68.34,89.3-10.41,14.39-17.32,24.81-21.9,32.33,5-4.74,11.53-11.25,19.88-20.19,18.18-19.48,40.2-45.14,61.49-70,22.41-26.12,45.57-53.12,63.88-72.42,26.62-28.07,38.35-35.56,48.27-30.81a12.89,12.89,0,0,1,7.06,8.85c3.27,13.9-15,39-64,102-14.92,19.14-30.34,38.93-41.81,55.06-5.57,7.84-9.46,13.79-12.17,18.28A196.71,196.71,0,0,0,309,360.33c12.91-12.23,27-27.48,39.35-40.94,8-8.65,14.86-16.13,20.25-21.51a86.71,86.71,0,0,1,7.42-6.77c7.54-5.84,12.94-3.44,15.49-1.5,10.66,8.13,4.11,24.92-9.9,49.39-9.26,16.16-19.5,31.16-19.93,31.79a10,10,0,1,1-16.51-11.28c.08-.11,7.31-10.72,14.88-23.3-38.48,41.66-61.44,64-77.45,64a15.48,15.48,0,0,1-8.82-2.7,13.09,13.09,0,0,1-5.65-8.95C267,381.56,270,372,288.3,345.9c11.93-17,28.28-38,44.1-58.27,14.92-19.14,30.34-38.93,41.8-55.06q2.44-3.44,4.47-6.4c-3.47,3.5-7.46,7.66-12.06,12.61-17.1,18.41-38.11,42.9-58.43,66.58-22.31,26-45.38,52.88-64.3,73-28.5,30.27-39.29,36.45-47.45,36.59ZM137.89,386.6ZM98.65,333.5ZM87.4,256.22Z" style="fill:#f5f5f5"></path><path d="M207.41,406.42a9.28,9.28,0,0,1-2.4-.3,5.41,5.41,0,0,1-4-3.72c-3.83-12.57,30.66-53.35,87.91-119,49.45-56.72,105.5-121,100.7-137.41-.39-1.3-1-1.6-1.52-1.71-3.71-.8-14.62,5.12-45.53,37.86-22.72,24.06-51,56.93-78.41,88.72-26.64,30.94-54.2,62.93-75.73,85.74-32.17,34.08-40.65,36.78-44.7,34.93a4,4,0,0,1-2.25-2.82C138.51,376.31,178.64,325,245.09,242c27.2-34,55.32-69.11,75.45-96.5,27.34-37.21,31.32-48.66,29.85-51.7a.59.59,0,0,0-.53-.39c-3.27-.41-14.06,6.5-46.94,42-24.06,26-54.25,60.94-83.45,94.77-67.06,77.71-108.66,125-119.18,125h-.18a3.11,3.11,0,0,1-2.46-1.32c-2.23-3.2-.91-10.88,23.69-45.08,16.55-23,39.35-52.12,63.48-82.93,26.5-33.83,53.9-68.82,73.44-96.39,27.95-39.46,28.93-48.82,27-50.89a1.75,1.75,0,0,0-1.5-.54c-12.85.22-60.86,56.18-103.23,105.56-22.33,26-45.43,52.95-63.59,72.1-27.24,28.72-34.72,30.77-38.43,29a4.48,4.48,0,0,1-2.46-3.13c-2.46-10.46,23.13-44.32,62.46-94.79,29.83-38.27,63.64-81.66,62-92a1.58,1.58,0,0,0-.67-1.21c-10.29-6.84-50.45,36.75-74.45,62.81C101.76,182,96.42,187.25,93.62,185.11c-3-2.25-4.9-8.68,12.12-38.4,9.09-15.88,19.46-31.08,19.57-31.23a1.5,1.5,0,0,1,2.47,1.69c-.1.16-10.41,15.27-19.44,31C93.17,174.69,94.06,181,95.17,182.45c3.23-1.28,15.81-14.94,28-28.16C159.22,115.15,190,83.37,201.48,91a4.66,4.66,0,0,1,2,3.23c1.89,11.69-29.41,51.85-62.55,94.38C110.79,227.25,76.67,271,79,280.88a1.48,1.48,0,0,0,.83,1.12c2.08,1,9.37-1.38,35-28.35,18.11-19.1,41.18-46,63.5-72C225.21,127,269.54,75.3,283.72,75.05a4.77,4.77,0,0,1,3.77,1.5c9.11,9.9-31.81,63.72-100.31,151.17-24.11,30.79-46.89,59.87-63.41,82.83-24.14,33.57-24.59,40.28-23.66,41.61.09.06,2,.95,12.3-8.2C119.08,338,128,329,139.59,316.45c21.68-23.42,48.85-54.91,77.61-88.24C289.89,144,338.45,88.93,350.25,90.46a3.56,3.56,0,0,1,2.84,2.05c5.45,11.29-36.28,64.72-105.66,151.38-49.63,62-105.88,132.26-103.06,144.1a1,1,0,0,0,.57.78c2.34,1.06,10.8-2,41.28-34.26,21.49-22.76,49-54.72,75.64-85.63,68-78.92,113.52-130.46,126.85-127.56a5,5,0,0,1,3.75,3.8c5.27,18-46.5,77.35-101.31,140.22-44.7,51.28-90.92,104.3-87.3,116.18a2.39,2.39,0,0,0,1.94,1.7c16.66,4.46,71.36-57.49,115.3-107.29,43.14-48.88,70.05-78.73,79.33-77a4.08,4.08,0,0,1,3.14,2.87c5.51,15.59-33.62,64.34-68.15,107.36-20.76,25.87-40.37,50.3-40.83,56.62-.1,1.45.36,1.62.51,1.68,7.51,2.9,56-37.39,68.63-53.49a1.5,1.5,0,1,1,2.35,1.85c-10.2,13-61.31,58.59-72.07,54.44-1-.39-2.64-1.51-2.41-4.69.5-6.91,16.08-26.65,41.48-58.29,30.65-38.18,72.62-90.47,67.66-104.48-.25-.71-.57-.86-.88-.92-2.35-.46-9,2.93-27.28,21.69-13.79,14.15-31,33.65-49.23,54.3C276.23,351.29,227.58,406.41,207.41,406.42Z" style="fill:#ebebeb"></path></g><g id="freepik--Shadow--inject-3"><ellipse id="freepik--path--inject-3" cx="250" cy="416.24" rx="193.89" ry="11.32" style="fill:#f5f5f5"></ellipse></g><g id="freepik--Clouds--inject-3"><path d="M414.1,228.54a8.36,8.36,0,0,0-10.75-8,16.59,16.59,0,0,0,.19-2.56,17.67,17.67,0,0,0-17.68-17.68,18.47,18.47,0,0,0-3.26.3A15.45,15.45,0,0,0,354,208.41h-.26a14.25,14.25,0,0,0,0,28.49H406A8.35,8.35,0,0,0,414.1,228.54Z" style="fill:#263238"></path><g style="opacity:0.7000000000000001"><path d="M414.1,228.54a8.36,8.36,0,0,0-10.75-8,16.59,16.59,0,0,0,.19-2.56,17.67,17.67,0,0,0-17.68-17.68,18.47,18.47,0,0,0-3.26.3A15.45,15.45,0,0,0,354,208.41h-.26a14.25,14.25,0,0,0,0,28.49H406A8.35,8.35,0,0,0,414.1,228.54Z" style="fill:#fff"></path></g><polygon points="361.52 252.89 356.28 254.09 362 241.24 349.4 256.6 354.64 255.4 348.92 268.25 361.52 252.89" style="fill:#407BFF"></polygon><polygon points="377.53 252.89 372.29 254.09 378.01 241.24 365.41 256.6 370.65 255.4 364.93 268.25 377.53 252.89" style="fill:#407BFF"></polygon><polygon points="393.54 252.89 388.3 254.09 394.02 241.24 381.42 256.6 386.66 255.4 380.94 268.25 393.54 252.89" style="fill:#407BFF"></polygon><g style="opacity:0.7000000000000001"><polygon points="361.52 252.89 356.28 254.09 362 241.24 349.4 256.6 354.64 255.4 348.92 268.25 361.52 252.89" style="fill:#fff"></polygon></g><g style="opacity:0.7000000000000001"><polygon points="377.53 252.89 372.29 254.09 378.01 241.24 365.41 256.6 370.65 255.4 364.93 268.25 377.53 252.89" style="fill:#fff"></polygon></g><g style="opacity:0.7000000000000001"><polygon points="393.54 252.89 388.3 254.09 394.02 241.24 381.42 256.6 386.66 255.4 380.94 268.25 393.54 252.89" style="fill:#fff"></polygon></g><path d="M165.23,187.2a6.91,6.91,0,0,0-8.89-6.61,14.79,14.79,0,0,0,.16-2.12,14.62,14.62,0,0,0-14.62-14.62,15.07,15.07,0,0,0-2.7.25,12.77,12.77,0,0,0-23.69,6.46h-.21a11.78,11.78,0,1,0,0,23.55h43.24A6.89,6.89,0,0,0,165.23,187.2Z" style="fill:#263238"></path><g style="opacity:0.7000000000000001"><path d="M165.23,187.2a6.91,6.91,0,0,0-8.89-6.61,14.79,14.79,0,0,0,.16-2.12,14.62,14.62,0,0,0-14.62-14.62,15.07,15.07,0,0,0-2.7.25,12.77,12.77,0,0,0-23.69,6.46h-.21a11.78,11.78,0,1,0,0,23.55h43.24A6.89,6.89,0,0,0,165.23,187.2Z" style="fill:#fff"></path></g><path d="M152.47,204.23c2.82-1-3.1-7-3.1-7S149.65,205.2,152.47,204.23Z" style="fill:#407BFF"></path><path d="M154.45,208.73s.27,8,3.09,7.05S154.45,208.73,154.45,208.73Z" style="fill:#407BFF"></path><path d="M159.52,220.29s.27,8,3.09,7.05S159.52,220.29,159.52,220.29Z" style="fill:#407BFF"></path><path d="M143.1,204.3c2.82-1-3.1-7.05-3.1-7.05S140.28,205.28,143.1,204.3Z" style="fill:#407BFF"></path><path d="M145.08,208.8s.27,8,3.09,7.06S145.08,208.8,145.08,208.8Z" style="fill:#407BFF"></path><path d="M150.15,220.36s.27,8,3.09,7S150.15,220.36,150.15,220.36Z" style="fill:#407BFF"></path><path d="M133.73,204.37c2.82-1-3.09-7.05-3.09-7.05S130.91,205.35,133.73,204.37Z" style="fill:#407BFF"></path><path d="M135.71,208.88s.27,8,3.09,7.05S135.71,208.88,135.71,208.88Z" style="fill:#407BFF"></path><path d="M140.78,220.43s.27,8,3.09,7S140.78,220.43,140.78,220.43Z" style="fill:#407BFF"></path><path d="M121.27,197.39s.27,8,3.09,7.05S121.27,197.39,121.27,197.39Z" style="fill:#407BFF"></path><path d="M126.34,209s.27,8,3.09,7.05S126.34,209,126.34,209Z" style="fill:#407BFF"></path><path d="M131.41,220.5s.27,8,3.09,7.05S131.41,220.5,131.41,220.5Z" style="fill:#407BFF"></path><g style="opacity:0.7000000000000001"><path d="M152.47,204.23c2.82-1-3.1-7-3.1-7S149.65,205.2,152.47,204.23Z" style="fill:#fff"></path><path d="M154.45,208.73s.27,8,3.09,7.05S154.45,208.73,154.45,208.73Z" style="fill:#fff"></path><path d="M159.52,220.29s.27,8,3.09,7.05S159.52,220.29,159.52,220.29Z" style="fill:#fff"></path><path d="M143.1,204.3c2.82-1-3.1-7.05-3.1-7.05S140.28,205.28,143.1,204.3Z" style="fill:#fff"></path><path d="M145.08,208.8s.27,8,3.09,7.06S145.08,208.8,145.08,208.8Z" style="fill:#fff"></path><path d="M150.15,220.36s.27,8,3.09,7S150.15,220.36,150.15,220.36Z" style="fill:#fff"></path><path d="M133.73,204.37c2.82-1-3.09-7.05-3.09-7.05S130.91,205.35,133.73,204.37Z" style="fill:#fff"></path><path d="M135.71,208.88s.27,8,3.09,7.05S135.71,208.88,135.71,208.88Z" style="fill:#fff"></path><path d="M140.78,220.43s.27,8,3.09,7S140.78,220.43,140.78,220.43Z" style="fill:#fff"></path><path d="M121.27,197.39s.27,8,3.09,7.05S121.27,197.39,121.27,197.39Z" style="fill:#fff"></path><path d="M126.34,209s.27,8,3.09,7.05S126.34,209,126.34,209Z" style="fill:#fff"></path><path d="M131.41,220.5s.27,8,3.09,7.05S131.41,220.5,131.41,220.5Z" style="fill:#fff"></path></g></g><g id="freepik--Symbols--inject-3"><path d="M362,156.68c.82-2.53-.79-5-4.27-6.08a8.94,8.94,0,0,0-8.48,1.09l-3.46-4.26c3.64-2.61,8.38-3.37,14-1.54,6.64,2.15,10.08,6.61,8.4,11.81-2.39,7.35-10.33,5.53-12.06,10.85l-5.73-1.86C352.58,160,360.53,161.19,362,156.68Zm-14.66,17a3.78,3.78,0,1,1,2.47,4.69A3.63,3.63,0,0,1,347.33,173.73Z" style="fill:#407BFF"></path><path d="M105.85,239.84c.52-1.69-.58-3.28-2.91-4a6,6,0,0,0-5.63.82L95,233.88c2.39-1.78,5.53-2.34,9.31-1.19,4.44,1.35,6.78,4.28,5.72,7.75-1.5,4.92-6.8,3.8-7.89,7.36l-3.83-1.16C99.63,242.17,104.93,242.86,105.85,239.84ZM96.3,251.35a2.51,2.51,0,1,1,1.7,3.09A2.42,2.42,0,0,1,96.3,251.35Z" style="fill:#407BFF"></path><path d="M163.22,131.2l4.36-1.67,4.53,14.09-2.92,1.11Zm6.86,18.63a2.44,2.44,0,0,1,1.53-3.18A2.4,2.4,0,0,1,174.8,148a2.43,2.43,0,0,1-1.45,3.19A2.47,2.47,0,0,1,170.08,149.83Z" style="fill:#407BFF"></path><path d="M109.84,365.59a3.82,3.82,0,0,1,4.28-3.45,3.81,3.81,0,1,1-.62,7.59A3.84,3.84,0,0,1,109.84,365.59Zm2.88-30.77,7.25.59-3.11,22.82-4.85-.4Z" style="fill:#407BFF"></path><path d="M301.93,263.35l4.55-1.06,2.59,14.56-3.05.71Zm4.29,19.39a2.44,2.44,0,0,1,1.94-2.95,2.44,2.44,0,1,1,1.11,4.76A2.47,2.47,0,0,1,306.22,282.74Z" style="fill:#407BFF"></path></g><g id="freepik--Doodles--inject-3"><path d="M312.4,159.78a.43.43,0,0,1-.3-.13c-.08-.08-7.71-8.33-2.7-14.07a6.11,6.11,0,0,1,2.11-1.63,32.68,32.68,0,0,1-2.2-10.12c-.16-2.16.79-3.62,2.66-4.1a8.5,8.5,0,0,1,3.74.08,5.29,5.29,0,0,1,.8-2.91c.87-1.25,2.82-2.33,7.13-.35a.41.41,0,0,1,.2.54.4.4,0,0,1-.54.19c-2.1-1-4.86-1.73-6.12.08a4.57,4.57,0,0,0-.67,2.64c3.44.94,7.11,3.19,8.16,5.47a2.53,2.53,0,0,1-1,3.37c-1.48,1-3.16.74-4.73-.83a12.61,12.61,0,0,1-3.23-7.39,7.75,7.75,0,0,0-3.56-.11c-1.5.39-2.19,1.49-2.06,3.26a31.91,31.91,0,0,0,2.15,9.91,4.79,4.79,0,0,1,3.41.42c1.81.92,3.16,2.79,2.88,4a1.31,1.31,0,0,1-1.42,1c-2.08.07-3.91-1.56-5.3-4.44a5.3,5.3,0,0,0-1.83,1.43c-4.53,5.19,2.61,12.91,2.68,13a.41.41,0,0,1,0,.58A.39.39,0,0,1,312.4,159.78Zm.21-15.35c1.23,2.5,2.82,4,4.51,3.88.57,0,.63-.27.65-.37.15-.67-.75-2.25-2.45-3.11A4.08,4.08,0,0,0,312.61,144.43Zm3.95-13.6a11.84,11.84,0,0,0,3,6.6c.89.9,2.26,1.75,3.7.74a1.7,1.7,0,0,0,.69-2.36C323.07,133.92,319.76,131.77,316.56,130.83Z" style="fill:#263238"></path><path d="M307,246.3c-2.59,0-5.15-.9-6.29-3.2-.92-1.86-.56-4-.15-5.74.61-2.49,2.51-9,6.47-13-3.89,1.59-8,5.91-9.57,8.72a.41.41,0,0,1-.55.15.4.4,0,0,1-.16-.55c1.59-2.8,6.61-8.48,11.55-9.56l.23,0a9.73,9.73,0,0,1,4.26-1.81,6.91,6.91,0,0,1,6.51,2.42,7.06,7.06,0,0,1,1.15,5.48,3.26,3.26,0,0,1,1.54,1.05c.8,1,.87,2.5.21,4.4a18.13,18.13,0,0,1-12.35,11.35A11.65,11.65,0,0,1,307,246.3Zm1.85-22.48c-4.66,3.53-6.85,11.06-7.5,13.73-.38,1.56-.72,3.57.09,5.19,1.36,2.76,5.21,3.18,8.21,2.42a17.32,17.32,0,0,0,11.78-10.83c.57-1.63.54-2.85-.08-3.64a2.48,2.48,0,0,0-1.06-.75,9.29,9.29,0,0,1-.43,1.29c-1.76,4.29-7.05,10.6-12.42,11.28a.41.41,0,0,1-.45-.35.4.4,0,0,1,.35-.45c5-.63,10.13-6.78,11.77-10.78a8.89,8.89,0,0,0,.4-1.2,8.23,8.23,0,0,0-1.3-.12,16.65,16.65,0,0,0-2.44.15,9.62,9.62,0,0,1-6.59,9.17,5.09,5.09,0,0,1-3.77-.24,2.58,2.58,0,0,1-1.3-1.57c-.36-1.29.33-2.73,1.94-4.05a19.19,19.19,0,0,1,8.86-4,6.34,6.34,0,0,0-2.42-4.5A4.72,4.72,0,0,0,308.87,223.82Zm6.11,6.06a18.19,18.19,0,0,0-8.39,3.82c-.78.64-2,1.91-1.68,3.2a1.74,1.74,0,0,0,.9,1.08,4.32,4.32,0,0,0,3.15.17A8.91,8.91,0,0,0,315,229.88Zm-4.74-6.94a5.16,5.16,0,0,1,2.74,1,7.18,7.18,0,0,1,2.75,5,17.62,17.62,0,0,1,2.51-.15,9,9,0,0,1,1.45.13,6.23,6.23,0,0,0-1-4.78,6.11,6.11,0,0,0-5.75-2.11A8.46,8.46,0,0,0,310.24,222.94Z" style="fill:#263238"></path><path d="M186.92,204.72a.41.41,0,0,1-.29-.69,4.61,4.61,0,0,0,1.08-4.67,7,7,0,0,0-.52-1.35,19.55,19.55,0,0,1-8,1.36c-2.26-.14-3.73-.81-4.14-1.87-.34-.87.05-1.89,1.15-3a5.88,5.88,0,0,1,5.88-1.69,9.46,9.46,0,0,1,5.43,4.18,7.63,7.63,0,0,0,3.63-3.06,10.22,10.22,0,0,0,.2-9,15.31,15.31,0,0,1-2.4.15c-4.54-.11-9.12-2.44-10.19-4.44a1.42,1.42,0,0,1,0-1.51c.48-.75,1.8-1.09,3.93-1a10.66,10.66,0,0,1,9,5.49c.08.14.16.28.23.42,4-.61,9.46-2.48,11.32-5.66a4.68,4.68,0,0,0-.23-5c-1.47-2.49-4.22-2.56-5.73-2.39a9.89,9.89,0,0,0-1.7.36,10.44,10.44,0,0,1,.57,2.15c.3,2-.39,5.55-2.17,6.53-.67.37-1.79.53-3.27-.77a3.5,3.5,0,0,1-1.28-3.88c.57-1.85,2.59-3.57,5.05-4.52a7.38,7.38,0,0,0-5.49-4.08A.41.41,0,0,1,189,166a8.21,8.21,0,0,1,6.14,4.63,11.54,11.54,0,0,1,1.94-.41c2.93-.35,5.25.64,6.52,2.78a5.43,5.43,0,0,1,.23,5.85c-2,3.32-7.48,5.31-11.67,6a11,11,0,0,1-.31,9.48,8.46,8.46,0,0,1-3.95,3.39,7.85,7.85,0,0,1,.56,1.46,5.39,5.39,0,0,1-1.29,5.45A.39.39,0,0,1,186.92,204.72Zm-6.42-11.33a5,5,0,0,0-3.7,1.65c-.59.61-1.24,1.48-1,2.17s1.57,1.23,3.44,1.35a18.6,18.6,0,0,0,7.52-1.27,8.66,8.66,0,0,0-4.88-3.72A6,6,0,0,0,180.5,193.39ZM181.94,179c-2,0-2.43.47-2.53.63a.68.68,0,0,0,.07.69c.83,1.56,5,3.9,9.5,4a14.65,14.65,0,0,0,2-.1.83.83,0,0,0-.07-.13,9.89,9.89,0,0,0-8.29-5.09Zm12.79-7.34c-2.24.85-4.11,2.4-4.61,4a2.76,2.76,0,0,0,1,3c.91.8,1.7,1,2.35.67,1.4-.77,2-3.94,1.76-5.69A9.22,9.22,0,0,0,194.73,171.61Z" style="fill:#263238"></path><path d="M131.31,343.84a8.17,8.17,0,0,1-2.93-.56.42.42,0,0,1-.23-.53.41.41,0,0,1,.52-.23,6.5,6.5,0,0,0,6.17-.59c2.52-1.69,4.27-5.22,4.36-8.79,0-.29,0-.61,0-.94a6.78,6.78,0,0,1-4.58,1.3,4.4,4.4,0,0,1-3.47-1.61,2.15,2.15,0,0,1-.38-2.33c.85-1.66,4.29-2.05,5.55-2.06h0a3.58,3.58,0,0,1,3.06,2.09,6.1,6.1,0,0,1,.33.84,6,6,0,0,0,.47-.87,8.48,8.48,0,0,0-.76-7.44c-1,2.28-4.9,3.36-7.29,3-1.8-.32-2.71-1.42-2.45-3a3.93,3.93,0,0,1,2.43-2.75,5.82,5.82,0,0,1,6.66.74,6.5,6.5,0,0,0-2.14-3c-2.56-2.28-5-3.38-7.4-3.29a.42.42,0,0,1-.42-.39.4.4,0,0,1,.39-.42c2.57-.12,5.25,1.07,8,3.49,1.76,1.58,2.6,3.12,2.5,4.59a9.18,9.18,0,0,1,1.25,8.81,6,6,0,0,1-1,1.6,12.43,12.43,0,0,1,.07,1.68c-.1,3.82-2,7.62-4.72,9.44A7,7,0,0,1,131.31,343.84Zm5-15.53h0c-1.62,0-4.28.53-4.83,1.62a1.4,1.4,0,0,0,.32,1.49,3.65,3.65,0,0,0,2.85,1.27,5.79,5.79,0,0,0,4.42-1.48,4.77,4.77,0,0,0-.41-1.26A2.81,2.81,0,0,0,136.33,328.31Zm-1.28-8.83a6.21,6.21,0,0,0-2.59.62,3.32,3.32,0,0,0-2,2.15c-.23,1.38.84,1.86,1.78,2,2.5.43,6.2-.95,6.57-3-.12-.14-.25-.28-.38-.41A4.8,4.8,0,0,0,135.05,319.48Z" style="fill:#263238"></path><path d="M146.85,262.35a8.73,8.73,0,0,1-5.28-1.87c-2.95-2.28-4-5.89-2.92-9.9.06-.23.13-.45.19-.66a4,4,0,0,0-3-.81c-.73.24-1.28,1-1.67,2.38a.42.42,0,0,1-.5.28.4.4,0,0,1-.27-.5c.46-1.64,1.18-2.6,2.19-2.93a4.41,4.41,0,0,1,3.49.78,7.66,7.66,0,0,1,1.31-2.54c2.06-2.54,6.3-1.65,9.21.68a6.63,6.63,0,0,1,2.72,4.34,1.78,1.78,0,0,1,1.4-.18,3,3,0,0,1,1.76,1.45c1.23,2.4-.31,5.35-2.52,6.6a9,9,0,0,1-1.41.6,5,5,0,0,1-1.64,1.52A6.21,6.21,0,0,1,146.85,262.35Zm-7.3-12-.12.42c-1,3.68,0,7,2.63,9,2.29,1.77,5.42,2.21,7.46,1.05a5,5,0,0,0,.64-.46,9.15,9.15,0,0,1-5.94-.55,3.86,3.86,0,0,1-2-3.39.41.41,0,0,1,.39-.42.4.4,0,0,1,.42.39,3.05,3.05,0,0,0,1.61,2.71c1.72,1,4.42.81,6.4.22a6.27,6.27,0,0,0,.6-3.95l-.06-.45c0-.16-.05-.33-.07-.5l-.09.11c-2.38,3-6.07.15-9.32-2.36C141.23,251.58,140.37,250.92,139.55,250.37Zm13.67,1.79a.86.86,0,0,0-.49.15c-.68.44-.52,1.52-.37,2.56l.06.46a7.63,7.63,0,0,1-.32,3.67l.47-.24c1.85-1,3.21-3.56,2.2-5.52a2.17,2.17,0,0,0-1.24-1A1.76,1.76,0,0,0,153.22,252.16Zm-13.43-2.6c.9.58,1.83,1.3,2.78,2,3.82,2.94,6.45,4.7,8.2,2.49s.28-4.63-1.67-6.2c-2.54-2-6.35-2.92-8.08-.8A7.73,7.73,0,0,0,139.79,249.56Z" style="fill:#263238"></path><path d="M373.78,355.86a35.55,35.55,0,0,1-5.38-.57l-.35-.06a.39.39,0,0,1-.34-.46.4.4,0,0,1,.46-.34l.36.06c3.89.62,8.31,1.32,11.34-1.55a7.72,7.72,0,0,0,2.37-5.57,11.58,11.58,0,0,0-1.62-6,11.67,11.67,0,0,1-3.65,7.39,12,12,0,0,1-11.61,2.65c-4.12-1.28-6.38-4.7-5.63-8.5a10.51,10.51,0,0,1,5.82-6.89,6.34,6.34,0,0,1,.54-1.9,5.56,5.56,0,0,1,4.72-3.17,9.65,9.65,0,0,1,8.15,3.87,9.38,9.38,0,0,1,1.7,5.12,12.65,12.65,0,0,1,2.39,7.45,8.56,8.56,0,0,1-2.63,6.14A9.19,9.19,0,0,1,373.78,355.86ZM365.47,337a6.77,6.77,0,0,0-.65.36,8.93,8.93,0,0,0-4.3,5.74c-.76,3.91,2,6.62,5.08,7.58a11.21,11.21,0,0,0,10.82-2.47,11,11,0,0,0,3.45-7.93,10.89,10.89,0,0,0-.87-1,11.87,11.87,0,0,0-12.69-2.63c-.16,2,.34,4.48,1.53,5.69a2.58,2.58,0,0,0,3.19.41,2.13,2.13,0,0,0,1.11-1.31,1.21,1.21,0,0,0-.13-1,.41.41,0,0,1,.11-.56.4.4,0,0,1,.56.1,2,2,0,0,1,.25,1.71,3,3,0,0,1-1.56,1.84,3.34,3.34,0,0,1-4.11-.58A8.31,8.31,0,0,1,365.47,337Zm5.13-2a12.47,12.47,0,0,1,9,3.68l.17.18a8.35,8.35,0,0,0-1.45-3.54,9,9,0,0,0-7.43-3.53,4.76,4.76,0,0,0-4.06,2.73,5.11,5.11,0,0,0-.38,1.18A12.55,12.55,0,0,1,370.6,335Z" style="fill:#263238"></path></g><g id="freepik--speech-bubble-4--inject-3"><rect x="345.17" y="287.77" width="45.21" height="22.67" rx="8.15" transform="translate(211.87 -148.57) rotate(31.68)" style="fill:#407BFF"></rect><g style="opacity:0.7000000000000001"><rect x="345.17" y="287.77" width="45.21" height="22.67" rx="8.15" transform="translate(211.87 -148.57) rotate(31.68)" style="fill:#fff"></rect></g><path d="M355.91,295.27a.63.63,0,0,1,1.07.66.62.62,0,0,1-.86.2A.64.64,0,0,1,355.91,295.27Zm5-3.59c.45-.74.17-1.62-.88-2.26a2.79,2.79,0,0,0-2.46-.38l-.28-.74a3.65,3.65,0,0,1,3.19.51c1.43.88,1.93,2.13,1.25,3.22-1.07,1.75-3,.68-3.89,2.14l-.76-.47C358.13,292,360.09,293,360.92,291.68Z" style="fill:#263238"></path><path d="M360.16,297.89a.61.61,0,0,1,.86-.19.6.6,0,0,1,.21.85.63.63,0,0,1-.86.21A.64.64,0,0,1,360.16,297.89Zm4.23-6.59.85.52L362,296.73l-.56-.34Z" style="fill:#263238"></path><path d="M364.28,300.43a.6.6,0,0,1,.85-.19.62.62,0,0,1,.22.85.63.63,0,0,1-.87.2A.62.62,0,0,1,364.28,300.43Zm5-3.59c.46-.74.17-1.62-.87-2.26a2.79,2.79,0,0,0-2.46-.38l-.29-.74a3.65,3.65,0,0,1,3.19.51c1.43.88,1.93,2.13,1.26,3.22-1.08,1.75-3,.68-3.9,2.14l-.75-.47C366.49,297.18,368.46,298.18,369.28,296.84Z" style="fill:#263238"></path><path d="M368.52,303.05a.62.62,0,0,1,.87-.18.6.6,0,0,1,.21.84.62.62,0,0,1-.86.21A.64.64,0,0,1,368.52,303.05Zm4.23-6.59.86.53-3.24,4.9-.56-.34Z" style="fill:#263238"></path><path d="M372.64,305.59a.61.61,0,0,1,.85-.19.61.61,0,0,1,.22.85.63.63,0,0,1-1.07-.66Zm5-3.59c.45-.74.16-1.62-.88-2.26a2.83,2.83,0,0,0-2.46-.38l-.29-.74a3.67,3.67,0,0,1,3.2.51c1.43.88,1.92,2.13,1.25,3.22-1.08,1.75-3,.68-3.9,2.14l-.75-.47C374.86,302.34,376.82,303.34,377.65,302Z" style="fill:#263238"></path><path d="M376.89,308.21a.61.61,0,0,1,.86-.18.6.6,0,0,1,.21.85.62.62,0,0,1-.86.2A.64.64,0,0,1,376.89,308.21Zm4.22-6.59.86.53-3.24,4.9-.56-.34Z" style="fill:#263238"></path><polygon points="354.98 304.05 345.84 305.54 351.61 300.42 354.98 304.05" style="fill:#407BFF"></polygon><g style="opacity:0.7000000000000001"><polygon points="354.98 304.05 345.84 305.54 351.61 300.42 354.98 304.05" style="fill:#fff"></polygon></g></g><g id="freepik--speech-bubble-3--inject-3"><rect x="273.91" y="180.39" width="55.21" height="22.67" rx="8.15" transform="translate(-39.42 84.81) rotate(-15.04)" style="fill:#407BFF"></rect><g style="opacity:0.7000000000000001"><rect x="273.91" y="180.39" width="55.21" height="22.67" rx="8.15" transform="translate(-39.42 84.81) rotate(-15.04)" style="fill:#fff"></rect></g><path d="M284.26,193.31l1.52.39-.12.51-1.54-.42.4,1.51-.49.14-.39-1.52-1.13,1.14-.37-.38,1.13-1.11-1.53-.38.13-.53,1.55.43-.42-1.51.49-.13.4,1.51,1.12-1.14.37.39Z" style="fill:#263238"></path><path d="M297.13,193.23c.49,1.81.1,3.06-1,3.35a1.17,1.17,0,0,1-1.51-.83,2.45,2.45,0,0,1-1.82,1.73,2.85,2.85,0,0,1-1.48-5.5,2.49,2.49,0,0,1,2.41.55l-.29-1.07.7-.19,1.08,4c.16.6.52.73.88.63.66-.18.87-1.11.48-2.55a4.21,4.21,0,0,0-5.5-3,4.44,4.44,0,1,0,2.26,8.58,4.78,4.78,0,0,0,1.92-1l.32.47a5.24,5.24,0,0,1-2.09,1.09,5,5,0,1,1-2.56-9.66A4.77,4.77,0,0,1,297.13,193.23Zm-2.95.92a2.11,2.11,0,1,0-1.45,2.69A2.07,2.07,0,0,0,294.18,194.15Z" style="fill:#263238"></path><path d="M302.66,189.58l.32,2.31,1.51-.41.16.59-1.59.42.3,2.09-.57.16-.3-2.09-2.19.59.29,2.09-.57.15-.3-2.09-1.52.41-.15-.59,1.58-.42-.32-2.31-1.52.4-.16-.58,1.6-.43-.3-2.09.58-.16.29,2.09,2.2-.58-.3-2.09.57-.16.3,2.09,1.5-.4.16.58Zm-.58.15-2.18.59.31,2.31,2.19-.59Z" style="fill:#263238"></path><path d="M312.44,192.27l-1.32-.79a3.38,3.38,0,0,1-2.22,1.68c-1.46.4-2.71-.09-3-1.22-.24-.88.1-1.67,1.25-2.83-.92-.55-1.26-.94-1.41-1.51-.26-.95.31-1.79,1.46-2.1a1.56,1.56,0,0,1,2.13,1c.2.74-.11,1.39-1.13,2.42l2.61,1.56a4.93,4.93,0,0,0,.12-1.58l.66,0a5.15,5.15,0,0,1-.19,1.89l1.35.81Zm-6-4.87c.12.44.36.7,1.23,1.21.91-.91,1.16-1.37,1-1.91a1,1,0,0,0-1.33-.63A1.07,1.07,0,0,0,306.43,187.4Zm4.12,3.75-2.87-1.71c-1,1-1.24,1.57-1.07,2.23.22.81,1.09,1.14,2.17.85A2.64,2.64,0,0,0,310.55,191.15Z" style="fill:#263238"></path><path d="M311.54,186.5a1.77,1.77,0,1,1,2.22,1.58C312.76,188.35,311.86,187.72,311.54,186.5Zm2.83-.76c-.26-1-.87-1.42-1.56-1.23s-1,.89-.74,1.85.86,1.43,1.57,1.24S314.63,186.71,314.37,185.74Zm2.84-2.87.63-.17-3.09,8.82-.63.17Zm-.16,5.92a1.84,1.84,0,0,1,1.14-2.47c1-.27,1.9.35,2.23,1.57a1.77,1.77,0,1,1-3.37.9Zm2.84-.76c-.26-1-.87-1.42-1.57-1.23s-1,.88-.73,1.85.87,1.42,1.56,1.23S320.14,189,319.89,188Z" style="fill:#263238"></path><polygon points="293.31 204.59 289.24 212.9 288.41 205.24 293.31 204.59" style="fill:#407BFF"></polygon><g style="opacity:0.7000000000000001"><polygon points="293.31 204.59 289.24 212.9 288.41 205.24 293.31 204.59" style="fill:#fff"></polygon></g></g><g id="freepik--speech-bubble-2--inject-3"><polygon points="199.69 117.29 218.08 98.36 286.65 105.01 297.73 152.09 265.68 169.21 247.13 163.29 239.71 171.3 244.39 175.97 233.65 184.66 239.71 175.97 231.86 171.3 236.62 161.57 205.06 150.51 199.69 117.29" style="fill:#407BFF"></polygon><g style="opacity:0.7000000000000001"><polygon points="199.69 117.29 218.08 98.36 286.65 105.01 297.73 152.09 265.68 169.21 247.13 163.29 239.71 171.3 244.39 175.97 233.65 184.66 239.71 175.97 231.86 171.3 236.62 161.57 205.06 150.51 199.69 117.29" style="fill:#fff"></polygon></g><path d="M254.76,155.86a19.47,19.47,0,0,1-7.69-1.56,8.66,8.66,0,0,1-3.39-2.33,7.19,7.19,0,0,1-.92-6.68l-.3,0a13.92,13.92,0,0,1-6.26-.69c-.62.34-1.23.64-1.81.91a9,9,0,0,1,1.13,1.62,3.34,3.34,0,0,1,.41,3.06,2.87,2.87,0,0,1-2.92,1.63c-2.3-.08-5.47-1.86-7.27-3.62l-1.05.1a14.63,14.63,0,0,1-8.89-2.05,14,14,0,0,1-6-10.24,21.48,21.48,0,0,1,2.36-11.71,28.72,28.72,0,0,1,1.75-3.07,23.32,23.32,0,0,1-2.64-.12,1.82,1.82,0,0,1-1.51-.78c-.38-.74.11-1.6,1.25-2.19a101.61,101.61,0,0,1,11.23-5c.6-.37,1.22-.7,1.85-1a21.39,21.39,0,0,1,16.91-.82c.47.19.92.39,1.37.62a50.22,50.22,0,0,1,7.53-1.57,51.86,51.86,0,0,1,19.23.74c6.55,1.62,10,4.44,10.48,8.61.41,3.39-1.3,6-3.54,8.16a19.47,19.47,0,0,1,1.9,3.34,9,9,0,0,1,1.68.5,11.39,11.39,0,0,1,5.9,5.69c1.15,2.41,1.71,6-.18,8.78a10.24,10.24,0,0,1-5.49,3.71,22.54,22.54,0,0,1-7.51,1.2,10.26,10.26,0,0,1-4.66-1,7.54,7.54,0,0,1-3.74-5.59,7.09,7.09,0,0,1-1.3,1.86,4.6,4.6,0,0,1,2.21,5c-.49,1.57-2,2.8-4.4,3.54A19.33,19.33,0,0,1,254.76,155.86Zm-11.12-10.67c-.69,2.07-.78,4.48.67,6.27a7.69,7.69,0,0,0,3.08,2.1,18.93,18.93,0,0,0,12.89.66c1.48-.46,3.35-1.36,3.87-3a3.82,3.82,0,0,0-2-4.22,12.77,12.77,0,0,1-6.62,3.24,2.14,2.14,0,0,1-1.74-.29,1.65,1.65,0,0,1-.18-2.14,3.53,3.53,0,0,1,1.58-1.17,8.86,8.86,0,0,1,6.56-.71l.25.1.14-.15a4.19,4.19,0,0,0,1.45-3.07c-.1-1.44-1.39-2.42-2.76-3-.05.12-.1.24-.16.36-1.12,2.34-3.29,4.33-6.47,5.92a7.66,7.66,0,0,1-3.26,1h0a3.31,3.31,0,0,1-3-1.7,2.51,2.51,0,0,1-.26-1A30.11,30.11,0,0,1,243.64,145.19Zm-16.86,2.88c1.67,1.45,4.27,2.91,6.26,3a2.06,2.06,0,0,0,2.16-1.16,2.76,2.76,0,0,0-.38-2.33,8.76,8.76,0,0,0-1.21-1.66l-.12.06A29.8,29.8,0,0,1,226.78,148.07Zm48.73-19.62c-.89.83-1.85,1.6-2.77,2.34s-1.72,1.39-2.47,2.08c-3,2.77-4.78,5.44-5.39,8.17-.64,2.89.28,6.81,3.25,8.38a9.17,9.17,0,0,0,4.29.88,21.2,21.2,0,0,0,7.24-1.15,9.52,9.52,0,0,0,5.08-3.4c1.7-2.52,1.18-5.78.12-8a10.52,10.52,0,0,0-5.47-5.29,7.49,7.49,0,0,0-1-.34c.15.43.29.85.4,1.28a9.63,9.63,0,0,1-.51,7,5.9,5.9,0,0,1-6.14,3.19,5.56,5.56,0,0,1-4.17-5.43,7.21,7.21,0,0,1,3.59-6,9,9,0,0,1,5.5-1.17A18.43,18.43,0,0,0,275.51,128.45Zm-16,17.93a10.11,10.11,0,0,0-4,1,2.83,2.83,0,0,0-1.23.88.85.85,0,0,0,0,1.07,1.48,1.48,0,0,0,1.09.11,12.15,12.15,0,0,0,5.94-2.79A5.67,5.67,0,0,0,259.53,146.38Zm-48.29-17.25a18.53,18.53,0,0,0-.6,6.82,13.19,13.19,0,0,0,5.6,9.65,13.77,13.77,0,0,0,8.39,1.92l.43,0a4.42,4.42,0,0,1-.62-1,8.76,8.76,0,0,1-.39-3.84l-.52,0-.95-.08c-2.73-.24-6.15-.82-8.38-3.2a.41.41,0,0,1,0-.57.4.4,0,0,1,.57,0c2,2.18,5.27,2.72,7.86,2.94l.94.08.53.05c0-.09,0-.18,0-.26l.05-.51c.06-.67.1-1.35.13-2a5.19,5.19,0,0,1-3.24-1.56c-1.27-1.39-1.62-3.52-1.05-6.33a17.15,17.15,0,0,1,.8-2.74,26.17,26.17,0,0,1-2.74,1.4,8.62,8.62,0,0,1-4.38.91,3.15,3.15,0,0,1-2.23-1.17A2.44,2.44,0,0,1,211.24,129.13Zm13.62,13.58a7.9,7.9,0,0,0,.34,3.47,4.1,4.1,0,0,0,.84,1.19,27.81,27.81,0,0,0,6.93-2.08C230.79,143.44,227.85,143,224.86,142.71Zm23.51,1.48a1.89,1.89,0,0,0,.2.85,2.61,2.61,0,0,0,2.33,1.24,6.8,6.8,0,0,0,2.89-.88c3-1.51,5.07-3.38,6.11-5.55l.12-.26-.27-.07-.73-.14a37.83,37.83,0,0,1-7.51,3.75C250.43,143.54,249.39,143.89,248.37,144.19Zm-23.44-2.29c3.27.3,6.5.81,8.87,3,.48-.22,1-.46,1.49-.73l-.18-.11c-1.3-.79-2.45-2.39-1.87-4a4.77,4.77,0,0,1,1.16-1.73,23.89,23.89,0,0,1,7.75-5l0-.17a8.55,8.55,0,0,0-.35-1.32,9.16,9.16,0,0,1-4.48,1.49,6.36,6.36,0,0,1-1.47-.18c-2.5,2.61-5.36,5.13-9,5.82a7.82,7.82,0,0,1-1.64.15c0,.68-.07,1.36-.13,2l-.05.51Zm12.18,2.2a14.48,14.48,0,0,0,5.28.41l.65-.06a12.17,12.17,0,0,1,.81-1.7,31.43,31.43,0,0,1,2.81-3.9,31.9,31.9,0,0,0,2.67-3.65,15.22,15.22,0,0,0,1.59-3.79c-1.07.22-2.11.51-3,.77l-.19,0a42.13,42.13,0,0,0-4.66,1.58,10.39,10.39,0,0,1-3,8A15.62,15.62,0,0,1,237.11,144.1Zm14.69-12.86a15.88,15.88,0,0,1-1.78,4.37,31,31,0,0,1-2.73,3.75,31.72,31.72,0,0,0-2.74,3.79,11.8,11.8,0,0,0-.59,1.18,29.73,29.73,0,0,0,3.69-.78,5.61,5.61,0,0,1,2.59-3.22,13.09,13.09,0,0,1,8.59-1.8c.61-.41,1.19-.84,1.73-1.28a5.68,5.68,0,0,0-1.84-4.87C256.86,130.84,254.29,130.82,251.8,131.24Zm-9.57,2.9A23,23,0,0,0,235,138.9a4.27,4.27,0,0,0-1,1.43c-.4,1.16.46,2.42,1.53,3.07a6.08,6.08,0,0,0,.62.33,15.17,15.17,0,0,0,3.32-2.52A9.62,9.62,0,0,0,242.23,134.14Zm14.83,5.08a12.25,12.25,0,0,0-6.39,1.8,5.47,5.47,0,0,0-2.1,2.26c.86-.26,1.75-.56,2.65-.91a38.05,38.05,0,0,0,6.52-3.13Zm19.06-7.37A8,8,0,0,0,272,133a6.38,6.38,0,0,0-3.2,5.26,4.74,4.74,0,0,0,3.52,4.63,5.17,5.17,0,0,0,5.27-2.79,8.85,8.85,0,0,0,.44-6.43,13.86,13.86,0,0,0-.57-1.68A8.17,8.17,0,0,0,276.12,131.85Zm-15.06,7.23a5.46,5.46,0,0,1,2.93,2.35c0-.19.06-.38.1-.57.65-2.89,2.49-5.7,5.64-8.59.76-.7,1.61-1.38,2.5-2.11s1.92-1.55,2.81-2.36a24.33,24.33,0,0,0-1.85-2.18c-4.91-5.19-13.32-9.27-21-6.68a11.94,11.94,0,0,0-1.32.51,32.49,32.49,0,0,1,11.32,2.68,8.57,8.57,0,0,1,4.3,3.45c1.13,2.14.64,5.11-1.32,7.94a20.68,20.68,0,0,1-3.79,4.13A7.89,7.89,0,0,1,261.06,139.08Zm-1.11-.34.34.08c0-.13.07-.27.1-.41Zm-34.8-.46a8.36,8.36,0,0,0,1.47-.13c3.34-.63,6-2.91,8.36-5.33a4.35,4.35,0,0,1-1.39-1,5.22,5.22,0,0,1-.67-5.66,7.54,7.54,0,0,1,1.46-2.09,10.46,10.46,0,0,0-7-1.14,26.91,26.91,0,0,1-3.8,3.59,15,15,0,0,1,.81,2.89A41.17,41.17,0,0,1,225.15,138.28ZM222,127.64a16.17,16.17,0,0,0-1.21,3.66c-.51,2.54-.23,4.43.86,5.62a4.35,4.35,0,0,0,2.66,1.3,41.16,41.16,0,0,0-.73-8.65,15.13,15.13,0,0,0-.69-2.54C222.63,127.24,222.33,127.45,222,127.64Zm32.3,2.55a7.45,7.45,0,0,1,4.91,1.57,6.43,6.43,0,0,1,2.15,4.78,19.38,19.38,0,0,0,3.09-3.48c1.78-2.58,2.25-5.23,1.26-7.11a7.89,7.89,0,0,0-3.91-3.08,31.83,31.83,0,0,0-11.17-2.62,15.91,15.91,0,0,1,1.31,3.83,16.34,16.34,0,0,1,0,6.31A15.4,15.4,0,0,1,254.33,130.19Zm-11.86,1.19a9.44,9.44,0,0,1,.44,1.6,41.41,41.41,0,0,1,4.56-1.53l.19,0c1.06-.29,2.25-.62,3.47-.86a15.15,15.15,0,0,0-1.39-10.33h-.43a21.17,21.17,0,0,0-2.85,1.91,48.85,48.85,0,0,0-6,5.88,12.91,12.91,0,0,1,1.67,2.63,11,11,0,0,0,4.63-5.46.42.42,0,0,1,.52-.25.4.4,0,0,1,.25.51,11.81,11.81,0,0,1-5,5.89Zm-6,1.05a7,7,0,0,0,.81.06,8.61,8.61,0,0,0,4.18-1.43,11.76,11.76,0,0,0-1.53-2.45l-.25.29c-.69.76-1.37,1.53-2.06,2.28l-.24.27Zm-1.34-8a6.76,6.76,0,0,0-1.47,2,4.38,4.38,0,0,0,.52,4.76,3.68,3.68,0,0,0,1.4.92c.41-.43.81-.87,1.2-1.29l.24-.27c.69-.75,1.37-1.51,2-2.27l.34-.38a19.64,19.64,0,0,0-2.12-2A16.05,16.05,0,0,0,235.13,124.48Zm-16.61-.85a8.9,8.9,0,0,0-5.1,1.86c-1,.79-2.11,2.43-1.28,3.58a2.4,2.4,0,0,0,1.66.83,7.93,7.93,0,0,0,4-.84,25.17,25.17,0,0,0,3.65-2,12.8,12.8,0,0,1,.83-1.42,4.23,4.23,0,0,0-1.93-1.71A4.63,4.63,0,0,0,218.52,123.63Zm17.25.29a16.69,16.69,0,0,1,2,1.42,19.82,19.82,0,0,1,2.14,2,48.49,48.49,0,0,1,6-5.89c.58-.46,1.17-.88,1.76-1.26a22.1,22.1,0,0,0-10.34,2.6A11.92,11.92,0,0,0,235.77,123.92Zm21.36-6.59c6.4,0,12.65,3.51,16.65,7.73a27.72,27.72,0,0,1,1.85,2.17c2.08-2,3.58-4.37,3.22-7.4-.46-3.8-3.69-6.39-9.87-7.93a51.17,51.17,0,0,0-18.94-.72,50.2,50.2,0,0,0-6.61,1.32A18.54,18.54,0,0,1,250,119a17.56,17.56,0,0,1,1.94-.79A16.35,16.35,0,0,1,257.13,117.33Zm-33.92,8.39,0,0a24.11,24.11,0,0,0,2.45-2.19A8.06,8.06,0,0,0,223.21,125.72Zm-4.67-2.89a5.4,5.4,0,0,1,2.09.39,4.88,4.88,0,0,1,2.13,1.77,8.68,8.68,0,0,1,2.64-2.17,7.53,7.53,0,0,1,1.55-.6,27,27,0,0,0,2.12-2.88,10,10,0,0,0,1-2.09l-2.11.82a42.81,42.81,0,0,1-13,3.16,26.3,26.3,0,0,0-2,3.46l-.12.25.11-.09A9.73,9.73,0,0,1,218.54,122.83Zm10.67-.91a12.84,12.84,0,0,1,5.8,1.57,13.78,13.78,0,0,1,2-1.37,23,23,0,0,1,10.8-2.71c.45,0,.89,0,1.34,0l.13-.07a17.85,17.85,0,0,0-6.92-6.51c-3.77,1.1-7.4,2.53-11.16,4l-.15.06a10.09,10.09,0,0,1-1.25,2.89c-.49.76-1,1.5-1.57,2.21A8.72,8.72,0,0,1,229.21,121.92Zm-9.78-6.77c-2.72,1.13-5.4,2.38-8,3.73-.47.25-1.1.74-.91,1.11s.56.31.87.35a23.33,23.33,0,0,0,3.12.09A26.91,26.91,0,0,1,219.43,115.15Zm3.2-1.26a24.92,24.92,0,0,0-7.08,6.49,42.93,42.93,0,0,0,12.12-3.07l2.63-1a2.92,2.92,0,0,0-.89-2.82c-1.5-1.28-4-.6-5.7,0Zm4.54-2a4.14,4.14,0,0,1,2.77.92,3.53,3.53,0,0,1,1.21,3.1c3.39-1.34,6.69-2.62,10.09-3.66l-.5-.2a20.28,20.28,0,0,0-14-.15Z" style="fill:#263238"></path></g><g id="freepik--speech-bubble-1--inject-3"><polygon points="131.08 296.22 139.03 300.95 135.53 294.07 131.08 296.22" style="fill:#407BFF"></polygon><g style="opacity:0.7000000000000001"><polygon points="131.08 296.22 139.03 300.95 135.53 294.07 131.08 296.22" style="fill:#fff"></polygon></g><rect x="95.91" y="276.52" width="50.21" height="22.67" rx="8.15" transform="translate(-49.01 25.95) rotate(-10.19)" style="fill:#407BFF"></rect><g style="opacity:0.7000000000000001"><rect x="95.91" y="276.52" width="50.21" height="22.67" rx="8.15" transform="translate(-49.01 25.95) rotate(-10.19)" style="fill:#fff"></rect></g><path d="M105.28,290.11a1.39,1.39,0,0,1,1.12-1.65,1.42,1.42,0,0,1,1.66,1.15,1.44,1.44,0,0,1-1.15,1.68A1.41,1.41,0,0,1,105.28,290.11Z" style="fill:#263238"></path><path d="M112.09,288.89a1.39,1.39,0,0,1,1.12-1.65,1.42,1.42,0,0,1,1.66,1.15,1.46,1.46,0,0,1-1.15,1.68A1.42,1.42,0,0,1,112.09,288.89Z" style="fill:#263238"></path><path d="M118.89,287.66A1.4,1.4,0,0,1,120,286a1.44,1.44,0,1,1-1.13,1.65Z" style="fill:#263238"></path><path d="M125.7,286.44a1.41,1.41,0,1,1,2.78-.5,1.44,1.44,0,0,1-1.15,1.68A1.41,1.41,0,0,1,125.7,286.44Z" style="fill:#263238"></path><path d="M132.51,285.22a1.39,1.39,0,0,1,1.12-1.65,1.42,1.42,0,0,1,1.66,1.15,1.46,1.46,0,0,1-1.15,1.68A1.42,1.42,0,0,1,132.51,285.22Z" style="fill:#263238"></path></g><g id="freepik--Character--inject-3"><path d="M224,192.52s-9.47-2-17.8,2.62-7.69,27.33-13.88,29.42-7.9,4.66-6.62,8.39-4.93,4.38-5.56,6.3a36.91,36.91,0,0,0-1.06,4.48s5.61-2.07,8.75,3,9.38,12.39,16,12.17,13.07,3.42,18.49,5.66,12.91-6,17.82-9.12,4.86,1,10,0,6.21-4.87,6.21-4.87-5.13-3.51-1.71-10.08-7.5-13.07-4.5-21.58S243.07,194.48,224,192.52Z" style="fill:#263238"></path><path d="M260.39,247.66h-.08a6.63,6.63,0,0,1-3.9-2.37,3.67,3.67,0,0,1-.44-2.92c.11-.45.22-.89.34-1.32.84-3.2,1.5-5.72-2.57-9.65-3.77-3.62-3.79-6.14-3.83-10.31,0-1.28,0-2.73-.15-4.43a.4.4,0,1,1,.8-.06c.14,1.72.15,3.19.16,4.48,0,4.1.06,6.35,3.58,9.74,4.42,4.25,3.66,7.12,2.79,10.44l-.33,1.29a2.91,2.91,0,0,0,.33,2.3,6,6,0,0,0,3.38,2,.4.4,0,0,1,.32.47A.41.41,0,0,1,260.39,247.66Z" style="fill:#263238"></path><path d="M177.47,238.85a.4.4,0,0,1-.11-.79s3.58-1,4.69-3a2.44,2.44,0,0,0,.2-2c-1.26-4.23,1.67-7.56,8.7-9.91,5.05-1.68,5.58-6.16,6.19-11.35a50.33,50.33,0,0,1,.94-6c2-8.51,7.07-12.41,15-11.6a.4.4,0,0,1,.36.44.4.4,0,0,1-.44.37c-7.55-.78-12.17,2.81-14.11,11a51.73,51.73,0,0,0-.93,5.89c-.61,5.23-1.19,10.17-6.73,12-6.54,2.19-9.29,5.18-8.18,8.9a3.26,3.26,0,0,1-.27,2.59c-1.28,2.31-5,3.37-5.18,3.42Z" style="fill:#263238"></path><path d="M337.26,318a173.74,173.74,0,0,0-10.14-14.62,26,26,0,0,0-31.62-7.54q-3,1.41-5.91,2.91c-44.64,22.59-81.66,55.65-81.66,55.65l1.42,2.74v0c-30.33,11.09-58.2,43.74-40.54,54.78,20.5,12.81,43.24,6.05,65.82-6.07h0l.11-.06.28-.15c3.66-1.94,32.58-18.2,71.26-62.59,16.19,19.92,39.46,36.36,56.09,58.87,2.5.73,16.59,1.18,16.13-1.17C378.52,400.73,359.35,353.17,337.26,318Z" style="fill:#263238"></path><path d="M378.52,400.73c.46,2.35-13.63,1.89-16.13,1.17-13.69-18.55-31.9-33-46.94-48.6-3.22-3.35-6.3-6.75-9.15-10.27-38.68,44.39-67.6,60.65-71.26,62.59l-.28.15-.11.06c-18.51,9.93-37.13,16.26-54.52,11.16a45.27,45.27,0,0,1-11.31-5.1c-17.66-11,10.2-43.69,40.55-54.78l0,0-1.42-2.74s4.91-4.37,13.29-11c14.54-11.56,39.58-30,67.71-44.28l.66-.34c2-1,3.92-2,5.91-2.92a26,26,0,0,1,31.61,7.55A169.87,169.87,0,0,1,337.26,318C359.35,353.17,378.52,400.73,378.52,400.73Z" style="fill:#fff;opacity:0.2"></path><path d="M315.45,353.3c-3.22-3.35-6.3-6.75-9.15-10.27-38.68,44.39-67.6,60.65-71.26,62.59l-.28.15-.11.06c-18.51,9.93-37.13,16.26-54.52,11.16,1.92-16.68,19.88-46.72,41.09-73.67,14.54-11.56,39.58-30,67.71-44.28C294.72,307.62,303.39,323.6,315.45,353.3Z" style="isolation:isolate;opacity:0.2"></path><path d="M258.85,209l-6.3-13.86-11.08,7.37s3,10.31,11.87,11.05Z" style="fill:#ebb376"></path><polygon points="243.96 188.53 237.02 196 241.47 202.51 252.55 195.14 243.96 188.53" style="fill:#ebb376"></polygon><path d="M239.83,265.32c13-6.78,26-14.43,36.41-24.78l-1,1.41a2.59,2.59,0,0,0-.29.93c-.29-3-5.32-9.89-8.51-13.74-5.1-6.28-10.91-12.39-16.52-18.27a4.49,4.49,0,0,1,5.62-6.9c3.76,2.33,7.22,4.81,10.69,7.44,9.89,7.79,32.38,25.78,22.19,39.91-10.73,12.8-24.62,22.3-39.46,29.62l-1.56.72a9,9,0,1,1-7.57-16.34Z" style="fill:#e9b376"></path><path d="M258.5,281.21A147,147,0,0,1,244,288.33c-4.81,2-9.7,3.57-12.71,3.23l-.66-2.3-8.33-28.78s14.58,2,35.11-7C257.43,253.52,263.31,266.68,258.5,281.21Z" style="fill:#407BFF"></path><path d="M244,288.33c-4.81,2-9.7,3.57-12.71,3.23l-.66-2.3c1-4.67,3.61-10.12,8.69-15.76A26,26,0,0,1,244,288.33Z" style="isolation:isolate;opacity:0.2"></path><path d="M166.44,273.83c-1.71,5.59-3.58,9.69-6.47,23.36-2.66,11.51-4.94,22.94-8.39,42.06l57.35,15.64c3.25-16.47,10.15-34.36,30.36-67.9,4.69-7.78,12-22.35,3.73-25.53-2.21-.85-15,3.33-17.43,2.53-9.49-3.08-17.29-5.54-26-7.1-2.9-.51-5.93-1-8.84-1.33C180.2,254.2,169.51,263.81,166.44,273.83Z" style="fill:#407BFF"></path><path d="M193.81,252.51s3.73-1.09,11.95-.77c12,.46,20.71,13.77,20.71,13.77s1.28,11.64-3.2,19.27l-7.79-7.63-10.68,6.94S191.89,262.23,193.81,252.51Z" style="fill:#407BFF"></path><path d="M193.81,252.51s3.73-1.09,11.95-.77c12,.46,20.71,13.77,20.71,13.77s1.28,11.64-3.2,19.27l-7.79-7.63-10.68,6.94S191.89,262.23,193.81,252.51Z" style="fill:#fff;opacity:0.7000000000000001"></path><path d="M210.77,231.1c-1.06,8-4.29,22.08-11.56,24.43,0,0,4.06,10.41,16.27,19.7,6-4.53,5.43-12.28,5.43-12.28s-4.47-5.34.69-13.1Z" style="fill:#ebb376"></path><path d="M210.77,231.1c-1.06,8-4.29,22.08-11.56,24.43,0,0,4.06,10.41,16.27,19.7,6-4.53,5.43-12.28,5.43-12.28s-4.47-5.34.69-13.1Z" style="isolation:isolate;opacity:0.1"></path><path d="M211.24,212.17c-3.41,13.85-5.14,19.63-.64,29.06,6.77,14.2,24,16.17,31.39,3.81,6.63-11.12,11.09-31.91-.15-42.1C230.77,192.89,214.65,198.31,211.24,212.17Z" style="fill:#ebb376"></path><path d="M242.67,227l2.86.17S243.56,228.84,242.67,227Z" style="fill:#263238"></path><path d="M235.66,227.38s.41,5.63,1.75,8.78c-1.86.88-4.12-.67-4.12-.67Z" style="fill:#d58745"></path><path d="M226.17,233.93a11.16,11.16,0,0,0-1.72-1,.32.32,0,0,0-.44.19.38.38,0,0,0,.2.47,9.9,9.9,0,0,1,5.6,6.54.35.35,0,0,0,.4.29.34.34,0,0,0,.26-.41A10.45,10.45,0,0,0,226.17,233.93Z" style="fill:#263238"></path><path d="M233.93,216.62a.62.62,0,0,0-.5.19,5.13,5.13,0,0,1-4.63,1.49.64.64,0,0,0-.8.51.75.75,0,0,0,.56.85,6.35,6.35,0,0,0,5.87-1.82.72.72,0,0,0,0-1A.75.75,0,0,0,233.93,216.62Z" style="fill:#263238"></path><path d="M243.53,219a.62.62,0,0,0-.5,0,.7.7,0,0,0-.4.9,7.32,7.32,0,0,0,4.48,4.7.63.63,0,0,0,.81-.49.76.76,0,0,0-.51-.88,5.84,5.84,0,0,1-3.51-3.76A.76.76,0,0,0,243.53,219Z" style="fill:#263238"></path><path d="M242.67,227s-1,2-3.33.08c0,0,1.43,3.45,4.27.75Z" style="fill:#263238"></path><path d="M228.64,223.55l2.86.17S229.52,225.38,228.64,223.55Z" style="fill:#263238"></path><path d="M228.64,223.55s-1.06,2-3.33.07c0,0,1.42,3.46,4.27.75Z" style="fill:#263238"></path><path d="M211.19,200.13s9.44-16,29.51-6.6,10,30.17,10,30.17L246.63,221l.12-7.94a11.68,11.68,0,0,1-6.59,5.39s4.26-3.09,5.72-6.54c0,0-3.87,4.45-8.7,4.57l-10.25-2.42s5.09-1.71,7.61-4.46c0,0-8.93,4.65-16.14,5.46L211,223.92l-7.19-6.38S203.6,201.45,211.19,200.13Z" style="fill:#263238"></path><path d="M203.4,221.71a11.41,11.41,0,0,0,4.77,7.33c3.25,2.12,6-.87,6-4.85,0-3.59-1.66-9-5.36-9.5S202.67,217.93,203.4,221.71Z" style="fill:#ebb376"></path><path d="M224.27,252.77c-5.44-1.23-10.61-5.15-13.67-11.54a24.17,24.17,0,0,1-2.67-12.37.11.11,0,0,1-.08-.07c.5-4.87.92-10.07,1-14.1a3.74,3.74,0,0,1,1.62.63c.25-1,.51-2.06.79-3.16a19.3,19.3,0,0,1,2.72-6.23,19.1,19.1,0,0,1,4.34,1.54S227.23,231.9,224.27,252.77Z" style="isolation:isolate;opacity:0.1"></path><path d="M204.69,270.48s-15.21,23.81-35.55,14.3C169.14,284.78,180.51,262.47,204.69,270.48Z" style="isolation:isolate;opacity:0.2"></path><path d="M182.68,255.55c8.39-.51,18-.42,25.78-3.16a5.39,5.39,0,0,0-1.29,1.45,1.75,1.75,0,0,0-.18.39,23.09,23.09,0,0,0,1.14-5.53c1.26-11.57,1.23-29,1.59-40.8a4.49,4.49,0,0,1,8.87-.87,242.43,242.43,0,0,1,4.52,31.62c.32,7.15,1.76,20.09-3.68,25.68-8.43,7.89-25.85,9.32-36.82,9.23-11.77-.67-11.69-17.44.07-18Z" style="fill:#e9b376"></path><path d="M162.77,285.52s1.35-23.09,11.39-30.09,23.49-2.26,23.49-2.26,2.47,13.35-1.12,23.52C196.53,276.69,176.57,287.38,162.77,285.52Z" style="fill:#407BFF"></path><path d="M209.49,207.17l4.13-14.65,12.07,5.61s-1.45,10.65-10.07,12.72Z" style="fill:#ebb376"></path><polygon points="221.11 184.69 229.1 191.02 225.69 198.13 213.62 192.52 221.11 184.69" style="fill:#ebb376"></polygon><path d="M291.13,305c-.33-1-.67-2-1-2.93a25.12,25.12,0,0,0-39-11.47c-1.31,1-2.6,2-3.89,3.05-24.9,19.89-45.53,42.48-56.37,55.16h0l-39.31-9.52s-28.24,51.5,5.4,74.33c8.46,5.74,14.62,5.22,22.54,5.22,19.25,0,38.72-14.26,38.72-14.26h0s21-15.93,48-56.88c9.69,19,21.3,39.78,28.57,59,2.22,1.37,14.72,2,14.93-.31C309.72,406.35,304.49,345.14,291.13,305Z" style="fill:#263238"></path><path d="M291.13,305c-.33-1-.67-2-1-2.93a25.12,25.12,0,0,0-39-11.47c-1.31,1-2.6,2-3.89,3.05-24.9,19.89-45.53,42.48-56.37,55.16h0l-39.31-9.52s-28.24,51.5,5.4,74.33c8.46,5.74,14.62,5.22,22.54,5.22,19.25,0,38.72-14.26,38.72-14.26h0s21-15.93,48-56.88c9.69,19,21.3,39.78,28.57,59,2.22,1.37,14.72,2,14.93-.31C309.72,406.35,304.49,345.14,291.13,305Z" style="fill:#fff;opacity:0.2"></path><path d="M322.37,418.6c-11,0-12.47-.17-18.65-.37-5.3-.19-6.57.47-10.83.37-3.55-.07-3.42-3.48-2.32-7.39.55-2,1.39-6.13,2.15-9.31l16.13-1.17c2.27,4.33,7.39,10.51,13.6,11.35C328.37,412.87,326.76,418.6,322.37,418.6Z" style="fill:#263238"></path><path d="M392,418.6c-11,0-12.46-.17-18.65-.37-5.3-.19-6.56.47-10.82.37-3.56-.07-3.43-3.48-2.33-7.39.55-2,1.4-6.13,2.15-9.31l16.13-1.17c2.27,4.33,7.4,10.51,13.6,11.35C398,412.87,396.43,418.6,392,418.6Z" style="fill:#263238"></path><path d="M190.89,348.77S180.56,361,176.51,367.58C176.51,367.58,176.23,350.89,190.89,348.77Z" style="isolation:isolate;opacity:0.2"></path></g></svg>