<svg viewBox="0 0 500 500" xmlns="http://www.w3.org/2000/svg" xmlns:xlink="http://www.w3.org/1999/xlink"><clipPath id="a"><path d="m220.63 263.77-20.73 12-12.74 7.34c-.41.21-.81.45-1.2.7a16.91 16.91 0 0 0 -8.09 14.53v59.55a16.85 16.85 0 0 1 -6.87 13.63 17.26 17.26 0 0 1 -10.28 3.48 17 17 0 0 1 -8.52-2.31 51.33 51.33 0 0 1 -25.65-44.44v-61.79a51.33 51.33 0 0 0 -25.66-44.46l94.11-54.29a51.38 51.38 0 0 1 25.67 44.46v26.9c-.03 7.7-.04 24.7-.04 24.7z"/></clipPath><ellipse cx="250" cy="342.33" fill="#f0f0f0" rx="239.76" ry="138.42"/><ellipse cx="393.25" cy="339.97" fill="#e0e0e0" rx="43.59" ry="25.17"/><path d="m115 357.81 194.98 112.57 89.37-51.59-195.03-112.6z" fill="#e0e0e0"/><path d="m80.34 380-40.34-23.29a1.32 1.32 0 0 1 0-2.5l141.9-81.93a4.79 4.79 0 0 1 4.33 0l40.35 23.3a1.32 1.32 0 0 1 0 2.5l-141.91 81.92a4.79 4.79 0 0 1 -4.33 0z" fill="#e0e0e0"/><path d="m207.91 24.66-119.78 69.14a9.7 9.7 0 0 0 -4.35 7.55v270.11c0 2.77 2 3.9 4.35 2.51l119.78-69.14a9.67 9.67 0 0 0 4.35-7.55v-270.1c0-2.78-1.96-3.91-4.35-2.52zm-1.91 247.73c0 2.38-1.67 3.89-3.74 5.08l-108.91 62.87c-2 1.19-3.73.23-3.73-2.16v-211.58a8.31 8.31 0 0 1 3.73-6.48l108.9-62.86c2.07-1.19 3.74-.22 3.74 2.15z" fill="#37474f"/><path d="m87.59 374.24a9.71 9.71 0 0 1 -8.17-.27l-5-2.88a9.58 9.58 0 0 1 -4.37-7.54v-270.09a8.3 8.3 0 0 1 .75-3.26 11.2 11.2 0 0 1 .52-1l13.71 7.91a13 13 0 0 0 -.76 1.6 8 8 0 0 0 -.53 2.69v270.06c.04 2.54 1.71 3.72 3.85 2.78z" fill="#263238"/><path d="m149.05 315.66c3.8-2.19 6.88-.41 6.88 4a15.19 15.19 0 0 1 -6.88 11.91c-3.79 2.2-6.87.42-6.87-4a15.23 15.23 0 0 1 6.87-11.91z" fill="#ffc100"/><path d="m148 65.06c1.61-.93 2.92-.18 2.92 1.68a6.45 6.45 0 0 1 -2.92 5.06c-1.61.93-2.92.18-2.92-1.68a6.45 6.45 0 0 1 2.92-5.06z"/><path d="m136.75 82.82 22.54-13c1.35-.77 2.44-.22 2.44 1.24a5.22 5.22 0 0 1 -2.44 4l-22.54 13c-1.35.77-2.44.22-2.44-1.24a5.22 5.22 0 0 1 2.44-4z"/><path d="m206 272.17c0 2.38-1.67 3.89-3.74 5.08l-108.91 62.87c-2 1.19-3.73.23-3.73-2.16v-211.58a8.31 8.31 0 0 1 3.73-6.48l108.9-62.9c2.07-1.2 3.74-.23 3.74 2.15z" fill="#ffc100"/><path d="m91.69 341.13a2.45 2.45 0 0 1 -1.23-.32 3.1 3.1 0 0 1 -1.34-2.81v-211.62a8.74 8.74 0 0 1 4-6.91l108.88-62.86a2.76 2.76 0 0 1 4.49 2.58v213c0 2.89-2.28 4.53-4 5.51l-108.89 62.85a3.81 3.81 0 0 1 -1.91.58zm112.23-284.13a3 3 0 0 0 -1.42.44l-108.9 62.9a7.75 7.75 0 0 0 -3.48 6v211.66a1.79 1.79 0 0 0 3 1.73l108.88-62.92c2.41-1.38 3.49-2.81 3.49-4.64v-213a2.13 2.13 0 0 0 -.85-2 1.43 1.43 0 0 0 -.72-.17z" fill="#fff"/><path d="m212.21 26.48c-.31-2.26-2.12-3.08-4.3-1.82l-119.78 69.14a8.79 8.79 0 0 0 -3.07 3.26l-13.71-7.91a8.86 8.86 0 0 1 3.09-3.24l119.75-69.15a9.64 9.64 0 0 1 8.72 0l5 2.87a9.74 9.74 0 0 1 4.3 6.85z" fill="#455a64"/><path d="m122.08 155a7.26 7.26 0 0 1 3.42-1.11 4 4 0 0 1 2.67.85 5.8 5.8 0 0 1 1.76 2.68 14.19 14.19 0 0 1 .72 4.28v1.6 2.77q0 .72 0 1.56a24.21 24.21 0 0 1 -.71 5.13 22.21 22.21 0 0 1 -1.72 4.67 18.43 18.43 0 0 1 -2.62 3.91 13.43 13.43 0 0 1 -3.39 2.81l-7.32 4.23a.39.39 0 0 1 -.51 0 .87.87 0 0 1 -.22-.67v-27a2.1 2.1 0 0 1 .22-.92 1.39 1.39 0 0 1 .51-.63zm3.55 9.43c-.11-3.13-1.34-4-3.69-2.67l-2.76 1.6v15.84l2.9-1.67q3.42-2 3.55-6.85c0-.6 0-1.15 0-1.67v-3q.03-.73 0-1.6z" fill="#fff"/><path d="m143.31 142.72c.36-.2.64-.21.83 0a1.48 1.48 0 0 1 .39.69l5.92 22.89a2 2 0 0 1 .1.56 1.86 1.86 0 0 1 -.17.75 1.11 1.11 0 0 1 -.42.51l-3.42 2c-.36.21-.62.24-.77.09a.93.93 0 0 1 -.29-.53l-.76-3-7.21 4.16-.76 3.91a3.48 3.48 0 0 1 -.28.85 1.87 1.87 0 0 1 -.78.8l-3.41 2a.3.3 0 0 1 -.42 0 .7.7 0 0 1 -.18-.54 3.83 3.83 0 0 1 .11-.69l5.91-29.72a5.32 5.32 0 0 1 .39-1.14 2 2 0 0 1 .83-.94zm-4.39 20.79 4.39-2.54-2.19-8.75z" fill="#fff"/><path d="m164.79 130.32a.41.41 0 0 1 .52 0 .91.91 0 0 1 .21.67v4.42a2.17 2.17 0 0 1 -.21.92 1.36 1.36 0 0 1 -.52.63l-4.79 2.8v21.42a2.1 2.1 0 0 1 -.22.92 1.39 1.39 0 0 1 -.51.63l-3.56 2.05a.39.39 0 0 1 -.51 0 .87.87 0 0 1 -.22-.67v-21.45l-4.77 2.75a.4.4 0 0 1 -.52 0 .93.93 0 0 1 -.21-.67v-4.43a2.2 2.2 0 0 1 .21-.92 1.47 1.47 0 0 1 .52-.63z" fill="#fff"/><path d="m176.1 123.79c.36-.2.64-.21.83 0a1.48 1.48 0 0 1 .39.69l5.91 22.89a2.09 2.09 0 0 1 .11.56 1.72 1.72 0 0 1 -.18.75 1 1 0 0 1 -.42.51l-3.41 2q-.54.32-.78.09a1 1 0 0 1 -.28-.53l-.76-3-7.21 4.16-.76 3.91a3.05 3.05 0 0 1 -.29.85 1.79 1.79 0 0 1 -.77.8l-3.42 2a.31.31 0 0 1 -.42 0 .74.74 0 0 1 -.17-.54 3.58 3.58 0 0 1 .1-.69l5.92-29.72a5.32 5.32 0 0 1 .39-1.14 2 2 0 0 1 .83-.94zm-4.39 20.79 4.39-2.58-2.2-8.75z" fill="#fff"/><path d="m387.39 127.45c-6.35.3-8.52 1.51-11.85 5.43s-18.91 32.85-18.91 32.85 2.94 8.24 9.37 7.54l12-19.39z" fill="#ffa8a7"/><path d="m388.24 127.46s-4.57-.59-7.82.59-4.88 3.53-7.12 6.95c-1.73 2.65-7.81 13.64-7.81 13.64s3 8.23 11.37 8.23z" fill="#e0e0e0"/><path d="m410 333.91v-1.38c-.55 1.62-3.06 8.57-6.88 12.05-3 2.77-7.18 6-8.23 9.05s5.76 4.29 8.6 3.79c3.29-.58 7.56-2.45 9.88-5.3 1.63-2 2.67-4.38 3.83-6s3.85-3.34 4.48-5.16c.35-1-.06-3.2-.55-5.06-.44-1.7-.93-3.57-1.51-3.41v1.05a7.67 7.67 0 0 1 -4.81 1.63c-1.41.09-4.81-.17-4.81-1.26z" fill="#263238"/><path d="m400.37 347c.94-.85 1.89-1.67 2.75-2.45 2.67-2.43 4.7-6.56 5.87-9.38a13.32 13.32 0 0 0 1-5.06v-5.49h9.62v8.93.24h-.05c-.46 2-4.88 7.32-7.39 10.78-1.68 2.33-4.87 5.29-8.69 5.8-3.61.53-5.48-.61-3.11-3.37z" fill="#ffa8a7"/><path d="m376 324.42v-1.42c-.54 1.62-3.06 8.57-6.88 12-3 2.77-7.17 6-8.23 9.06s5.77 4.29 8.6 3.78c3.3-.58 7.56-2.45 9.88-5.3 1.63-2 2.67-4.38 3.84-6s3.85-3.34 4.48-5.16c.35-1-.07-3.2-.55-5.05s-.93-3.58-1.51-3.42v1a7.55 7.55 0 0 1 -4.81 1.63c-1.39.23-4.82-.05-4.82-1.12z" fill="#263238"/><path d="m366.4 337.53c.94-.84 1.88-1.66 2.74-2.45 2.67-2.43 4.71-6.56 5.87-9.38a13.09 13.09 0 0 0 1-5.06v-5.49h9.63v8.93.24c-.46 2-4.88 7.32-7.39 10.79-1.68 2.32-4.88 5.28-8.7 5.79-3.66.51-5.55-.63-3.15-3.37z" fill="#ffa8a7"/><path d="m417.71 184.33c7.46 16.3-.27 73.7-.27 73.7.22 2.65 3.25 7.85 4.37 19.49 1.33 13.76-2.09 48.29-2.09 48.29a10.42 10.42 0 0 1 -9.72.39s-9.18-52-10.9-65.69c-1.51-11.93-4.4-38.17-4.4-38.17l-4.64 38.11a70.53 70.53 0 0 1 2.6 11.77c.78 8-7 45.5-7 45.5s-3.32 1.22-9.63.29c0 0-2.75-49.7-3.48-59.39-1.22-16.27-.47-67 2.52-76.68z" fill="#455a64"/><path d="m394.7 222.34-2.42-15.14s-10.25-2.12-14.9-6.49c0 0 4.88 6.06 12.12 8l2.73 11.65-1.86 37.5z" fill="#37474f"/><path d="m404.54 127.71c2.84.19 3.79.13 5.85.34 4.11.42 5.1 6.44 6.79 10a16.39 16.39 0 0 1 .45 12.33l-6.63 19.27s3.12 7.55 6.75 14.68c-16.73 9.33-37.62 4.43-42.65-2.39-.22-1.44 1.08-12.74 1.87-20.12-2.94-7.39-3.72-12.08-2.48-17 2.31-9.07 10.58-17.42 12.94-17.41z" fill="#f0f0f0"/><path d="m418.84 91.1-3.46-.3a2.68 2.68 0 0 0 1-1 3 3 0 0 0 -1.11-3.94l-2.23 4.06a20.16 20.16 0 0 0 -18.51-10l-1.79.09a20.19 20.19 0 0 0 -19.09 21.24c.61 11.5 1.29 24.37 1.29 24.37l20.78-1.11a21.37 21.37 0 0 0 20.28-22.51l-.16-3a19.89 19.89 0 0 0 -1.1-5.54 2.81 2.81 0 0 0 1 .29 2.94 2.94 0 0 0 3.1-2.65z" fill="#455a64"/><path d="m377.41 102.56a41.33 41.33 0 0 0 .17 6.61c.79 10.36 4.29 12.74 6 13.39s5 0 8.09-.67v6.11s-3.77 5.41-3.34 8.24 6.5 3.19 10.44.19a18.22 18.22 0 0 0 5.54-8.11v-14.32s2.29 2.74 5.66.23 3.19-8.25 1-10.2-6.56-1.13-7.22 1.76c0 0-7.3-.61-8.22-12.62-6.72 8.83-17.69 2.48-18.12 9.39z" fill="#ffa8a7"/><path d="m403.76 105 .28 5.13a3.5 3.5 0 0 1 -3.68-3.31l-.3-5.72z" fill="#455a64"/><path d="m390.38 105.63a1.31 1.31 0 1 0 1.3-1.36 1.34 1.34 0 0 0 -1.3 1.36z" fill="#263238"/><path d="m390.29 114.82-3.49 1.32a1.83 1.83 0 0 0 2.38 1.15 2 2 0 0 0 1.11-2.47z" fill="#f28f8f"/><path d="m391.81 99.78 3.05 1a1.55 1.55 0 0 0 -1-2 1.69 1.69 0 0 0 -2.05 1z" fill="#455a64"/><path d="m379.18 106.2a1.32 1.32 0 0 0 1.3 1.35 1.35 1.35 0 0 0 1.31-1.37 1.31 1.31 0 1 0 -2.61 0z" fill="#263238"/><path d="m386.79 105.09.21 7.86-4.2-1.06z" fill="#f28f8f"/><path d="m391.68 121.89c3.31-.62 10.07-3 11-5.72a7 7 0 0 1 -2.22 3.59c-1.95 1.86-8.77 4.2-8.77 4.2z" fill="#f28f8f"/><path d="m400.27 186.14c5.49-1.3 6.54-3.37 5.08-8.83a3.32 3.32 0 0 0 -.17-.53c-1.07-2.58-5.37-1.05-5.37-1.05s1.76-2.19 3.73-5 2.86-7.4 3.12-10.64.79-9.73.79-9.73 4.28-2.56 2.61-7.24l6.6-4 1.24.86a16.81 16.81 0 0 1 -.27 10.42l-6.63 19.25a109.5 109.5 0 0 1 6.75 14.68c-12.33 6.88-26.91 6-35.75 2.37a48.86 48.86 0 0 0 18.27-.56z" fill="#e6e6e6"/><path d="m404.94 104-7.56.4a4.22 4.22 0 0 0 -4.3-3.12h-.65a4.21 4.21 0 0 0 -3.75 2.82 3.55 3.55 0 0 0 -2.51-.94 3.1 3.1 0 0 0 -2.17.84 4.21 4.21 0 0 0 -3.79-2h-.65a4.22 4.22 0 0 0 .45 8.43h.65a4.22 4.22 0 0 0 4-4.43 4.53 4.53 0 0 0 -.31-1.33 2.32 2.32 0 0 1 1.8-.72 2.77 2.77 0 0 1 2.28 1 4.1 4.1 0 0 0 0 .86 4.22 4.22 0 0 0 4.43 4h.65a4.21 4.21 0 0 0 4-4.44s0-.1 0-.15l6.76-.36a3.55 3.55 0 0 1 .67-.86zm-24.29 5.67h-.65a3.51 3.51 0 1 1 -.37-7h.65a3.5 3.5 0 1 1 .37 7zm12.85-.67h-.66a3.51 3.51 0 0 1 -.37-7h.65a3.51 3.51 0 0 1 .38 7z" fill="#263238"/><path d="m342.78 159.6 33.78 8.9 9.3 38.22-32.12-9.33z" fill="#ffc100"/><path d="m342.78 159.6 33.78 8.9 9.3 38.22-32.12-9.33z" opacity=".25"/><path d="m365.54 191.17c.22 2.07 1.67 4.46 5.89 6.48s12.44.89 12.44.89l-1.14-4.71z" opacity=".2"/><path d="m358 186.67c-.31.85-1.82 3.75-6.22 4.1l-.34-1.17z" opacity=".2"/><path d="m353 165.67-.27-1.29c-.16-.71 1.83-.74 4.42-.07l5 1.29c2.6.68 4.83 1.8 5 2.51l.28 1.29z" opacity=".1"/><path d="m350.36 160.82c-.1-.44.71-.56 1.79-.26l2 .55s-.59-2.79 3.78-1.81 5.33 4.13 5.33 4.13l2.11.6c1.16.33 2.21 1 2.35 1.4l.25.8-17.4-4.58s-.11-.38-.21-.83z" fill="#37474f"/><path d="m352.76 162.2c1.59.38 2.25.6 2.49 1.69.27 1.26.39 2.17.39 2.17l7.7 2s-.37-1.59-.49-2.2.14-1 1.37-.67l.1-.49-12.07-3.08z" fill="#37474f"/><path d="m352.49 165.79s-.12-.58-.28-1.29 1.83-.74 4.43-.07l5 1.29c2.6.68 4.83 1.8 5 2.51l.27 1.29z" fill="#37474f"/><path d="m346.34 171.87s1.26 4.32 1.55 5.35 4.07 2.88 6.56 3.56 5.2 1.5 4 5c-1.08 3.2-5.17 3.93-7.25 3.84s-4.93-2.08-6.05-5.28c-1.43-4.09-.66-8.46-1.23-10.85s1.17-3.05 2.42-1.62z" fill="#ffa8a7"/><path d="m409.62 128c4.38.27 8.91 2.65 9.6 7.91s4.95 33 3.28 36.08c-3.87 7.21-29.37 20.92-31.91 22.09a28.46 28.46 0 0 1 -11.76 3.16c-4 0-9.27-.09-11.95-3.68-2.37-3.19-3.71-9.08 1.65-8.07a58.32 58.32 0 0 0 12.29.54l-.62-2.57a12.45 12.45 0 0 1 4.09.67c2.68.8 5.11-1.5 9.84-4.42 6.09-3.77 15.36-11.73 15.36-11.73l-3.78-23.12s-.12-10.02 3.91-16.86z" fill="#ffa8a7"/><path d="m408.83 128a9.32 9.32 0 0 1 4.92.44c2.57 1 4.86 2.28 5.93 7.47s3.18 24.09 3.18 24.09-5.61 4.06-14.74 2.13l-3.29-17.13s-2.55-12.08 4-17z" fill="#e0e0e0"/><path d="m96.62 219.56 106.9-61.72v14.81l-106.9 61.72z" fill="#455a64"/><path d="m100.89 222.03v4.93l98.36-56.78v-4.94z" fill="#263238"/><path d="m96.62 219.56-4.28-2.47 106.91-61.72 4.27 2.47z" fill="#37474f"/><path d="m92.34 217.09 4.28 2.47v14.81l-4.28-2.47z" fill="#263238"/><path d="m404.51 412.16-94.09 54.28v-2.41l94.08-54.28z" fill="#37474f"/><path d="m220.63 263.77-20.73 12-12.74 7.34c-.41.21-.81.45-1.2.7a16.91 16.91 0 0 0 -8.09 14.53v59.55a16.85 16.85 0 0 1 -6.87 13.63 17.26 17.26 0 0 1 -10.28 3.48 17 17 0 0 1 -8.52-2.31 51.33 51.33 0 0 1 -25.65-44.44v-61.79a51.33 51.33 0 0 0 -25.66-44.46l94.11-54.29a51.38 51.38 0 0 1 25.67 44.46v26.9c-.03 7.7-.04 24.7-.04 24.7z" fill="#f5f5f5"/><path d="m254.84 431.93a51.29 51.29 0 0 1 -25.66-44.42v-59.59a51.2 51.2 0 0 0 -4-19.93 51.31 51.31 0 0 0 -21.63-24.5 17.1 17.1 0 0 0 -25.64 14.83v59.51a17.12 17.12 0 0 1 -25.66 14.84 51.33 51.33 0 0 1 -25.65-44.44v-61.77a51.33 51.33 0 0 0 -25.71-44.46v2.46a49.32 49.32 0 0 1 23.55 42v61.77a53.58 53.58 0 0 0 26.71 46.26 19 19 0 0 0 19.21 0c.37-.21.73-.43 1.09-.67a19 19 0 0 0 8.55-15.96v-59.55a15 15 0 0 1 22.5-13 49.29 49.29 0 0 1 24.6 42.6v59.59a53.55 53.55 0 0 0 26.71 46.25l56.63 32.68v-2.43z" fill="#455a64"/><path d="m404.5 409.75-94.08 54.25-55.58-32.1a51.29 51.29 0 0 1 -25.66-44.42v-59.56a51.2 51.2 0 0 0 -4-19.93 53.6 53.6 0 0 0 -2.85-5.73 51.3 51.3 0 0 0 -18.78-18.77 16.94 16.94 0 0 0 -16.36-.41l12.74-7.34 25.63-14.8 54.86-31.67.13-.08a16.93 16.93 0 0 1 17.08 0 51.29 51.29 0 0 1 25.65 44.43v59.58a51.33 51.33 0 0 0 25.65 44.44z" fill="#fafafa"/><path d="m227.07 327.92a49.29 49.29 0 0 0 -24.6-42.6 15 15 0 0 0 -22.5 13v59.55a19 19 0 0 1 -8.48 15.93c-.36.24-.72.46-1.09.67l56.71-32.75z" fill="#e0e0e0"/><path d="m227.07 327.92a49.29 49.29 0 0 0 -24.6-42.6 15 15 0 0 0 -22.5 13v59.55a19 19 0 0 1 -8.48 15.93c-.36.24-.72.46-1.09.67l56.71-32.75z" opacity=".15"/><g clip-path="url(#a)"><path d="m117.6 222.32a7.32 7.32 0 0 0 8 .6l67.13-38.75c2.52-1.46 3.11-4.18 1.14-5.88s-5.74-1.72-8.26-.27l-67.17 38.78c-2.52 1.45-2.82 3.83-.84 5.52z" fill="#ffc100"/><path d="m171.73 207.66a.75.75 0 0 1 -.38-1.39l31.39-18.12a.74.74 0 0 1 1 .27.75.75 0 0 1 -.27 1l-31.37 18.14a.74.74 0 0 1 -.37.1z" opacity=".4"/><path d="m174.15 211.7a.75.75 0 0 1 -.65-.37.76.76 0 0 1 .27-1l31.39-18.12a.75.75 0 0 1 .75 1.29l-31.39 18.1a.71.71 0 0 1 -.37.1z" opacity=".4"/><path d="m176.18 215.91a.75.75 0 0 1 -.37-1.39l31.39-18.12a.74.74 0 0 1 1 .27.75.75 0 0 1 -.28 1l-31.38 18.12a.75.75 0 0 1 -.36.12z" opacity=".4"/><path d="m177.82 220.29a.75.75 0 0 1 -.65-.37.76.76 0 0 1 .27-1l31.39-18.12a.74.74 0 0 1 1 .27.75.75 0 0 1 -.27 1l-31.39 18.12a.71.71 0 0 1 -.35.1z" opacity=".4"/><path d="m179 224.58a.73.73 0 0 1 -.64-.37.74.74 0 0 1 .27-1l31.37-18.14a.73.73 0 0 1 1 .27.74.74 0 0 1 -.27 1l-31.38 18.12a.75.75 0 0 1 -.35.12z" opacity=".4"/><path d="m179.82 229.19a.74.74 0 0 1 -.37-1.39l31.38-18.12a.75.75 0 0 1 .75 1.29l-31.39 18.12a.69.69 0 0 1 -.37.1z" opacity=".4"/><path d="m180.26 234.11a.74.74 0 0 1 -.37-1.39l31.38-18.12a.75.75 0 0 1 .75 1.29l-31.39 18.11a.71.71 0 0 1 -.37.11z" opacity=".4"/><path d="m135.51 269.2a.54.54 0 0 1 -.46-.27.53.53 0 0 1 .2-.72l76.15-44a.53.53 0 0 1 .72.19.52.52 0 0 1 -.19.72l-76.16 44a.5.5 0 0 1 -.26.08z" opacity=".4"/><path d="m135.51 273.9a.54.54 0 0 1 -.46-.27.53.53 0 0 1 .2-.72l76.15-44a.53.53 0 0 1 .72.2.51.51 0 0 1 -.19.71l-76.16 44a.59.59 0 0 1 -.26.08z" opacity=".4"/><path d="m135.51 278.6a.54.54 0 0 1 -.46-.27.53.53 0 0 1 .2-.72l76.15-44a.53.53 0 0 1 .53.92l-76.16 44a.59.59 0 0 1 -.26.07z" opacity=".4"/><path d="m135.51 283.3a.54.54 0 0 1 -.46-.27.51.51 0 0 1 .2-.71l76.15-44a.53.53 0 0 1 .53.91l-76.16 44a.48.48 0 0 1 -.26.07z" opacity=".4"/><path d="m135.51 262.36a.52.52 0 0 1 -.26-1l40.31-23.28a.53.53 0 1 1 .53.91l-40.32 23.28a.48.48 0 0 1 -.26.09z" opacity=".4"/><path d="m134.37 235.37a50 50 0 0 1 5.48 20 .76.76 0 0 0 1.24.65l2.24-1.29a2.3 2.3 0 0 0 1-2 54.16 54.16 0 0 0 -1.83-10.73 58.75 58.75 0 0 0 -3.61-9.22 1.27 1.27 0 0 0 -1.77-.49l-2.21 1.27a1.41 1.41 0 0 0 -.54 1.81z" fill="#ffc100"/><path d="m141 226.06a53.32 53.32 0 0 1 5.4 11.5 50 50 0 0 1 2.41 12.59.75.75 0 0 0 1.22.66l2.24-1.3a2.3 2.3 0 0 0 1.06-2 53.41 53.41 0 0 0 -2.43-12.51 51.43 51.43 0 0 0 -5.36-11.43 1.43 1.43 0 0 0 -1.87-.46l-2.23 1.24a1.2 1.2 0 0 0 -.44 1.71z" fill="#ffc100"/><path d="m158.72 230.46-2.2 1.27a1.72 1.72 0 0 0 -.74 1.91 51.24 51.24 0 0 1 2 11.34.75.75 0 0 0 1.22.65l2.24-1.29a2.31 2.31 0 0 0 1.06-2 53.75 53.75 0 0 0 -2.06-11.31 1 1 0 0 0 -1.52-.57z" fill="#ffc100"/><path d="m167.68 221.52a1.12 1.12 0 0 0 -1.68-.52l-2.22 1.26a1.55 1.55 0 0 0 -.64 1.87c.4 1 .78 2 1.16 3.14a49.51 49.51 0 0 1 2.4 12.58.76.76 0 0 0 1.23.66l2.24-1.29a2.33 2.33 0 0 0 1.06-2 53.5 53.5 0 0 0 -2.45-12.56c-.31-1.09-.69-2.13-1.1-3.14z" fill="#ffc100"/><path d="m137.06 253.33a.38.38 0 0 0 -.51-.14l-.94.54c-.21-1.29-.45-2.57-.74-3.83l1.27-.73a.38.38 0 0 0 -.38-.65l-1.08.63c-.32-1.27-.67-2.53-1.08-3.76l1.21-.69a.37.37 0 0 0 -.37-.65l-1.09.63c-.42-1.2-.86-2.39-1.37-3.55a.36.36 0 0 0 0-.09l1.2-.69a.37.37 0 0 0 .14-.51.38.38 0 0 0 -.51-.14l-1.13.65c-.52-1.17-1.1-2.33-1.73-3.49l1.19-.69a.37.37 0 0 0 .14-.51.38.38 0 0 0 -.51-.14l-1.18.69c-.64-1.12-1.32-2.23-2.06-3.33l1.35-.77a.36.36 0 0 0 .13-.51.37.37 0 0 0 -.51-.14l-1.38.81c-.8-1.15-1.63-2.29-2.53-3.42a.38.38 0 0 0 -.59.47c.88 1.09 1.7 2.2 2.47 3.32l-1.28.74a.37.37 0 0 0 .18.69.32.32 0 0 0 .19 0l1.33-.76c.73 1.1 1.42 2.2 2.05 3.32l-1.49.86a.37.37 0 0 0 .19.69.29.29 0 0 0 .18 0l1.48-.85c.63 1.16 1.21 2.33 1.73 3.5l-1.54.89a.37.37 0 0 0 .19.69.31.31 0 0 0 .18-.05l1.47-.85c.51 1.18 1 2.4 1.39 3.63l-1.57.91a.37.37 0 0 0 .18.69.32.32 0 0 0 .19 0l1.45-.84c.41 1.24.76 2.49 1.07 3.77l-1.56.9a.37.37 0 0 0 -.14.51.36.36 0 0 0 .32.18.32.32 0 0 0 .19 0l1.38-.79c.29 1.26.52 2.55.72 3.84l-1.69 1a.37.37 0 0 0 .19.69.31.31 0 0 0 .18-.05l1.44-.83c.22 1.57.37 3.17.46 4.79a.37.37 0 0 0 .37.35.37.37 0 0 0 .35-.39c-.09-1.74-.26-3.46-.5-5.15l1.18-.68a.37.37 0 0 0 .13-.71z" opacity=".4"/><g opacity=".15"><path d="m140.88 326.42a58.62 58.62 0 0 1 -.34-8.48c.3-1.09 4.84-16.68 13.2-21.53a5.45 5.45 0 0 1 1.65-.69 2.79 2.79 0 0 1 .68-.08c2.22 0 3.21 3.08 4.17 6.06a29.34 29.34 0 0 0 1.32 3.58c.57 1.2 1.54 2.79 3.38 2.79a4.72 4.72 0 0 0 2.29-.7c4-2.29 5.17-8.49 6.4-15.05a74.41 74.41 0 0 1 2-8.7c1.22-3.83 2.8-6.2 5-7.46a3.92 3.92 0 0 1 1.86-.61c2.33 0 3.21 4.15 4.06 8.16a33.22 33.22 0 0 0 1.7 6.15c.85 1.93 2 2.87 3.41 2.87a4.9 4.9 0 0 0 2.34-.73c4.93-2.84 6.42-7.67 7.86-12.33 1.23-4 2.38-7.7 5.63-9.59a4.84 4.84 0 0 1 2.42-.76 3.21 3.21 0 0 1 1.07.18 21.22 21.22 0 0 1 .15 2.24l.06 9.44c.08 1.81.21 3.23.37 4.45z" fill="#ffc100"/><path d="m212.14 285.88c-.21-1.41-.33-3-.42-4.73l-.05-9.44a21.56 21.56 0 0 0 -.2-2.6 3.49 3.49 0 0 0 -1.55-.35 5.32 5.32 0 0 0 -2.68.83c-7.26 4.22-4.49 16.73-13.5 21.93a4.39 4.39 0 0 1 -2.14.68c-1.35 0-2.25-1-2.93-2.56-2.12-4.78-2.07-14.61-6.24-14.61a4.3 4.3 0 0 0 -2.12.68c-2.58 1.49-4.13 4.34-5.21 7.76-2.69 8.42-2.53 20.25-8.13 23.44a4.22 4.22 0 0 1 -2 .64c-1.33 0-2.21-1-2.91-2.49-1.73-3.64-2.34-9.95-6-9.95a3.75 3.75 0 0 0 -.79.09 6.24 6.24 0 0 0 -1.8.75c-8.91 5.18-13.47 21.91-13.47 21.91a60.9 60.9 0 0 0 .43 9.41l1-.59a10.11 10.11 0 0 1 -.17-1.13 61.06 61.06 0 0 1 -.25-7.53c.42-1.48 4.89-16.47 12.95-21.16a5.14 5.14 0 0 1 1.5-.63 2.32 2.32 0 0 1 .56-.07c1.83 0 2.77 2.9 3.67 5.7a29.45 29.45 0 0 0 1.34 3.65c.37.76 1.47 3.09 3.86 3.09a5.09 5.09 0 0 0 2.55-.78c4.23-2.4 5.41-8.72 6.65-15.41a74.79 74.79 0 0 1 2-8.63c1.18-3.69 2.68-6 4.74-7.16a3.29 3.29 0 0 1 1.59-.54c1.9 0 2.78 4.11 3.55 7.74a33.76 33.76 0 0 0 1.72 6.25c.93 2.11 2.24 3.19 3.9 3.19a5.34 5.34 0 0 0 2.67-.83c5.11-2.95 6.7-8.1 8.1-12.64 1.2-3.86 2.32-7.5 5.4-9.29a4.31 4.31 0 0 1 2.15-.69 2.25 2.25 0 0 1 .58.07c.11 1.06.12 1.82.12 1.83v9.49c.08 1.63.19 3 .33 4.12a7.7 7.7 0 0 0 .21 1.1l.93-.54"/></g><path d="m140 313.09v4.77a60.67 60.67 0 0 0 .43 9.41l71.7-41.39c-.21-1.41-.34-3-.42-4.74l-.05-9.43s0-14.11-9-8.93c-9.42 5.44-6.76 22.7-13.44 26.56s-4.48-11.52-13.44-6.34-4.48 16.69-13.44 21.86-4.48-20.92-13.44-15.75-8.9 18.03-8.9 23.98z" fill="#ffc100" opacity=".4"/><path d="m136.73 334.55a.37.37 0 0 1 -.32-.19.37.37 0 0 1 .14-.51l76.26-43.67a.37.37 0 0 1 .5.14.37.37 0 0 1 -.13.51l-76.26 43.67a.41.41 0 0 1 -.19.05z" opacity=".4"/><g fill="#fff"><path d="m149 291.63a.38.38 0 0 1 -.38-.37v-.75a.36.36 0 0 1 .37-.37.37.37 0 0 1 .37.37v.75a.38.38 0 0 1 -.36.37z"/><path d="m149.16 320.31a.38.38 0 0 1 -.37-.34c0-.48-.08-1-.11-1.44a.37.37 0 0 1 .35-.39.34.34 0 0 1 .39.34c0 .48.07.95.11 1.42a.37.37 0 0 1 -.33.41zm-.17-2.86a.38.38 0 0 1 -.38-.37c0-.41 0-.89 0-1.44a.37.37 0 0 1 .37-.37c.22 0 .37.16.38.37v1.43a.37.37 0 0 1 -.37.38zm0-2.87a.38.38 0 0 1 -.37-.37v-1.44a.38.38 0 0 1 .37-.37.38.38 0 0 1 .37.37v1.44a.38.38 0 0 1 -.38.37zm0-2.87a.37.37 0 0 1 -.37-.37v-1.44a.38.38 0 0 1 .38-.37.38.38 0 0 1 .37.37v1.44a.37.37 0 0 1 -.37.37zm0-2.87a.38.38 0 0 1 -.37-.37v-1.47a.38.38 0 0 1 .75 0v1.44a.38.38 0 0 1 -.43.4zm0-2.87a.37.37 0 0 1 -.37-.37v-1.43a.37.37 0 1 1 .74 0v1.43a.37.37 0 0 1 -.42.4zm0-2.87a.36.36 0 0 1 -.37-.37v-1.43a.37.37 0 1 1 .74 0v1.43a.36.36 0 0 1 -.42.37zm0-2.87a.36.36 0 0 1 -.37-.37v-1.43a.38.38 0 0 1 .37-.38.37.37 0 0 1 .37.38v1.43a.36.36 0 0 1 -.42.37zm0-2.86a.38.38 0 0 1 -.37-.38v-1.43a.38.38 0 0 1 .75 0v1.44a.39.39 0 0 1 -.43.37zm0-2.87a.38.38 0 0 1 -.37-.37v-1.43a.38.38 0 0 1 .38-.38.37.37 0 0 1 .37.37v1.44a.38.38 0 0 1 -.43.37z"/><path d="m149.4 322.47a.38.38 0 0 1 -.37-.32l-.09-.75a.37.37 0 1 1 .74-.08l.09.73a.37.37 0 0 1 -.32.42z"/><path d="m202.72 263.9a.38.38 0 0 1 -.38-.38v-.74a.38.38 0 0 1 .38-.38.38.38 0 0 1 .37.38v.74a.38.38 0 0 1 -.37.38z"/><path d="m202.93 292.58a.38.38 0 0 1 -.37-.34c-.05-.48-.08-1-.11-1.44a.38.38 0 0 1 .35-.4.36.36 0 0 1 .39.35c0 .48.07.95.11 1.42a.37.37 0 0 1 -.34.41zm-.17-2.86a.38.38 0 0 1 -.38-.37c0-.41 0-.89 0-1.44a.37.37 0 0 1 .37-.37.37.37 0 0 1 .37.37v1.43a.37.37 0 0 1 -.37.38zm0-2.87a.37.37 0 0 1 -.37-.37v-1.48a.37.37 0 0 1 .37-.37.38.38 0 0 1 .38.37v1.43a.37.37 0 0 1 -.37.38zm0-2.87a.38.38 0 0 1 -.38-.37v-1.44a.38.38 0 0 1 .37-.37.38.38 0 0 1 .38.37v1.44a.38.38 0 0 1 -.37.37zm0-2.87a.38.38 0 0 1 -.37-.37v-1.44a.37.37 0 0 1 .74 0v1.44a.37.37 0 0 1 -.42.37zm0-2.87a.38.38 0 0 1 -.38-.37v-1.44a.38.38 0 0 1 .75 0v1.44a.38.38 0 0 1 -.42.37zm0-2.87a.37.37 0 0 1 -.38-.37v-1.43a.38.38 0 1 1 .75 0v1.43a.37.37 0 0 1 -.42.37zm0-2.87a.37.37 0 0 1 -.38-.37v-1.43a.37.37 0 0 1 .37-.38.38.38 0 0 1 .37.38v1.43a.37.37 0 0 1 -.41.37zm0-2.86a.37.37 0 0 1 -.37-.38v-1.43a.37.37 0 1 1 .74 0v1.43a.38.38 0 0 1 -.42.38zm0-2.87a.38.38 0 0 1 -.37-.38v-1.39a.38.38 0 0 1 .75 0v1.44a.38.38 0 0 1 -.43.33z"/><path d="m203.17 294.74a.38.38 0 0 1 -.37-.32l-.09-.75a.36.36 0 0 1 .32-.41.37.37 0 0 1 .42.32l.09.74a.37.37 0 0 1 -.32.42z"/><path d="m175.83 285.41a.38.38 0 0 1 -.38-.37v-.75a.38.38 0 0 1 .75 0v.71a.38.38 0 0 1 -.37.41z"/><path d="m176 305a.37.37 0 0 1 -.37-.34c0-.46-.08-.93-.11-1.4a.38.38 0 0 1 .35-.4.36.36 0 0 1 .4.35c0 .46.06.92.1 1.38a.37.37 0 0 1 -.33.41zm-.17-2.79a.38.38 0 0 1 -.38-.37v-1.4a.37.37 0 0 1 .37-.38.38.38 0 0 1 .37.37v1.4a.38.38 0 0 1 -.37.38zm0-2.8a.36.36 0 0 1 -.37-.37v-1.4a.38.38 0 0 1 .37-.38.37.37 0 0 1 .37.38v1.36a.37.37 0 0 1 -.37.37zm0-2.8a.38.38 0 0 1 -.38-.37v-1.4a.37.37 0 0 1 .37-.37.37.37 0 0 1 .38.37v1.4a.38.38 0 0 1 -.37.37zm0-2.8a.37.37 0 0 1 -.37-.37v-1.44a.38.38 0 0 1 .75 0v1.4a.37.37 0 0 1 -.39.4zm0-2.79a.38.38 0 0 1 -.37-.38v-1.4a.38.38 0 0 1 .75 0v1.4a.38.38 0 0 1 -.39.36zm0-2.8a.38.38 0 0 1 -.37-.38v-1.39a.38.38 0 1 1 .75 0v1.4a.38.38 0 0 1 -.38.36z"/><path d="m176.28 307.12a.38.38 0 0 1 -.37-.32l-.09-.75a.36.36 0 0 1 .33-.41.37.37 0 0 1 .41.32l.09.74a.37.37 0 0 1 -.32.42z"/></g><path d="m148.94 287.64c.71-.41 1.29-.14 1.29.61a2.76 2.76 0 0 1 -1.29 2.1c-.71.41-1.29.13-1.29-.61a2.73 2.73 0 0 1 1.29-2.1z" opacity=".4"/><path d="m175.83 281.42c.71-.41 1.29-.14 1.29.61a2.73 2.73 0 0 1 -1.29 2.09c-.71.42-1.29.14-1.29-.6a2.73 2.73 0 0 1 1.29-2.1z" opacity=".4"/><path d="m202.71 261.42c.71-.41 1.29-.13 1.29.61a2.73 2.73 0 0 1 -1.29 2.1c-.72.41-1.29.14-1.29-.61a2.72 2.72 0 0 1 1.29-2.1z" opacity=".4"/><path d="m137.23 296.32a.37.37 0 0 0 .14-.51.37.37 0 0 0 -.51-.13l-1 .56v-3.85l1.35-.78a.37.37 0 0 0 .14-.51.38.38 0 0 0 -.51-.14l-1 .57v-4.06a.38.38 0 0 0 -.37-.37.37.37 0 0 0 -.37.37v4.53l-1.36.78a.37.37 0 0 0 -.13.51.36.36 0 0 0 .32.18.34.34 0 0 0 .19-.05l1-.56v3.85l-1.36.78a.37.37 0 0 0 .19.69.34.34 0 0 0 .19-.05l1-.56v3.85l-1.36.78a.36.36 0 0 0 -.13.51.36.36 0 0 0 .32.19.37.37 0 0 0 .18-.05l1-.57v3.85l-1.36.78a.37.37 0 0 0 -.14.51.39.39 0 0 0 .33.19.37.37 0 0 0 .18-.05l1-.57v3.85l-1.36.78a.37.37 0 0 0 -.14.51.39.39 0 0 0 .33.19.41.41 0 0 0 .18 0l1-.57v3.85l-1.36.78a.38.38 0 0 0 -.14.51.39.39 0 0 0 .33.19.41.41 0 0 0 .18-.05l1-.57v3.85l-1.36.78a.38.38 0 0 0 -.14.51.38.38 0 0 0 .32.19.41.41 0 0 0 .19-.05l1-.57v3.83l-1.39.8a.37.37 0 0 0 .18.7.41.41 0 0 0 .19-.05l1.07-.62c.08 1.4.2 2.8.37 4.17a.38.38 0 0 0 .37.32.37.37 0 0 0 .32-.42c-.18-1.47-.31-3-.39-4.48l1.28-.74a.37.37 0 0 0 -.37-.65l-.94.54c0-1.27-.06-2.55 0-3.83l1.34-.78a.37.37 0 0 0 .14-.5.37.37 0 0 0 -.51-.14l-1 .56v-3.85l1.34-.78a.37.37 0 1 0 -.37-.64l-1 .56v-3.85l1.35-.78a.37.37 0 0 0 .13-.51.38.38 0 0 0 -.51-.13l-1 .56v-3.85l1.35-.78a.37.37 0 0 0 -.38-.64l-1 .56v-3.85l1.35-.78a.36.36 0 0 0 .13-.51.35.35 0 0 0 -.5-.13l-1 .56v-3.94z" opacity=".4"/><path d="m230.66 319.42-71.66 41.35c-2.52 1.45-6.17 1.28-8-.57s-1.07-4.69 1.45-6.14l71.6-41.34a6.54 6.54 0 0 1 7.68.86c1.88 1.86 1.45 4.42-1.07 5.84z" fill="#ffc100"/><path d="m138.06 339.53a.52.52 0 0 1 -.26-1l80.67-46.53a.53.53 0 0 1 .53.91l-80.68 46.58a.48.48 0 0 1 -.26.04z" opacity=".4"/><path d="m139.71 343.9a.54.54 0 0 1 -.46-.27.53.53 0 0 1 .19-.72l80.69-46.58a.52.52 0 0 1 .72.19.53.53 0 0 1 -.19.72l-80.66 46.58a.5.5 0 0 1 -.29.08z" opacity=".4"/><path d="m141.74 348.08a.53.53 0 0 1 -.26-1l80.7-46.6a.53.53 0 0 1 .53.91l-80.71 46.61a.68.68 0 0 1 -.26.08z" opacity=".4"/><path d="m144.15 352.06a.54.54 0 0 1 -.46-.27.51.51 0 0 1 .19-.71l80.71-46.6a.53.53 0 0 1 .53.91l-80.71 46.61a.48.48 0 0 1 -.26.06z" opacity=".4"/></g><path d="m214.58 274.9 66.42-38.33c2.52-1.45 6.53-2.31 8.78-1.4s1.83 3.27-.69 4.72l-67.19 38.77c-2.52 1.46-6.1 1.61-8.1.53s-1.74-2.84.78-4.29z" fill="#ffc100"/><path d="m222.28 285.44a.54.54 0 0 1 -.46-.27.53.53 0 0 1 .2-.72l76.52-44.17a.53.53 0 0 1 .72.19.52.52 0 0 1 -.2.72l-76.52 44.17a.5.5 0 0 1 -.26.08z" opacity=".4"/><path d="m225.45 288.86a.54.54 0 0 1 -.46-.27.53.53 0 0 1 .2-.72l76.64-44.23a.51.51 0 0 1 .71.19.53.53 0 0 1 -.19.72l-76.64 44.24a.59.59 0 0 1 -.26.07z" opacity=".4"/><path d="m238.14 328a.37.37 0 0 1 -.37-.38v-4.06c0-3.05 0-3.05-.08-5.12v-.34a49.43 49.43 0 0 0 -2.69-13.86 38.59 38.59 0 0 0 -6.9-12.05.37.37 0 0 1 .58-.47 39.35 39.35 0 0 1 7 12.28 50 50 0 0 1 2.76 14v.35c.09 2.08.09 2.08.08 5.16v4.06a.38.38 0 0 1 -.38.43z" opacity=".4"/><path d="m237.37 296c-.34-.6-.71-1.18-1.1-1.76a1.18 1.18 0 0 1 .38-1.73l29.24-16.88a1.38 1.38 0 0 1 1.86.44c.35.57.69 1.18 1 1.81a1.41 1.41 0 0 1 -.55 1.84l-29.08 16.78a1.27 1.27 0 0 1 -1.75-.5z" fill="#ffc100"/><path d="m240.22 302.78c.21.67.42 1.33.6 2a1 1 0 0 0 1.47.62l69.37-40.05a1.81 1.81 0 0 0 .81-1.93c-.19-.69-.39-1.36-.59-2a1 1 0 0 0 -1.56-.59l-69.39 40.05a1.68 1.68 0 0 0 -.71 1.9z" fill="#ffc100"/><path d="m240.22 302.78c.21.67.42 1.33.6 2a1 1 0 0 0 1.47.62l69.37-40.05a1.81 1.81 0 0 0 .81-1.93c-.19-.69-.39-1.36-.59-2a1 1 0 0 0 -1.56-.59l-69.39 40.05a1.68 1.68 0 0 0 -.71 1.9z" fill="#fff" opacity=".7"/><path d="m242.24 312c.09.74.16 1.46.22 2.15a.75.75 0 0 0 1.22.66l47-27.13a2.27 2.27 0 0 0 1.05-2c-.06-.72-.14-1.43-.22-2.15a.82.82 0 0 0 -1.32-.64l-47 27.12a2.14 2.14 0 0 0 -.95 1.99z" fill="#ffc100"/><path d="m242.24 312c.09.74.16 1.46.22 2.15a.75.75 0 0 0 1.22.66l47-27.13a2.27 2.27 0 0 0 1.05-2c-.06-.72-.14-1.43-.22-2.15a.82.82 0 0 0 -1.32-.64l-47 27.12a2.14 2.14 0 0 0 -.95 1.99z" opacity=".15"/><path d="m242.62 321.59v2.12c0 .72.51 1 1.14.65l20.12-11.61a2.52 2.52 0 0 0 1.14-2v-2.12c0-.73-.51-1-1.14-.66l-20.12 11.62a2.52 2.52 0 0 0 -1.14 2z" fill="#ffc100"/><path d="m242.62 321.59v2.12c0 .72.51 1 1.14.65l20.12-11.61a2.52 2.52 0 0 0 1.14-2v-2.12c0-.73-.51-1-1.14-.66l-20.12 11.62a2.52 2.52 0 0 0 -1.14 2z" fill="#fff" opacity=".5"/><path d="m314.3 288.18a.38.38 0 0 0 -.38.38v1.81l-5.36 3.09v-1.35a.38.38 0 0 0 -.75 0v1.78l-5.36 3.1v-1.33a.38.38 0 1 0 -.75 0v1.76l-5.36 3.09v-1.3a.38.38 0 0 0 -.37-.38.37.37 0 0 0 -.37.38v1.73l-5.37 3.1v-1.28a.37.37 0 0 0 -.74 0v1.71l-5.37 3.1v-1.26a.36.36 0 0 0 -.37-.37.37.37 0 0 0 -.37.37v1.69l-5.38 3.09v-1.23a.38.38 0 0 0 -.75 0v1.66l-5.36 3.1v-1.21a.38.38 0 0 0 -.75 0v1.64l-5.36 3.09v-1.14a.38.38 0 0 0 -.75 0v1.61l-5.36 3.1v-1.16a.38.38 0 0 0 -.75 0v1.59l-5.36 3.1v-1.14a.38.38 0 0 0 -.75 0v1.57l-5.36 3.09v-1.11a.38.38 0 0 0 -.75 0v1.54l-4.65 2.69a.37.37 0 0 0 -.14.51.39.39 0 0 0 .33.19.32.32 0 0 0 .18-.06l4.28-2.47v1.52a.38.38 0 0 0 .75 0v-1.95l5.36-3.09v1.47a.38.38 0 0 0 .75 0v-1.92l5.36-3.1v1.47a.38.38 0 0 0 .75 0v-1.9l5.36-3.09v1.44a.38.38 0 0 0 .75 0v-1.9l5.36-3.09v1.42a.38.38 0 0 0 .75 0v-1.85l5.36-3.1v1.4a.38.38 0 0 0 .75 0v-1.78l5.36-3.09v1.37a.38.38 0 0 0 .37.37.37.37 0 0 0 .37-.37v-1.8l5.37-3.1v1.35a.37.37 0 0 0 .74 0v-1.83l5.37-3.1v1.33a.37.37 0 0 0 .37.37.38.38 0 0 0 .37-.37v-1.76l5.36-3.09v1.3a.38.38 0 0 0 .75 0v-1.73l5.36-3.1v1.25a.38.38 0 0 0 .75 0v-1.71l5.36-3.09v1.25a.38.38 0 0 0 .75 0v-3.92a.38.38 0 0 0 -.35-.35z" opacity=".4"/><path d="m255.49 337.37a13.38 13.38 0 0 0 -3.9 1.58c-7.42 4.36-13.43 15.27-13.43 24.36v.71l13.41-6.14z" fill="#ffc100"/><path d="m255.49 337.37-3.91 20.51 13.29-7.71a21.05 21.05 0 0 0 .15-2.49c-.02-7.48-4.02-11.46-9.53-10.31z" fill="#ffc100"/><path d="m263.19 357.08a28.54 28.54 0 0 0 1.68-6.91l-13.29 7.71z" fill="#ffc100"/><path d="m238.17 364c.3 8.6 6.2 12.19 13.42 8 5-2.86 9.28-8.67 11.6-15l-11.61.8z" fill="#ffc100"/><path d="m255.49 337.37-3.91 20.51 13.29-7.71a21.05 21.05 0 0 0 .15-2.49c-.02-7.48-4.02-11.46-9.53-10.31z" fill="#fff" opacity=".7"/><path d="m263.19 357.08a28.54 28.54 0 0 0 1.68-6.91l-13.29 7.71z" opacity=".15"/><g fill="#fff"><path d="m238.17 364c.3 8.6 6.2 12.19 13.42 8 5-2.86 9.28-8.67 11.6-15l-11.61.8z" opacity=".5"/><path d="m238.17 364.55a.57.57 0 0 1 -.28-.08.53.53 0 0 1 -.25-.43c0-.24 0-.48 0-.73 0-9.25 6.14-20.38 13.69-24.81a13.75 13.75 0 0 1 4.06-1.64.52.52 0 0 1 .48.14.52.52 0 0 1 .15.47l-3.93 20.53a.52.52 0 0 1 -.29.38l-13.41 6.14a.59.59 0 0 1 -.22.03zm16.65-26.46a13.21 13.21 0 0 0 -3 1.32c-7.24 4.25-13.13 14.9-13.18 23.79l12.43-5.68z"/><path d="m251.58 358.41a.5.5 0 0 1 -.31-.1.54.54 0 0 1 -.21-.53l3.92-20.5a.52.52 0 0 1 .41-.42 7.64 7.64 0 0 1 6.6 1.4c2.29 1.86 3.56 5.21 3.56 9.42a22.59 22.59 0 0 1 -.15 2.55.53.53 0 0 1 -.26.39l-13.3 7.72a.59.59 0 0 1 -.26.07zm4.42-20.58-3.64 19 12.07-7a20.1 20.1 0 0 0 .12-2.16c0-3.89-1.13-6.95-3.18-8.61a6.5 6.5 0 0 0 -5.37-1.23z"/><path d="m251.58 358.41a.52.52 0 0 1 -.5-.37.51.51 0 0 1 .23-.61l13.3-7.72a.54.54 0 0 1 .55 0 .53.53 0 0 1 .24.5 29 29 0 0 1 -1.72 7 .54.54 0 0 1 -.45.34l-11.62.8zm12.64-7.25-10.42 6 9-.62a28.54 28.54 0 0 0 1.42-5.38z"/><path d="m245.87 374.31a7.53 7.53 0 0 1 -3.64-.91c-2.8-1.56-4.43-4.88-4.59-9.36a.52.52 0 0 1 .31-.5l13.41-6.14a.58.58 0 0 1 .18 0l11.61-.8a.5.5 0 0 1 .46.21.49.49 0 0 1 .07.49c-2.42 6.59-7 12.42-11.83 15.24a12.15 12.15 0 0 1 -5.98 1.77zm-7.16-10c.21 3.92 1.64 6.8 4 8.12s5.37 1 8.59-.89c4.48-2.58 8.67-7.87 11.07-13.92l-10.69.74z"/></g><path d="m294.78 315.68c-4.37 5.26-7.36 12.61-7.36 19.07a13.75 13.75 0 0 0 1.7 7.12l11.74-14.87z" fill="#ffc100"/><path d="m306.92 308.64a11.17 11.17 0 0 0 -6.06 1.72 23 23 0 0 0 -6.08 5.32l6.08 11.3z" fill="#ffc100"/><path d="m313.05 312.93a7 7 0 0 0 -6.13-4.29l-6.06 18.36z" fill="#ffc100"/><path d="m313.05 312.93-12.19 14.07-11.74 14.89c2.3 3.75 6.69 4.65 11.74 1.74 7.42-4.29 13.44-15.2 13.44-24.39a14.52 14.52 0 0 0 -1.25-6.31z" fill="#ffc100"/><path d="m306.92 308.64a11.17 11.17 0 0 0 -6.06 1.72 23 23 0 0 0 -6.08 5.32l6.08 11.3z" fill="#fff" opacity=".7"/><path d="m313.05 312.93a7 7 0 0 0 -6.13-4.29l-6.06 18.36z" opacity=".15"/><path d="m313.05 312.93-12.19 14.07-11.74 14.89c2.3 3.75 6.69 4.65 11.74 1.74 7.42-4.29 13.44-15.2 13.44-24.39a14.52 14.52 0 0 0 -1.25-6.31z" fill="#fff" opacity=".5"/><path d="m289.12 342.4a.56.56 0 0 1 -.42-.26 14.28 14.28 0 0 1 -1.77-7.39c0-6.41 2.86-13.85 7.48-19.41a.56.56 0 0 1 .45-.19.54.54 0 0 1 .42.28l6.07 11.31a.52.52 0 0 1 -.05.57l-11.77 14.89a.54.54 0 0 1 -.41.2zm5.57-25.77c-4.17 5.3-6.74 12.18-6.74 18.12a14 14 0 0 0 1.25 6.17l11-14z" fill="#fff"/><path d="m300.86 327.51a.52.52 0 0 1 -.47-.28l-6.07-11.3a.53.53 0 0 1 .06-.59 23 23 0 0 1 6.21-5.43 11.64 11.64 0 0 1 6.35-1.8.51.51 0 0 1 .41.23.5.5 0 0 1 .07.46l-6.06 18.35a.54.54 0 0 1 -.46.36zm-5.45-11.77 5.33 9.92 5.45-16.5a11.4 11.4 0 0 0 -5.07 1.66 22 22 0 0 0 -5.71 4.92z" fill="#fff"/><path d="m300.86 327.51a.48.48 0 0 1 -.26-.07.52.52 0 0 1 -.24-.62l6.06-18.35a.52.52 0 0 1 .52-.36 7.54 7.54 0 0 1 6.58 4.59.54.54 0 0 1 -.08.58l-12.19 14.05a.51.51 0 0 1 -.39.18zm6.43-18.32-5.11 15.46 10.24-11.8a6.49 6.49 0 0 0 -5.13-3.66z" fill="#fff"/><path d="m295.16 345.86a7.37 7.37 0 0 1 -6.49-3.71.53.53 0 0 1 0-.61l11.73-14.88 12.21-14.07a.51.51 0 0 1 .47-.18.52.52 0 0 1 .4.29 14.92 14.92 0 0 1 1.31 6.52c0 9.33-6.15 20.48-13.71 24.84a12 12 0 0 1 -5.92 1.8zm-5.39-4c2.29 3.39 6.31 3.86 10.82 1.25 7.27-4.19 13.18-14.93 13.18-23.93a14.81 14.81 0 0 0 -.87-5.31l-11.65 13.42z" fill="#fff"/><path d="m270.64 327.84 2.2-1.27c.63-.36 1.14-.06 1.14.66v2.12a2.52 2.52 0 0 1 -1.14 2l-2.2 1.27c-.63.36-1.14.07-1.14-.66v-2.11a2.53 2.53 0 0 1 1.14-2.01z" fill="#ffc100"/><path d="m270.64 337.33 2.2-1.27c.63-.37 1.14-.07 1.14.66v2.11a2.5 2.5 0 0 1 -1.14 2l-2.2 1.27c-.63.37-1.14.07-1.14-.66v-2.14a2.5 2.5 0 0 1 1.14-1.97z" fill="#ffc100"/><path d="m270.64 337.33 2.2-1.27c.63-.37 1.14-.07 1.14.66v2.11a2.5 2.5 0 0 1 -1.14 2l-2.2 1.27c-.63.37-1.14.07-1.14-.66v-2.14a2.5 2.5 0 0 1 1.14-1.97z" fill="#fff" opacity=".7"/><path d="m270.64 346.81 2.2-1.27c.63-.36 1.14-.07 1.14.66v2.11a2.53 2.53 0 0 1 -1.14 2l-2.2 1.27c-.63.36-1.14.06-1.14-.66v-2.12a2.52 2.52 0 0 1 1.14-1.99z" fill="#ffc100"/><path d="m270.64 346.81 2.2-1.27c.63-.36 1.14-.07 1.14.66v2.11a2.53 2.53 0 0 1 -1.14 2l-2.2 1.27c-.63.36-1.14.06-1.14-.66v-2.12a2.52 2.52 0 0 1 1.14-1.99z" opacity=".15"/><path d="m270.64 356.29 2.2-1.27c.63-.36 1.14-.06 1.14.66v2.12a2.52 2.52 0 0 1 -1.14 2l-2.2 1.27c-.63.36-1.14.07-1.14-.66v-2.11a2.53 2.53 0 0 1 1.14-2.01z" fill="#ffc100"/><path d="m270.64 356.29 2.2-1.27c.63-.36 1.14-.06 1.14.66v2.12a2.52 2.52 0 0 1 -1.14 2l-2.2 1.27c-.63.36-1.14.07-1.14-.66v-2.11a2.53 2.53 0 0 1 1.14-2.01z" fill="#fff" opacity=".5"/><path d="m276.24 327.63a.73.73 0 0 1 -.64-.38.74.74 0 0 1 .27-1l6.69-3.86a.75.75 0 0 1 .75 1.29l-6.7 3.87a.79.79 0 0 1 -.37.08z" opacity=".4"/><path d="m276.14 337.2a.74.74 0 0 1 -.37-1.39l6.69-3.86a.75.75 0 1 1 .75 1.29l-6.7 3.86a.71.71 0 0 1 -.37.1z" opacity=".4"/><path d="m276 346.78a.75.75 0 0 1 -.38-1.39l6.7-3.86a.74.74 0 0 1 1 .27.76.76 0 0 1 -.27 1l-6.7 3.86a.74.74 0 0 1 -.35.12z" opacity=".4"/><path d="m275.93 356.36a.72.72 0 0 1 -.64-.37.74.74 0 0 1 .27-1l6.7-3.87a.75.75 0 1 1 .74 1.3l-6.7 3.86a.69.69 0 0 1 -.37.08z" opacity=".4"/><path d="m239 390.06a.73.73 0 0 1 -.64-.38.74.74 0 0 1 .27-1l31.37-18.11a.74.74 0 0 1 1 .27.75.75 0 0 1 -.28 1l-31.36 18.16a.79.79 0 0 1 -.36.06z" opacity=".4"/><path d="m240 394.7a.74.74 0 0 1 -.37-1.39l31.37-18.1a.74.74 0 1 1 .74 1.29l-31.36 18.1a.69.69 0 0 1 -.38.1z" opacity=".4"/><path d="m241.45 399.19a.75.75 0 0 1 -.38-1.39l31.36-18.1a.75.75 0 1 1 .75 1.29l-31.36 18.1a.74.74 0 0 1 -.37.1z" opacity=".4"/><path d="m288.21 361.65a.73.73 0 0 1 -.64-.37.74.74 0 0 1 .27-1l31.36-18.1a.76.76 0 0 1 1 .27.75.75 0 0 1 -.28 1l-31.35 18.1a.75.75 0 0 1 -.36.1z" opacity=".4"/><path d="m289.22 366.29a.73.73 0 0 1 -.64-.37.74.74 0 0 1 .27-1l31.36-18.1a.76.76 0 0 1 1 .27.75.75 0 0 1 -.28 1l-31.35 18.1a.75.75 0 0 1 -.36.1z" opacity=".4"/><path d="m290.67 370.78a.75.75 0 0 1 -.65-.37.76.76 0 0 1 .27-1l31.36-18.1a.75.75 0 0 1 .75 1.3l-31.4 18.07a.71.71 0 0 1 -.33.1z" opacity=".4"/><path d="m250.05 404.28 71.5-41.28a5.5 5.5 0 0 1 7.16 1.29c1.53 2.09.91 4.83-1.61 6.29l-71.52 41.27c-2.52 1.45-6 1.07-7.51-1s-.53-5.12 1.98-6.57z" fill="#ffc100"/><path d="m261.85 424.5a.77.77 0 0 1 -.65-.37.75.75 0 0 1 .28-1l31.35-18.13a.76.76 0 0 1 1 .27.75.75 0 0 1 -.27 1l-31.36 18.1a.71.71 0 0 1 -.35.13z" opacity=".4"/><path d="m257.93 421.73a.75.75 0 0 1 -.38-1.39l31.36-18.1a.75.75 0 0 1 1 .28.76.76 0 0 1 -.27 1l-31.34 18.11a.74.74 0 0 1 -.37.1z" opacity=".4"/><path d="m266 426.94a.75.75 0 0 1 -.64-.38.74.74 0 0 1 .27-1l31.37-18.11a.76.76 0 0 1 1 .27.75.75 0 0 1 -.28 1l-31.35 18.1a.86.86 0 0 1 -.37.12z" opacity=".4"/><path d="m306.62 398.66a.74.74 0 0 1 -.37-1.39l31.35-18.1a.75.75 0 0 1 .75 1.3l-31.35 18.09a.71.71 0 0 1 -.38.1z" opacity=".4"/><path d="m302.7 395.89a.75.75 0 0 1 -.38-1.39l31.36-18.09a.74.74 0 0 1 1 .27.75.75 0 0 1 -.28 1l-31.35 18.1a.84.84 0 0 1 -.35.11z" opacity=".4"/><path d="m310.74 401.1a.73.73 0 0 1 -.64-.37.74.74 0 0 1 .27-1l31.36-18.1a.75.75 0 1 1 .74 1.3l-31.35 18.07a.75.75 0 0 1 -.38.1z" opacity=".4"/><path d="m311.21 423.66c-6.8-3.93-18.34-3.64-25.76.64s-7.92 10.94-1.11 14.87 18.34 3.65 25.76-.63 7.9-10.94 1.11-14.88zm-4.63 12.84c-5.3 3.06-13.54 3.27-18.4.46s-4.51-7.57.79-10.63 13.54-3.26 18.41-.45 4.5 7.56-.8 10.62z" fill="#ffc100"/><path d="m292.49 428.37c3.18-1.84 8.13-2 11.05-.28s2.7 4.54-.48 6.38-8.13 2-11 .27-2.75-4.54.43-6.37z" fill="#ffc100"/><path d="m292.49 428.37c3.18-1.84 8.13-2 11.05-.28s2.7 4.54-.48 6.38-8.13 2-11 .27-2.75-4.54.43-6.37z" opacity=".5"/><path d="m311.21 423.66c-6.8-3.93-18.34-3.64-25.76.64s-7.92 10.94-1.11 14.87 18.34 3.65 25.76-.63 7.9-10.94 1.11-14.88zm-4.63 12.84c-5.3 3.06-13.54 3.27-18.4.46s-4.51-7.57.79-10.63 13.54-3.26 18.41-.45 4.5 7.56-.8 10.62z" opacity=".15"/><path d="m292.32 421.69 1.55 2.78a22.16 22.16 0 0 1 9.13-.17l2.1-2.85a31.15 31.15 0 0 0 -12.78.24z" fill="#ffc100"/><path d="m292.32 421.69 1.55 2.78a22.16 22.16 0 0 1 9.13-.17l2.1-2.85a31.15 31.15 0 0 0 -12.78.24z" fill="#fff" opacity=".7"/><path d="m298.71 420.31a.75.75 0 0 1 -.7-.79l.21-3.42 13.78-8a.75.75 0 0 1 .75 1.3l-13.14 7.6-.16 2.62a.74.74 0 0 1 -.74.69z" opacity=".4"/><path d="m351.52 400.41c-6.81-3.93-18.34-3.64-25.77.64s-7.92 10.94-1.11 14.87 18.35 3.65 25.77-.63 7.92-10.95 1.11-14.88zm-4.63 12.84c-5.3 3.06-13.54 3.27-18.41.46s-4.5-7.57.8-10.63 13.54-3.26 18.4-.45 4.51 7.56-.79 10.62z" fill="#ffc100"/><path d="m332.8 405.12c3.18-1.84 8.12-2 11-.28s2.71 4.54-.48 6.38-8.12 2-11 .27-2.7-4.49.48-6.37z" fill="#ffc100"/><path d="m332.8 405.12c3.18-1.84 8.12-2 11-.28s2.71 4.54-.48 6.38-8.12 2-11 .27-2.7-4.49.48-6.37z" opacity=".5"/><path d="m351.52 400.41c-6.81-3.93-18.34-3.64-25.77.64s-7.92 10.94-1.11 14.87 18.35 3.65 25.77-.63 7.92-10.95 1.11-14.88zm-4.63 12.84c-5.3 3.06-13.54 3.27-18.41.46s-4.5-7.57.8-10.63 13.54-3.26 18.4-.45 4.51 7.56-.79 10.62z" opacity=".15"/><path d="m351.52 400.41c-5.75-3.32-14.87-3.62-22-1.05l2.46 2.51c5.12-1.83 11.63-1.61 15.74.76a8.85 8.85 0 0 1 1.87 1.43l4.59-1.64a12.38 12.38 0 0 0 -2.66-2.01z" fill="#ffc100"/><path d="m351.52 400.41c-5.75-3.32-14.87-3.62-22-1.05l2.46 2.51c5.12-1.83 11.63-1.61 15.74.76a8.85 8.85 0 0 1 1.87 1.43l4.59-1.64a12.38 12.38 0 0 0 -2.66-2.01z" fill="#fff" opacity=".7"/><path d="m339.13 397h-.05a.75.75 0 0 1 -.7-.79l.21-3.43 13.78-7.95a.75.75 0 0 1 .75 1.29l-13.12 7.54-.16 2.63a.74.74 0 0 1 -.71.71z" opacity=".4"/><path d="m303 448.3a.75.75 0 0 1 -.38-1.4l76.12-43.9a.74.74 0 1 1 .74 1.29l-76.15 43.91a.86.86 0 0 1 -.33.1z" opacity=".4"/><path d="m307.07 450.66a.75.75 0 0 1 -.37-1.39l76.15-43.94a.75.75 0 1 1 .75 1.29l-76.15 43.94a.75.75 0 0 1 -.38.1z" opacity=".4"/><path d="m311.18 453a.75.75 0 0 1 -.64-.38.74.74 0 0 1 .27-1l76.19-43.92a.74.74 0 0 1 .74 1.29l-76.15 43.95a.86.86 0 0 1 -.41.06z" opacity=".4"/></svg>