<svg xmlns="http://www.w3.org/2000/svg" viewBox="0 0 500 500"><g id="freepik--background-simple--inject-4"><path d="M461.12,261c-4.95,42-24.12,90.8-62.41,113.22-57.84,33.89-53,86-165.91,108.67a232,232,0,0,1-50.06,4.73,194.37,194.37,0,0,1-24.57-2C86.4,475.17,38.11,425.29,20.4,365.08c-23.32-79.19,23.24-131,54.09-162.27S128,74.25,238.77,51.1a225.19,225.19,0,0,1,51.46-4.88c39.43,1,82.43,13.91,112.19,40.94q3.36,3,6.53,6.3C450.31,135.92,467.89,203.8,461.12,261Z" style="fill:#92E3A9"></path><path d="M461.12,261c-4.95,42-24.12,90.8-62.41,113.22-57.84,33.89-53,86-165.91,108.67a232,232,0,0,1-50.06,4.73,194.37,194.37,0,0,1-24.57-2C86.4,475.17,38.11,425.29,20.4,365.08c-23.32-79.19,23.24-131,54.09-162.27S128,74.25,238.77,51.1a225.19,225.19,0,0,1,51.46-4.88c39.43,1,82.43,13.91,112.19,40.94q3.36,3,6.53,6.3C450.31,135.92,467.89,203.8,461.12,261Z" style="fill:#fff;opacity:0.7000000000000001"></path></g><g id="freepik--Floor--inject-4"><line x1="488.6" y1="444.11" x2="14.2" y2="444.11" style="fill:none;stroke:#263238;stroke-linecap:round;stroke-linejoin:round"></line></g><g id="freepik--Plants--inject-4"><g style="opacity:0.30000000000000004"><path d="M28.34,329.88c3.84,1.67,13.24,1.46,13.24,1.46s-2-6.15-2.19-6.52c-2.06-4.31-8.58-11.43-13.88-10.71A6.33,6.33,0,0,0,20.42,322C21.31,325.72,25.07,328.45,28.34,329.88Z"></path><path d="M31.59,357.08c4,.58,12.36-1.85,13-2A111.54,111.54,0,0,0,49.7,369.1c1.16,2.67,2.4,5.33,3.68,8-.76-1.12-1.46-2.11-1.57-2.24-3.12-3.62-11.29-8.76-16.21-6.67a6.34,6.34,0,0,0-2.81,9c1.82,3.31,6.18,4.94,9.71,5.46s10.77-1.41,12.66-1.94c.51,1,1,2,1.5,3,2.43,4.83,4.87,9.64,7.12,14.44.8,1.68,1.52,3.38,2.25,5.07-.68-1-1.26-1.83-1.37-2-3.12-3.61-11.29-8.75-16.21-6.66a6.33,6.33,0,0,0-2.81,9c1.82,3.32,6.18,4.95,9.71,5.47s10.07-1.23,12.32-1.85c.7,1.75,1.39,3.51,2,5.24.38,1.19.83,2.31,1.14,3.53s.66,2.38,1,3.56c.55,2.28,1.13,4.64,1.61,6.88.34,1.56.64,3.05,1,4.56-.77-1.7-2.35-5-2.51-5.23-2.54-4.05-9.84-10.37-15-9.05a6.33,6.33,0,0,0-4.14,8.47c1.3,3.55,5.36,5.83,8.77,6.87,3.76,1.15,12.08.1,13.12,0,.49,2.49,1,4.91,1.35,7.2.3,1.7.58,3.33.83,4.9h3.33c-.32-1.75-.66-3.57-1-5.48-.5-2.53-1.08-5.22-1.7-8a69.78,69.78,0,0,0,7.32-3.44c2.74,3,9.76,6.43,10.66,6.87-1,2.35-1.9,4.63-2.84,6.76-.49,1.13-1,2.2-1.44,3.26h3.52l.85-2c1-2.38,2-4.94,3-7.58,1,.21,9.24,1.88,13.08,1,3.48-.79,7.7-2.76,9.26-6.2a6.33,6.33,0,0,0-3.5-8.75c-5.07-1.71-12.82,4.05-15.65,7.9-.17.22-1.71,2.89-2.66,4.58.41-1.08.81-2.12,1.21-3.24.81-2.21,1.56-4.43,2.36-6.83.35-1.16.71-2.35,1.06-3.54s.63-2.46,1-3.7c.69-2.9,1.24-5.87,1.74-8.87,1.93.7,8.84,3.1,12.42,2.85s8-1.56,10.08-4.72a6.33,6.33,0,0,0-2.13-9.18c-4.75-2.46-13.28,2.07-16.67,5.44-.21.21-2.36,2.9-3.52,4.4.28-1.81.57-3.61.8-5.45.66-5.3,1.16-10.7,1.69-16.07.16-1.65.34-3.29.51-4.93.68.26,8.83,3.29,12.83,3,3.56-.25,8-1.56,10.09-4.72a6.33,6.33,0,0,0-2.13-9.18c-4.75-2.46-13.28,2.06-16.66,5.43-.26.26-3.36,4.14-4.1,5.16.38-3.61.8-7.21,1.35-10.74A109.76,109.76,0,0,1,113.88,354c.32.12,8.81,3.32,12.91,3,3.56-.25,8-1.56,10.09-4.72a6.33,6.33,0,0,0-2.13-9.18c-4.76-2.46-13.28,2.07-16.67,5.44-.26.26-3.6,4.43-4.15,5.23.08-.26.13-.55.22-.82a81.11,81.11,0,0,1,5.59-13.37c1.22-2.38,2.52-4.59,3.83-6.71,1.52.76,8.5,4.15,12.22,4.3,3.56.14,8.15-.67,10.54-3.59a6.33,6.33,0,0,0-1.1-9.36c-4.46-3-13.43.6-17.17,3.58-.2.16-2.08,2-3.44,3.42.61-1,1.22-1.94,1.81-2.83,2.24-3.38,4.5-6.32,6.52-8.92,1.16-1.47,2.24-2.77,3.26-4,1.88,0,9.45-.26,12.76-1.82s6.93-4.34,7.71-8a6.33,6.33,0,0,0-5.29-7.79c-5.32-.58-11.65,6.71-13.59,11.08-.17.38-2.12,6.58-2,6.58h.11c-1,1.14-2.07,2.38-3.21,3.75-2.08,2.56-4.41,5.47-6.73,8.8a113.1,113.1,0,0,0-7,11.12,83.51,83.51,0,0,0-6,13.42s0,.11-.05.17c0-1.57,0-6-.08-6.29C112.27,341.8,108.29,333,103,332a6.33,6.33,0,0,0-7.3,6c-.31,3.76,2.42,7.53,5.08,9.91,3,2.68,11.34,5.28,12,5.48a111.42,111.42,0,0,0-3.52,14.54c-.51,2.86-.94,5.76-1.33,8.67,0-1.35,0-2.57-.07-2.74-.61-4.74-4.58-13.53-9.85-14.5a6.33,6.33,0,0,0-7.3,5.95c-.31,3.77,2.42,7.54,5.08,9.91s9.76,4.77,11.64,5.37c-.14,1.12-.29,2.24-.42,3.36-.64,5.37-1.26,10.73-2,16-.26,1.85-.6,3.65-.92,5.47,0-1.21,0-2.22-.07-2.38-.61-4.74-4.59-13.53-9.85-14.5a6.32,6.32,0,0,0-7.3,5.95c-.31,3.77,2.42,7.54,5.08,9.91s9.08,4.54,11.3,5.26c-.39,1.85-.78,3.69-1.24,5.46-.34,1.21-.59,2.39-1,3.57l-1.13,3.52c-.81,2.21-1.62,4.5-2.46,6.63-.57,1.49-1.15,2.9-1.72,4.32.29-1.83.78-5.44.79-5.74a24.58,24.58,0,0,0-3.3-12,6.59,6.59,0,0,0-.09-1.4,6.33,6.33,0,0,0-7.74-5.37c-5.17,1.38-8.45,10.46-8.69,15.23,0,.28.17,3.35.31,5.29-.26-1.13-.5-2.22-.78-3.38-.54-2.29-1.15-4.55-1.79-7-.36-1.17-.71-2.35-1.08-3.54s-.83-2.4-1.25-3.62c-1-2.79-2.19-5.58-3.43-8.36,2-.48,9.08-2.28,11.93-4.47s5.83-5.72,5.8-9.5a6.32,6.32,0,0,0-6.84-6.48c-5.32.57-9.93,9.05-10.9,13.73-.06.29-.37,3.73-.51,5.62-.76-1.67-1.51-3.33-2.34-5-2.37-4.79-4.93-9.56-7.46-14.34q-1.15-2.19-2.29-4.39c.72-.16,9.18-2.12,12.37-4.57,2.83-2.17,5.83-5.73,5.8-9.5a6.33,6.33,0,0,0-6.83-6.49c-5.33.58-9.94,9.06-10.91,13.74-.07.35-.52,5.29-.57,6.56-1.67-3.23-3.31-6.46-4.8-9.71A110.44,110.44,0,0,1,45.88,355c.33-.07,9.17-2.08,12.44-4.59,2.83-2.17,5.83-5.72,5.8-9.5a6.32,6.32,0,0,0-6.84-6.48c-5.32.57-9.93,9.05-10.9,13.73-.07.37-.55,5.69-.57,6.65-.08-.26-.2-.53-.28-.8a81.8,81.8,0,0,1-2.7-14.24c-.3-2.66-.44-5.21-.51-7.7,1.68-.21,9.37-1.23,12.56-3.16s6.43-5.06,6.82-8.81a6.34,6.34,0,0,0-6.09-7.2c-5.35,0-10.87,7.91-12.34,12.45-.08.25-.62,2.85-1,4.76,0-1.13-.06-2.29-.06-3.37,0-4,.27-7.75.52-11,.16-1.86.34-3.54.53-5.12,1.54-1.06,7.73-5.43,9.64-8.55s3.37-7.45,2-11a6.34,6.34,0,0,0-8.72-3.58c-4.75,2.45-6,12-5.22,16.74.07.4,1.87,6.65,2,6.6l.09-.07c-.21,1.51-.41,3.13-.6,4.91-.33,3.28-.67,7-.76,11.05A111.24,111.24,0,0,0,42,339.84a82.64,82.64,0,0,0,2.43,14.48,1.09,1.09,0,0,1,0,.17c-.84-1.32-3.32-4.94-3.54-5.2-3.12-3.61-11.29-8.76-16.21-6.67a6.34,6.34,0,0,0-2.81,9C23.7,354.93,28.06,356.57,31.59,357.08Z"></path><path d="M123.35,331.94c.08.05,1.71-6.24,1.77-6.65.65-4.73-.85-14.26-5.67-16.59a6.33,6.33,0,0,0-8.62,3.82c-1.29,3.54.35,7.9,2.29,10.9C115.39,326.93,123.34,331.94,123.35,331.94Z"></path></g><g style="opacity:0.30000000000000004"><path d="M216.61,64.51c3.84,1.68,13.23,1.47,13.24,1.47s-2-6.15-2.2-6.53c-2.06-4.31-8.58-11.43-13.88-10.71a6.34,6.34,0,0,0-5.08,7.94C209.57,60.35,213.34,63.08,216.61,64.51Z"></path><path d="M219.85,91.72c4,.58,12.37-1.85,13-2A113.93,113.93,0,0,0,238,103.74c1.15,2.67,2.39,5.32,3.68,8-.77-1.12-1.46-2.11-1.57-2.24-3.13-3.61-11.29-8.76-16.22-6.67a6.34,6.34,0,0,0-2.81,9c1.82,3.31,6.18,4.95,9.71,5.46s10.77-1.4,12.67-1.94c.5,1,1,2,1.5,3,2.43,4.83,4.87,9.64,7.12,14.44.79,1.69,1.51,3.38,2.24,5.07-.68-1-1.26-1.82-1.36-1.94-3.13-3.62-11.29-8.76-16.22-6.67a6.34,6.34,0,0,0-2.81,9c1.83,3.31,6.18,4.95,9.71,5.46s10.07-1.22,12.33-1.85c.69,1.76,1.39,3.51,2,5.24.38,1.19.82,2.31,1.13,3.53s.67,2.39,1,3.56c.55,2.29,1.13,4.64,1.6,6.89.35,1.56.65,3.05,1,4.55-.78-1.69-2.35-5-2.52-5.23-2.54-4-9.83-10.37-15-9a6.34,6.34,0,0,0-4.13,8.47c1.29,3.55,5.35,5.83,8.76,6.87,3.76,1.15,12.08.1,13.12,0,.5,2.49,1,4.91,1.36,7.2.3,1.7.57,3.33.82,4.9h3.33q-.46-2.61-1-5.48c-.49-2.52-1.07-5.21-1.69-8a68.79,68.79,0,0,0,7.31-3.44c2.74,3,9.76,6.44,10.67,6.88-1,2.35-1.91,4.62-2.84,6.75-.49,1.13-1,2.2-1.44,3.26h3.52c.28-.67.56-1.33.84-2,1-2.38,2-4.95,3-7.59,1,.21,9.24,1.88,13.08,1,3.48-.79,7.7-2.76,9.26-6.2a6.33,6.33,0,0,0-3.5-8.75c-5.07-1.71-12.81,4.05-15.65,7.9-.17.23-1.71,2.89-2.65,4.59.4-1.08.81-2.13,1.21-3.25.81-2.21,1.55-4.43,2.36-6.82l1.06-3.55c.38-1.17.63-2.46.95-3.7.69-2.9,1.25-5.87,1.75-8.87,1.93.7,8.83,3.11,12.41,2.85s8-1.55,10.09-4.72a6.33,6.33,0,0,0-2.13-9.18c-4.76-2.45-13.28,2.07-16.67,5.44-.21.21-2.37,2.9-3.53,4.4.29-1.81.58-3.61.81-5.45.66-5.3,1.16-10.69,1.68-16.07.16-1.65.34-3.28.51-4.93.69.26,8.83,3.29,12.84,3,3.56-.25,8-1.56,10.09-4.72a6.34,6.34,0,0,0-2.13-9.18c-4.76-2.45-13.28,2.07-16.67,5.44-.26.25-3.36,4.13-4.1,5.15.39-3.61.8-7.21,1.35-10.74a112.24,112.24,0,0,1,3.09-14.13c.32.12,8.8,3.32,12.9,3,3.56-.25,8-1.55,10.09-4.72A6.33,6.33,0,0,0,323,77.8c-4.75-2.45-13.28,2.07-16.67,5.44-.26.26-3.59,4.44-4.14,5.24.08-.27.13-.56.21-.83A82.38,82.38,0,0,1,308,74.28c1.22-2.38,2.51-4.59,3.82-6.71,1.52.76,8.5,4.15,12.22,4.3,3.57.14,8.15-.67,10.55-3.59a6.33,6.33,0,0,0-1.11-9.36c-4.46-3-13.43.6-17.16,3.58-.21.16-2.09,2-3.44,3.42.6-1,1.21-1.94,1.81-2.83,2.24-3.37,4.5-6.32,6.52-8.92,1.16-1.46,2.23-2.77,3.26-4,1.88,0,9.45-.26,12.76-1.81S344.16,44,345,40.33a6.33,6.33,0,0,0-5.3-7.79C334.33,32,328,39.26,326.06,43.62c-.16.38-2.11,6.58-2,6.58h.12c-1,1.14-2.08,2.38-3.21,3.76-2.09,2.55-4.41,5.46-6.73,8.8a109.92,109.92,0,0,0-7,11.11,82.16,82.16,0,0,0-6,13.42s0,.11,0,.17c0-1.57,0-5.95-.09-6.29-.61-4.74-4.58-13.53-9.84-14.51a6.33,6.33,0,0,0-7.31,6c-.31,3.76,2.42,7.53,5.09,9.91,3,2.68,11.33,5.28,12,5.48a113.46,113.46,0,0,0-3.52,14.54c-.51,2.86-.93,5.76-1.32,8.68,0-1.36-.05-2.57-.07-2.74-.62-4.74-4.59-13.54-9.85-14.51a6.33,6.33,0,0,0-7.3,6c-.31,3.76,2.42,7.53,5.08,9.91s9.76,4.77,11.63,5.36c-.13,1.12-.28,2.24-.42,3.36-.64,5.37-1.25,10.73-2,16-.27,1.85-.6,3.66-.93,5.47,0-1.21-.05-2.22-.07-2.37-.61-4.74-4.58-13.54-9.84-14.51a6.34,6.34,0,0,0-7.31,6c-.31,3.76,2.42,7.53,5.09,9.91s9.07,4.53,11.3,5.25c-.39,1.85-.78,3.7-1.24,5.47-.35,1.2-.59,2.38-1,3.57s-.76,2.35-1.14,3.51c-.8,2.21-1.62,4.5-2.46,6.63-.57,1.49-1.14,2.9-1.71,4.32.29-1.83.78-5.44.78-5.74a24.5,24.5,0,0,0-3.29-12,8.17,8.17,0,0,0-.09-1.4,6.34,6.34,0,0,0-7.74-5.38c-5.18,1.38-8.46,10.46-8.7,15.23,0,.28.17,3.35.32,5.29-.26-1.13-.5-2.22-.78-3.38-.55-2.28-1.16-4.55-1.8-7-.35-1.17-.71-2.35-1.07-3.54s-.84-2.4-1.25-3.62c-1-2.79-2.2-5.58-3.44-8.35,2-.48,9.09-2.29,11.93-4.47s5.83-5.73,5.81-9.51a6.33,6.33,0,0,0-6.84-6.48c-5.32.58-9.94,9-10.9,13.73-.06.29-.38,3.73-.52,5.62-.76-1.66-1.51-3.33-2.33-5-2.38-4.79-4.93-9.56-7.46-14.33-.78-1.46-1.53-2.93-2.29-4.39.71-.17,9.18-2.13,12.36-4.58,2.83-2.17,5.84-5.72,5.81-9.5a6.33,6.33,0,0,0-6.84-6.48c-5.32.57-9.94,9-10.9,13.73-.08.35-.52,5.3-.57,6.56-1.68-3.23-3.32-6.46-4.81-9.71a112.61,112.61,0,0,1-5.22-13.48c.33-.08,9.18-2.09,12.44-4.59,2.83-2.18,5.84-5.73,5.81-9.51a6.33,6.33,0,0,0-6.84-6.48c-5.32.58-9.94,9-10.9,13.73-.08.37-.56,5.69-.57,6.66-.09-.27-.2-.54-.28-.8a82,82,0,0,1-2.71-14.25c-.3-2.65-.43-5.21-.51-7.7,1.69-.21,9.38-1.23,12.56-3.16s6.43-5.05,6.82-8.81a6.34,6.34,0,0,0-6.08-7.2c-5.36,0-10.88,7.91-12.35,12.46-.08.24-.62,2.85-1,4.75,0-1.13-.06-2.29-.05-3.36,0-4,.26-7.76.51-11,.16-1.86.34-3.54.53-5.11,1.55-1.07,7.74-5.44,9.64-8.56s3.38-7.45,2-11a6.33,6.33,0,0,0-8.71-3.58c-4.76,2.46-6,12-5.22,16.74.07.41,1.86,6.65,1.94,6.6l.1-.06c-.21,1.5-.42,3.13-.61,4.9-.33,3.28-.66,7-.76,11.05a115.89,115.89,0,0,0,.31,13.13A82.58,82.58,0,0,0,232.66,89a.84.84,0,0,0,.05.17c-.84-1.32-3.32-4.94-3.54-5.2C226,80.31,217.88,75.17,213,77.26a6.33,6.33,0,0,0-2.81,9C212,89.57,216.32,91.2,219.85,91.72Z"></path><path d="M311.61,66.58c.09,0,1.71-6.25,1.77-6.66.66-4.73-.85-14.26-5.67-16.59a6.32,6.32,0,0,0-8.61,3.82c-1.3,3.55.34,7.9,2.28,10.9C303.66,61.57,311.61,66.57,311.61,66.58Z"></path></g></g><g id="freepik--Clipboard--inject-4"><rect x="51.98" y="64.91" width="211.05" height="274.25" rx="11.79" style="fill:#263238"></rect><rect x="62.08" y="81.13" width="190.86" height="245.02" style="fill:#fff;stroke:#263238;stroke-linecap:round;stroke-linejoin:round"></rect><line x1="118.75" y1="117.82" x2="196.27" y2="117.82" style="fill:none;stroke:#263238;stroke-linecap:round;stroke-linejoin:round"></line><circle cx="83.11" cy="157.74" r="12.83" style="fill:none;stroke:#263238;stroke-linecap:round;stroke-linejoin:round"></circle><line x1="101.81" y1="158.81" x2="232.77" y2="158.81" style="fill:none;stroke:#263238;stroke-linecap:round;stroke-linejoin:round"></line><polyline points="77.76 154.54 82.57 162.02 98.07 141.71" style="fill:none;stroke:#92E3A9;stroke-linecap:round;stroke-linejoin:round;stroke-width:4px"></polyline><circle cx="83.11" cy="189.28" r="12.83" transform="translate(-41.26 24.16) rotate(-13.28)" style="fill:none;stroke:#263238;stroke-linecap:round;stroke-linejoin:round"></circle><line x1="101.81" y1="190.35" x2="232.77" y2="190.35" style="fill:none;stroke:#263238;stroke-linecap:round;stroke-linejoin:round"></line><polyline points="77.76 186.07 82.57 193.56 98.07 173.24" style="fill:none;stroke:#92E3A9;stroke-linecap:round;stroke-linejoin:round;stroke-width:4px"></polyline><circle cx="83.11" cy="220.82" r="12.83" transform="translate(-48.51 25) rotate(-13.28)" style="fill:none;stroke:#263238;stroke-linecap:round;stroke-linejoin:round"></circle><line x1="101.81" y1="221.89" x2="232.77" y2="221.89" style="fill:none;stroke:#263238;stroke-linecap:round;stroke-linejoin:round"></line><polyline points="77.76 217.61 82.57 225.09 98.07 204.78" style="fill:none;stroke:#92E3A9;stroke-linecap:round;stroke-linejoin:round;stroke-width:4px"></polyline><circle cx="83.11" cy="252.35" r="12.83" transform="translate(-154.1 132.68) rotate(-45)" style="fill:none;stroke:#263238;stroke-linecap:round;stroke-linejoin:round"></circle><line x1="101.81" y1="253.42" x2="232.77" y2="253.42" style="fill:none;stroke:#263238;stroke-linecap:round;stroke-linejoin:round"></line><polyline points="77.76 249.15 82.57 256.63 98.07 236.32" style="fill:none;stroke:#92E3A9;stroke-linecap:round;stroke-linejoin:round;stroke-width:4px"></polyline><circle cx="83.11" cy="283.89" r="12.83" style="fill:none;stroke:#263238;stroke-linecap:round;stroke-linejoin:round"></circle><line x1="101.81" y1="284.96" x2="232.77" y2="284.96" style="fill:none;stroke:#263238;stroke-linecap:round;stroke-linejoin:round"></line><polyline points="77.76 280.68 82.57 288.17 98.07 267.85" style="fill:none;stroke:#92E3A9;stroke-linecap:round;stroke-linejoin:round;stroke-width:4px"></polyline><path d="M182.65,59.37a5.16,5.16,0,0,1-4.22-8,18.08,18.08,0,1,0-30.49.28,5.1,5.1,0,0,1-4.39,7.77H112.11l8.5,24.41h85l8.5-24.41ZM163.1,49a6.33,6.33,0,1,1,6.32-6.33A6.33,6.33,0,0,1,163.1,49Z" style="fill:#fff;stroke:#263238;stroke-linecap:round;stroke-linejoin:round"></path></g><g id="freepik--Boxes--inject-4"><rect x="265.27" y="345.23" width="110.44" height="98.88" transform="translate(640.97 789.33) rotate(180)" style="fill:#92E3A9;stroke:#263238;stroke-linecap:round;stroke-linejoin:round"></rect><rect x="265.27" y="345.23" width="35.56" height="98.88" transform="translate(566.1 789.33) rotate(180)" style="fill:#263238;stroke:#263238;stroke-linecap:round;stroke-linejoin:round"></rect><rect x="278.28" y="345.23" width="9.54" height="26.97" transform="translate(566.1 717.42) rotate(180)" style="fill:#fff;stroke:#263238;stroke-linecap:round;stroke-linejoin:round"></rect><rect x="352.78" y="355.55" width="16.45" height="10.08" transform="translate(722.01 721.18) rotate(180)" style="fill:none;stroke:#263238;stroke-linecap:round;stroke-linejoin:round"></rect><rect x="187.31" y="345.23" width="110.44" height="98.88" transform="translate(485.06 789.33) rotate(180)" style="fill:#92E3A9;stroke:#263238;stroke-linecap:round;stroke-linejoin:round"></rect><rect x="187.31" y="345.23" width="35.56" height="98.88" transform="translate(410.19 789.33) rotate(180)" style="fill:#263238;stroke:#263238;stroke-linecap:round;stroke-linejoin:round"></rect><rect x="200.32" y="345.23" width="9.54" height="26.97" transform="translate(410.19 717.42) rotate(180)" style="fill:#fff;stroke:#263238;stroke-linecap:round;stroke-linejoin:round"></rect><rect x="273.98" y="355.55" width="16.45" height="10.08" transform="translate(564.41 721.18) rotate(180)" style="fill:none;stroke:#263238;stroke-linecap:round;stroke-linejoin:round"></rect><rect x="108.16" y="345.23" width="110.44" height="98.88" transform="translate(326.77 789.33) rotate(180)" style="fill:#92E3A9;stroke:#263238;stroke-linecap:round;stroke-linejoin:round"></rect><rect x="108.16" y="345.23" width="35.56" height="98.88" transform="translate(251.89 789.33) rotate(180)" style="fill:#263238;stroke:#263238;stroke-linecap:round;stroke-linejoin:round"></rect><rect x="121.17" y="345.23" width="9.54" height="26.97" transform="translate(251.89 717.42) rotate(180)" style="fill:#fff;stroke:#263238;stroke-linecap:round;stroke-linejoin:round"></rect><rect x="196.51" y="355.55" width="16.45" height="10.08" transform="translate(409.47 721.18) rotate(180)" style="fill:none;stroke:#263238;stroke-linecap:round;stroke-linejoin:round"></rect><rect x="227.44" y="246.22" width="110.44" height="98.88" transform="translate(565.31 591.33) rotate(180)" style="fill:#92E3A9;stroke:#263238;stroke-linecap:round;stroke-linejoin:round"></rect><rect x="227.44" y="246.22" width="35.56" height="98.88" transform="translate(490.44 591.33) rotate(180)" style="fill:#263238;stroke:#263238;stroke-linecap:round;stroke-linejoin:round"></rect><rect x="240.45" y="246.22" width="9.54" height="26.97" transform="translate(490.44 519.41) rotate(180)" style="fill:#fff;stroke:#263238;stroke-linecap:round;stroke-linejoin:round"></rect><rect x="322.53" y="247.3" width="11.14" height="56.78" transform="translate(656.21 551.39) rotate(180)" style="fill:none;stroke:#263238;stroke-linecap:round;stroke-linejoin:round"></rect><rect x="199.27" y="147.17" width="110.44" height="98.88" transform="translate(508.99 393.21) rotate(180)" style="fill:#92E3A9;stroke:#263238;stroke-linecap:round;stroke-linejoin:round"></rect><rect x="199.27" y="147.17" width="35.56" height="98.88" transform="translate(434.11 393.21) rotate(180)" style="fill:#263238;stroke:#263238;stroke-linecap:round;stroke-linejoin:round"></rect><rect x="212.29" y="147.17" width="9.54" height="26.97" transform="translate(434.11 321.3) rotate(180)" style="fill:#fff;stroke:#263238;stroke-linecap:round;stroke-linejoin:round"></rect><rect x="293.35" y="148.19" width="11.14" height="56.78" transform="translate(597.84 353.15) rotate(180)" style="fill:none;stroke:#263238;stroke-linecap:round;stroke-linejoin:round"></rect><rect x="146.83" y="246.22" width="110.44" height="98.88" transform="translate(404.1 591.33) rotate(180)" style="fill:#92E3A9;stroke:#263238;stroke-linecap:round;stroke-linejoin:round"></rect><rect x="146.83" y="246.22" width="35.56" height="98.88" transform="translate(329.23 591.33) rotate(180)" style="fill:#263238;stroke:#263238;stroke-linecap:round;stroke-linejoin:round"></rect><rect x="159.84" y="246.22" width="9.54" height="26.97" transform="translate(329.23 519.41) rotate(180)" style="fill:#fff;stroke:#263238;stroke-linecap:round;stroke-linejoin:round"></rect><rect x="239.76" y="247.3" width="11.14" height="56.78" transform="translate(490.66 551.39) rotate(180)" style="fill:none;stroke:#263238;stroke-linecap:round;stroke-linejoin:round"></rect></g><g id="freepik--Character--inject-4"><path d="M364.94,221.83a1,1,0,0,1,1.35-.65l6.38,2.84-6.83-6.45a1,1,0,0,1,1.27-1.65l7.44,4.65-4.31-5.29a1,1,0,0,1,1.41-1.39l8.58,7.25-.81-3.16a1.23,1.23,0,0,1,2.33-.76c.55,1.38,1.6,4,2,4.83a14.89,14.89,0,0,1,1.29,4.83c-.07,1-.08,3.26-.08,3.26L401,242.76l1.24-1.47,4.34,4.11-.13,1.62,3.95,3s26.47-13.45,29.92-13.68,8.23,5.82,6.16,11.88-37.09,15.61-38.24,15.69-26.41-29.43-26.41-29.43a56.24,56.24,0,0,1-6.17-2.73c-1.57-.94-7.95-3.48-10-4.28a.73.73,0,0,1-.41-.9.72.72,0,0,1,.85-.47l5.3,1.25-6.14-4.5A1,1,0,0,1,364.94,221.83Z" style="fill:#263238;stroke:#263238;stroke-linecap:round;stroke-linejoin:round"></path><polygon points="304.56 367.8 313.36 360.76 324.13 352.15 355.47 327.07 355.71 327.23 355.74 327.25 355.76 327.27 386.7 348.69 397.74 356.33 406.95 362.71 369.62 202.61 367.47 202.67 364.73 202.74 327.75 203.74 304.56 367.8" style="fill:#263238;stroke:#263238;stroke-linecap:round;stroke-linejoin:round"></polygon><polygon points="355.55 327.1 355.57 327.07 355.75 327.27 355.55 327.1" style="fill:#fff;stroke:#263238;stroke-linecap:round;stroke-linejoin:round"></polygon><polygon points="313.36 360.76 324.13 352.15 337.67 203.74 355.76 202.99 332.11 203.74 313.36 360.76" style="fill:#fff;stroke:#263238;stroke-linecap:round;stroke-linejoin:round"></polygon><polygon points="364.72 202.7 364.73 202.74 386.7 348.69 397.74 356.33 367.47 202.67 367.46 202.61 364.72 202.7" style="fill:#fff;stroke:#263238;stroke-linecap:round;stroke-linejoin:round"></polygon><path d="M285.61,186.25c0-2.2-3.69-4.56-3.47-6.7s4.33-3.74,4.78-5.84-2.67-5.22-2-7.28,5-2.73,5.89-4.71-1.52-5.65-.43-7.53,5.47-1.63,6.74-3.38-.31-5.84,1.14-7.45,5.69-.46,7.3-1.91.9-5.78,2.66-7.06,5.65.73,7.53-.36,2.08-5.46,4.07-6.35,5.36,1.89,7.44,1.22,3.17-4.91,5.31-5.36,4.84,3,7,2.75,4.11-4.14,6.3-4.14,4.17,3.92,6.31,4.14,4.92-3.2,7-2.75,3.26,4.69,5.31,5.36,5.47-2.1,7.44-1.22S374.17,133,376,134s5.78-.92,7.53.36,1.05,5.61,2.66,7.06,5.84.3,7.3,1.91-.14,5.7,1.14,7.45,5.65,1.5,6.74,3.38-1.32,5.54-.43,7.53,5.22,2.64,5.89,4.72-2.45,5.13-2,7.27,4.55,3.66,4.77,5.84-3.46,4.5-3.46,6.7,3.69,4.56,3.46,6.7-4.32,3.73-4.77,5.84,2.67,5.22,2,7.27-5,2.74-5.89,4.71,1.52,5.66.43,7.53-5.47,1.63-6.74,3.38.31,5.85-1.14,7.46-5.69.45-7.3,1.91-.9,5.78-2.66,7.06-5.65-.74-7.53.35-2.08,5.47-4.07,6.36-5.37-1.9-7.44-1.22-3.17,4.9-5.31,5.35-4.84-3-7-2.75-4.11,4.14-6.31,4.14-4.16-3.91-6.3-4.14-4.92,3.2-7,2.75-3.26-4.69-5.31-5.36-5.47,2.1-7.44,1.22-2.2-5.26-4.07-6.35-5.78.92-7.53-.36-1.05-5.6-2.66-7-5.85-.3-7.3-1.91.14-5.7-1.14-7.46-5.65-1.5-6.74-3.38,1.32-5.54.43-7.53-5.22-2.64-5.89-4.71,2.45-5.13,2-7.27-4.55-3.66-4.77-5.84S285.61,188.44,285.61,186.25Z" style="fill:#fff;stroke:#263238;stroke-linecap:round;stroke-linejoin:round"></path><circle cx="345.89" cy="186.25" r="51.25" style="fill:#92E3A9;stroke:#263238;stroke-linecap:round;stroke-linejoin:round"></circle><circle cx="345.89" cy="186.25" r="45.43" transform="translate(83.79 478.88) rotate(-76.45)" style="fill:#263238"></circle><path d="M456.33,355s-.87,7.37.21,10.4,8,23.85,9.11,42.27,2.16,35.34,1.51,36.21-4.55.43-4.55.43h-13a1.55,1.55,0,0,1-.44-1.95c.65-1.08,6.94-5.85,7.81-7.37a17,17,0,0,0,1.95-4.33c0-.65-1.52-16.49-6.72-26.89s-11.92-36-12.57-45.31Z" style="fill:#fff;stroke:#263238;stroke-linecap:round;stroke-linejoin:round"></path><path d="M449.17,442.37a43.93,43.93,0,0,1,4.55-4.15v2.2h13.63a11.66,11.66,0,0,1-.19,3.47c-.65.87-4.55.43-4.55.43h-13A1.55,1.55,0,0,1,449.17,442.37Z" style="fill:#92E3A9;stroke:#263238;stroke-linecap:round;stroke-linejoin:round"></path><path d="M442.45,356.09s-3,21.68-.86,28.18,1.3,18.21-1.74,30.56-5.41,20.16-5.41,20.81,0,6.5-.65,7.58-19.73.87-21,.87-2.6-1.3-1.51-2.6,6.94-2.72,10.83-4.55c3.69-1.74,3.9-2.17,3.9-2.17s2.17-25.36,1.3-36.63-5.65-34.68-4.78-42.48Z" style="fill:#fff;stroke:#263238;stroke-linecap:round;stroke-linejoin:round"></path><path d="M412.76,444.09c-1.3,0-2.6-1.3-1.51-2.6.87-1.05,4.84-2.17,8.38-3.53l.72,1.58,14-1.05c-.07,1.88-.23,4.11-.6,4.73C433.14,444.31,414.06,444.09,412.76,444.09Z" style="fill:#92E3A9;stroke:#263238;stroke-linecap:round;stroke-linejoin:round"></path><path d="M454.56,282.57s7.4,16.09,8.05,25.84-3.47,20.37-3.47,20.37l2.6,28s-8.67,5.42-23.19,5.2-21.67-2.6-21.67-2.6-1.73-34,2.82-50.5,2.93-25.45,2.93-25.45S442.82,284.26,454.56,282.57Z" style="fill:#263238;stroke:#263238;stroke-linecap:round;stroke-linejoin:round"></path><path d="M427,220.35s2.12,7,2.93,10.91-1.3,11.4-4.07,16.61-5.87,10.76-4.4,15.48,2.12,6.52,2.12,6.52-1.14,11.56-1,13.52,8.47,3.91,16.78,3.09,14.5-2.44,15.15-3.91,0-9.61,1.14-13.84,1.47-24-1.14-28.19-8.63-10.91-8.63-10.91L441,216.76Z" style="fill:#92E3A9;stroke:#263238;stroke-linecap:round;stroke-linejoin:round"></path><path d="M448.38,232.45a16.34,16.34,0,0,0-9.13.6c-3.19,1.22-7.29,4.38-10.2,6.85.92-3.31,1.36-6.51.91-8.64-.81-3.91-2.93-10.91-2.93-10.91l14-3.59,4.89,12.87S447,230.79,448.38,232.45Z" style="fill:#fff;stroke:#263238;stroke-linecap:round;stroke-linejoin:round"></path><path d="M420.57,193.69s-2,5.22-2.65,7.45-1.72,4.42-3.05,4.63-2.56,1.23-1.74,2.94a15.61,15.61,0,0,0,3.09,3.72s1.19,8.46,2.07,9.52,5,1,7.49.36,7.33-1.45,7.33-1.45,1.57-17,.59-20.56-5.25-8.66-6.51-9.27S420.57,193.69,420.57,193.69Z" style="fill:#fff;stroke:#263238;stroke-linecap:round;stroke-linejoin:round"></path><path d="M419.6,204.24c-.09.89.17,1.65.58,1.69s.79-.66.88-1.56-.18-1.65-.59-1.69S419.68,203.34,419.6,204.24Z" style="fill:#263238"></path><path d="M423.73,202s-2.36-2.83-4.09-1.85" style="fill:none;stroke:#263238;stroke-linecap:round;stroke-linejoin:round"></path><path d="M422.43,212.51a7.65,7.65,0,0,1-4.22,1.42" style="fill:none;stroke:#263238;stroke-linecap:round;stroke-linejoin:round"></path><path d="M426.35,193.08s4.43,8.75,4.82,9.77.7,19-.33,23.2a10.51,10.51,0,0,1-3.49,5.89,73.28,73.28,0,0,0,17.35,1.6c9.84-.23,14.31-2.6,14.31-2.6a234.67,234.67,0,0,1-1.88-23.9c-.23-11.8-5.49-20.3-12.06-21.88s-14.54-.2-14.54-.2-4.59-5.17-10.35-1.28-3.65,9.48-1,11.19a35.28,35.28,0,0,0,6.26,3Z" style="fill:#263238;stroke:#263238;stroke-linecap:round;stroke-linejoin:round"></path><path d="M409.89,252.94s25.45-15.65,28.87-16.14,8.63,5.21,7,11.4-35.87,18.59-37,18.75-28.89-26.86-28.89-26.86a54.93,54.93,0,0,1-6.36-2.28c-1.63-.82-8.18-2.89-10.27-3.54a.71.71,0,0,1-.47-.86h0a.71.71,0,0,1,.81-.54l5.37.87-6.44-4.05a1,1,0,0,1-.44-1h0a1,1,0,0,1,1.29-.75l6.57,2.38-7.28-5.94a1,1,0,0,1-.23-1.35h0a1,1,0,0,1,1.38-.39l7.76,4.1-4.69-5a1,1,0,0,1,.21-1.54h0a1,1,0,0,1,1.1.05l9.08,6.62-1-3.1a1.23,1.23,0,0,1,.9-1.59h0a1.22,1.22,0,0,1,1.36.66c.65,1.34,1.89,3.86,2.35,4.68a14.68,14.68,0,0,1,1.63,4.72c0,1,.17,3.26.17,3.26Z" style="fill:#fff;stroke:#263238;stroke-linecap:round;stroke-linejoin:round"></path><path d="M395.46,255l.32-.53,5.11-7.06,9,5.49s25.45-15.65,28.87-16.14,8.63,5.21,7,11.4-35.87,18.59-37,18.75C408.2,267,404.08,262.91,395.46,255Z" style="fill:#92E3A9;stroke:#263238;stroke-linecap:round;stroke-linejoin:round"></path><polygon points="404.02 249.31 396.86 257.98 392.75 254.72 399.9 245.84 404.02 249.31" style="fill:#92E3A9;stroke:#263238;stroke-linecap:round;stroke-linejoin:round"></polygon></g></svg>
