<svg viewBox="0 0 500 500" xmlns="http://www.w3.org/2000/svg"><path d="m342.11 42.7s-77-27.37-152.56 16.21-113.7 130.09-146.45 199.41-13.9 139.8 43.79 171.94 96.92-15.26 177.85-17.55 102.69 9.29 169.85-36.45 79.29-153.69 26.32-233.58-118.8-99.98-118.8-99.98z" fill="#92e3a9"/><path d="m342.11 42.7s-77-27.37-152.56 16.21-113.7 130.09-146.45 199.41-13.9 139.8 43.79 171.94 96.92-15.26 177.85-17.55 102.69 9.29 169.85-36.45 79.29-153.69 26.32-233.58-118.8-99.98-118.8-99.98z" fill="#fff" opacity=".7"/><g stroke-linecap="round" stroke-linejoin="round"><path d="m138 31v142h247v-142zm238.3 134h-229.6v-126h229.6z" fill="#b2b2b2" stroke="#b2b2b2"/><path d="m146.52 95s75.73-39.1 81.32-29.17-32.9 35.38-16.76 44.69 102.42-69.52 117.92-50.9-27.93 68.28-14.28 73.87 42.83-21.73 49-14.9-9.93 34.14-3.1 37.86 14.89-3.1 14.89-3.1" fill="none" stroke="#b2b2b2"/><circle cx="260.74" cy="60.24" fill="none" r="16.76" stroke="#b2b2b2" transform="matrix(.23140833 -.97285671 .97285671 .23140833 141.79 299.96)"/><circle cx="171.66" cy="53.1" fill="none" r="9.62" stroke="#b2b2b2" transform="matrix(.2288606 -.97345921 .97345921 .2288606 80.69 208.06)"/><path d="m202.39 122.31a4.35 4.35 0 1 1 -4.39-4.31 4.35 4.35 0 0 1 4.39 4.31z" fill="none" stroke="#b2b2b2"/><path d="m357 69.86a4 4 0 1 1 -4-4 4 4 0 0 1 4 4z" fill="none" stroke="#b2b2b2"/><circle cx="290.53" cy="147.76" fill="none" r="11.17" stroke="#b2b2b2" transform="matrix(.89818109 -.43962567 .43962567 .89818109 -35.38 142.75)"/><path d="m28.81 248h446" fill="none" stroke="#b2b2b2"/><path d="m46.31 261.37h428.5" fill="none" stroke="#b2b2b2"/><path d="m28.81 261.37h8.82" fill="none" stroke="#b2b2b2"/><path d="m467.7 284.53h-139.12a8.52 8.52 0 0 1 -8.77 8.25v147.57a8.52 8.52 0 0 1 8.77 8.24 7.33 7.33 0 0 1 -.14 1.41h137.46" fill="none" stroke="#b2b2b2"/><path d="m30.54 284.53h48.09a8.38 8.38 0 0 0 8.51 8.25v147.57a8.38 8.38 0 0 0 -8.51 8.24 8.22 8.22 0 0 0 .13 1.41h-40.42" fill="none" stroke="#b2b2b2"/><path d="m295.22 284.53h-186.92a8.53 8.53 0 0 1 -8.79 8.25v147.57a8.53 8.53 0 0 1 8.79 8.24 7.33 7.33 0 0 1 -.14 1.41h187.2a8.22 8.22 0 0 1 -.14-1.41 8.52 8.52 0 0 1 8.77-8.24v-147.57a8.52 8.52 0 0 1 -8.77-8.25z" fill="none" stroke="#b2b2b2"/><path d="m418.43 233s.52 65.56.52 82.87-.52 121-.52 121" fill="none" stroke="#263238" stroke-width="3"/></g><path d="m457.77 249.78-16.26-13.64 45.63 5.24-40.39-13.11 41.44-7.34h-46.68l36.19-27.28-40.91 20.46 23.6-40.39-31.47 36.19 11.01-52.97-20.45 49.3-2.1-55.07-4.19 56.12-22.32-49.58 15.5 54.3-33.39-36.42 29.19 44.81-41.32-29.48 38.7 37.35-43.81-23.94 40.14 27.09-36.31-4.73 35.26 9.97-28.23 4.72 29.28-1.05-17.31 11.54 40.91-11.01z" fill="#92e3a9"/><path d="m457.77 392.77-16.26-13.63 45.63 5.24-40.39-13.11 41.44-7.34h-46.68l36.19-27.28-40.91 20.46 23.6-40.39-31.47 36.19 11.01-52.97-20.45 49.3-2.1-55.07-4.19 56.12-22.32-49.58 15.5 54.3-33.39-36.41 29.19 44.8-41.32-29.48 38.7 37.35-43.81-23.94 40.14 27.09-36.31-4.73 35.26 9.97-28.23 4.72 29.28-1.05-17.31 11.54 40.91-11.01z" fill="#92e3a9"/><path d="m402.69 299.08s-1.57 13.63-.52 18.88a95.73 95.73 0 0 1 1.57 18.36c0 6.81.53 35.79.53 40.51s-.53 44.83-.53 48.5v12.59" fill="none" stroke="#263238" stroke-linecap="round" stroke-linejoin="round" stroke-width="3"/><path d="m404.27 371.59s2.1-40 4.19-45.24 3.68-3.67 4.2-10 .52-8.91 1.57-11a43.07 43.07 0 0 0 2.1-5.77l1.05-4.19" fill="none" stroke="#263238" stroke-linecap="round" stroke-linejoin="round" stroke-width="3"/><path d="m441.51 312.71-16.26-13.63 45.63 5.24-40.39-13.11 41.44-7.34h-46.68l36.19-27.28-40.91 20.46 23.6-40.39-31.47 36.19 11.02-52.97-20.46 49.3-2.1-55.07-4.19 56.12-16.26-50.88 9.44 55.6-28.85-41.44 24.65 49.83-37.84-24.72 35.22 32.59-39.05-15.98 35.38 19.13-36.65-3.17 35.6 8.41-24.75 5.64 25.8-1.97-17.31 11.54 40.91-11.01z" fill="#92e3a9"/><g stroke="#263238" stroke-linejoin="round"><path d="m388.33 423.05-11.23 18.72a12.35 12.35 0 0 0 -1.34 9.55l5 18.59a6.19 6.19 0 0 0 6 4.59h51.14a6.19 6.19 0 0 0 6-4.59l5-18.59a12.3 12.3 0 0 0 -1.34-9.55l-11.22-18.72a4.26 4.26 0 0 0 -3.64-2.05h-40.7a4.23 4.23 0 0 0 -3.67 2.05z" fill="#263238"/><g stroke-linecap="round"><path d="m354.32 157.5s.24-11.06 1-12.79 2.7-4.42 4.18-4.91a55.29 55.29 0 0 0 6.64-2.46 79.5 79.5 0 0 0 6.15-5.66s3.93-1 4.18.25-5.66 6.64-5.66 6.64l2.46 1 13 .25 7.62-7.63s2.7-1.72 2.46 0-7.63 11.31-8.36 11.31-22.14 7.87-22.14 7.87l-2.46 9.59z" fill="#fff"/><path d="m377.68 146.44s5.16-1.48 5.9-2.71 6.15-12 6.64-12.79-2.7-.24-3.93 0-4.68 10.82-4.68 10.82l-5.41 1.72z" fill="#fff"/><path d="m379.54 144.56s5.36-.33 6.34-1.37 8.61-10.44 9.25-11.05-2.59-.83-3.84-.85-6.9 9.55-6.9 9.55l-5.66.52z" fill="#fff"/><path d="m358.74 150.86s-.24-4.92 2.95-7.38 13.28-2.7 13.28-2.7 4.92-9.59 6.15-9.59 4.18-1.23 3.94 0-3.2 6.15-4.43 8.61-1.72 5.65-2.95 6.64-8.36 2.7-8.36 2.7" fill="#fff"/><path d="m350.38 165.62 2.71-9.1 12.29 1.97-2.95 11.31z" fill="#92e3a9"/><path d="m301 155.78s10.82 2.95 12.79 6.64 18.44 30.25 19.43 32 1.72 3.2 1.72 3.2 12.05-29.27 12.54-31 4.67-2.21 5.9-2.21 12.54.74 13 3.69-14.27 59-15.74 60.25-5.41 1.72-7.87 1-34.68-17-34.68-17z" fill="#92e3a9"/><path d="m334.89 197.59a75.72 75.72 0 0 0 -3.89 12.41" fill="none"/><path d="m326.79 208.93c-.24.65-.47 1.34-.67 2.06" fill="none"/><path d="m331.22 201.28a23 23 0 0 0 -3.34 5.12" fill="none"/><path d="m240.85 252-8.79 103.09-5.41 89.57s-3 3.72-2.7 5.41 2 6.42 2 6.42-5.07 14.54-3.71 15.55a35.93 35.93 0 0 0 4.05 2.37h13.86s2.7-2.71 2.37-4.74-2.37-14.19-2.37-14.19a62.45 62.45 0 0 0 3.38-6.76c.34-1.35-1.69-8.45-1.69-8.45l32.45-124.38s13.85 77.73 17.23 95.65 10 62.39 10 62.39h7.1l1-3s.34-.67 3.72 1.35a11.18 11.18 0 0 0 6.42 1.69h17.58s1.35-1.69.34-2-14.87-9.7-17.24-11.73-6.42-7.43-6.42-7.43 2.36-6.09 2.36-7.1-3-6.76-3-6.76l-2.21-90.56 1-94z" fill="#263238"/><path d="m252.17 152-21.35 10.24 10.34 66.46-1 26.38s17.72 9.7 37.76 9.07a98.3 98.3 0 0 0 35.24-7.81l1.05-57.6s-2.11-28.06-4.64-32.7-3.8-6.75-7.38-9.49-14.56-5.91-14.56-5.91-19.88-1.64-20.52-1.64-14.94 3-14.94 3z" fill="#263238"/><path d="m275.45 176.27 12.55 22.69 2.95-26.79-8.86-12.87-6.54 14.77z" fill="#92e3a9"/><path d="m283 163.81 7.54 10.17 1.97-21.97-4.59-5.57z" fill="#92e3a9"/><path d="m255.45 129.38 1.64 18.04 25.91 16.39 11.15-30.49z" fill="#fff"/><path d="m256.43 140.08a28 28 0 0 0 12.13 2.27c9-.39 19.44-4.4 24.73-6.7l.86-2.33-38.7-3.94z" fill="#263238"/><path d="m283 163.81-7.55 12.46-23.28-24.26 3.61-5.9z" fill="#92e3a9"/><path d="m312.51 236.2s9.59-8.12 10.82-8.12 7.38 4.67 7.38 4.67 6.14-.73 6.39.74-1 5.66-1 5.66l-1.48 1.47s-4.18 6.4-4.18 7.38-5.41.74-7.87 1.23-9.34-1.23-9.34-1.23z" fill="#fff"/><path d="m303.16 235.46 11.32.25.24 11.8-9.34.25z" fill="#fff"/><path d="m251 185.51a19.3 19.3 0 0 0 -7.44-15.14c-3.94-3.07-8.84-6.76-10.52-7.46-2.95-1.23-4.42-.74-8.6 2.22s-5.66 9.09-5.41 19.18 7.37 63.2 8.11 65.41 3 2.71 4.92 2.95 69.76-2.07 71.07-2.21c4.68-.49 5.44-6.86 5.17-9.84-.49-5.41-5.17-7.13-12.3-7.87s-42-4.91-43.28-5.16a16.62 16.62 0 0 1 -2.46-.74s.74-28.77.74-36.64c0-1.76 0-3.31 0-4.7z" fill="#92e3a9"/><path d="m236.83 235.58a13.59 13.59 0 0 0 -2 2.83" fill="none"/><path d="m250.29 226.85a50.75 50.75 0 0 0 -10.43 6" fill="none"/><path d="m234.3 232.26s5.66-7.62 14.51-5.65" fill="none"/><path d="m357.59 104.86h2.28v21.47h-2.28z" fill="#fff"/><path d="m350.11 126.33h17.24v.98h-17.24z" fill="#fff"/><path d="m358.73 106.82a8.79 8.79 0 0 1 -8.73-8.82l1.7-15.9h14.06l1.75 15.9a8.79 8.79 0 0 1 -8.78 8.82z" fill="#fff"/><path d="m387.55 70.56-.81-18.56h-6.91l-.83 18.56a17.61 17.61 0 0 1 -1 5.23l-4 11a19.34 19.34 0 0 0 -1.18 6.65v35.89h21v-35.91a19.34 19.34 0 0 0 -1.18-6.65l-4-11a17.61 17.61 0 0 1 -1.09-5.21z" fill="#263238"/><path d="m373.72 97.43h19v25.64h-19z" fill="#fff"/><path d="m387.46 68.34a.86.86 0 0 1 0-.16l-.65-14.69a1.55 1.55 0 0 0 -1.56-1.49h-3.93a1.57 1.57 0 0 0 -1.56 1.49l-.64 14.69s0 .11 0 .16z" fill="#8c8c8c"/><path d="m424.9 131.19h-93.21l-4.92-3.94h104.03z" fill="#8c8c8c"/><path d="m264.17 228.38.33 58.47h49.01l.97-51.14z" fill="#fff"/><path d="m279 90a12.54 12.54 0 0 1 7.88 6.64c3 5.67 11.08 29.3 11.33 32.5s-3.2 4.19-7.14 6.65-16.74 4.43-23.88 2-8.62-6.4-8.62-6.4-2.71 3.2-7.88-.25-6.15-8.12-4.18-9.85 5.17-.24 5.17-.24-5.42-13.3-4.93-18 .74-9.35 8.62-12.55 23.63-.5 23.63-.5z" fill="#fff"/><g fill="none"><path d="m279.22 100.62s1 3.2 2.21 3.7 7.64-1.48 8.13 1.23-2 7.14-2 7.14"/><path d="m289.56 117.12s-6.16 5.41-12.31.49"/><path d="m267.16 108.5 6.89-2.46"/><path d="m271.83 98.65s-5.41-3-8.12 2.47"/><path d="m279 98.16s2.46-4.43 6.9-.74"/></g><path d="m271.66 107.69c.12.35-.34.81-1 1s-1.32.12-1.43-.23.33-.81 1-1 1.31-.12 1.43.23z" fill="#263238"/><path d="m249.68 117.12s1.47 5.17 2.46 5.41 5.17 1 4.92-1.47-4.67-11.08-4.18-14 6.15-7.14 4.92-8.86-3.2-1.48-2.46-2.71 12.55-5.17 17-5.17 6.4-.24 8.37-1.72 4.92-7.39-4.19-7.63-24.12 5.91-29.29 12.8-2.71 12.31-1.24 15 3.69 8.35 3.69 8.35z" fill="#263238"/><path d="m283.79 168.78-9.9-2.11 2.04 10.39 8.23-6.29 9.17 4.17-1.69-10.61z" fill="#263238"/><path d="m174.63 220.79 3.23 16.4s1.74 2.48 7.45 5 8.45.49 8.45-3.48-2-25.34-2-25.34z" fill="#fff"/><path d="m175.65 226.74 16.77-4.58-.65-8.82-17.14 7.45z" fill="#263238"/><path d="m86 206.39-8 22.61 6 4.47s5 .5 8.2-1.74 11.18-20.61 11.18-20.61z" fill="#fff"/><path d="m84.19 211.28 16.77 5 2.38-5.17-17.63-5.5z" fill="#263238"/><path d="m147.47 337.05s2.32 29.14 2.32 35.44-2.65 20.2-1 27.82 7.29 31.13 7.29 38.75-4.3 21.2-2 23.85 6.63 3.31 7.95 6 2 3.31 4.31 4.31 11.59 1.65 13.58 1 1-2.32-2.32-7-10.93-13.58-12.25-17.55 6.95-35.77 7.28-49-.33-30.14-.33-30.14 4.31-29.81 4.31-35.77z" fill="#fff"/><path d="m148.31 348a129.31 129.31 0 0 0 27.57-4.61c.44-3.87.74-7.08.74-8.64l-29.15 2.32s.38 4.78.84 10.93z" fill="#263238"/><path d="m171.65 363.88s-.33 8.61-3.31 13.24" fill="none"/><path d="m179.93 474.17c2-.66 1-2.32-2.32-7-.57-.8-1.28-1.73-2.05-2.74-3.93 2.49-9.64.94-11.86-1.56-2-2.28-7.13-7.83-9.44-10.33-.81 4.79-1.35 9-.17 10.33 2.32 2.65 6.63 3.31 7.95 6s2 3.31 4.31 4.31 11.59 1.65 13.58.99z" fill="#263238"/><path d="m116 337.71s5 31.13 5.63 32.13 0 28.48 3.31 37.76 11.92 38.42 12.25 43-10.59 13.96-15.19 16.94-6 5-3 6 13.58 0 17.88-.33 10.08 1.26 11.07-.06-.47-20.15-.47-25.78 1.32-45.71-.66-58.95-4-24.85-4-24.85l.67-27.15-29.15-1z" fill="#fff"/><path d="m116 337.71s.49 3.08 1.18 7.32a93.71 93.71 0 0 0 26 3.12l.29-11.76-29.15-1z" fill="#263238"/><path d="m122.63 363.21s.66 9.94 4.64 14.58" fill="none"/><path d="m147.94 473.12c.38-.51.37-3.43.22-7.17-5.16.74-14.27.27-14.27.27-2.32-4.64-6-2.65-6-2.65h-.68a55 55 0 0 1 -5.28 4c-4.64 3-6 5-3 6s13.39.93 17.69.6 10.38.27 11.32-1.05z" fill="#263238"/><path d="m100.11 311.21-1 26.83s22.53 6.29 41.74 6.63 44.38-7.62 44.38-7.62l-1.33-29.48-83.13-1.32z" fill="#92e3a9"/><path d="m116.75 233.71s-18.63 47.36-23.27 83.13c0 0 27.16 7.62 54 6.3s42.73-8.61 42.73-8.61-8.28-55-22-77.84z" fill="#263238"/><path d="m152.44 89.63s-1.33-8.61-9.94-6.95-8.28 4.64-9.6 7.62-20.21 6.62-24.51 17.88 6.29 14.91 6.29 20.87-13.25 10.6-10.27 17.55 13.91 8.28 12.92 10.6-8.94 6-3 11.26 32.79 10.6 47 7.95 17.89-13.91 15.24-17.55-4.64-5.3-2.65-9 12.25-7.28 8.94-17.22-12.21-11.54-11.86-17.17 10.26-9.27 2-17.22-20.56-8.62-20.56-8.62z" fill="#263238"/></g></g><path d="m128.67 159.19-26.82 7.7 14.9 66.82s7 4.47 22.11 5.47a109.07 109.07 0 0 0 29.31-2.49l14.66-67.32-25.59-8.19z" fill="#fff"/><g fill="#92e3a9"><path d="m123.47 160.68-1 .28 10.55 77.62 1 .14z"/><path d="m129.34 159.24-.67-.05-.32.09 8.49 79.72 1 .08z"/><path d="m136.36 159.72-1-.07 6.18 79.66h1z"/><path d="m117.37 162.43-1 .28 13.28 75.29 1 .19z"/><path d="m111 164.26 14.33 72.74 1.07.27-14.4-73.27z"/><path d="m150.23 160.69-1-.07 1.31 78.54 1-.06z"/><path d="m120.32 235.4c.34.14.71.28 1.1.42l-14.88-70.28-1 .28z"/><path d="m174.22 166.61-9.61 70.82 1-.19 9.54-70.32z"/><path d="m179.62 168.35-1-.31-12.24 69 1-.23z"/><path d="m169.37 165.06-1-.31-8 73.38 1-.15z"/><path d="m157.35 161.21h-.11l-.88-.07-3.68 77.86 1-.08z"/><path d="m145.47 239.35h1l-2.73-79.09-1-.07z"/><path d="m163.14 163.07-1-.32-5.29 75.85 1-.12z"/><rect height="6.57" rx="2.85" stroke="#263238" stroke-linecap="round" stroke-linejoin="round" transform="matrix(.99858348 .0532074 -.0532074 .99858348 10.09 -8.36)" width="15.52" x="154.46" y="182.31"/></g><path d="m128.67 159.19-26.82 7.7 14.9 66.82s7 4.47 22.11 5.47a109.07 109.07 0 0 0 29.31-2.49l14.66-67.32-25.59-8.19z" fill="none" stroke="#263238" stroke-linecap="round" stroke-linejoin="round"/><path d="m131.46 140.57.57 14.11 9.97 7.72 9.94-7.79 3.99-13.1-13.18 3.95z" fill="#fff" stroke="#263238" stroke-linecap="round" stroke-linejoin="round"/><path d="m155.93 141.51-13.18 4-11.29-4.89.29 7.19c2.37 3.2 4.79 5.76 6.41 6.46 4 1.69 6.21.94 7.53-.38 1-1 6.05-4.1 9.81-10.93z" fill="#263238" stroke="#263238" stroke-linecap="round" stroke-linejoin="round"/><path d="m137.49 165.98 2.82 4.14-1.88 35.94 5.45.19-1.88-35.94 4.52-5.65-4.97-4.71z" fill="#92e3a9" stroke="#263238" stroke-linecap="round" stroke-linejoin="round"/><path d="m130.95 150.73 10.36 9.22-6.4 10.73-8.85-11.48z" fill="#fff"/><path d="m126.48 158.47 9.13 11.04.54-.91-9.14-11.04z" fill="#92e3a9"/><path d="m128.5 154.98-.54.94 8.73 11.77.55-.93z" fill="#92e3a9"/><path d="m131.22 150.97-.27-.24-.5.87 9.27 10.32-1.4 1.7-8.54-10.86-.53.93 8.98 11.42 2.27-3.81z" fill="#92e3a9"/><path d="m130.95 150.73 10.36 9.22-6.4 10.73-8.85-11.48z" fill="none" stroke="#263238" stroke-linecap="round" stroke-linejoin="round"/><path d="m153.11 150.73-11.56 9.22 7.15 10.73 9.88-11.48z" fill="#fff"/><path d="m158.11 158.47-10.19 11.04-.61-.91 10.21-11.04z" fill="#92e3a9"/><path d="m155.86 154.98.6.94-9.76 11.77-.61-.93z" fill="#92e3a9"/><path d="m152.82 150.97.29-.24.57.87-10.36 10.32 1.56 1.7 9.54-10.86.6.93-10.04 11.42-2.54-3.81z" fill="#92e3a9"/><path d="m153.11 150.73-11.56 9.22 7.15 10.73 9.88-11.48z" fill="none" stroke="#263238" stroke-linecap="round" stroke-linejoin="round"/><path d="m125.61 119.8s-3.18-2.76-4.5.44 3.77 11.48 5.27 11.11.57-11.11.57-11.11z" fill="#fff" stroke="#263238" stroke-linecap="round" stroke-linejoin="round"/><path d="m163.38 120.17s3.51-2.33 4.41 1-5.21 10.9-6.65 10.33.86-11.08.86-11.08z" fill="#fff" stroke="#263238" stroke-linecap="round" stroke-linejoin="round"/><path d="m136.92 94.27s-8.84 2.83-10.16 10.73c-1.2 7.17-1.7 20.33-.38 26.35s10 18.82 13.93 20.51 6.21.94 7.53-.38 9.59-6.21 12.79-18.44 2.83-21.26.76-30.49c-1.28-5.69-14.87-12.61-24.47-8.28z" fill="#fff" stroke="#263238" stroke-linecap="round" stroke-linejoin="round"/><path d="m161.39 102.55c-1.28-5.69-14.87-12.61-24.47-8.28 0 0-8.84 2.83-10.16 10.73a104.83 104.83 0 0 0 -1.15 14.8c.44-1.52 1.07-4 1.71-7.27 1.13-5.84 3.58-10.54 7.72-10.92s5.83 1.51 12.61 1.13 9-.94 11.85 2.26 2.45 13.74 3.2 16.75a58.54 58.54 0 0 0 -1.31-19.2z" fill="#263238" stroke="#263238" stroke-linecap="round" stroke-linejoin="round"/><path d="m146.71 125.51-.38 4.33s2.07 1.32 1.51 2.83-2.83 2.25-3.77 1.31" fill="none" stroke="#263238" stroke-linecap="round" stroke-linejoin="round"/><path d="m138.05 138.69s4.52 2.44 7.53 2.07a13.7 13.7 0 0 0 5.83-2.64" fill="none" stroke="#263238" stroke-linecap="round" stroke-linejoin="round"/><path d="m138.24 123.73c0 1.19-.55 2.16-1.23 2.16s-1.22-1-1.22-2.16.55-2.17 1.22-2.17 1.23.97 1.23 2.17z" fill="#263238"/><path d="m153.86 124.38c0 1.2-.55 2.17-1.22 2.17s-1.23-1-1.23-2.17.55-2.16 1.23-2.16 1.22.97 1.22 2.16z" fill="#263238"/><path d="m133.16 118.36s3-4 8.28-1.5" fill="none" stroke="#263238" stroke-linecap="round" stroke-linejoin="round"/><path d="m149.15 117.61s5.08-3.39 10 1.69" fill="none" stroke="#263238" stroke-linecap="round" stroke-linejoin="round"/><path d="m101.85 166.89-19.63 40.74 24.35 6.21 2.98-11.43z" fill="#fff"/><path d="m102.38 169.37-17.14 39.03.98.25 16.52-37.62z" fill="#92e3a9"/><path d="m103.8 175.93-.37-1.73c-4.76 11.81-11 27-14.47 35.15l1 .24c3.89-9.07 10.6-25.59 13.84-33.66z" fill="#92e3a9"/><path d="m105.15 182.11-.38-1.71-12.19 29.87.97.25z" fill="#92e3a9"/><path d="m108.52 206.33 1.03-3.92-.06-.28-5.46 11.06.99.25z" fill="#92e3a9"/><path d="m108.29 196.6-.38-1.72-7.11 17.49.97.24z" fill="#92e3a9"/><path d="m106.61 188.85-.38-1.73-9.72 24.15.97.25z" fill="#92e3a9"/><path d="m101.85 166.89-19.63 40.74 24.35 6.21 2.98-11.43z" fill="none" stroke="#263238" stroke-linecap="round" stroke-linejoin="round"/><path d="m182.83 169.37 16.14 46.45-25.09 9.2-1.73-6.46z" fill="#fff"/><path d="m177.15 195.53-.39 1.79 8.74 23.44.93-.34z" fill="#92e3a9"/><path d="m175.74 202.01-.39 1.79 6.83 18.18.94-.35z" fill="#92e3a9"/><path d="m174.59 207.32-.4 1.84 4.95 13.93.94-.34z" fill="#92e3a9"/><path d="m177.4 223.73-4.07-10.61-.39 1.77 3.53 9.18z" fill="#92e3a9"/><path d="m180.99 177.84-.4 1.86 13.25 38.01.94-.35z" fill="#92e3a9"/><path d="m182.34 171.63-.42 1.91 14.36 43.27.94-.34z" fill="#92e3a9"/><path d="m179.91 182.79-.4 1.86 11.79 33.99.93-.35z" fill="#92e3a9"/><path d="m178.32 190.1-.38 1.76 10.84 27.7.94-.34z" fill="#92e3a9"/><path d="m182.83 169.37 16.14 46.45-25.09 9.2-1.73-6.46z" fill="none" stroke="#263238" stroke-linecap="round" stroke-linejoin="round"/><path d="m110.54 189.74-3.73 3.26-4.72 10.19 2.74 7.7s-25.09 14.41-26.58 15.9-2 11.67 1.24 16.64 16.89-9.94 16.89-9.94l22.36-30.05s5.46-6.46 4-8.2-2.73-3-3.48-3-2.48.25-2.48.25z" fill="#fff" stroke="#263238" stroke-linecap="round" stroke-linejoin="round"/><path d="m111.05 182.66 5.7 11.8 2.24.75-6.33-13.29a.89.89 0 0 0 -1.3-.37.9.9 0 0 0 -.31 1.11z" fill="#fff" stroke="#263238" stroke-linecap="round" stroke-linejoin="round"/><path d="m103.34 198.44 4.47 12.67 13.66 2.48 4.22-2.48-4.72-14.41z" fill="#fff" stroke="#263238" stroke-linecap="round" stroke-linejoin="round"/><path d="m117.5 200.92-17.89-1.49s-2.48-1.74.75-3.73a8.13 8.13 0 0 1 6-1.24l12.67.75z" fill="#fff" stroke="#263238" stroke-linecap="round" stroke-linejoin="round"/><path d="m125.69 208.37-4-12.67s-4-1.24-5.22 1a3 3 0 0 0 1 4.22c.74.5 3.22-1.24 3.22-1.24l2.74 10.18z" fill="#fff" stroke="#263238" stroke-linecap="round" stroke-linejoin="round"/><path d="m192.76 232.47a28.48 28.48 0 0 1 .75 7.45c0 5-1.24 8.7-4.47 8.7s-16.89-4-23.1-7.21-31.3-15.65-31.3-15.65-8.95-1-11.43-1.49a29.42 29.42 0 0 1 -9.19-4c-2.49-1.74-3.73-6.71-3.73-6.71s-4.47-2.73-4.47-4 12.17 1.24 14.41 1.24 5.46-2.49 5.46-2.49l-1.24-4.72s4.47 1.74 5.71 3.23 5.72 9.94 6.46 10.93 20.62 9.25 30.81 10.25 20.12 2.48 20.12 2.48" fill="#fff" stroke="#263238" stroke-linecap="round" stroke-linejoin="round"/><path d="m24.61 474.5h-8.07" fill="#fff" stroke="#263238" stroke-linecap="round" stroke-linejoin="round"/><path d="m489.68 474.5h-455.85" fill="#fff" stroke="#263238" stroke-linecap="round" stroke-linejoin="round"/></svg>