<svg viewBox="0 0 750 500" xmlns="http://www.w3.org/2000/svg"><path d="m626.17 133.62-2.17-3.62c-18.66-30.7-52.32-49.2-87.82-47a93.29 93.29 0 0 0 -13.59 1.87c-32.27 6.91-60.35 31.31-72 62.57-6.84 18.38-8.75 39.54-21.74 54.13-16.91 19-45.61 19.58-70.84 18.8s-54-.12-70.78 19c-10.54 11.93-13.89 28.91-13 44.9 2.25 42.33 31.75 80.18 69.26 99s81.68 20.5 122.73 12.23c57.52-11.6 112.21-43.44 145.09-92.61s41.16-116.19 14.86-169.27z" fill="#ebebeb"/><circle cx="137.81" cy="210.54" fill="#ebebeb" r="41.13"/><path d="m341.58 193.21h89.71v71.72h-89.71z" fill="#fafafa" transform="matrix(.99998629 -.00523596 .00523596 .99998629 -1.21 2.06)"/><path d="m431.1 193h-.43-1.26l-4.88.05-18.36.16-64.78.46.23-.23c.12 21.34.26 45.81.41 71.71l-.26-.26 89.71-.43-.21.21c-.07-21.59-.13-39.5-.17-52 0-6.26 0-11.17 0-14.53v-3.84c0-.87 0-1.33 0-1.33s0 .43 0 1.28 0 2.15.05 3.8c0 3.35.07 8.25.13 14.49.09 12.55.23 30.5.39 52.15v.22h-.22l-89.71.52h-.26v-.26c-.13-25.89-.25-50.36-.35-71.71v-.24h.24l64.93-.23h18.31 6.47z" fill="#263238"/><path d="m344.67 197.72h83.41v62.69h-83.41z" fill="#ebebeb" transform="matrix(.99998629 -.00523596 .00523596 .99998629 -1.21 2.06)"/><path d="m344.84 260.64 28.92-39.13 18.18 24.29 12.17-13.1 24.14 27.49z" fill="#e0e0e0"/><path d="m399.45 216.6a6.57 6.57 0 1 1 -6.61-6.53 6.58 6.58 0 0 1 6.61 6.53z" fill="#e0e0e0"/><path d="m684.31 476.09c0 .15-138.5.26-309.3.26s-309.32-.11-309.32-.26 138.47-.26 309.32-.26 309.3.17 309.3.26z" fill="#263238"/><circle cx="542.16" cy="100.58" fill="#fff" r="22.43" transform="matrix(.99258863 -.12152287 .12152287 .99258863 -8.2 66.63)"/><path d="m564.59 100.58s0-.49-.1-1.43a10.15 10.15 0 0 0 -.18-1.72 16.62 16.62 0 0 0 -.47-2.31 21.08 21.08 0 0 0 -2.48-6 22.31 22.31 0 0 0 -26.8-9.54 20.74 20.74 0 0 0 -5.64 3 20.34 20.34 0 0 0 -4.71 4.73 22.2 22.2 0 0 0 0 26.36 26 26 0 0 0 2.19 2.59 25.68 25.68 0 0 0 2.53 2.15 20.7 20.7 0 0 0 5.64 3 22.37 22.37 0 0 0 26.8-9.53 21.13 21.13 0 0 0 2.48-6 16.34 16.34 0 0 0 .47-2.31 10.05 10.05 0 0 0 .18-1.72c.06-.94.1-1.43.1-1.43s0 .49 0 1.43a10.11 10.11 0 0 1 -.17 1.73 15.1 15.1 0 0 1 -.44 2.33 21.38 21.38 0 0 1 -2.45 6 22.46 22.46 0 0 1 -27 9.69 20.92 20.92 0 0 1 -5.71-3.06 24.91 24.91 0 0 1 -2.56-2.17 25.58 25.58 0 0 1 -2.22-2.62 22.43 22.43 0 0 1 0-26.66 25.58 25.58 0 0 1 2.22-2.62 26.23 26.23 0 0 1 2.56-2.17 21.19 21.19 0 0 1 5.71-3.06 22.57 22.57 0 0 1 11.84-1 22.58 22.58 0 0 1 15.17 10.65 21.38 21.38 0 0 1 2.45 6 15.1 15.1 0 0 1 .44 2.33 10.11 10.11 0 0 1 .17 1.73c-.02 1.14-.02 1.63-.02 1.63z" fill="#263238"/><path d="m542.16 85.93a14.65 14.65 0 1 0 14.65 14.65 14.66 14.66 0 0 0 -14.65-14.65z" fill="none"/><path d="m542.16 85.93a11.33 11.33 0 0 1 3.61.33 14.66 14.66 0 0 1 8.23 5.32 14.81 14.81 0 0 1 2.84 6.25 15 15 0 0 1 -.62 7.85 15 15 0 0 1 -5.2 7 14.83 14.83 0 0 1 -17.7 0 14.23 14.23 0 0 1 -3.17-3.17 13.89 13.89 0 0 1 -2-3.79 14.79 14.79 0 0 1 10.43-19.42 11.33 11.33 0 0 1 3.61-.33 29.14 29.14 0 0 0 -3.54.59 14.59 14.59 0 0 0 -10.65 11.37 14.39 14.39 0 0 0 .65 7.54 13.87 13.87 0 0 0 2 3.62 13.45 13.45 0 0 0 3.05 3 14.22 14.22 0 0 0 16.92 0 14.35 14.35 0 0 0 5-6.64 14.37 14.37 0 0 0 -2-13.61 14.65 14.65 0 0 0 -7.91-5.34 29.08 29.08 0 0 0 -3.55-.57z" fill="#ff725e"/><path d="m542.16 95.93a4.65 4.65 0 1 0 4.65 4.65 4.66 4.66 0 0 0 -4.65-4.65z" fill="none"/><path d="m542.16 95.93a2.28 2.28 0 0 1 1.17 0 4.66 4.66 0 0 1 2.72 1.68 4.86 4.86 0 0 1 .77 4.64 4.93 4.93 0 0 1 -9.31 0 4.84 4.84 0 0 1 .77-4.64 4.63 4.63 0 0 1 2.72-1.61 2.21 2.21 0 0 1 1.16 0c0 .06-.41.07-1.1.27a4.73 4.73 0 0 0 -2.41 1.71 4.47 4.47 0 0 0 -.57 4.15 4.37 4.37 0 1 0 7.59-4.15 4.75 4.75 0 0 0 -2.4-1.71c-.69-.27-1.11-.27-1.11-.34z" fill="#ff725e"/><path d="m518.26 116.74c7.75-5.4 16.15-10.75 23.9-16.16" fill="#f5f5f5"/><path d="m542.16 100.58c0 .06-5.27 3.73-11.87 8.19s-12 8-12 8 5.28-3.73 11.88-8.2 11.95-8.05 11.99-7.99z" fill="#263238"/><path d="m520.89 115.18a13.58 13.58 0 0 1 -2.77 0 14.47 14.47 0 0 1 -2.76-.23 14.5 14.5 0 0 1 2.77 0 14.36 14.36 0 0 1 2.76.23z" fill="#263238"/><path d="m520 118.82a7 7 0 0 1 .28-1.9 7.13 7.13 0 0 1 .53-1.84 7.1 7.1 0 0 1 -.27 1.9 6.76 6.76 0 0 1 -.54 1.84z" fill="#263238"/><path d="m521.31 118.39a7.88 7.88 0 0 1 .22-2 7.52 7.52 0 0 1 .48-1.93 6.88 6.88 0 0 1 -.22 2 7.37 7.37 0 0 1 -.48 1.93z" fill="#263238"/><path d="m518.13 113.59a6.94 6.94 0 0 1 1.92.31 7.53 7.53 0 0 1 1.87.58 7.25 7.25 0 0 1 -1.93-.32 7 7 0 0 1 -1.86-.57z" fill="#263238"/><path d="m635.59 218.8a1.33 1.33 0 0 1 .1.28 4.54 4.54 0 0 1 .11.86 6.57 6.57 0 0 1 -.77 3.15 16.65 16.65 0 0 1 -3.14 3.93l-4.45 4.65-.14.15-.16-.14c-1.5-1.19-3.1-2.48-4.78-3.83s-3.59-2.77-4.59-5a5.2 5.2 0 0 1 -.11-4.38 5.1 5.1 0 0 1 3.21-2.71 4.63 4.63 0 0 1 3.87.71 5 5 0 0 1 2 3h-.42a5 5 0 0 1 3.24-4.08 4.54 4.54 0 0 1 4 .53 4.64 4.64 0 0 1 1.72 2 2.7 2.7 0 0 1 .23.65c0 .15.05.23 0 .23s-.1-.3-.38-.83a4.82 4.82 0 0 0 -1.74-1.81 4.26 4.26 0 0 0 -3.75-.41 4.59 4.59 0 0 0 -2.94 3.79l-.13 1.43-.29-1.41a4.51 4.51 0 0 0 -1.88-2.73 4.17 4.17 0 0 0 -3.48-.62 4.62 4.62 0 0 0 -2.88 2.45 4.76 4.76 0 0 0 .11 4c.93 2.08 2.79 3.48 4.44 4.83l4.75 3.87h-.3l4.51-4.6a16.94 16.94 0 0 0 3.16-3.78 6.94 6.94 0 0 0 .87-3c.09-.78-.03-1.17.01-1.18z" fill="#ff725e"/><path d="m610.53 206.07s0 .21.06.61.06 1 .1 1.75c.09 1.56.22 3.81.39 6.7.31 5.8.76 14.15 1.32 24.43l-.2-.17 21.51-1.12h.23v.22c.16 3.23.34 6.68.52 10.23l-.41-.15 9.7-10.74.07-.08h.11l23.58-1.19 7.23-.36-.24.26c-.59-11.84-1.15-23.12-1.66-33.5l.25.22-45 2.14-12.9.58-3.45.15h-.89-.32.29l.86-.06 3.4-.19 12.85-.71 45.14-2.38h.24v.24c.53 10.38 1.1 21.66 1.7 33.5v.25h-.25l-7.24.36-23.52 1.17.17-.08c-3.35 3.71-6.62 7.31-9.72 10.73l-.38.42v-.57c-.17-3.54-.34-7-.5-10.22l.24.21-21.52 1h-.29v-.19c-.47-10.34-.86-18.73-1.12-24.56-.13-2.87-.22-5.11-.29-6.65 0-.75-.05-1.32-.07-1.73s.01-.52.01-.52z" fill="#ff725e"/><path d="m645.86 221.69-2.64.14.13 2.56h-.62l-.13-2.57-2.6.18v-.6l2.64-.13-.13-2.58h.62l.13 2.58 2.64-.13z" fill="#263238"/><path d="m649.59 216.33.49 9.72h-.71l-.46-9.08-2.37.12v-.64z" fill="#263238"/><path d="m652.29 221.07c-.15-3 1.32-5 3.56-5.12s3.9 1.7 4 4.74-1.32 5-3.56 5.12-3.85-1.7-4-4.74zm6.9-.35c-.13-2.71-1.47-4.21-3.31-4.12s-3 1.72-2.88 4.43 1.48 4.21 3.31 4.12 3.02-1.72 2.88-4.43z" fill="#263238"/><path d="m661.43 220.61c-.15-3 1.32-5 3.56-5.12s3.9 1.7 4 4.74-1.32 5-3.56 5.12-3.85-1.7-4-4.74zm6.9-.35c-.13-2.7-1.47-4.21-3.31-4.12s-3 1.73-2.88 4.43 1.48 4.22 3.31 4.12 3.02-1.69 2.88-4.43z" fill="#263238"/><path d="m620.03 132.82h6.77v26.96h-6.77z" fill="#ff725e"/><path d="m608.89 130.77h6.77v29.01h-6.77z" fill="#ff725e"/><path d="m598.09 134.37h6.77v25.41h-6.77z" fill="#ff725e"/><path d="m587.13 138.33h6.77v21.45h-6.77z" fill="#ff725e"/><path d="m631.94 159.88c0 .14-11.13.26-24.86.26s-24.86-.12-24.86-.26 11.13-.26 24.86-.26 24.86.11 24.86.26z" fill="#263238"/><path d="m629.11 134.48c0 .06-.78-.08-2.17 0a12.87 12.87 0 0 0 -5.56 1.67 12.12 12.12 0 0 0 -3.1 2.55c-1 1.09-1.83 2.41-2.86 3.72a10.75 10.75 0 0 1 -4 3.4 14.67 14.67 0 0 1 -5.54 1.09c-1.92.07-3.79 0-5.58.05a26.48 26.48 0 0 0 -5.09.69 12.73 12.73 0 0 0 -7.21 4.45 9.49 9.49 0 0 0 -2 5.38 13.85 13.85 0 0 0 .2 2.15 5.65 5.65 0 0 1 -.41-2.15 9.48 9.48 0 0 1 1.93-5.6 11.08 11.08 0 0 1 3-2.83 15.4 15.4 0 0 1 4.37-1.86 26.08 26.08 0 0 1 5.19-.74c1.82-.09 3.69 0 5.58-.06a14.21 14.21 0 0 0 5.35-1 10.3 10.3 0 0 0 3.85-3.23c1-1.28 1.91-2.6 2.92-3.7a12 12 0 0 1 3.24-2.59 12.44 12.44 0 0 1 5.73-1.55 11 11 0 0 1 1.63.09 3.72 3.72 0 0 1 .53.07z" fill="#263238"/><path d="m583.11 128.09c.15 0 .27 7.23.27 16.15s-.12 16.16-.27 16.16-.26-7.23-.26-16.16.15-16.15.26-16.15z" fill="#263238"/><path d="m523.27 193.59a7.08 7.08 0 0 1 -2.36.85 7.32 7.32 0 0 1 -2.46.49 5.61 5.61 0 0 1 2.32-1 5.47 5.47 0 0 1 2.5-.34z" fill="#263238"/><path d="m533.21 192.75a7.28 7.28 0 0 1 -2.5.25 7.08 7.08 0 0 1 -2.5-.13 9.64 9.64 0 0 1 5-.12z" fill="#263238"/><path d="m543.08 194.25a16.5 16.5 0 0 1 -4.89-1 9.58 9.58 0 0 1 4.89 1z" fill="#263238"/><path d="m552.35 197.94a7.41 7.41 0 0 1 -2.34-.89 7 7 0 0 1 -2.19-1.23 5.62 5.62 0 0 1 2.41.76c1.26.59 2.19 1.23 2.12 1.36z" fill="#263238"/><path d="m560.49 203.7a7.52 7.52 0 0 1 -2.06-1.43c-1.07-.85-1.91-1.58-1.83-1.7a5.47 5.47 0 0 1 2.16 1.3c1.08.87 1.83 1.72 1.73 1.83z" fill="#263238"/><path d="m611.76 311a4.77 4.77 0 1 1 -2.7-6.18 4.77 4.77 0 0 1 2.7 6.18z" fill="#ff725e"/><path d="m627.67 307a4.77 4.77 0 1 1 -2.7-6.18 4.76 4.76 0 0 1 2.7 6.18z" fill="#ff725e"/><path d="m620.32 325.77a4.78 4.78 0 1 1 -2.56-6.57 5 5 0 0 1 2.56 6.57z" fill="#ff725e"/><path d="m614.79 323c-.3.2-2.59-2.63-5.12-6.33s-4.34-6.87-4-7.07 2.59 2.63 5.12 6.33 4.3 6.82 4 7.07z" fill="#ff725e"/><path d="m622.43 304.54c.1.34-3 1.56-6.95 2.72s-7.2 1.8-7.31 1.45 3-1.56 7-2.71 7.15-1.81 7.26-1.46z" fill="#ff725e"/><path d="m553.21 354.8a4.67 4.67 0 0 1 -.13-1.16 9.11 9.11 0 0 0 -.16-1.39 13.58 13.58 0 0 0 -.36-1.88 17.77 17.77 0 0 0 -1.95-4.81 17.93 17.93 0 0 0 -21.31-8.06 16.77 16.77 0 0 0 -4.55 2.33 18.84 18.84 0 0 0 -2 1.66 19.14 19.14 0 0 0 -1.79 2 17.73 17.73 0 0 0 -.51 21 20.16 20.16 0 0 0 1.69 2.1 19.32 19.32 0 0 0 2 1.77 16.82 16.82 0 0 0 4.43 2.54 17.86 17.86 0 0 0 17-2.07 18.23 18.23 0 0 0 4.73-4.94 17.56 17.56 0 0 0 2.17-4.72 13.07 13.07 0 0 0 .46-1.85 8.89 8.89 0 0 0 .07-1.32 4.79 4.79 0 0 1 .19-1.15 5.21 5.21 0 0 1 0 1.17 8 8 0 0 1 -.13 1.42 12.93 12.93 0 0 1 -.37 1.91 17.2 17.2 0 0 1 -2.08 4.91 18.51 18.51 0 0 1 -12.61 8.52 18.63 18.63 0 0 1 -9.81-1 17.33 17.33 0 0 1 -4.68-2.65 20.19 20.19 0 0 1 -2.09-1.85 21.32 21.32 0 0 1 -1.79-2.21 18.61 18.61 0 0 1 .54-22.16 22.6 22.6 0 0 1 1.9-2.12 20 20 0 0 1 2.13-1.79 17.5 17.5 0 0 1 4.81-2.41 18.69 18.69 0 0 1 9.84-.53 18.55 18.55 0 0 1 12.25 9.18 17.21 17.21 0 0 1 1.84 5 14.35 14.35 0 0 1 .28 1.92 9.24 9.24 0 0 1 .06 1.42 5.29 5.29 0 0 1 -.07 1.22z" fill="#ff725e"/><path d="m549.56 343.4c0 .05-.29.34-.93.81l-1.17.84c-.24.16-.48.34-.75.51l-.9.47a20.51 20.51 0 0 1 -10.73 2.71l-1.63-.08-1.56-.24-.75-.13-.73-.19c-.48-.13-.95-.25-1.41-.39a23.41 23.41 0 0 1 -4.55-2.1c-2.45-1.48-3.64-2.82-3.54-2.91s1.42 1 3.89 2.29a27.24 27.24 0 0 0 4.48 1.84l1.36.34.69.17.73.11 1.49.22 1.55.06a22.15 22.15 0 0 0 10.39-2.33l.91-.4c.28-.14.53-.3.77-.43l1.25-.69c.69-.36 1.1-.54 1.14-.48z" fill="#ff725e"/><path d="m520.35 365.59s.29-.34.92-.81l1.18-.85c.23-.16.48-.34.75-.51l.9-.47a20.6 20.6 0 0 1 10.73-2.7l1.62.07 1.56.25c.26 0 .51.07.76.12l.73.2c.48.13 1 .24 1.4.39a23.52 23.52 0 0 1 4.56 2.1c2.44 1.48 3.63 2.82 3.54 2.91s-1.43-1-3.89-2.29a27.38 27.38 0 0 0 -4.49-1.84c-.43-.13-.89-.22-1.35-.34l-.7-.17-.72-.11-1.49-.22-1.55-.07a22.31 22.31 0 0 0 -10.4 2.34l-.91.39-.77.44-1.24.68c-.69.37-1.1.55-1.14.49z" fill="#ff725e"/><path d="m553.2 355.23c0 .27-8.19.3-18.27 0s-18.24-.66-18.24-.94 8.19-.3 18.27-.06 18.24.77 18.24 1z" fill="#ff725e"/><path d="m534.1 372.59c-.27 0-.3-8.18-.05-18.25s.66-18.24.94-18.24.3 8.18.06 18.26-.67 18.24-.95 18.23z" fill="#ff725e"/><path d="m534.11 372.57c-.07.1-2.08-1.26-4.41-4.35a24.69 24.69 0 0 1 -3.26-5.92 22 22 0 0 1 -1.41-8.18 20.91 20.91 0 0 1 1.84-8.1 25.08 25.08 0 0 1 3.57-5.74c2.46-3 4.48-4.29 4.55-4.18s-1.74 1.6-4 4.62a27.27 27.27 0 0 0 -3.28 5.67 20.92 20.92 0 0 0 -1.69 7.75 22.28 22.28 0 0 0 1.28 7.84 26.57 26.57 0 0 0 3 5.83c2.1 3.11 3.91 4.65 3.81 4.76z" fill="#ff725e"/><path d="m535.4 336.11c.07-.11 2.08 1.25 4.4 4.34a24.43 24.43 0 0 1 3.26 5.93 22 22 0 0 1 1.42 8.18 21.09 21.09 0 0 1 -1.85 8.09 25.2 25.2 0 0 1 -3.56 5.74c-2.46 3-4.49 4.29-4.56 4.19s1.74-1.61 4-4.62a27.53 27.53 0 0 0 3.27-5.67 21 21 0 0 0 1.69-7.75 22.07 22.07 0 0 0 -1.28-7.85 25.94 25.94 0 0 0 -3-5.83c-2.08-3.11-3.89-4.64-3.79-4.75z" fill="#ff725e"/><g fill="#263238"><path d="m534.54 139.21c-.15 0-.22-.58-.16-1.26s.22-1.24.36-1.23.22.58.16 1.27-.22 1.23-.36 1.22z"/><path d="m533.68 149.51a12.68 12.68 0 0 1 .43-5.15 13.16 13.16 0 0 1 -.43 5.15z"/><path d="m532.8 159.81a13 13 0 0 1 .44-5.15 6.53 6.53 0 0 1 0 2.6 6.4 6.4 0 0 1 -.44 2.55z"/><path d="m531.92 170.12a12.92 12.92 0 0 1 .44-5.15 6.47 6.47 0 0 1 0 2.59 6.7 6.7 0 0 1 -.44 2.56z"/><path d="m531 180.42a12.92 12.92 0 0 1 .46-5.15 6.37 6.37 0 0 1 0 2.59 6.81 6.81 0 0 1 -.46 2.56z"/><path d="m530.21 188c-.14 0-.19-.61-.11-1.28s.26-1.22.41-1.2.19.58.11 1.28-.27 1.27-.41 1.2z"/><path d="m561 192.27a6.26 6.26 0 0 1 -1.31 2.15c-.84 1.1-1.61 1.92-1.72 1.83s.47-1.05 1.31-2.15 1.64-1.91 1.72-1.83z"/><path d="m567.1 184.32a6.26 6.26 0 0 1 -1.31 2.15c-.83 1.09-1.61 1.91-1.72 1.83a6.26 6.26 0 0 1 1.31-2.15c.83-1.1 1.62-1.92 1.72-1.83z"/><path d="m573.16 176.37a6.08 6.08 0 0 1 -1.31 2.14c-.83 1.1-1.6 1.92-1.72 1.83a6.37 6.37 0 0 1 1.31-2.14c.84-1.1 1.61-1.92 1.72-1.83z"/><path d="m579.22 168.41c.12.09-.47 1.05-1.3 2.15s-1.61 1.92-1.73 1.83a6.26 6.26 0 0 1 1.31-2.15c.84-1.09 1.61-1.91 1.72-1.83z"/><path d="m579.69 225a7.36 7.36 0 0 1 -1.25-2.17 7.24 7.24 0 0 1 -.93-2.33 5.54 5.54 0 0 1 1.4 2.1 5.41 5.41 0 0 1 .78 2.4z"/><path d="m582.26 234.63a7.52 7.52 0 0 1 -.68-2.41 7.18 7.18 0 0 1 -.31-2.48 5.39 5.39 0 0 1 .83 2.38 5.52 5.52 0 0 1 .16 2.51z"/><path d="m582.59 244.61a6.29 6.29 0 0 1 -.21-2.5 6.46 6.46 0 0 1 .31-2.5 6 6 0 0 1 .21 2.51 6.26 6.26 0 0 1 -.31 2.49z"/><path d="m580.94 254.46a6.46 6.46 0 0 1 .27-2.5 6 6 0 0 1 .79-2.38 12.36 12.36 0 0 1 -1.06 4.88z"/><path d="m577.57 263.87a6.41 6.41 0 0 1 .71-2.42 6 6 0 0 1 1.18-2.21 6.1 6.1 0 0 1 -.7 2.41 6.24 6.24 0 0 1 -1.19 2.22z"/><path d="m572.64 272.56a6.55 6.55 0 0 1 1.11-2.26c.73-1.16 1.42-2.05 1.55-2a6.3 6.3 0 0 1 -1.11 2.26c-.74 1.19-1.43 2.08-1.55 2z"/><path d="m566.2 280.19c-.1-.11.58-1 1.52-2s1.79-1.74 1.9-1.65-.57 1-1.52 2-1.8 1.75-1.9 1.65z"/><path d="m558.3 286.3c-.07-.12.78-.86 1.91-1.64a6.21 6.21 0 0 1 2.2-1.21c.09.11-.76.84-1.9 1.64a6.18 6.18 0 0 1 -2.21 1.21z"/><path d="m549.35 290.73a6.4 6.4 0 0 1 2.19-1.24 6.66 6.66 0 0 1 2.4-.76 6.16 6.16 0 0 1 -2.19 1.24 6 6 0 0 1 -2.4.76z"/><path d="m539.71 293.37a12.16 12.16 0 0 1 4.88-1.09 6 6 0 0 1 -2.38.8 6.26 6.26 0 0 1 -2.5.29z"/><path d="m529.75 294.08a12.38 12.38 0 0 1 5-.11 11.92 11.92 0 0 1 -5 .11z"/><path d="m519.86 292.75a6.39 6.39 0 0 1 2.5.21 6.25 6.25 0 0 1 2.41.72 12.19 12.19 0 0 1 -4.91-.93z"/><path d="m586.45 233.24a12.15 12.15 0 0 1 -5 0 12.15 12.15 0 0 1 5 0z"/><path d="m596.45 233.24a12.15 12.15 0 0 1 -5 0 12.15 12.15 0 0 1 5 0z"/><path d="m605 233.24c0 .14-.79.26-1.76.26s-1.75-.12-1.75-.26.78-.26 1.75-.26 1.76.11 1.76.26z"/><path d="m572.24 281.13a6.33 6.33 0 0 1 -2.08-1.4c-1.06-.89-1.85-1.69-1.76-1.8s1 .51 2.09 1.4 1.85 1.67 1.75 1.8z"/><path d="m579.92 287.54a6.27 6.27 0 0 1 -2.08-1.41c-1.06-.88-1.85-1.69-1.76-1.8s1 .52 2.09 1.4 1.83 1.7 1.75 1.81z"/><path d="m587.6 293.94a6.33 6.33 0 0 1 -2.08-1.4c-1.07-.88-1.85-1.69-1.76-1.8a6.31 6.31 0 0 1 2.09 1.4c1.06.86 1.84 1.69 1.75 1.8z"/><path d="m594.41 299.62c-.1.11-.83-.36-1.65-1s-1.41-1.33-1.32-1.44.83.36 1.65 1 1.41 1.33 1.32 1.44z"/><path d="m532.59 298.6a12.15 12.15 0 0 1 0-5 12.15 12.15 0 0 1 0 5z"/><path d="m532.59 308.6a12.15 12.15 0 0 1 0-5 12.15 12.15 0 0 1 0 5z"/><path d="m532.59 318.6a12.15 12.15 0 0 1 0-5 12.15 12.15 0 0 1 0 5z"/><path d="m532.59 325.33c-.15 0-.26-.39-.26-.87s.11-.86.26-.86.26.38.26.86-.12.87-.26.87z"/></g><path d="m125.32 75.06 18.2-23.34 4.45 29.35 24.01-.81-17.8 23.37 23.64 18.27-30.18-11.2-4.22 29.38-20.25-19.7-25.51 17.73 5.59-25.78-28.96-4.56 22.52-13.3-13.13-22.64 22.86 12.96 2.39-32.09z" fill="#fafafa"/><path d="m154.18 103.63 1.62 1.22 4.69 3.59 17.84 13.69.61.47-.71-.3c-4.13-1.7-8.82-3.39-14-5.18s-10.73-3.69-16.57-6.09l.19-.11-4.47 29.16v.32l-.23-.23-20.2-19.81h.24l-25.13 17.47-.4.28.1-.47c1.66-8 3.43-16.61 5.25-25.38l.17.23-28.77-4.49-.57-.09.5-.29 19.54-11.39 3-1.77-.06.3c-2.5-3.64-4.7-7.43-6.85-11.19s-4.15-7.57-6.14-11.32l-.32-.61.6.34 22.89 12.85-.29.16q.57-8.38 1.13-16.49.25-4.05.49-8c.07-1.33.14-2.65.2-4 0-.65 0-1.31.08-2v-1-.48a2.7 2.7 0 0 1 0-.38l.23-.32.07.1 16.63 22.76h-.28l18-23.59.22-.3.06.37q2.59 16.16 4.69 29.19l-.14-.11 23.91-.68h.21l-.13.17-13.27 17.37-3.44 4.5-1.19 1.53 1.13-1.52 3.39-4.51 13.2-17.5.08.16-23.89.8h-.09v-.12q-2.12-13-4.74-29.18l.28.07-18 23.61-.14.19-.14-.19q-8-10.87-16.65-22.75l.3-.22a1.4 1.4 0 0 1 .09.59v.49 1c0 .65 0 1.31-.07 2-.07 1.32-.14 2.64-.2 4-.16 2.65-.33 5.33-.49 8q-.56 8.12-1.13 16.5v.31l-.27-.15-22.93-12.88.28-.27c2 3.76 4 7.54 6.18 11.31s4.34 7.54 6.83 11.15l.12.18-.19.12-3 1.76-19.59 11.36-.07-.38 28.77 4.53h.21v.19l-5.27 25.4-.3-.19 25.12-17.41.12-.09.11.11c7.09 7 13.86 13.62 20.17 19.84l-.27.09c1.63-10.56 3.16-20.4 4.52-29.15v-.18l.17.07c5.82 2.4 11.41 4.31 16.54 6.12s9.83 3.5 14 5.22l-.1.18-17.81-13.82-4.64-3.61z" fill="#263238"/><path d="m123.06 98.67a2.4 2.4 0 1 1 -2.4-2.4 2.39 2.39 0 0 1 2.4 2.4z" fill="#263238"/><path d="m130.39 98.67a2.4 2.4 0 1 1 -2.4-2.4 2.39 2.39 0 0 1 2.4 2.4z" fill="#263238"/><path d="m137.72 98.67a2.4 2.4 0 1 1 -2.4-2.4 2.4 2.4 0 0 1 2.4 2.4z" fill="#263238"/><path d="m453.48 144.14a75.06 75.06 0 0 1 -4-12.38 26.39 26.39 0 0 1 .29-12.89c.2-.63 1.91-4.88 2.57-4.85.47 0-.51 3.94-.25 4.34a22.27 22.27 0 0 1 3.25 12.86 58.23 58.23 0 0 1 -1.87 12.92" fill="#263238"/><path d="m477.08 193c-6.73.25-22.24-18.22-22.63-24.95l-2.34-40.46c-1-10.85 4.53-20.46 15.4-21.13h1a19.46 19.46 0 0 1 19.49 17.86c.8 9.41 1.55 19.81 1.51 24.86-.11 10.46-10.51 12.12-10.51 12.12s.08 2.42.22 5.48c.32 6.89 4.37 26-2.51 26.24z" fill="#ffbe9d"/><path d="m479 161.3a25.25 25.25 0 0 1 -13.63-4s3.3 7.85 13.73 6.87z" fill="#eb996e"/><path d="m485 132.37a1.5 1.5 0 0 1 -1.44 1.51 1.42 1.42 0 0 1 -1.54-1.34 1.48 1.48 0 0 1 1.43-1.51 1.43 1.43 0 0 1 1.55 1.34z" fill="#263238"/><path d="m485.79 128.94c-.19.2-1.32-.63-2.93-.62s-2.78.81-2.95.62.1-.44.61-.82a4.07 4.07 0 0 1 2.37-.73 3.85 3.85 0 0 1 2.32.74c.5.38.67.73.58.81z" fill="#263238"/><path d="m470.26 133a1.49 1.49 0 0 1 -1.44 1.51 1.42 1.42 0 0 1 -1.54-1.34 1.49 1.49 0 0 1 1.43-1.51 1.42 1.42 0 0 1 1.55 1.34z" fill="#263238"/><path d="m470 129.37c-.18.2-1.32-.63-2.92-.62s-2.78.81-3 .62.1-.44.62-.82a4.1 4.1 0 0 1 2.36-.74 4 4 0 0 1 2.33.75c.61.37.74.73.61.81z" fill="#263238"/><path d="m475.85 141.69a11.14 11.14 0 0 1 2.61-.48c.41 0 .79-.12.86-.4a2 2 0 0 0 -.28-1.22c-.38-1-.79-2-1.22-3.12-1.7-4.44-2.93-8.09-2.75-8.16s1.7 3.48 3.4 7.92l1.17 3.14a2.34 2.34 0 0 1 .22 1.61 1 1 0 0 1 -.67.6 2.68 2.68 0 0 1 -.7.1 10 10 0 0 1 -2.64.01z" fill="#263238"/><path d="m469.88 123.37c-.22.41-1.78 0-3.68-.05s-3.47.27-3.67-.16c-.08-.2.24-.57.9-.9a6.05 6.05 0 0 1 2.82-.57 5.94 5.94 0 0 1 2.78.73c.65.37.97.75.85.95z" fill="#263238"/><path d="m485.39 125.19c-.32.37-1.64 0-3.21 0s-2.9.3-3.21-.08c-.14-.18.06-.55.64-.91a5.41 5.41 0 0 1 5.18 0c.56.44.75.8.6.99z" fill="#263238"/><path d="m453 135.36c-.18-.08-7.19-2.1-6.94 5s7.38 5.41 7.38 5.21-.44-10.21-.44-10.21z" fill="#ffbe9d"/><path d="m451.16 143s-.13.09-.33.19a1.24 1.24 0 0 1 -.93 0 3.06 3.06 0 0 1 -1.53-2.71 4.14 4.14 0 0 1 .29-1.79 1.43 1.43 0 0 1 .9-1 .65.65 0 0 1 .75.31c.1.2.06.34.1.36s.15-.13.08-.42a.75.75 0 0 0 -.3-.44.93.93 0 0 0 -.69-.16 1.74 1.74 0 0 0 -1.26 1.16 4.07 4.07 0 0 0 -.36 2c.09 1.44.88 2.76 1.92 3a1.29 1.29 0 0 0 1.13-.23c.22-.11.25-.27.23-.27z" fill="#eb996e"/><path d="m482.85 112.69c1.13-.69-2.51-4.28-5.41-5.44-4.38-1.76-11-2.66-14.89-1.37-4.71 1.57-8.57 4.11-10.77 8.56a28.08 28.08 0 0 0 -2.51 14.48 8.48 8.48 0 0 0 1.2 4.32c1.06 1.53 3 2.44 3 4.63a3 3 0 0 0 .83 2.14c1.37 1.34 2.91 0 3.59-1.38 1.45-2.87 1.47-6.22 1.47-9.43a21.07 21.07 0 0 0 -.75-6.77c-.41-1.18-1-2.28-1.35-3.47a4.32 4.32 0 0 1 .34-3.59 4.09 4.09 0 0 1 .56-.61 7.45 7.45 0 0 1 7.33-1.74c4.08 1.25 11 3.07 12.78 1.62a10.94 10.94 0 0 0 3.05-3.38z" fill="#263238"/><path d="m471.48 142.75c-.1 0-.14.41 0 1a4 4 0 0 0 1.38 2 6.51 6.51 0 0 0 2.14 1.12c.58.18 1 .22 1 .13s-.26-.32-.78-.62a15.5 15.5 0 0 1 -1.88-1.21c-1.34-.98-1.63-2.48-1.86-2.42z" fill="#263238"/><path d="m543.43 256.32-50.07 3.37-1.65-16.68 60.6 2.21z" fill="#ffbe9d"/><path d="m579 201.79c0 .06.6 1.21.6 1.21-4 8.54-18.53 39.46-18.53 39.46l-19.07 10.34-46.71.25-.11-2.52 23.56-10.59 30-.6 14.68-32.63a2.92 2.92 0 0 1 2-1.65z" fill="#455a64"/><path d="m542 252.8a9.37 9.37 0 0 0 1.16-2c.66-1.23 1.54-2.95 2.48-4.85s1.77-3.65 2.35-4.92a10.57 10.57 0 0 0 .84-2.1 10.27 10.27 0 0 0 -1.15 2c-.66 1.23-1.54 2.95-2.48 4.86s-1.78 3.65-2.35 4.92a10.94 10.94 0 0 0 -.85 2.09z" fill="#263238"/><path d="m537.45 248.88-19.98.24 14.7-8.53 16.14-.36z" fill="#263238"/><path d="m495.16 250.53a1.56 1.56 0 0 0 .49 0h1.35l5.14-.09c4.34-.08 10.33-.12 16.95-.17s12.62-.15 17-.32c2.17-.08 3.93-.16 5.14-.24l1.39-.11a1.78 1.78 0 0 0 .49-.07 3.14 3.14 0 0 0 -.49 0h-1.4l-5.14.09c-4.33.07-10.33.12-17 .17s-12.62.15-17 .31c-2.17.08-3.92.17-5.13.25l-1.4.1a1.65 1.65 0 0 0 -.39.08z" fill="#263238"/><path d="m544.78 251.29a3.76 3.76 0 0 0 .31-.57c.21-.43.48-1 .81-1.69l2.91-6.22 9.41-20.63 7-15.57-.14.12 10.57-2.65 2.94-.77a6.46 6.46 0 0 0 1-.31 6.24 6.24 0 0 0 -1.05.19l-3 .66-10.54 2.48h-.1v.09l-7.12 15.58-9.29 20.68c-1.15 2.62-2.08 4.76-2.76 6.3l-.73 1.72a2.67 2.67 0 0 0 -.22.59z" fill="#263238"/><path d="m556.17 239.61s-.87-.79-2.43 1.4-4 8.49-4 8.49l-3 1.52s2.53-3.25 2.47-4.54-2.08-1.2-3.11.69a53.6 53.6 0 0 1 -4.1 5.63s1.19 3.69 1.46 3.52 5.32-.68 5.32-.68l1.36-.71s3.41-.15 3.55-1.08 5.59-5 5.55-5.88-.24-5.35-.24-5.35 2.3-6.38 1.72-7-2.97-1.9-4.55 3.99z" fill="#ffbe9d"/><path d="m555.8 239.53s.1 0 .25.06a.53.53 0 0 1 .32.51c-.18.68-.39 1.74-.61 3s-.46 2.84-.86 4.43a8 8 0 0 1 -1.5 2.89l-1.58 2.25a13.52 13.52 0 0 0 -1.36 2.15 12.69 12.69 0 0 0 1.64-2l1.67-2.18a13.62 13.62 0 0 0 .93-1.37 6.63 6.63 0 0 0 .67-1.67 38.76 38.76 0 0 0 .8-4.49c.16-1.16.31-2.18.43-3.06a.65.65 0 0 0 -.53-.61c-.19.02-.27.07-.27.09z" fill="#eb996e"/><path d="m557.11 250.33a32.72 32.72 0 0 0 1.87-7.71 16.73 16.73 0 0 0 -1.17 3.8 16.18 16.18 0 0 0 -.7 3.91z" fill="#eb996e"/><path d="m547.44 245.82s.14 0 .37.06a1.28 1.28 0 0 1 .83.28c.24.25.17.72-.06 1.22s-.47 1.11-.71 1.7l-.73 1.67c-.25.5-.53.92-.75 1.3a3.08 3.08 0 0 0 -.56 1.29c.07 0 .34-.42.85-1.1a12.1 12.1 0 0 0 .85-1.27c.25-.52.52-1.1.79-1.7s.46-1.16.68-1.73a2.45 2.45 0 0 0 .19-.85 1 1 0 0 0 -.31-.77 1.25 1.25 0 0 0 -1.08-.23c-.24.04-.37.1-.36.13z" fill="#eb996e"/><path d="m477 438.49-4.8 19.71s18.44 11.43 17.92 15.16l-38.54-7.82 6.13-31z" fill="#455a64"/><path d="m460.63 454.11a1.59 1.59 0 0 0 -1.45 1.57 1.55 1.55 0 0 0 1.54 1.46 1.7 1.7 0 0 0 1.53-1.68 1.6 1.6 0 0 0 -1.78-1.33" fill="#e0e0e0"/><path d="m451.58 465.54.74-3.1 36.68 8.66s1.57 1.09 1.13 2.26z" fill="#fff" opacity=".6"/><path d="m472.87 458.13c-.05.18-1 .08-2.05.5s-1.71 1.1-1.86 1 .34-1.14 1.62-1.62 2.36-.01 2.29.12z" fill="#263238"/><path d="m476.57 460.62c0 .19-.87.34-1.67 1s-1.16 1.47-1.35 1.42-.08-1.13.93-1.94 2.12-.66 2.09-.48z" fill="#263238"/><path d="m477.88 465.92c-.17 0-.25-1 .45-1.92s1.65-1.16 1.7-1-.61.61-1.17 1.39-.79 1.55-.98 1.53z" fill="#263238"/><path d="m473.45 453.52c-.11.15-.92-.28-2-.43s-2 0-2-.15.87-.69 2.13-.51 1.99.96 1.87 1.09z" fill="#263238"/><path d="m463.79 443.67v20.27s20.6 6.78 21 10.53l-39.29 1.45-1.33-31.57z" fill="#455a64"/><path d="m451.6 462.69a1.61 1.61 0 0 0 -1 1.87 1.55 1.55 0 0 0 1.85 1.05 1.7 1.7 0 0 0 1.09-2 1.59 1.59 0 0 0 -2-.88" fill="#e0e0e0"/><path d="m445.5 475.92v-3.19l37.68-.2s1.78.7 1.62 1.94z" fill="#fff" opacity=".6"/><path d="m464.45 463.71c0 .2-1 .32-1.88 1s-1.39 1.48-1.57 1.41.06-1.19 1.19-2 2.29-.58 2.26-.41z" fill="#263238"/><path d="m468.63 465.27c.05.18-.77.54-1.39 1.37s-.78 1.7-1 1.7-.35-1.08.44-2.1 1.94-1.16 1.95-.97z" fill="#263238"/><path d="m471.15 470.11c-.17.05-.47-.9 0-2s1.34-1.52 1.43-1.36-.45.74-.81 1.62-.43 1.72-.62 1.74z" fill="#263238"/><path d="m463.93 459.1c-.08.17-1-.06-2.05.06s-1.91.48-2 .32.68-.87 2-1 2.12.46 2.05.62z" fill="#263238"/><path d="m432.85 296.76.72 16 7.09 62.11s-1.32 30.35-2.19 47.48c-.76 14.88 2.73 40.58 2.73 40.58l25-1.12 5.08-86.46 3.14-53.92 8.58-24.87z" fill="#263238"/><path d="m500.12 296.59-2.19 87.14-22.37 66.22-.99 3.97-15.1-2.94 4.2-154.51z" fill="#263238"/><path d="m474.39 322.07s0 .12 0 .36 0 .61 0 1.06c0 1 0 2.33.05 4.08.06 3.54 0 8.67 0 15-.18 12.67-.81 30.17-2.14 49.46s-2.91 36.74-4.09 49.35c-.6 6.29-1.09 11.39-1.43 14.94-.18 1.74-.32 3.11-.42 4.06l-.12 1.05a2.52 2.52 0 0 1 -.05.36 1.39 1.39 0 0 1 0-.36c0-.26 0-.61.07-1.06.08-.95.18-2.32.32-4.07.31-3.55.75-8.65 1.29-14.95 1.1-12.62 2.66-30.06 3.95-49.35s2-36.77 2.28-49.44c.12-6.33.19-11.46.19-15 0-1.75 0-3.12 0-4.08 0-.45 0-.8 0-1.06a1.65 1.65 0 0 1 .1-.35z" fill="#455a64"/><path d="m451.79 297.5a3.06 3.06 0 0 1 -.06.92 13.65 13.65 0 0 1 -.6 2.45 16 16 0 0 1 -12 10.56 14.13 14.13 0 0 1 -2.5.29 3.27 3.27 0 0 1 -.93-.06c0-.09 1.32-.06 3.36-.55a16.63 16.63 0 0 0 11.77-10.35c.73-1.97.87-3.28.96-3.26z" fill="#455a64"/><path d="m475 300.25a1.29 1.29 0 0 1 -2.57.12 1.29 1.29 0 1 1 2.57-.12z" fill="#455a64"/><path d="m497.52 311.41a8.35 8.35 0 0 1 -1.84-1.58 19.93 19.93 0 0 1 -5.19-10.33 8.29 8.29 0 0 1 -.17-2.41c.08 0 .17.91.49 2.35a24.24 24.24 0 0 0 1.92 5.41 23.94 23.94 0 0 0 3.2 4.76c.96 1.12 1.64 1.74 1.59 1.8z" fill="#455a64"/><path d="m474.9 172.2-21.57-16.57-4.08 6.91s-17.53 14.1-20.8 18l7.24 60.11s-3.42 31.94-3.62 34.46-2.07 24.54-2.07 24.54c-.18 4.16 3.46 9 4.16 9 0 0 3.31-4.35 7.08-4.2s29.54 5.87 29.54 5.87l30.63-8.26-6-60.8-2.93-40.74-3.4-15.48-6.38-5.81-3.36-10.16s-.85 12.88-1 12.42-3.44-9.29-3.44-9.29z" fill="#ff725e"/><path d="m449.86 163.59a7.73 7.73 0 0 0 .88 1.1c.6.67 1.49 1.63 2.62 2.78 2.26 2.32 5.55 5.34 9.11 8.72 1.76 1.68 3.41 3.31 4.86 4.84l.17.18.17-.18c2.19-2.39 3.75-4.66 5-6.16l1.41-1.76a4.06 4.06 0 0 0 .49-.64 3 3 0 0 0 -.6.54c-.37.37-.89.94-1.52 1.68-1.27 1.46-2.89 3.69-5.08 6h.34c-1.44-1.55-3.08-3.2-4.85-4.88-3.58-3.4-6.89-6.37-9.21-8.61-1.16-1.11-2.09-2-2.73-2.67a8.07 8.07 0 0 0 -1.06-.94z" fill="#263238"/><path d="m489.91 271.71s0-.08 0-.23 0-.42 0-.69c-.07-.65-.16-1.53-.27-2.65-.26-2.34-.62-5.64-1.07-9.71-.94-8.2-2.28-19.52-3.84-32s-3.05-23.81-4.24-32c-.58-4.09-1.1-7.39-1.48-9.66-.21-1.11-.37-2-.48-2.62l-.14-.68a1 1 0 0 0 -.06-.22.58.58 0 0 0 0 .23c0 .19.05.41.09.69.09.64.22 1.52.38 2.63.32 2.33.78 5.62 1.33 9.67 1.09 8.18 2.53 19.49 4.09 32s3 23.77 4 32c.52 4.06.94 7.36 1.24 9.69q.23 1.68.36 2.64l.1.68a.79.79 0 0 0 -.01.23z" fill="#263238"/><path d="m496 246.91c-2.3 1.28-5 1.81-7.23 3.17a25.69 25.69 0 0 0 -4.33 3.61c-9.48 8.93-21.61 15.58-34.61 16.39-4.47.28-9.27-.25-12.73-3.08-1.9-1.56-3.32-4.06-2.72-6.44.73-2.91 3.93-4.33 6.74-5.35l26.29-9.52a120.82 120.82 0 0 1 16.87-5.2 61.23 61.23 0 0 1 11.72-1.23" opacity=".3"/><path d="m468.06 285.42c.08.12 6.35-3.64 14-8.4s13.83-8.7 13.76-8.82-6.35 3.64-14 8.4-13.82 8.7-13.76 8.82z" fill="#263238"/><path d="m489.38 305.37a6.56 6.56 0 0 0 -.09-1.26c-.09-.9-.2-2-.34-3.4-.26-2.87-.46-6.85-.6-11.26s-.31-8.39-.45-11.28c-.07-1.37-.14-2.51-.19-3.42a5.92 5.92 0 0 0 -.14-1.25 6.58 6.58 0 0 0 -.05 1.26v3.42c.05 2.89.15 6.88.3 11.29s.4 8.4.75 11.28c.17 1.44.35 2.59.49 3.39a6.17 6.17 0 0 0 .32 1.23z" fill="#263238"/><path d="m456.46 237.35c-2.63-8.53-2.86-18.45-3-27.31-1.31 6.15-2.67 15.53-3.69 22l2.8 6z" opacity=".3"/><path d="m478.28 181.5a4 4 0 0 1 -1-.7c-.93-1.22-1.48-2.7-2.39-3.93a70.3 70.3 0 0 0 -6.45 7.45c-3.25-3.1-6.51-6.21-9.48-9.59a77.74 77.74 0 0 1 -6.52-8.6l15.11 14.74 7.4-8.67z" opacity=".3"/><path d="m479 173.54a20.25 20.25 0 0 0 1.52 3.22 7.06 7.06 0 0 0 2.19 2.83c.09-.08-.87-1.32-1.76-3.06a10.17 10.17 0 0 0 -1.95-2.99z" fill="#263238"/><path d="m457.27 185a4 4 0 0 0 -.54-.91 16.4 16.4 0 0 0 -1.89-2.18 33.4 33.4 0 0 0 -3.25-2.78 14.85 14.85 0 0 0 -4.54-2.65 12.54 12.54 0 0 0 -5.26-.3 35.25 35.25 0 0 0 -4.19.83c-1.18.28-2.14.51-2.79.68a3.7 3.7 0 0 0 -1 .32 4.94 4.94 0 0 0 1.05-.13c.67-.11 1.63-.29 2.82-.52s2.59-.57 4.17-.72a12.55 12.55 0 0 1 5.06.32 15.17 15.17 0 0 1 4.42 2.54 41.33 41.33 0 0 1 3.28 2.66c1.77 1.67 2.59 2.93 2.66 2.84z" fill="#263238"/><path d="m488.32 232.17-.12 12.17s-17.63 9.23-29.28 12.79-25.53 3.71-25.53 3.71l4.06-19.95z" fill="#ffbe9d"/><path d="m523.26 233.09a2.56 2.56 0 0 0 -1.43-2.42c-1.6-.9-5-2.89-5-2.89l-10-.45-18.55 4.84-.12 12.17s9.56.1 11.77-.08 8.29-2.43 8.29-2.43 10.41.85 10.87.25 1.1-1.28.42-1.66-8.73-2.08-8.73-2.08l5.32-.65s7.88 1.29 8.44 1 1.26-1.29.73-2l-.52-.71a1.67 1.67 0 0 0 -.92-2l-.75-.21z" fill="#ffbe9d"/><path d="m509.08 233.58a6.51 6.51 0 0 0 2.41.29 24.86 24.86 0 0 1 5.75.24 30.38 30.38 0 0 1 3 1.11 23.19 23.19 0 0 0 2.51.79 8.44 8.44 0 0 0 2.4.37 22.72 22.72 0 0 0 -2.31-.69c-.7-.22-1.54-.51-2.45-.88a24.58 24.58 0 0 0 -3-1.15 11.63 11.63 0 0 0 -3.25-.28c-1 0-1.87.13-2.61.16-1.53.09-2.43-.03-2.45.04z" fill="#eb996e"/><path d="m509.82 230.75a5.17 5.17 0 0 0 2.16.18 11.49 11.49 0 0 1 5 .42c1.89.7 3.6 1.37 4.85 1.81a9.81 9.81 0 0 0 2.06.62 9.4 9.4 0 0 0 -1.93-.93c-1.23-.52-2.91-1.24-4.83-1.94a7.83 7.83 0 0 0 -2.87-.5 22.85 22.85 0 0 0 -2.33.19c-1.29.15-2.1.08-2.11.15z" fill="#eb996e"/><path d="m428.45 180.55s-5 8.76-5.61 12.95-.75 48.09.11 48.88a22.1 22.1 0 0 0 2.37 1.77s-4.73 1.25-3.16 3.68a44.28 44.28 0 0 0 3.1 4.23s1.08 8.06 2 8.23 6.07 2.8 6.07 2.8 14.19-8.49 15.31-12.71 3.88-12.65 3.88-12.65l-2.76-5.7 5.89-35.64s3.51-11.47-3.92-15.77-20.73-4.85-23.28-.07z" fill="#ff725e"/><path d="m454.52 203.15a2.21 2.21 0 0 0 -.13.54c-.07.39-.17.91-.3 1.57-.24 1.41-.6 3.4-1 5.91l-3.57 20.83v.07.07l2.74 5.7v-.18c-1.25 4-2.56 8.41-4 12.86l-.24.57-.36.53a7.62 7.62 0 0 1 -.8 1 11.21 11.21 0 0 1 -.89.93c-.3.31-.62.6-.94.88-1.27 1.15-2.61 2.18-3.95 3.17-2.68 2-5.36 3.72-7.93 5.3h.22c-1.29-.65-2.56-1.27-3.8-1.85-.63-.28-1.23-.56-1.87-.8l-.24-.09-.22-.06a.93.93 0 0 1 -.19-.27 6.45 6.45 0 0 1 -.32-.87 58.38 58.38 0 0 1 -1.34-6.91v-.05c-.78-.92-1.47-1.84-2.1-2.71-.31-.44-.61-.87-.88-1.28a4.19 4.19 0 0 1 -.34-.61 1.52 1.52 0 0 1 -.08-.63 2.75 2.75 0 0 1 1.54-1.72 9 9 0 0 1 1.81-.76h.18l-.15-.1c-.83-.53-1.43-1-1.83-1.26a7.16 7.16 0 0 0 -.59-.44l.13.14a4.54 4.54 0 0 0 .41.37 21.27 21.27 0 0 0 1.79 1.33v-.15a8.89 8.89 0 0 0 -1.88.73 5.53 5.53 0 0 0 -1 .68 2.1 2.1 0 0 0 -.69 1.19 1.78 1.78 0 0 0 .08.76 4.87 4.87 0 0 0 .36.68q.4.63.87 1.29c.62.89 1.3 1.82 2.09 2.77v-.09a56 56 0 0 0 1.28 7 5.91 5.91 0 0 0 .34.94 1 1 0 0 0 .41.48 2.15 2.15 0 0 0 .25.08l.23.08c.6.23 1.21.51 1.82.8 1.23.58 2.5 1.21 3.78 1.86l.12.06.11-.07c2.59-1.58 5.28-3.32 8-5.3a48.88 48.88 0 0 0 4-3.19c.33-.28.65-.57 1-.89s.63-.61.92-1a7.83 7.83 0 0 0 .83-1.05c.13-.19.26-.37.39-.57l.28-.65c1.42-4.5 2.71-8.84 4-12.87v-.09-.09c-.95-2-1.88-3.88-2.76-5.69v.13c1.37-8.5 2.53-15.71 3.35-20.84l.92-5.94c.09-.66.17-1.19.22-1.58a3.62 3.62 0 0 0 -.08-.65z" fill="#263238"/><path d="m425.08 244a2.2 2.2 0 0 0 .75.27 7 7 0 0 0 2.18.23 3.6 3.6 0 0 0 1.48-.45 10.86 10.86 0 0 0 1.47-.93c1-.72 2-1.58 3.08-2.41 2.19-1.67 4.26-3.09 5.74-4.14a17.09 17.09 0 0 0 2.36-1.77 15.9 15.9 0 0 0 -2.55 1.47c-1.54 1-3.65 2.36-5.86 4-1.11.84-2.11 1.72-3.05 2.44a5.81 5.81 0 0 1 -2.71 1.39 8 8 0 0 1 -2.1-.06 2.74 2.74 0 0 0 -.79-.04z" fill="#263238"/><path d="m425.26 252.06a2.6 2.6 0 0 0 .94.17 5 5 0 0 0 2.54-.58 42.58 42.58 0 0 0 7-4.86 66.62 66.62 0 0 0 6.06-6c.73-.8 1.31-1.46 1.7-1.92a3.87 3.87 0 0 0 .58-.76 25.44 25.44 0 0 0 -2.54 2.44c-1.52 1.54-3.62 3.67-6.12 5.82a52.91 52.91 0 0 1 -6.83 4.93 5.45 5.45 0 0 1 -2.38.7 5.41 5.41 0 0 0 -.95.06z" fill="#263238"/><path d="m441.94 235a17.21 17.21 0 0 1 -3.34 3.89l-6 5.67c-1.14 1.09-2.49 2.25-4 2.1a5.22 5.22 0 0 1 -2.21-.91c-.62-.39-1.31-1-1.17-1.7a6.09 6.09 0 0 0 5.24-.8 16.25 16.25 0 0 0 1.82-1.61 47.21 47.21 0 0 1 9.62-6.52" opacity=".3"/><path d="m487.33 244.46a6.66 6.66 0 0 0 1.23.09h3.34 5 2.94a7.85 7.85 0 0 0 1.56-.33l1.54-.44c2.13-.63 4.14-1.27 5.95-1.85h-.08c2.76.12 5.11.22 6.76.26h1.93a2.19 2.19 0 0 0 .69 0 3 3 0 0 0 -.68-.11l-1.92-.16c-1.66-.13-4-.29-6.75-.45l-6 1.8-1.53.45a7.88 7.88 0 0 1 -1.46.32h-2.93l-5 .09-3.35.1a5.44 5.44 0 0 0 -1.24.23z" fill="#eb996e"/><rect fill="#263238" height="417.54" rx="20.91" width="176.08" x="210.11" y="58.38"/><rect fill="#455a64" height="417.54" rx="22.55" width="176.08" x="195.87" y="58.55"/><path d="m345.4 65.21h-23.92c-3.21 0-5.81 3.21-5.8 7.19v5.14c0 4-2.6 7.19-5.81 7.18l-46.63-.06c-3.2 0-5.81-3.23-5.81-7.21v-5.17c0-4-2.6-7.2-5.81-7.2h-8.42-20.93c-10.4 0-18.83 10-18.82 22.28l.16 357.7c0 12.31 8.44 22.3 18.83 22.32l123.14.17c10.39 0 18.82-10 18.81-22.28l-.16-357.7c-.01-12.35-8.43-22.34-18.83-22.36z" fill="#fff"/><path d="m345.4 65.21h.73a11.68 11.68 0 0 1 2.15.23 17.33 17.33 0 0 1 7.65 3.56 22.61 22.61 0 0 1 4.22 4.6 23.6 23.6 0 0 1 3.16 6.84 25.44 25.44 0 0 1 .82 4.17 39.75 39.75 0 0 1 .19 4.55q0 4.71 0 10c0 28.32.08 69.29.13 119.91s.09 110.92.14 177.85q0 12.55 0 25.41 0 6.42 0 12.92v6.52a53.59 53.59 0 0 1 -.2 6.57 23.94 23.94 0 0 1 -1.6 6.44 21.91 21.91 0 0 1 -3.3 5.79 20.5 20.5 0 0 1 -4.94 4.53 16.78 16.78 0 0 1 -6.29 2.42 43.64 43.64 0 0 1 -6.75.25h-6.75-13.6l-55.55-.07h-28.41-14.35a17.27 17.27 0 0 1 -7.11-1.45 18.77 18.77 0 0 1 -5.94-4.2 23.72 23.72 0 0 1 -6.18-13 46.09 46.09 0 0 1 -.32-7.22v-7.23q0-14.31 0-28.42 0-28.21 0-55.57c0-36.42 0-71.56 0-105s0-65.28 0-95v-63.46c.06-6.65 2.61-13.24 7.36-17.57a17.49 17.49 0 0 1 8.28-4.35 13.93 13.93 0 0 1 2.31-.31c.78-.06 1.54-.07 2.3-.06h4.55 17.58 4.25 2.11a5.16 5.16 0 0 1 2 .62 6.66 6.66 0 0 1 2.77 3.1 9.15 9.15 0 0 1 .78 4v4a9.39 9.39 0 0 0 .56 3.81 6.58 6.58 0 0 0 2.21 3 4.73 4.73 0 0 0 1.65.82 6.26 6.26 0 0 0 1.84.18l28 .06h12.36 5.79a5.39 5.39 0 0 0 4.37-2.69 8.51 8.51 0 0 0 1.21-4.76c0-1.67 0-3.29 0-4.86a8.35 8.35 0 0 1 1.29-4.35 5.93 5.93 0 0 1 3.35-2.55 7.7 7.7 0 0 1 2-.15h5.54 6.25 8.47 2.89-2.89-20.23a7.71 7.71 0 0 0 -2 .15 5.81 5.81 0 0 0 -3.25 2.66 8.24 8.24 0 0 0 -1.26 4.26v4.84a8.6 8.6 0 0 1 -1.25 5 5.59 5.59 0 0 1 -4.49 2.79h-18.13-28a7 7 0 0 1 -1.92-.18 5.52 5.52 0 0 1 -1.75-.87 6.91 6.91 0 0 1 -2.31-3.14 9.62 9.62 0 0 1 -.59-3.91c0-1.32 0-2.65 0-4a8.65 8.65 0 0 0 -.75-3.88 6.44 6.44 0 0 0 -2.63-3 4.93 4.93 0 0 0 -1.91-.58c-.67 0-1.39 0-2.09 0h-4.25-17.58-4.55a21.7 21.7 0 0 0 -2.28.06 12.39 12.39 0 0 0 -2.26.3 17.12 17.12 0 0 0 -8.1 4.27c-4.66 4.25-7.17 10.75-7.22 17.3s0 13.39 0 20.3q0 20.73 0 43.07c0 29.77.05 61.58.07 95s0 68.61.06 105q0 27.33 0 55.57 0 14.1 0 28.42v7.16a45.86 45.86 0 0 0 .31 7.14 23.2 23.2 0 0 0 6 12.69 18.44 18.44 0 0 0 5.77 4.09 16.87 16.87 0 0 0 6.9 1.4h14.35 28.42l55.54.08h13.6 6.75a42 42 0 0 0 6.66-.24 16.38 16.38 0 0 0 6.11-2.34 19.86 19.86 0 0 0 4.81-4.42 21.16 21.16 0 0 0 3.24-5.67 23.66 23.66 0 0 0 1.57-6.3 56.6 56.6 0 0 0 .2-6.52q0-3.27 0-6.52v-12.75q0-12.85 0-25.41c0-66.93 0-127.22 0-177.84s0-91.6 0-119.92q0-5.31 0-10a39.25 39.25 0 0 0 -.04-4.55 25.42 25.42 0 0 0 -.8-4.15 23 23 0 0 0 -3.12-6.8 22.21 22.21 0 0 0 -4.18-4.6 17.43 17.43 0 0 0 -7.59-3.52 13.2 13.2 0 0 0 -2.14-.26z" fill="#263238"/><path d="m245.31 430.13-2.63 38.91 16.79 2.06 8.04-39.73z" fill="#aa6550"/><path d="m242.89 463.9-.16 1.11s-19.92 5.06-20.6 8.62l37.56 4.84 1.1-12.56a21.69 21.69 0 0 1 -17.9-2.01z" fill="#ff725e"/><path d="m256.47 469.41a1.56 1.56 0 0 1 .84 1.89 1.48 1.48 0 0 1 -1.86.84 1.63 1.63 0 0 1 -.88-2 1.55 1.55 0 0 1 2-.66" fill="#fff"/><path d="m259.69 478.47.27-3-36.1-3.53s-1.77.51-1.73 1.71z" fill="#fff"/><path d="m242.59 465.1c0 .19.89.39 1.71 1.09s1.21 1.54 1.39 1.49 0-1.14-1-2-2.12-.75-2.1-.58z" fill="#263238"/><path d="m238.44 466.22c-.07.18.69.59 1.21 1.45s.6 1.7.78 1.71.43-1-.24-2.06-1.73-1.27-1.75-1.1z" fill="#263238"/><path d="m235.59 470.65c.16.06.54-.82.19-1.89s-1.14-1.57-1.24-1.43.36.75.63 1.63.24 1.65.42 1.69z" fill="#263238"/><path d="m313.14 116.93c.41-2.69 2.83-4.75 5.47-5.4a14.11 14.11 0 0 1 8 .81 19.22 19.22 0 0 1 7.7 4.78 11.61 11.61 0 0 1 3.25 8.3c-.16 2.85-1.58 5.72-.78 8.46.6 2.09 2.36 3.61 4.13 4.87s3.69 2.44 4.88 4.25 1.39 4.52-.22 6c-1.43 1.3-4 1.45-4.6 3.28-.38 1.14.26 2.33.61 3.48a9.08 9.08 0 0 1 -1.17 7.28 15.41 15.41 0 0 1 -5.58 5c-3.87 2.18-8.7 3.2-12.79 1.46a12.36 12.36 0 0 1 -5-4.14 19.46 19.46 0 0 1 -3.33-10.31 58.2 58.2 0 0 1 .71-10.94" fill="#263238"/><path d="m311.72 160.41a11.25 11.25 0 0 0 14.28-11.11c-.07-3.26-1.54-6.58-.53-9.68.7-2.13 2.48-3.79 3.08-6 .89-3.23-1.06-6.48-2.92-9.26a21.43 21.43 0 0 0 -4.07-5 7.33 7.33 0 0 0 -6-1.76" fill="#263238"/><path d="m281.64 118c.18 2.46-1.45 4.66-3.09 6.51s-3.46 3.77-3.81 6.22c-.63 4.33 3.61 8.35 2.73 12.64-.46 2.29-2.35 4.14-2.68 6.46s.88 4.44 2.37 6.15 3.31 3.14 4.63 5c0 0 2.74 4.51 11.2 1.62" fill="#263238"/><path d="m319.48 121.75c.07-2.24-2-4-4.08-4.78s-4.39-1.13-6.24-2.37c-1.64-1.11-2.74-2.83-4.13-4.24a13.75 13.75 0 0 0 -23.13 6.31c-.8 3.18-.26 6.94 2.25 9.06 2.91 2.45 7.23 1.9 11 1.14s7.95-1.52 11.06.67c1.88 1.32 3 3.47 4.11 5.46s2.58 4 4.75 4.76 5.12-.54 5.2-2.83" fill="#263238"/><path d="m310.68 122.21a3.72 3.72 0 0 1 3.32 3.79l-2.23 50.47c-.09 6-8.8 9.31-15.19 9.16-6.44-.15-6.65-3.31-6.73-9-.13-9.47-.12-13-.13-13s-8.14-1.37-9.8-12c-.83-5.29-.54-14-.08-21 .42-6.38 4.66-14.19 11-13.5z" fill="#aa6550"/><path d="m281.73 137.64a1.36 1.36 0 0 0 1.27 1.36 1.31 1.31 0 0 0 1.41-1.23 1.35 1.35 0 0 0 -1.31-1.37 1.3 1.3 0 0 0 -1.37 1.24z" fill="#263238"/><path d="m281.38 134c.17.18 1.2-.58 2.67-.58s2.54.75 2.7.57-.1-.4-.56-.74a3.72 3.72 0 0 0 -4.29 0c-.45.36-.6.68-.52.75z" fill="#263238"/><path d="m295.35 137.9a1.36 1.36 0 0 0 1.31 1.38 1.31 1.31 0 0 0 1.41-1.23 1.37 1.37 0 0 0 -1.31-1.38 1.31 1.31 0 0 0 -1.41 1.23z" fill="#263238"/><path d="m296.13 134.74c.17.18 1.21-.59 2.67-.58s2.54.74 2.7.56-.09-.4-.56-.74a3.77 3.77 0 0 0 -2.16-.67 3.64 3.64 0 0 0 -2.13.68c-.45.35-.6.67-.52.75z" fill="#263238"/><path d="m290.79 146.33a9.23 9.23 0 0 0 -2.38-.44c-.38 0-.73-.11-.8-.37a1.93 1.93 0 0 1 .26-1.11l1.11-2.85c1.55-4.05 2.67-7.39 2.5-7.45s-1.55 3.18-3.09 7.23c-.38 1-.73 2-1.07 2.87a2.19 2.19 0 0 0 -.2 1.47 1 1 0 0 0 .62.55 2.64 2.64 0 0 0 .63.09 10.06 10.06 0 0 0 2.42.01z" fill="#263238"/><path d="m289.73 163.68a27.08 27.08 0 0 0 14.27-3.77s-3.6 7.3-14.24 6.28z" fill="#724940"/><path d="m295.49 131.17c.14.4 1.61.21 3.33.42s3.11.69 3.34.33c.1-.17-.14-.55-.7-.93a5.47 5.47 0 0 0 -2.48-.87 5.4 5.4 0 0 0 -2.6.3c-.63.25-.95.58-.89.75z" fill="#263238"/><path d="m281.6 130.76c.29.33 1.44 0 2.81 0s2.55.23 2.82-.12c.11-.17-.07-.5-.58-.82a4.27 4.27 0 0 0 -2.29-.55 4.19 4.19 0 0 0 -2.24.66c-.49.32-.65.67-.52.83z" fill="#263238"/><path d="m318.1 157.16a9.44 9.44 0 0 1 -11.23-10.43c.33-2.61 1.74-5.27.83-7.74-1.19-3.26-5.77-4.27-7-7.52-.71-1.9-.08-4.11-.88-6s-2.59-2.75-4.37-3.4-3.71-1.09-5.21-2.26-2.43-3.36-1.47-5a100.83 100.83 0 0 1 23.23 5.67c1.74.65 3.56 1.43 4.58 3s1 3.74.94 5.69q-.66 14.31-1.33 28.62" fill="#263238"/><path d="m323.71 122.64a.87.87 0 0 1 .18.43 1.65 1.65 0 0 1 -.41 1.28 2.67 2.67 0 0 1 -1.9 1 6.22 6.22 0 0 1 -2.7-.8 7.5 7.5 0 0 0 -3.1-.92 16.6 16.6 0 0 0 -3.75.34 25.14 25.14 0 0 1 -4.24.55 6.11 6.11 0 0 1 -4.35-1.59 12.82 12.82 0 0 1 -2.51-3.88 20.1 20.1 0 0 0 -2-3.65 6 6 0 0 0 -6.14-2.24 6.26 6.26 0 0 0 -3.7 2.74 14.75 14.75 0 0 0 -.77 1.57s0-.16.08-.45a5.55 5.55 0 0 1 .51-1.23 6.21 6.21 0 0 1 10.41-.7 19 19 0 0 1 2.12 3.72 12.43 12.43 0 0 0 2.4 3.72 5.61 5.61 0 0 0 4 1.45 25.57 25.57 0 0 0 4.16-.51 16.12 16.12 0 0 1 3.87-.29 7.68 7.68 0 0 1 3.24 1 5.91 5.91 0 0 0 2.51.84 2.46 2.46 0 0 0 1.74-.79 1.55 1.55 0 0 0 .47-1.12c-.07-.31-.15-.46-.12-.47z" fill="#455a64"/><path d="m324.91 123.65c-.14.12-1.77-2.59-5-4.43a20.85 20.85 0 0 0 -6.36-2.11 5 5 0 0 1 2 0 13.24 13.24 0 0 1 4.62 1.61 12.92 12.92 0 0 1 3.71 3.18 5.13 5.13 0 0 1 1.03 1.75z" fill="#455a64"/><path d="m313 116.56s0 .12-.15.31a3.06 3.06 0 0 1 -.68.72 4.64 4.64 0 0 1 -3.52.79 8.88 8.88 0 0 1 -4.6-2.75c-1.44-1.4-2.77-3.2-4.72-4.31a8.38 8.38 0 0 0 -6.1-.78 8.11 8.11 0 0 0 -4.23 2.76 8.88 8.88 0 0 0 -1.62 3.09c-.23.81-.27 1.27-.32 1.27s0-.12 0-.34a6.11 6.11 0 0 1 .14-1 8.12 8.12 0 0 1 1.52-3.27 8.21 8.21 0 0 1 4.43-3 8.72 8.72 0 0 1 6.49.79c2.09 1.2 3.42 3.05 4.82 4.43a8.62 8.62 0 0 0 4.24 2.73 4.6 4.6 0 0 0 3.33-.58 6.45 6.45 0 0 0 .97-.86z" fill="#455a64"/><path d="m312.49 161.72a1.4 1.4 0 0 0 .47.13 8.22 8.22 0 0 0 1.4.14 10.81 10.81 0 0 0 5-1.13 11.62 11.62 0 0 0 5.35-5.41 13.38 13.38 0 0 0 .91-9.26 27.69 27.69 0 0 1 -.94-4.66 7.32 7.32 0 0 1 1.06-4.12 15.36 15.36 0 0 0 1.64-3.77 8.82 8.82 0 0 0 .1-3.6 9.46 9.46 0 0 0 -2.19-4.66 7.6 7.6 0 0 0 -1-1c-.26-.19-.4-.28-.41-.26s.5.45 1.24 1.39a9.72 9.72 0 0 1 1.94 4.57 8.32 8.32 0 0 1 -.17 3.41 14.75 14.75 0 0 1 -1.65 3.61 11 11 0 0 0 -.89 2.07 7.17 7.17 0 0 0 -.26 2.36 26.12 26.12 0 0 0 .93 4.77 12.94 12.94 0 0 1 -.81 8.86 11.28 11.28 0 0 1 -5 5.27 11.41 11.41 0 0 1 -4.83 1.29c-1.22.06-1.88-.06-1.89 0z" fill="#455a64"/><path d="m331.31 114.67a3.5 3.5 0 0 0 -1.81-.94 7.26 7.26 0 0 0 -4.92.38 7.17 7.17 0 0 0 -3.49 3.48 3.43 3.43 0 0 0 -.47 2c.1 0 .26-.74.86-1.79a7.36 7.36 0 0 1 7.92-3.63c1.18.22 1.86.59 1.91.5z" fill="#455a64"/><path d="m323.46 121.38a6.89 6.89 0 0 0 0-.7 3.55 3.55 0 0 1 .47-1.86 5.11 5.11 0 0 1 2.2-2.07 4.6 4.6 0 0 1 3.89-.1 7.15 7.15 0 0 1 3.47 3.33 10.55 10.55 0 0 1 1.08 5.5 36.65 36.65 0 0 1 -1 6.3 26.89 26.89 0 0 0 -.82 6.92 21.22 21.22 0 0 0 1.8 6.75 57.77 57.77 0 0 1 2.31 6 13.13 13.13 0 0 1 .48 5.64 16.81 16.81 0 0 1 -1.47 4.76 37.85 37.85 0 0 1 -3.9 6.17c-.48.65-.88 1.17-1.19 1.6s-.41.56-.39.58a4 4 0 0 0 .49-.5c.3-.35.74-.86 1.29-1.53a34.41 34.41 0 0 0 4.1-6.13 16.69 16.69 0 0 0 1.59-4.87 13.39 13.39 0 0 0 -.44-5.88 56.2 56.2 0 0 0 -2.29-6 20.49 20.49 0 0 1 -1.75-6.55c-.19-4.66 1.7-9 1.77-13.17a11.17 11.17 0 0 0 -1.21-5.77 7.51 7.51 0 0 0 -3.77-3.49 4.93 4.93 0 0 0 -4.21.2 5.23 5.23 0 0 0 -2.26 2.27 3.5 3.5 0 0 0 -.38 2 2.25 2.25 0 0 0 .14.6z" fill="#455a64"/><path d="m291.34 149.89a7.19 7.19 0 0 0 .91 1.79 2.38 2.38 0 0 0 1.69 1 2.13 2.13 0 0 0 1.81-1 3.43 3.43 0 0 0 .5-2.05c0-.65-.32-1.42-1-1.5a1.67 1.67 0 0 0 -.78.17l-3.38 1.38" fill="#724940"/><path d="m292.69 152.67a4.64 4.64 0 0 0 1.8-.22 2.59 2.59 0 0 0 1.37-1.24 2.63 2.63 0 0 0 -.25-2.71c-.14-.14-.11-.14-.26-.12a5.14 5.14 0 0 0 -.54.22l-.56.22c-.72.29-1.37.55-1.93.76a6 6 0 0 1 -1.84.55 6.25 6.25 0 0 1 1.68-.95c.53-.25 1.16-.55 1.88-.87l.54-.24a5.54 5.54 0 0 1 .62-.26.73.73 0 0 1 .5 0 .87.87 0 0 1 .37.29 2.46 2.46 0 0 1 .38.64 3.15 3.15 0 0 1 -.1 2.71 2.9 2.9 0 0 1 -1.71 1.38 2.78 2.78 0 0 1 -1.47.06c-.33-.07-.49-.18-.48-.22z" fill="#263238"/><path d="m330.31 282.36c0 .12.05.26.07.38-.05-.41-.09-.74-.07-.38z" fill="#263238"/><path d="m340.26 291.47 1.5 13.25 12.13 11.08a3.92 3.92 0 0 0 .47-3.05c-.55-1.38 2.77 1.8 2.77 1.8v7.62s2.08.83 2.77-1 1.11-8.31 1.11-8.31l-1-.69a3.57 3.57 0 0 0 1-3.05 10.91 10.91 0 0 0 .69-5.54 16.66 16.66 0 0 0 -1.25-4.84l-9.93-11.09z" fill="#aa6550"/><path d="m346.35 304.23a21.2 21.2 0 0 0 3.58 4.45 20.88 20.88 0 0 0 4.36 3.7c.09-.11-1.81-1.81-4-4.06s-3.82-4.19-3.94-4.09z" fill="#724940"/><path d="m354.87 306.65a18.93 18.93 0 0 0 2.88 3.32 18.7 18.7 0 0 0 3.26 3 19.59 19.59 0 0 0 -2.89-3.32 19.29 19.29 0 0 0 -3.25-3z" fill="#724940"/><path d="m356.51 303.61a31.32 31.32 0 0 0 2.29 2.73 31.81 31.81 0 0 0 2.21 2.79 8.05 8.05 0 0 0 -1.82-3.12 8.21 8.21 0 0 0 -2.68-2.4z" fill="#724940"/><path d="m357.9 300.48a12.76 12.76 0 0 0 1.8 2.19c1 1.17 1.79 2.18 1.92 2.1a6.26 6.26 0 0 0 -1.53-2.43 5.94 5.94 0 0 0 -2.19-1.86z" fill="#724940"/><path d="m268.64 141.71a20.45 20.45 0 0 1 -4.43-1.72 20 20 0 0 1 -4.2-2.23 20.45 20.45 0 0 1 4.43 1.72 20 20 0 0 1 4.2 2.23z" fill="#455a64"/><path d="m254.63 162.07c-1 0-3.42 1.41-5.37 4.09l-.1.12c-1.39 1.8-2.69-3.35-2.92-5.26a2 2 0 0 0 -2.72-1.56l-6.43 3-1.88.07a1.91 1.91 0 0 0 -1.23 2.27l3.08 10.2.06 2.77 12.88 1.72.2-7c.19-.8.45-1.75.79-2.83a8.79 8.79 0 0 1 1.42-2.71 15.87 15.87 0 0 1 2.32-2.54 1.59 1.59 0 0 1 .21-.15 1 1 0 0 0 .36-.32 1.11 1.11 0 0 0 -.67-1.87z" fill="#aa6550"/><path d="m254.38 130.76s-7.52-1.44-18.33-11.26-16.13-23.11-17.41-23-7-2.35-17 21.21-5.66 28.84-3.54 28.74 16.46-4.54 25.51-3.77 20.79 5.14 20.79 5.14z" fill="#ff725e"/><path d="m270.62 143-2.42 4.92-1.08 2.2a6.33 6.33 0 0 1 -8.16 3l-16.18-5.12 8.72-21.57 16.25 8.08a6.34 6.34 0 0 1 2.87 8.49z" fill="#263238"/><path d="m261.6 151-4.82 10.15-2.58-.64-16.28 14-4.92-9s9.73-4.52 11.45-8.09-.4-4.3-.4-4.3l4.49-5.4z" fill="#263238"/><path d="m202.5 118.11c-5.33 12.76-7.38 24-4.58 25.22s9.4-8.22 14.73-21 7.39-24 4.58-25.23-9.4 8.25-14.73 21.01z" fill="#263238"/><path d="m272.19 149.95-4.38-1.24 2.54-5.18 3.32 1.93z" fill="#455a64"/><path d="m247 149.63 11.88 7.11 1.37-2.89z" opacity=".3"/><path d="m267.39 144.79a24.68 24.68 0 0 1 -4.89-1.74 25 25 0 0 1 -4.68-2.26 23.4 23.4 0 0 1 4.9 1.74 24.65 24.65 0 0 1 4.67 2.26z" fill="#455a64"/><path d="m265.8 148a3.6 3.6 0 0 1 -1.37-.26c-.42-.12-.91-.26-1.45-.44s-1.11-.44-1.71-.69a18.16 18.16 0 0 1 -4.19-2.2 23.42 23.42 0 0 1 4.41 1.68c.6.25 1.15.53 1.68.74s1 .37 1.38.53c.79.36 1.27.64 1.25.64z" fill="#455a64"/><path d="m214 115s-6.61-3.85-9.91 5 3.57 10.13 3.57 10.13a58.66 58.66 0 0 0 6.34-15.13z" fill="#fafafa"/><path d="m220.63 104.32a9 9 0 0 1 -.2 1.68c-.18 1.08-.42 2.65-.79 4.57-.24 1-.52 2-.81 3.1-.14.55-.3 1.13-.45 1.72l-.24.9c-.09.31-.21.6-.31.91-.44 1.22-.89 2.5-1.36 3.83l-.36 1c-.12.34-.29.66-.43 1l-.91 2-.91 2c-.16.33-.29.67-.46 1l-.52.94-2 3.55c-.16.28-.31.57-.47.84l-.52.77c-.34.51-.67 1-1 1.49-.64 1-1.24 1.84-1.78 2.66-1.2 1.54-2.21 2.76-2.9 3.6a9.52 9.52 0 0 1 -1.13 1.27 9.91 9.91 0 0 1 1-1.4l2.75-3.71 1.72-2.68 1-1.49.51-.77c.16-.27.3-.56.46-.84.61-1.13 1.26-2.32 1.93-3.54.16-.31.33-.62.5-.93s.3-.65.46-1l.9-2 .91-2c.14-.33.31-.65.43-1l.36-1 1.38-3.79c.11-.3.23-.6.32-.9s.17-.6.25-.89c.16-.59.32-1.15.48-1.71l.87-3.06c.4-1.88.72-3.42 1-4.51a11.78 11.78 0 0 1 .32-1.61z" fill="#263238"/><path d="m241.27 157.52a1.47 1.47 0 0 0 -.77 1.84c.5 1.4 1.3 3.6 1.89 4.93a3.92 3.92 0 0 0 .74 1.19 1.24 1.24 0 0 0 1.25.35 1.37 1.37 0 0 0 .75-1.19 4.06 4.06 0 0 0 -.27-1.46c-.42-1.31-1.15-3.27-1.77-4.87a1.37 1.37 0 0 0 -1.82-.79z" fill="#aa6550"/><path d="m239.32 160.1a1.49 1.49 0 0 0 -.78 1.85c.5 1.4 1.3 3.6 1.9 4.93a3.82 3.82 0 0 0 .73 1.19 1.26 1.26 0 0 0 1.26.34 1.33 1.33 0 0 0 .74-1.19 3.88 3.88 0 0 0 -.26-1.46c-.43-1.31-1.15-3.27-1.78-4.86a1.37 1.37 0 0 0 -1.81-.8z" fill="#aa6550"/><path d="m237.43 161.74a1.27 1.27 0 0 0 -.7 1.6c.45 1.21 1.17 3.12 1.72 4.27a3.19 3.19 0 0 0 .66 1 1.15 1.15 0 0 0 1.13.3 1.17 1.17 0 0 0 .68-1 3.29 3.29 0 0 0 -.24-1.27c-.38-1.13-1-2.83-1.61-4.21a1.25 1.25 0 0 0 -1.64-.69z" fill="#aa6550"/><path d="m235 162.29a1.26 1.26 0 0 0 -.7 1.61c.45 1.22 1.17 3.13 1.72 4.29a3.06 3.06 0 0 0 .67 1 1.15 1.15 0 0 0 1.13.3 1.17 1.17 0 0 0 .68-1 3.12 3.12 0 0 0 -.24-1.27c-.38-1.14-1.05-2.85-1.61-4.24a1.28 1.28 0 0 0 -1.65-.69z" fill="#aa6550"/><path d="m243 165.54a7.8 7.8 0 0 1 -1.31-2.46 7.7 7.7 0 0 1 -.83-2.65 7.32 7.32 0 0 1 1.31 2.45 7.66 7.66 0 0 1 .83 2.66z" fill="#724940"/><path d="m240.86 167.68a19.31 19.31 0 0 1 -2.32-5.85 9.67 9.67 0 0 1 1.4 2.83 9.33 9.33 0 0 1 .92 3.02z" fill="#724940"/><path d="m238.64 168a6.45 6.45 0 0 1 -1.42-2.44 6.34 6.34 0 0 1 -.73-2.72 9.89 9.89 0 0 1 1.21 2.52 9.65 9.65 0 0 1 .94 2.64z" fill="#724940"/><path d="m332.44 364.29-6.79-54.49c4.42-10.33 6-20.65 4.73-27.06.08.67.11 1.5-.07-.38-1.1-11.35-10.9-19.69-10.9-19.69l-3.28-13.77-42 5.9 1.59 23.05-27.12 95.62-4.93 80.83 21.93 2.57s8.6-40.42 10.91-57.31a233 233 0 0 0 2.18-27.63l20.6-30.83c2.44 12.73 5.2 28.43 6.62 36.63a21.58 21.58 0 0 0 4.57 10l53.91 42.43v-25.59c-5.13-12.24-31.95-40.28-31.95-40.28z" fill="#263238"/><path d="m279.56 271.91a9.71 9.71 0 0 1 -.88-2.29 42 42 0 0 1 -1.3-5.75 41.43 41.43 0 0 1 -.46-5.89 9.94 9.94 0 0 1 .16-2.44 13.15 13.15 0 0 1 .21 2.43c.09 1.5.27 3.56.61 5.82s.78 4.28 1.14 5.73a14.88 14.88 0 0 1 .52 2.39z" fill="#455a64"/><path d="m281.5 256.23s.16-.16.54-.24a2.47 2.47 0 0 1 1.61.23 2.5 2.5 0 0 1 1.43 2 2.84 2.84 0 0 1 -1.34 2.64 2.61 2.61 0 0 1 -2.94-.27 2.48 2.48 0 0 1 -1-2.2 3.78 3.78 0 0 1 .47-1.54c.17-.34.3-.5.33-.48s0 .21-.15.56a4.86 4.86 0 0 0 -.29 1.47 2.2 2.2 0 0 0 .92 1.81 2.16 2.16 0 0 0 2.38.21 2.43 2.43 0 0 0 1.13-2.16 2.17 2.17 0 0 0 -1.12-1.68 3.16 3.16 0 0 0 -1.97-.35z" fill="#455a64"/><path d="m309.08 267.34s-.25.14-.74.31a12.45 12.45 0 0 1 -2.12.48 15.76 15.76 0 0 1 -3.23.11 18.16 18.16 0 0 1 -3.89-.74 18.49 18.49 0 0 1 -3.61-1.64 15.6 15.6 0 0 1 -2.58-1.95 12 12 0 0 1 -1.45-1.62c-.31-.41-.46-.65-.43-.67s.76.84 2.13 2a18.29 18.29 0 0 0 2.57 1.82 19.45 19.45 0 0 0 3.53 1.55 19 19 0 0 0 3.77.76 16.5 16.5 0 0 0 3.15 0c1.82-.16 2.87-.5 2.9-.41z" fill="#455a64"/><path d="m322.57 308.47a3.87 3.87 0 0 1 -.45.64l-1.39 1.77c-1.16 1.57-2.84 3.83-4.86 6.68-4.05 5.68-9.52 13.63-15.51 22.44s-11.36 16.78-15.27 22.61l-4.64 6.84c-.54.77-1 1.39-1.28 1.85a4.24 4.24 0 0 1 -.48.63 5 5 0 0 1 .39-.69l1.2-1.9 4.5-6.94c3.83-5.84 9.16-13.88 15.15-22.69s11.51-16.73 15.64-22.37c2.06-2.82 3.79-5 5-6.59l1.43-1.75a6.41 6.41 0 0 1 .57-.53z" fill="#455a64"/><path d="m315.18 186.36c.08 0 .08-1.05.36-2.71a18.67 18.67 0 0 1 2.2-6.11 10.33 10.33 0 0 1 4.46-4.54 6 6 0 0 1 2.62-.41 1.5 1.5 0 0 0 -.73-.2 4.5 4.5 0 0 0 -2 .28 10 10 0 0 0 -4.77 4.62 17 17 0 0 0 -2.11 6.32 8.06 8.06 0 0 0 -.03 2.75z" fill="#263238"/><path d="m311.72 170.17-22 3.4-3.9 3.43s-13.82 26.9-14.09 32.34c-.28 6 2.94 16.33 2.94 16.33l-3.16 23.8c-.47 2.73 1.31 5.36 2.5 5.36l38-5.1c4.95-1 7-3.56 6.68-6.42l-.59-5.31 16.21-54.31c1 3.21-.54-8.66-7.78-11.32-3.06-1.13-10.15-3.18-14.81-2.2z" fill="#ff725e"/><path d="m287.84 175.36s-6.76 5.22-13.17 11.15-23.48 17.79-23.48 17.79l-1.19-24.81-12.89-1.75s-6.29 30.94-2.3 39.48 8.78 8.91 22.06 4.64 17.13-6.17 17.13-6.17z" fill="#ff725e"/><path d="m284.45 179.05s-.12.12-.31.38l-.79 1.16c-.67 1-1.63 2.48-2.78 4.33a69.46 69.46 0 0 0 -7.37 15.3 33.86 33.86 0 0 0 -1.14 16.87 23.13 23.13 0 0 0 1.59 4.91 14 14 0 0 0 .64 1.26c.15.28.24.42.26.41s-.26-.62-.72-1.74a26.27 26.27 0 0 1 -1.42-4.91 34.91 34.91 0 0 1 1.27-16.65 75.1 75.1 0 0 1 7.2-15.26l2.64-4.42.71-1.2a2 2 0 0 0 .22-.44z" fill="#263238"/><path d="m322.4 172.37s-6.84 9-7.22 17.19 12.28 57.53 12.28 57.53l11.1 45 13.81-5.1s-3.21-32-3.82-36c-1.28-8.29-6.74-24.45-7.49-33.79s-4.21-27.34-5.92-31.55-1.78-13.51-12.74-13.28z" fill="#ff725e"/><path d="m315.75 194.1a1.67 1.67 0 0 0 0 .49c0 .37.1.82.16 1.37.16 1.19.43 2.9.81 5 .76 4.23 2 10 3.4 16.41s2.85 12.13 3.93 16.28c.54 2.08 1 3.75 1.32 4.91.15.53.28 1 .39 1.32s.15.46.17.45a1.69 1.69 0 0 0 -.07-.47l-.3-1.35c-.29-1.25-.69-2.91-1.16-4.94-1-4.25-2.31-10-3.78-16.31s-2.7-12.16-3.54-16.36c-.4-2-.73-3.73-1-5-.1-.54-.19-1-.26-1.36a1.6 1.6 0 0 0 -.07-.44z" fill="#263238"/><path d="m314.76 249c-2.18-2.19-2.63-5.51-3-8.57q-1.62-14.64-3.25-29.28c-.68-6.08-1.32-12.46 1-18.14a3.09 3.09 0 0 1 1.74-2 2.24 2.24 0 0 1 2.28.94c.53.7 2 1.71 2.23 2.55 2.22 8.7 3.18 17.27 5.39 26 .59 2.3 1.35 2.21.84 4.53-.73 3.36-3.88 13-3.88 13s.45 3.51.58 5.56a5.34 5.34 0 0 1 -3.92 5.43" opacity=".3"/><path d="m316.8 199a3 3 0 0 0 .75.55 18.12 18.12 0 0 0 2.23 1.19 7.86 7.86 0 0 0 3.72.75 9 9 0 0 0 4.31-1.69 30.9 30.9 0 0 1 3.83-2.41 5.65 5.65 0 0 1 3.49-.57 4 4 0 0 1 2.13 1.07c.4.42.53.72.57.7s0-.35-.42-.83a3.87 3.87 0 0 0 -2.21-1.29 5.79 5.79 0 0 0 -3.75.49 28.22 28.22 0 0 0 -3.92 2.41 8.9 8.9 0 0 1 -4.07 1.66 8.07 8.07 0 0 1 -3.54-.62c-1.92-.84-3.07-1.54-3.12-1.41z" fill="#fafafa"/><path d="m274 197.91s0 .13.2.37a5.42 5.42 0 0 0 .74.94 8.3 8.3 0 0 0 3.83 2.16 13.57 13.57 0 0 0 6.53.09 63.72 63.72 0 0 0 7.59-2.44 25.18 25.18 0 0 1 14.09-.95 37.18 37.18 0 0 1 5.64 1.88 1.37 1.37 0 0 0 -.35-.22 10.62 10.62 0 0 0 -1.06-.55 22 22 0 0 0 -4.15-1.46 24.11 24.11 0 0 0 -6.49-.7 25.33 25.33 0 0 0 -7.85 1.52 70.35 70.35 0 0 1 -7.52 2.46 13.5 13.5 0 0 1 -6.33 0 8.53 8.53 0 0 1 -3.79-1.95c-.77-.68-1.08-1.18-1.08-1.15z" fill="#fafafa"/><path d="m265.9 193.55a5.11 5.11 0 0 0 -.11 2 12.66 12.66 0 0 0 4.55 8.64 5.21 5.21 0 0 0 1.76 1.08 20.11 20.11 0 0 0 -1.52-1.35 14.46 14.46 0 0 1 -2.93-3.83 14.61 14.61 0 0 1 -1.5-4.58c-.15-1.18-.15-1.96-.25-1.96z" fill="#fafafa"/><path d="m280 185.64c-10.38 10.42-19.3 22-23.13 36.22 5.93-2 11.54-3.83 15.24-5.37 0 0-1.11-5.86-.44-9.31.83-4.21.82-7.75 8.33-21.54" opacity=".3"/><path d="m251.38 204.36a31 31 0 0 0 -2.07 3.22 34.62 34.62 0 0 0 -1.22 3.63 6.23 6.23 0 0 1 .75-3.86 6.1 6.1 0 0 1 2.54-2.99z" fill="#263238"/></svg>