<svg xmlns="http://www.w3.org/2000/svg" viewBox="0 0 500 500"><g id="freepik--background-complete--inject-6"><path d="M415.72,428.23h3.42l7.44-10.38V411s5.28-.32,4.66,8.6.05,6.65.05,6.65,11.2,0,12.13,1c.68.7,1,11.83,1.1,17.86a6.53,6.53,0,0,1-4.63,6.58,4.55,4.55,0,0,1-1.2.16c-2.8,0-17.07-2.27-17.07-2.27h-5.9Z" style="fill:#e0e0e0"></path><polygon points="405.95 426.36 408.05 449.7 413.9 449.7 413.9 426.83 405.95 426.36" style="fill:#e0e0e0"></polygon><path d="M241.21,77.24l14.7,21a4,4,0,0,0,6.57-.11l14.23-21.86Z" style="fill:#e0e0e0"></path><rect x="225.66" y="42.05" width="64.39" height="46.83" rx="11.56" style="fill:#e0e0e0"></rect><path d="M270.47,61.16c-2.07-3.77-5.49-4.36-7.79-3.5a7.92,7.92,0,0,0-3.8,3.5,7.92,7.92,0,0,0-3.8-3.5c-2.3-.86-5.72-.27-7.78,3.5C243,69,258.88,79.28,258.88,79.28S274.77,69,270.47,61.16Z" style="fill:#fff"></path><path d="M79.8,404.91h33.91a13.65,13.65,0,0,1,13.65,13.65v17.22a13.65,13.65,0,0,1-13.65,13.65h-8.86l-6.24,8.92a3.77,3.77,0,0,1-6.25-.1l-5.74-8.82H79.8a13.65,13.65,0,0,1-13.65-13.65V418.56A13.65,13.65,0,0,1,79.8,404.91Z" style="fill:#e0e0e0"></path><polygon points="95.55 418.59 95.55 436.15 82.98 427.37 95.55 418.59" style="fill:#fff"></polygon><path d="M112.37,437.53s-.83-12.47-10.81-12.66H95.18v5.36l6.29.09S108,430.17,112.37,437.53Z" style="fill:#fff"></path><circle cx="91.5" cy="219.02" r="8.99" transform="translate(-142.72 257.53) rotate(-76.67)" style="fill:#e0e0e0"></circle><path d="M91.5,226.92a15.37,15.37,0,0,0-15.37,15.37h30.74A15.37,15.37,0,0,0,91.5,226.92Z" style="fill:#e0e0e0"></path><path d="M343.25,50.12A6.25,6.25,0,1,1,337,43.87,6.24,6.24,0,0,1,343.25,50.12Z" style="fill:#e0e0e0"></path><path d="M360.59,64.75a6.25,6.25,0,1,1-6.25-6.25A6.25,6.25,0,0,1,360.59,64.75Z" style="fill:#e0e0e0"></path><path d="M343.35,79.67a6.25,6.25,0,1,1-6.25-6.25A6.25,6.25,0,0,1,343.35,79.67Z" style="fill:#e0e0e0"></path><polygon points="337.43 80.05 336.77 79.29 353.57 64.76 336.68 50.51 337.32 49.74 355.11 64.75 337.43 80.05" style="fill:#e0e0e0"></polygon><path d="M451.1,196.75c-2.7-4.94-7.18-5.7-10.18-4.58a10.38,10.38,0,0,0-5,4.58,10.38,10.38,0,0,0-5-4.58c-3-1.12-7.48-.36-10.18,4.58C415.16,207,436,220.45,436,220.45S456.73,207,451.1,196.75Z" style="fill:#e0e0e0"></path><path d="M426.52,244.75c-1.93-3.52-5.11-4.06-7.26-3.26a7.39,7.39,0,0,0-3.54,3.26,7.39,7.39,0,0,0-3.54-3.26c-2.14-.8-5.33-.26-7.25,3.26-4,7.33,10.79,16.88,10.79,16.88S430.53,252.08,426.52,244.75Z" style="fill:#e0e0e0"></path></g><g id="freepik--speech-bubble--inject-6"><path d="M442.75,74.35H376.07a14.81,14.81,0,0,0-14.81,14.8v40.42a14.8,14.8,0,0,0,14.81,14.8h20.61l11.55,16.53a3.9,3.9,0,0,0,6.45-.11l10.68-16.42h17.39a14.79,14.79,0,0,0,14.8-14.8V89.15A14.8,14.8,0,0,0,442.75,74.35Z" style="fill:#fff"></path><path d="M442.75,74.35h.5a12,12,0,0,1,1.47.1,14,14,0,0,1,5.41,1.79,14.88,14.88,0,0,1,7.53,12.31c.06,2.07,0,4.25,0,6.55,0,9.22,0,20.34.06,33a20.89,20.89,0,0,1-.38,4.83,14.64,14.64,0,0,1-1.91,4.62,15.15,15.15,0,0,1-8.06,6.32,16.81,16.81,0,0,1-5.33.75H425.36l.2-.11-6.11,9.4-3.15,4.85c-.55.82-1,1.63-1.63,2.46a4.15,4.15,0,0,1-2.66,1.55,4.2,4.2,0,0,1-3-.74,4.53,4.53,0,0,1-1.09-1.14l-.86-1.24-3.48-5-7.11-10.15.22.11H377a18.94,18.94,0,0,1-4.18-.35,16.4,16.4,0,0,1-3.93-1.45,15.13,15.13,0,0,1-7.9-13.51c0-10.61,0-20.84,0-30.59,0-2.44,0-4.84,0-7.22,0-1.19,0-2.36.06-3.55a16.93,16.93,0,0,1,.24-1.76c.14-.58.27-1.15.45-1.71a15.51,15.51,0,0,1,3.57-5.86A15,15,0,0,1,371,75a12.31,12.31,0,0,1,1.57-.47,11.21,11.21,0,0,1,1.6-.29,24.55,24.55,0,0,1,3.19-.14H395l34.92.09,9.49,0,2.47,0,.84,0s-.28,0-.84,0l-2.47,0-9.49,0L395,74.53l-11.57,0h-6.15a23.35,23.35,0,0,0-3.13.14,10.44,10.44,0,0,0-1.56.29,12,12,0,0,0-1.52.46,14.59,14.59,0,0,0-5.43,3.49,14.87,14.87,0,0,0-3.45,5.69c-.18.54-.3,1.1-.44,1.66s-.21,1.13-.23,1.7c-.08,1.15-.05,2.34-.05,3.52v7.22c0,9.75,0,20,0,30.59a14.63,14.63,0,0,0,7.64,13.05,15.41,15.41,0,0,0,3.79,1.4,17.72,17.72,0,0,0,4.07.34h19.79l.08.11,7.1,10.15,3.48,5,.86,1.23a3.94,3.94,0,0,0,1,1,3.62,3.62,0,0,0,5-.7c.54-.76,1.07-1.62,1.6-2.42q1.61-2.44,3.16-4.85l6.13-9.4.07-.11h16.85a16,16,0,0,0,5.19-.71,14.6,14.6,0,0,0,7.83-6.12,14,14,0,0,0,1.87-4.48,19.89,19.89,0,0,0,.38-4.74c0-12.65,0-23.77.06-33,0-2.3,0-4.49,0-6.54A14.55,14.55,0,0,0,456.08,83a14.75,14.75,0,0,0-6-6.64,14.17,14.17,0,0,0-5.35-1.85,14,14,0,0,0-1.46-.14Z" style="fill:#263238"></path><polygon points="411.31 95.86 411.31 123.48 431.08 109.67 411.31 95.86" style="fill:#FF725E"></polygon><path d="M384.85,125.66s1.31-19.62,17-19.92h10v8.44l-9.89.14S391.65,114.08,384.85,125.66Z" style="fill:#FF725E"></path></g><g id="freepik--character-4--inject-6"><rect x="341.16" y="278.01" width="136.51" height="110.84" rx="11.46" transform="translate(818.82 666.85) rotate(180)" style="fill:#fff"></rect><path d="M403.92,385.45c-1.4,3.39-28.47,28.84-28.47,28.84V385.45Z" style="fill:#455a64"></path><path d="M393.44,362.24c0-3.5,0-6.42,0-6.78,0,0-11.83-1.12-12.68-12.83-.41-5.66-.31-17.4-.09-28a21.87,21.87,0,0,1,20.57-21.38l1.13-.07c12.25,0,19.1,10.37,18.78,22.61l-.43,45.93-19.8,15.91-1.44-.13Z" style="fill:#ffbf9d"></path><path d="M393.42,355.46a28.39,28.39,0,0,0,15-5.43s-3.21,8.79-15,8.44Z" style="fill:#ff9a6c"></path><path d="M400.6,319.68c.23.24,1.59-.83,3.55-.86s3.42.95,3.63.7-.14-.54-.77-1a4.9,4.9,0,0,0-2.9-.87,4.75,4.75,0,0,0-2.83,1C400.68,319.13,400.49,319.57,400.6,319.68Z" style="fill:#263238"></path><path d="M402.05,325a1.57,1.57,0,0,0,1.62,1.5,1.51,1.51,0,0,0,1.55-1.52,1.59,1.59,0,0,0-1.62-1.51A1.52,1.52,0,0,0,402.05,325Z" style="fill:#263238"></path><path d="M395.51,333.25a12.06,12.06,0,0,0-3-.35c-.46,0-.9-.08-1-.39a2.37,2.37,0,0,1,.23-1.39c.36-1.13.74-2.33,1.15-3.58,1.59-5.1,2.71-9.29,2.5-9.35s-1.66,4-3.25,9.13c-.38,1.25-.75,2.45-1.09,3.6a2.66,2.66,0,0,0-.13,1.82,1.15,1.15,0,0,0,.79.63,3.27,3.27,0,0,0,.79.06A11.06,11.06,0,0,0,395.51,333.25Z" style="fill:#263238"></path><path d="M401.57,313.38c.19.44,1.76.13,3.64.26s3.42.55,3.64.13c.1-.19-.19-.6-.82-1a6.15,6.15,0,0,0-5.54-.3C401.82,312.8,401.49,313.18,401.57,313.38Z" style="fill:#263238"></path><path d="M383.18,314.5c.2.36,1.74,0,3.59-.05s3.39.22,3.59-.15c.09-.17-.21-.49-.85-.78a6.49,6.49,0,0,0-2.74-.49,6.62,6.62,0,0,0-2.74.64C383.39,314,383.09,314.33,383.18,314.5Z" style="fill:#263238"></path><path d="M420.7,324.52c.19-.1,7.91-2.87,8.14,5.16s-7.89,6.6-7.91,6.37S420.7,324.52,420.7,324.52Z" style="fill:#ffbf9d"></path><path d="M423.3,332.94s.14.1.38.2a1.4,1.4,0,0,0,1.05,0c.84-.34,1.51-1.7,1.51-3.15a4.66,4.66,0,0,0-.44-2,1.64,1.64,0,0,0-1.09-1.05.7.7,0,0,0-.81.41c-.1.23,0,.38-.09.4s-.18-.13-.12-.46a.94.94,0,0,1,.3-.52,1,1,0,0,1,.77-.22,2,2,0,0,1,1.5,1.2,4.86,4.86,0,0,1,.54,2.23c0,1.62-.79,3.15-1.94,3.52a1.5,1.5,0,0,1-1.29-.17C423.32,333.13,423.27,333,423.3,332.94Z" style="fill:#ff9a6c"></path><path d="M398,340.08c-.09-.2,1.49-.65,2.62-2.12a8.94,8.94,0,0,0,1.14-2.08c.24-.58.42-.94.51-.91s.05.42-.08,1a6,6,0,0,1-1.07,2.34,4.84,4.84,0,0,1-2.07,1.54C398.43,340.14,398,340.15,398,340.08Z" style="fill:#263238"></path><path d="M431.54,311.66c-1.64-2.86-2-6.24-2.86-9.41s-2.59-6.47-5.67-7.61l-.07,0c-2.77-1.16-6.2-1.22-8.51.69-.51-4.18-4.12-7.54-8.18-8.66s-10.6-.56-14.53,1c-3,1.17-6,3.63-9.58,7.24a39.84,39.84,0,0,0-4.16,4.91L374.3,310.7l3,5.77c.18.4.36.79.58,1.18v0l2.58,12.12c.22-3.29.13-14.76.34-18.05a18.43,18.43,0,0,0,13.18-5.88c1.82-2,3.27-4.45,5.69-5.61,3.13-1.5,6.81-.33,10.07.84l-.14-.12a14.56,14.56,0,0,1,4.49,3.33,45.64,45.64,0,0,0,1.73,19.36c.3.94,1.11,2.88,2,3.24,1.8.72,2.31-1.11,3.4-2.07a4.77,4.77,0,0,1,3.29-.76,70.34,70.34,0,0,0,2.31-8.31,7.28,7.28,0,0,0,3.37.27l-1-2.49a3.83,3.83,0,0,0,1.43.67,1.31,1.31,0,0,0,1.37-.58C432.29,313,431.88,312.25,431.54,311.66Z" style="fill:#263238"></path><path d="M410.73,296.65a9.8,9.8,0,0,1,1.16,1.09,8.44,8.44,0,0,1,1.75,3.91,14.57,14.57,0,0,1,.26,3c0,1.08-.11,2.23-.21,3.45a31.84,31.84,0,0,0-.14,3.84,15.81,15.81,0,0,0,.24,2,4.27,4.27,0,0,0,.8,2,1.79,1.79,0,0,0,1.65.58,2.69,2.69,0,0,0,1.5-.82,6.1,6.1,0,0,0,1.16-3l-.24,0a9.74,9.74,0,0,0,1.39,2.47,3.46,3.46,0,0,0,2.26,1.27,2.25,2.25,0,0,0,1.21-.19,2,2,0,0,0,.83-.8,2,2,0,0,0,.26-1,1.42,1.42,0,0,0-.36-.92l-.13.11a7.69,7.69,0,0,0,2.49,1.92,6.76,6.76,0,0,0,.78.31.87.87,0,0,0,.28.07l-.26-.11c-.18-.08-.43-.18-.76-.35a7.94,7.94,0,0,1-2.4-1.95l-.12.11a1.51,1.51,0,0,1,.05,1.74,1.72,1.72,0,0,1-.75.71,2,2,0,0,1-1.1.16,3.27,3.27,0,0,1-2.09-1.2,9.91,9.91,0,0,1-1.35-2.42l-.16-.38-.08.4a6,6,0,0,1-1.11,2.84,2.41,2.41,0,0,1-1.34.73,1.48,1.48,0,0,1-1.4-.49,3.88,3.88,0,0,1-.74-1.85,13.54,13.54,0,0,1-.24-2,33.79,33.79,0,0,1,.12-3.81c.09-1.22.19-2.38.19-3.47a14.86,14.86,0,0,0-.3-3,8.26,8.26,0,0,0-1.86-3.94A4.9,4.9,0,0,0,410.73,296.65Z" style="fill:#455a64"></path><path d="M374.37,307.58s0,0,.09.08l.29.22a4.19,4.19,0,0,0,.49.32,5.71,5.71,0,0,0,.71.38,10.4,10.4,0,0,0,5,1,13.28,13.28,0,0,0,7.1-2.52,23,23,0,0,0,6.16-6.92c.87-1.4,1.58-2.85,2.36-4.18a15.75,15.75,0,0,1,2.67-3.53,8,8,0,0,1,3.4-2,5.74,5.74,0,0,1,1.78-.18,6.06,6.06,0,0,1,1.62.34,6.71,6.71,0,0,1,2.42,1.5,6.46,6.46,0,0,1,1.3,1.73,9,9,0,0,1,.59,1.76,1.09,1.09,0,0,0,0-.12c0-.1,0-.22,0-.36a6.75,6.75,0,0,0-.43-1.33,6.67,6.67,0,0,0-1.29-1.79,6.49,6.49,0,0,0-4.14-1.94,5.62,5.62,0,0,0-1.85.18,8.18,8.18,0,0,0-3.52,2,15.58,15.58,0,0,0-2.72,3.57c-.79,1.35-1.5,2.79-2.37,4.18a23,23,0,0,1-6.07,6.86,13.24,13.24,0,0,1-7,2.53,10.65,10.65,0,0,1-4.95-.87C374.9,308,374.39,307.54,374.37,307.58Z" style="fill:#455a64"></path><path d="M382.71,320.18c.23.24,1.6-.83,3.56-.85s3.41.95,3.62.7-.13-.55-.77-1a4.9,4.9,0,0,0-2.9-.87,4.8,4.8,0,0,0-2.83,1C382.8,319.63,382.6,320.08,382.71,320.18Z" style="fill:#263238"></path><path d="M385.71,325.27a1.59,1.59,0,0,0,1.62,1.51,1.52,1.52,0,0,0,1.55-1.53,1.58,1.58,0,0,0-1.62-1.5A1.51,1.51,0,0,0,385.71,325.27Z" style="fill:#263238"></path><path d="M379,298.47c-1,1.32-2.53,2.52-4.17,2.34a12,12,0,0,1-1.75-.51c-.57.35-.44,2.31,0,2.85a10.07,10.07,0,0,0,1.23,1.27c-1.93,1-3.68.53-5.73-.22a10.08,10.08,0,0,0,6,8.07,3.54,3.54,0,0,0,3.23.06,4,4,0,0,0,1.43-2.52,44.4,44.4,0,0,0,1.44-10.76Z" style="fill:#263238"></path><path d="M366.64,375.46l.21-.27c9.38-9.93,26.65-13.25,26.65-13.25s1.06,6.5,10.74,7.23S421,360,421,360L434,361.84s6.5.77,10.54,3.15c9.12,5.36,14,23.85,14,23.85l-99.6.41Z" style="fill:#455a64"></path><path d="M357.53,278l-.7.05-.86.06c-.34,0-.73.11-1.18.18a16.06,16.06,0,0,0-7.22,3.2,16.34,16.34,0,0,0-3.86,4.31,16.15,16.15,0,0,0-2.3,6.53,29.53,29.53,0,0,0-.14,3.92c0,1.35,0,2.76,0,4.2,0,2.9,0,6,0,9.22,0,13,0,28.68.05,46.59q0,6.72,0,13.84c0,1.18,0,2.38.07,3.56a17,17,0,0,0,.64,3.52,16.12,16.12,0,0,0,3.64,6.26,15.67,15.67,0,0,0,6.15,4.13l.89.32.92.24a14.8,14.8,0,0,0,1.88.34,32.9,32.9,0,0,0,3.87.14h16.26v.23c0,8.05,0,16.64,0,25.45l-.41-.18q6.32-6,12.83-12.3c4.32-4.24,8.74-8.54,12.95-13.14l.08-.08h58.33c1.07,0,2.13,0,3.17-.06a16.1,16.1,0,0,0,13.88-10.83,17.58,17.58,0,0,0,.89-6V365.5c0-16.35,0-32.13,0-47.16q0-11.26,0-22a26,26,0,0,0-.32-5.24,16.82,16.82,0,0,0-1.82-4.79,15.69,15.69,0,0,0-3.17-3.93,15.49,15.49,0,0,0-4.14-2.73,15.87,15.87,0,0,0-4.7-1.33,43.51,43.51,0,0,0-4.85-.14h-9.49l-17.84,0-53.83-.08-14.64-.05-3.81,0-1.29,0,1.29,0,3.81,0,14.64,0,53.83-.08,17.84,0h9.49a45.16,45.16,0,0,1,4.91.14,16.24,16.24,0,0,1,4.82,1.36,15.87,15.87,0,0,1,4.26,2.8,16.16,16.16,0,0,1,3.26,4,17.44,17.44,0,0,1,1.87,4.92,25.73,25.73,0,0,1,.34,5.33q0,10.68,0,22c0,15,0,30.81,0,47.16v6.16a18.22,18.22,0,0,1-.91,6.2A16.62,16.62,0,0,1,462.69,389c-1.09.08-2.16.08-3.22.07H401.26l.19-.08c-4.24,4.61-8.66,8.91-13,13.15s-8.64,8.33-12.85,12.3l-.42.39v-.57c0-8.81,0-17.4,0-25.45l.24.24h-16a30.44,30.44,0,0,1-3.93-.14,12.49,12.49,0,0,1-1.92-.36l-.95-.24-.92-.33a16.25,16.25,0,0,1-6.32-4.25,16.78,16.78,0,0,1-3.72-6.44,17.1,17.1,0,0,1-.65-3.61c-.09-1.22-.06-2.41-.06-3.59q0-7.12,0-13.84c0-17.91,0-33.61.05-46.59,0-3.25,0-6.32,0-9.22,0-1.44,0-2.85,0-4.2a30.08,30.08,0,0,1,.15-3.95,16.44,16.44,0,0,1,6.29-10.93,16,16,0,0,1,7.3-3.16c.45-.06.84-.14,1.19-.16l.86,0Z" style="fill:#263238"></path></g><g id="freepik--character-3--inject-6"><rect x="34.23" y="37.27" width="165.59" height="134.44" rx="14.01" transform="translate(234.05 208.98) rotate(180)" style="fill:#fff"></rect><path d="M110.37,167.6c-1.7,4.11-34.54,35-34.54,35v-35Z" style="fill:#455a64"></path><path d="M150.54,96.27c.08-7,1.19-14,.92-21s-2.12-14.31-7-19.33-13.38-7-19.1-2.89l-1.17,6q3.38,40.57,6.76,81.13c.29,3.55.61,7.21,2.23,10.38s4.86,5.8,8.42,5.58c4.65-.28,7.71-5,9.15-9.43C156,130.58,150.33,113.18,150.54,96.27Z" style="fill:#263238"></path><path d="M133.67,59.91a19.8,19.8,0,0,0-3.56-4.83,6.71,6.71,0,0,0-5.52-1.85,2.79,2.79,0,0,0-2.19,1.6c-.31.9.35,2.09,1.3,2l.2.17c2.1,1.86,4.23,3.68,6.41,5.45a5.44,5.44,0,0,0,1.78,1.11,1.9,1.9,0,0,0,2-.42C134.83,62.28,134.26,60.92,133.67,59.91Z" style="fill:#FF725E"></path><path d="M137.63,66.8c-7-8.55-16.37-13.46-27.41-13.65-6.22-.1-8.8,1.19-13.28,2.4A19.7,19.7,0,0,0,85.73,63c-3.17,4.51-5.84,9.56-6.44,15.05S78.05,89.31,78.48,95s2,11.34,5.28,15.93l14.38,2.49c7.94.27,16,.53,23.72-1.28s15.26-6,19.4-12.75C147,89.93,144.62,75.34,137.63,66.8Z" style="fill:#263238"></path><path d="M98.08,138.9c.1-5,.27-11.37.27-11.34s-11.72-1.29-15-16.32c-1.61-7.47-1.91-19.85-1.83-30,.07-9.12,7.84-21.55,19.11-21.59l5-.58,19.16,7.62a5.35,5.35,0,0,1,5.07,5.15l.72,66.07-12.28,20.51-22-17Z" style="fill:#b56760"></path><path d="M105.92,107.73a3.17,3.17,0,0,0-1.1-2,3.28,3.28,0,0,0-4-.22,4.37,4.37,0,0,0-1.66,4.11h0a4,4,0,0,0,2.85,1.65l.53,0a3.6,3.6,0,0,0,2.41-1A3.18,3.18,0,0,0,105.92,107.73Z" style="fill:#8a4a43"></path><path d="M87.61,93a1.93,1.93,0,0,0,2,1.85A1.86,1.86,0,0,0,91.5,93a2,2,0,0,0-2-1.86A1.86,1.86,0,0,0,87.61,93Z" style="fill:#263238"></path><path d="M85,86.32c.26.24,1.67-.93,3.76-1s3.69.85,3.9.59-.17-.57-.86-1a5.32,5.32,0,0,0-3.14-.78,5.16,5.16,0,0,0-3,1.14C85.06,85.74,84.87,86.21,85,86.32Z" style="fill:#263238"></path><path d="M98.44,102.73A13.53,13.53,0,0,0,95,102.3c-.54,0-1.05-.11-1.16-.46a2.68,2.68,0,0,1,.27-1.61l1.35-4.15c1.88-5.91,3.21-10.76,3-10.83s-2,4.65-3.83,10.57L93.32,100a3.07,3.07,0,0,0-.16,2.11,1.31,1.31,0,0,0,.92.73,3.4,3.4,0,0,0,.91.08A13.71,13.71,0,0,0,98.44,102.73Z" style="fill:#263238"></path><path d="M98.35,127.56a38.7,38.7,0,0,0,20-6.53s-4.83,10.8-20.08,10.22Z" style="fill:#8a4a43"></path><path d="M104.67,103.83c-.34,0-.22,2.27-2.07,4s-4.29,1.6-4.29,1.92c0,.15.56.41,1.59.39a5.72,5.72,0,0,0,3.58-1.48,5,5,0,0,0,1.6-3.33C105.11,104.36,104.83,103.81,104.67,103.83Z" style="fill:#263238"></path><path d="M85.71,79c.38.49,2,.06,3.84.11s3.46.46,3.84,0c.17-.24-.06-.72-.73-1.2a6,6,0,0,0-6.2-.08C85.78,78.28,85.54,78.76,85.71,79Z" style="fill:#263238"></path><path d="M111.41,92.46a1.94,1.94,0,0,1-1.84,2,1.86,1.86,0,0,1-2-1.72,1.94,1.94,0,0,1,1.84-2A1.86,1.86,0,0,1,111.41,92.46Z" style="fill:#263238"></path><path d="M113.3,85.51c-.24.26-1.73-.81-3.82-.76s-3.61,1.11-3.85.86.13-.57.79-1.07a5.35,5.35,0,0,1,3.07-1,5.19,5.19,0,0,1,3.05.93C113.19,84.94,113.42,85.4,113.3,85.51Z" style="fill:#263238"></path><path d="M112,78.81c-.4.48-2,0-4,0s-3.58.38-4-.11c-.17-.24.08-.72.79-1.18a6.32,6.32,0,0,1,6.4.06C112,78.09,112.22,78.57,112,78.81Z" style="fill:#263238"></path><path d="M127.31,97.32c-.06-1.13,1.09-3.87,2.2-4.1,3-.63,8.33-.68,8.79,6.87.64,10.33-9.86,8.84-9.9,8.55S127.51,101.21,127.31,97.32Z" style="fill:#b56760"></path><path d="M131,104.69s.19.11.5.23a1.82,1.82,0,0,0,1.35,0c1.06-.47,1.87-2.26,1.81-4.12A5.9,5.9,0,0,0,134,98.2a2.08,2.08,0,0,0-1.44-1.3.92.92,0,0,0-1,.56c-.12.3,0,.5-.1.52s-.23-.16-.17-.59a1.12,1.12,0,0,1,.36-.67,1.4,1.4,0,0,1,1-.33,2.56,2.56,0,0,1,2,1.49,6,6,0,0,1,.8,2.84c.06,2.09-.88,4.1-2.35,4.62a1.89,1.89,0,0,1-1.66-.17C131.05,104.94,131,104.71,131,104.69Z" style="fill:#8a4a43"></path><path d="M129.93,93.25,127.31,96C116,85.12,93.82,58,95.06,59.58a32.91,32.91,0,0,1,16.19-1.76c8.43,1.44,24.41,5.65,24.17,15.59S129.93,93.25,129.93,93.25Z" style="fill:#263238"></path><path d="M144.94,91a2.64,2.64,0,0,0-.16-.6,10,10,0,0,0-.7-1.63,15,15,0,0,0-4.32-4.86,28.25,28.25,0,0,0-8.69-4.18c-3.46-1.12-7.35-2-11.17-3.64a51.12,51.12,0,0,1-10.21-5.71,52.59,52.59,0,0,1-7.2-6.3,56,56,0,0,1-4.17-4.95l-1-1.42a3.87,3.87,0,0,0-.38-.48,2.06,2.06,0,0,0,.29.54c.22.34.53.85,1,1.48a46.57,46.57,0,0,0,4.06,5.08,50.21,50.21,0,0,0,7.19,6.44,49.77,49.77,0,0,0,10.29,5.81,114.65,114.65,0,0,0,11.23,3.62,28.68,28.68,0,0,1,8.62,4,15.63,15.63,0,0,1,4.36,4.66C144.66,90.16,144.89,91,144.94,91Z" style="fill:#455a64"></path><path d="M141.93,92.59a5.29,5.29,0,0,0-.4-2.25,10.53,10.53,0,0,0-3.88-4.87c-2.15-1.61-5.23-2.6-8.62-3.38a50.45,50.45,0,0,1-10.71-3.4,45,45,0,0,1-9.55-5.89,46.69,46.69,0,0,1-6.55-6.44,50.36,50.36,0,0,1-3.65-5L97.7,59.9a2.41,2.41,0,0,0-.34-.49,2.27,2.27,0,0,0,.24.54l.8,1.5a42,42,0,0,0,3.53,5.15,45.7,45.7,0,0,0,6.53,6.58,45,45,0,0,0,9.64,6,49.7,49.7,0,0,0,10.82,3.39c3.38.74,6.4,1.68,8.52,3.21a10.71,10.71,0,0,1,3.9,4.63A12.43,12.43,0,0,1,141.93,92.59Z" style="fill:#455a64"></path><path d="M129.59,110.74c0-.07.88-.19,2.41-.59a14.78,14.78,0,0,0,5.78-3.23,20.77,20.77,0,0,0,5.37-8.21,36.47,36.47,0,0,0,2.24-11.92,31.37,31.37,0,0,0-.5-6.27,30.41,30.41,0,0,0-1.72-5.59,29.69,29.69,0,0,0-5.35-8.34,48.47,48.47,0,0,0-6.93-6,2.26,2.26,0,0,1,.57.29c.36.23.91.53,1.56,1a31.27,31.27,0,0,1,5.16,4.44,29.4,29.4,0,0,1,5.57,8.41,29.88,29.88,0,0,1,1.79,5.72,30.51,30.51,0,0,1,.53,6.4,35.86,35.86,0,0,1-2.34,12.13,20.86,20.86,0,0,1-5.64,8.36,14.24,14.24,0,0,1-6,3.12,12,12,0,0,1-1.83.29A2.38,2.38,0,0,1,129.59,110.74Z" style="fill:#455a64"></path><path d="M65.14,155.48l.26-.33c11.38-12,32.33-16.07,32.33-16.07s1.28,7.88,13,8.76,20.37-11.08,20.37-11.08l15.67,2.2s7.88.93,12.79,3.81c11.06,6.51,16.93,28.94,16.93,28.94l-120.82.49Z" style="fill:#455a64"></path><path d="M54.09,37.27l-.84.06-1,.06c-.41,0-.89.14-1.43.22A19.57,19.57,0,0,0,42,41.49a19.84,19.84,0,0,0-7.49,13.16,38.71,38.71,0,0,0-.16,4.75c0,1.65,0,3.35,0,5.11,0,3.51,0,7.24,0,11.17,0,15.75,0,34.8.06,56.52q0,8.15,0,16.79c0,1.43,0,2.89.08,4.32a20.93,20.93,0,0,0,.78,4.28,19.69,19.69,0,0,0,4.42,7.62,20.42,20.42,0,0,0,3.41,2.94,20,20,0,0,0,4.07,2.07l1.08.4,1.12.28a17.62,17.62,0,0,0,2.28.43c.77.12,1.55.1,2.33.15H76.06v.24c0,9.75,0,20.17,0,30.86l-.41-.18q7.66-7.23,15.57-14.92c5.24-5.14,10.6-10.36,15.71-15.94l.08-.08h70.73c1.3,0,2.59,0,3.85-.09a19.56,19.56,0,0,0,16.89-13.17,21.43,21.43,0,0,0,1.07-7.33V143.4c0-19.84,0-39,0-57.21q0-13.66,0-26.64a31.21,31.21,0,0,0-.4-6.36A20.59,20.59,0,0,0,197,47.37a19.79,19.79,0,0,0-8.89-8.11,19.26,19.26,0,0,0-5.71-1.61,52.6,52.6,0,0,0-5.89-.17H165l-21.64,0L78,37.37l-17.76,0-4.62,0-1.57,0,1.57,0,4.62,0,17.76,0,65.3-.08,21.64,0h11.51a54,54,0,0,1,5.94.17,19.44,19.44,0,0,1,5.84,1.64,20.28,20.28,0,0,1,9.09,8.28,21.14,21.14,0,0,1,2.28,6,32.42,32.42,0,0,1,.4,6.45q0,13,0,26.64c0,18.23,0,37.37,0,57.21v7.47a21.8,21.8,0,0,1-1.1,7.5,20.07,20.07,0,0,1-17.33,13.52c-1.31.09-2.6.09-3.89.08H107.13l.19-.08c-5.13,5.59-10.49,10.81-15.74,16S81.11,197.94,76,202.76l-.42.4v-.58c0-10.69,0-21.11,0-30.86l.24.23H54c-.8-.06-1.6,0-2.38-.16a18.07,18.07,0,0,1-2.33-.44l-1.15-.29L47,170.64a20.55,20.55,0,0,1-4.15-2.12,21.46,21.46,0,0,1-3.5-3,20.32,20.32,0,0,1-4.5-7.79,22,22,0,0,1-.8-4.37C34,151.87,34,150.43,34,149q0-8.64,0-16.79c0-21.72,0-40.77.06-56.52,0-3.93,0-7.66,0-11.17,0-1.76,0-3.46,0-5.11a39.42,39.42,0,0,1,.18-4.78,20,20,0,0,1,7.62-13.25,19.5,19.5,0,0,1,8.85-3.84c.54-.07,1-.16,1.44-.19l1-.05Z" style="fill:#263238"></path></g><g id="freepik--character-2--inject-6"><rect x="18.63" y="267.53" width="119.2" height="96.78" rx="11.41" style="fill:#fff"></rect><path d="M83,361.35c1.22,3,24.87,25.18,24.87,25.18V361.35Z" style="fill:#FF725E"></path><path d="M99.63,289a14.9,14.9,0,0,0-7.4-8.84A18.87,18.87,0,0,0,79.53,279a40.1,40.1,0,0,0-11.82,5.29,19.57,19.57,0,0,0-5.59,4.63c-2.67,3.55-5.23,9.34-5.37,13.78-.12,3.59,1.51,12.52,3.12,15.73a8,8,0,0,0,3.53,3,30.44,30.44,0,0,0,6.73,8.41q1.14-3.64,2.29-7.29Z" style="fill:#263238"></path><path d="M97.44,284.66l-7.1-1.06c4.12,9.08,5.77,30.08,8.26,39.74,2.49-3.85,8.21-15.53,7.76-20.1S105.81,283.64,97.44,284.66Z" style="fill:#263238"></path><path d="M64.39,300.92a12.07,12.07,0,0,1,8.76-11.37l16.15-4.61c7-1,11.94,7.55,12.61,14.59.73,7.82,1.28,16.09.53,22-1.5,11.82-10.47,13.6-10.47,13.6s.16,5.59.25,9l-2.63,15.39L68.3,341.34l-4-40.28C64.34,300.86,64.38,301.19,64.39,300.92Z" style="fill:#ffbf9d"></path><path d="M98.35,309.32a1.49,1.49,0,0,1-1.4,1.56,1.44,1.44,0,0,1-1.6-1.31,1.52,1.52,0,0,1,1.4-1.57A1.45,1.45,0,0,1,98.35,309.32Z" style="fill:#263238"></path><path d="M100.27,304.19c-.18.2-1.35-.61-3-.55s-2.79.9-3,.7.09-.44.6-.84a4.18,4.18,0,0,1,2.37-.81,4,4,0,0,1,2.37.69C100.18,303.75,100.36,304.1,100.27,304.19Z" style="fill:#263238"></path><path d="M83.73,309.32a1.49,1.49,0,0,1-1.4,1.56,1.44,1.44,0,0,1-1.6-1.31A1.52,1.52,0,0,1,82.14,308,1.44,1.44,0,0,1,83.73,309.32Z" style="fill:#263238"></path><path d="M84.86,304.63c-.19.2-1.35-.61-3-.55s-2.78.9-3,.7.09-.44.6-.84a4.18,4.18,0,0,1,2.37-.81,4,4,0,0,1,2.37.69C84.76,304.19,85,304.54,84.86,304.63Z" style="fill:#263238"></path><path d="M90.29,317.23a11.28,11.28,0,0,1,2.63-.55c.41-.06.8-.15.86-.44a2.14,2.14,0,0,0-.31-1.22c-.42-1-.86-2-1.33-3.12-1.84-4.44-3.18-8.1-3-8.17s1.81,3.47,3.65,7.91l1.28,3.14a2.42,2.42,0,0,1,.26,1.62,1.05,1.05,0,0,1-.66.63,2.93,2.93,0,0,1-.7.12A10.49,10.49,0,0,1,90.29,317.23Z" style="fill:#263238"></path><path d="M76.25,331.35s4.06,8,15.79,6.5L92,335.09A29.64,29.64,0,0,1,76.25,331.35Z" style="fill:#ff9a6c"></path><path d="M84.18,298.78c-.15.44-1.77.29-3.67.57s-3.42.86-3.69.47c-.12-.19.14-.61.75-1.06a6.46,6.46,0,0,1,5.6-.79C83.88,298.23,84.24,298.57,84.18,298.78Z" style="fill:#263238"></path><path d="M99.6,299.24c-.27.38-1.4,0-2.75.05s-2.47.33-2.75-.05c-.12-.19.05-.56.54-.92a3.95,3.95,0,0,1,4.43,0C99.55,298.68,99.72,299.06,99.6,299.24Z" style="fill:#263238"></path><path d="M98.4,288.88a5.17,5.17,0,0,0-4.65-2.8,10,10,0,0,0-5.38,1.74c-6.89,4.25-10.21,14.13-17,18.52-1.67,1.07-3.92.19-5.33,1.6s-2.28,3.61-1.43,5.41a16.68,16.68,0,0,1-2.52-4,5.56,5.56,0,0,1,.07-4.59c.57-1.06,1.6-1.88,1.86-3s-.21-2.09-.19-3.14a6.83,6.83,0,0,1,1-3,30.53,30.53,0,0,1,10.9-12.15,20,20,0,0,1,10.25-3,15.22,15.22,0,0,1,9.93,3.62c1.59,1.4,3.26,2.85,2.51,4.83" style="fill:#263238"></path><path d="M66.25,309.39c-.14-.33-6.34-2.37-6.23,4.15.1,6.34,6.46,4.91,6.46,4.73S66.25,309.39,66.25,309.39Z" style="fill:#ffbf9d"></path><path d="M64.48,315.91s-.11.08-.29.16a1.13,1.13,0,0,1-.83,0,2.77,2.77,0,0,1-1.31-2.43,3.85,3.85,0,0,1,.28-1.59,1.3,1.3,0,0,1,.82-.86.55.55,0,0,1,.65.29c.09.18.05.3.09.31s.13-.1.08-.37a.74.74,0,0,0-.26-.39.84.84,0,0,0-.61-.15,1.57,1.57,0,0,0-1.14,1,3.74,3.74,0,0,0-.35,1.77,2.87,2.87,0,0,0,1.67,2.71,1.21,1.21,0,0,0,1-.19C64.47,316.06,64.51,315.92,64.48,315.91Z" style="fill:#ff9a6c"></path><path d="M63.63,306.21A1.93,1.93,0,0,0,64,306c.24-.16.6-.37,1-.7a21.94,21.94,0,0,0,3.33-3.21,60,60,0,0,0,4-5.55,50.1,50.1,0,0,1,5-6.66,19.8,19.8,0,0,1,3.3-2.77,16.36,16.36,0,0,1,3.6-1.75,17.87,17.87,0,0,1,6.69-1,17.5,17.5,0,0,1,4.52.75c.52.15.91.31,1.18.4l.42.14-.4-.19a11,11,0,0,0-1.17-.45,16.06,16.06,0,0,0-4.55-.85,17.86,17.86,0,0,0-6.78,1,16.46,16.46,0,0,0-3.66,1.78,19.51,19.51,0,0,0-3.36,2.8,48.47,48.47,0,0,0-5,6.71,67.43,67.43,0,0,1-4,5.57A23.87,23.87,0,0,1,65,305.19c-.42.34-.78.57-1,.75Z" style="fill:#fff"></path><path d="M65.28,308A9.77,9.77,0,0,0,66,313c.85,1.52,2.89,2.51,4.37,1.6,1.21-.73,1.53-2.32,1.7-3.72.49-4.05.64-8.14,1.16-12.19Z" style="fill:#263238"></path><path d="M96.76,285.91s-.56-.09-1.58-.09a10.93,10.93,0,0,0-4.17.88,14.3,14.3,0,0,0-2.59,1.43,27.2,27.2,0,0,0-2.65,2.15,32.41,32.41,0,0,0-5.14,5.87c-.77,1.15-1.45,2.33-2.2,3.43A16.07,16.07,0,0,1,76,302.51a28.22,28.22,0,0,1-5.26,3.73c-1.59.91-2.93,1.55-3.85,2l-1.07.49a1.74,1.74,0,0,1-.39.15,1.74,1.74,0,0,1,.36-.21l1-.56c.9-.48,2.22-1.15,3.79-2.07a29.33,29.33,0,0,0,5.15-3.76,15.85,15.85,0,0,0,2.39-2.88c.73-1.09,1.41-2.27,2.19-3.44A32.42,32.42,0,0,1,85.55,290a29,29,0,0,1,2.7-2.14,13.58,13.58,0,0,1,2.66-1.42,10.55,10.55,0,0,1,4.27-.79,8,8,0,0,1,1.18.13A1.81,1.81,0,0,1,96.76,285.91Z" style="fill:#455a64"></path><path d="M65,304.05a2.88,2.88,0,0,1-.55.39l-1.58,1-.53.32a1.67,1.67,0,0,1-.69.25.62.62,0,0,1-.43-.08.58.58,0,0,1-.25-.42,1.43,1.43,0,0,1,.28-.81l1.78-3,.26.23a7,7,0,0,1-2,1.07,6.59,6.59,0,0,1-2.26.33,2,2,0,0,1-.58-.08.74.74,0,0,1-.5-.42.71.71,0,0,1,.08-.64,3.73,3.73,0,0,1,.35-.41A12.7,12.7,0,0,0,60.44,299,21.83,21.83,0,0,0,61.73,296a3.16,3.16,0,0,1-.17.85,12.18,12.18,0,0,1-.89,2.22A12.65,12.65,0,0,1,58.6,302c-.23.23-.46.5-.36.69s.45.29.78.28a6.15,6.15,0,0,0,2.14-.32,6.29,6.29,0,0,0,1.9-1l.74-.57-.48.8-1.82,3a1.21,1.21,0,0,0-.25.63c0,.18.17.28.37.26a3.39,3.39,0,0,0,1.13-.51l1.63-.89A2.41,2.41,0,0,1,65,304.05Z" style="fill:#fff"></path><path d="M84.21,320.4a2.11,2.11,0,0,1,2.14-1.67,2.22,2.22,0,0,1,1.74,1.16,2.74,2.74,0,0,1,.15,2.12l0,.15a2.4,2.4,0,0,1-2.69.66A2.25,2.25,0,0,1,84.21,320.4Z" style="fill:#ff9a6c"></path><path d="M89.39,322.16c0-.24-1.64-.12-2.92-1.43s-1.23-3.07-1.46-3.07-.28.42-.25,1.16a4.13,4.13,0,0,0,1.13,2.56,3.55,3.55,0,0,0,2.44,1.1C89,322.49,89.41,322.27,89.39,322.16Z" style="fill:#263238"></path><path d="M115.58,352.63l-.18-.24c-8.2-8.67-23.28-11.57-23.28-11.57s-.92,5.67-9.37,6.31-14.67-8-14.67-8l-11.27,1.58s-5.68.67-9.22,2.75c-8,4.68-12.18,20.83-12.18,20.83l87,.35Z" style="fill:#FF725E"></path><path d="M123.54,267.53s.2,0,.6,0a11.08,11.08,0,0,1,1.8.16,14.17,14.17,0,0,1,6.38,2.76,14.47,14.47,0,0,1,5.5,9.55,27.9,27.9,0,0,1,.13,3.45c0,1.18,0,2.41,0,3.67,0,2.53,0,5.22,0,8.05,0,11.33,0,25.05.06,40.68q0,5.86,0,12.09c0,1,0,2.07,0,3.14a14.9,14.9,0,0,1-.58,3.16,14.46,14.46,0,0,1-3.25,5.63,14.13,14.13,0,0,1-5.53,3.72l-.8.29-.83.21a13.82,13.82,0,0,1-1.68.32,30.41,30.41,0,0,1-3.43.12h-14l.23-.24c0,7,0,14.53,0,22.22v.57l-.42-.39Q102.2,381.51,96.5,376c-3.78-3.7-7.64-7.46-11.34-11.49l.19.09H34.52c-.93,0-1.86,0-2.81-.06a14.53,14.53,0,0,1-12.54-9.78,16,16,0,0,1-.8-5.42v-5.38c0-14.29,0-28.06,0-41.19q0-9.84,0-19.17a23.46,23.46,0,0,1,.3-4.66,15.19,15.19,0,0,1,1.64-4.31,14.7,14.7,0,0,1,6.58-6,14.29,14.29,0,0,1,4.22-1.18,36.29,36.29,0,0,1,4.28-.12H59.29l47,.08,12.78.05,3.32,0,1.14,0-1.14,0-3.32,0-12.78.05-47,.08-15.58,0H35.42a39.77,39.77,0,0,0-4.23.13,14.09,14.09,0,0,0-10.46,7A14.93,14.93,0,0,0,19.14,279a22.24,22.24,0,0,0-.28,4.57q0,9.31,0,19.17c0,13.13,0,26.9,0,41.19v5.38a15.06,15.06,0,0,0,.77,5.25,14,14,0,0,0,6.88,7.94A13.89,13.89,0,0,0,31.75,364c.9.06,1.83.07,2.77.06H85.46l.08.09c3.68,4,7.54,7.77,11.31,11.47s7.53,7.27,11.21,10.74l-.42.18c0-7.69,0-15.2,0-22.22v-.24h14.24a26.86,26.86,0,0,0,3.37-.11,11.16,11.16,0,0,0,1.63-.31l.81-.2.77-.28a13.66,13.66,0,0,0,5.37-3.6,14.09,14.09,0,0,0,3.16-5.45,14.82,14.82,0,0,0,.57-3.07c.07-1,.05-2.08.05-3.11q0-6.22,0-12.09c0-15.63,0-29.35.06-40.68,0-2.83,0-5.52,0-8.05v-3.67a27.28,27.28,0,0,0-.11-3.42,14.26,14.26,0,0,0-11.68-12.26,10.57,10.57,0,0,0-1.78-.2Z" style="fill:#263238"></path></g><g id="freepik--character-1--inject-6"><path d="M309,466.09,184.24,466c-15,0-27.16-11.6-27.16-25.9L157.14,142c0-14.31,12.18-25.91,27.2-25.9l124.77.07c15,0,27.16,11.6,27.16,25.9l-.06,298.09C336.2,454.51,324,466.1,309,466.09Z" style="fill:#263238"></path><path d="M309,126.75H284.78a5.86,5.86,0,0,0-5.87,5.85v4.18a5.86,5.86,0,0,1-5.88,5.85l-47.15,0a5.86,5.86,0,0,1-5.87-5.85v-4.19a5.86,5.86,0,0,0-5.88-5.85H184.45c-10.51,0-19,8.12-19,18.14l-.06,291c0,10,8.51,18.14,19,18.14l124.52.07c10.52,0,19-8.11,19.05-18.13l.06-291C328,134.88,319.48,126.76,309,126.75Z" style="fill:#fff"></path><path d="M242.53,199.28a7.1,7.1,0,0,0,.35-14.13,7.38,7.38,0,0,0-8.67-11,8.84,8.84,0,0,0-14.45-4.61,10,10,0,0,0-12.07,2.06,7.07,7.07,0,0,0-3.87,13" style="fill:#263238"></path><path d="M243.73,200.06A30.14,30.14,0,0,0,209,178.46l-1.53.29c-16.34,4.12-22,20.29-17.42,36.52l11.44,58.9h0l33.67,26,8.71-21.69-3.43-19.6s15.42-5.5,12.59-21.42C251.7,229.75,247.6,214.14,243.73,200.06Z" style="fill:#c17560"></path><path d="M240.61,258.81a39.26,39.26,0,0,1-22-2.13s6.89,10.85,22.47,6.4Z" style="fill:#7c4236"></path><path d="M242.31,215.3a2.31,2.31,0,0,1-1.75,2.71,2.21,2.21,0,0,1-2.73-1.6,2.31,2.31,0,0,1,1.75-2.71A2.21,2.21,0,0,1,242.31,215.3Z" style="fill:#263238"></path><path d="M241.79,208.49c-.22.34-2.18-.6-4.62-.13s-4,2-4.32,1.79c-.16-.11,0-.7.7-1.42a6.34,6.34,0,0,1,3.39-1.79,6,6,0,0,1,3.75.47C241.55,207.84,241.91,208.33,241.79,208.49Z" style="fill:#263238"></path><path d="M220.17,220a2.31,2.31,0,0,1-1.76,2.7,2.2,2.2,0,0,1-2.72-1.6,2.3,2.3,0,0,1,1.75-2.7A2.21,2.21,0,0,1,220.17,220Z" style="fill:#263238"></path><path d="M217.88,213.51c-.22.35-2.18-.6-4.62-.13s-4,2-4.32,1.79c-.15-.11,0-.7.7-1.41A6.35,6.35,0,0,1,213,212a6.1,6.1,0,0,1,3.75.47C217.64,212.86,218,213.35,217.88,213.51Z" style="fill:#263238"></path><path d="M230.19,229.93c0-.14,1.43-.69,3.83-1.48.61-.18,1.18-.41,1.2-.86a3.25,3.25,0,0,0-.77-1.77l-2.74-4.39c-3.85-6.27-6.76-11.48-6.51-11.63s3.58,4.81,7.43,11.08l2.67,4.43a3.7,3.7,0,0,1,.79,2.39,1.61,1.61,0,0,1-.85,1.11,4.4,4.4,0,0,1-1,.34C231.76,229.76,230.23,230.06,230.19,229.93Z" style="fill:#263238"></path><path d="M217,205.06c-.2.68-2.42.41-5,.81s-4.68,1.25-5,.65c-.16-.29.19-.93,1-1.6a7.86,7.86,0,0,1,3.71-1.55,7.63,7.63,0,0,1,3.94.43C216.64,204.22,217.13,204.74,217,205.06Z" style="fill:#263238"></path><path d="M240.44,199.79c-.41.65-2.53.46-5,.89s-4.4,1.23-5,.74c-.26-.25-.05-.86.75-1.56a8,8,0,0,1,3.85-1.67,7.78,7.78,0,0,1,4.16.36C240.23,199,240.62,199.47,240.44,199.79Z" style="fill:#263238"></path><path d="M195.59,230.24a4.39,4.39,0,0,0-5.45-3.27c-2.91.85-5.89,3.16-4.52,9.24,2.41,10.79,12.75,6.14,12.7,5.83S196.64,234.75,195.59,230.24Z" style="fill:#c17560"></path><path d="M195.06,238.5c-.05,0-.16.18-.44.39a1.91,1.91,0,0,1-1.4.35c-1.24-.17-2.6-1.76-3.09-3.69a6.24,6.24,0,0,1-.07-2.81,2.21,2.21,0,0,1,1.09-1.76,1,1,0,0,1,1.22.26c.21.27.19.5.26.51s.19-.23,0-.66a1.24,1.24,0,0,0-.58-.58,1.43,1.43,0,0,0-1.1,0,2.7,2.7,0,0,0-1.59,2.11,6.71,6.71,0,0,0,0,3.15c.56,2.16,2.13,4,3.79,4.05a2.07,2.07,0,0,0,1.66-.67C195.1,238.77,195.1,238.52,195.06,238.5Z" style="fill:#7c4236"></path><path d="M230.4,179.19a4,4,0,0,0-.53-.7,7.09,7.09,0,0,0-6-2.05,27.12,27.12,0,0,0-4.11-.88,9.62,9.62,0,0,0-16.18,2.38c-.44.15-.87.31-1.3.48a9.82,9.82,0,0,0-13.89,7,7.13,7.13,0,0,0-6,11.7c-1.74,1.49-3,3.75-2.66,6s2.7,3.83,4.69,3.19c.61,5.28,2.33,11.3,3.63,16.65.92,3.77,6.19,5.11,7,7.63,4.2,12.85,7.12,4.75,3.58-22.84.23-.27.47-.55.7-.85a15.85,15.85,0,0,0,.87-2c.46-.81,1.6-.8,2.53-.88a7.06,7.06,0,0,0,6.24-6.34c1,1,2.91.64,4-.38a15.52,15.52,0,0,0,2.35-3.72c.75-1.28,1.9-2.51,3.37-2.58a10.8,10.8,0,0,0,2.47.07c1.4-.39,1.78-2.2,1.72-3.65a6.82,6.82,0,0,1,.46-3.62,8,8,0,0,1,2.61-1.31c.55,0,1.12,0,1.66-.06a5.24,5.24,0,0,0,.77-.1,9,9,0,0,1,1.06.21c5.24,1.41,11.32,10.56,11.32,10.56C240,186.7,235.52,182.1,230.4,179.19Z" style="fill:#263238"></path><path d="M181.14,197.91s0-.06.07-.18.13-.28.26-.49a6.22,6.22,0,0,1,1.46-1.55,7.11,7.11,0,0,1,3.09-1.31,6.53,6.53,0,0,1,4.32.74l-.28.15a8.72,8.72,0,0,1,3.46-6.29,11.19,11.19,0,0,1,3.67-1.93,13.33,13.33,0,0,1,4.34-.51,22.05,22.05,0,0,1,7.93,2l-.3.16a9.85,9.85,0,0,1,3.92-6.07,9.52,9.52,0,0,1,9.13-1,7.62,7.62,0,0,1,.9.44c.19.12.29.19.28.2s-.42-.21-1.23-.51a9.91,9.91,0,0,0-3.63-.59,9.24,9.24,0,0,0-5.24,1.76,9.54,9.54,0,0,0-3.71,5.85l-.05.27-.25-.11a22.11,22.11,0,0,0-7.77-2,13.2,13.2,0,0,0-4.19.49,10.51,10.51,0,0,0-3.53,1.84,8.4,8.4,0,0,0-3.37,6v.3l-.26-.15a6.21,6.21,0,0,0-4.09-.77,6.89,6.89,0,0,0-3,1.19A7.21,7.21,0,0,0,181.14,197.91Z" style="fill:#455a64"></path><path d="M223.36,183.05a2.86,2.86,0,0,1-.11.46,8.79,8.79,0,0,0-.17,1.33c0,.59,0,1.31-.07,2.16a6.86,6.86,0,0,1-.55,2.87,2.28,2.28,0,0,1-1.37,1.11,8.32,8.32,0,0,1-1.87.23,3.72,3.72,0,0,0-1.82.48,5,5,0,0,0-1.35,1.53c-.38.61-.72,1.28-1.09,2a8,8,0,0,1-1.3,2,5.19,5.19,0,0,1-2.23,1.25,3.92,3.92,0,0,1-1.33.16,1.88,1.88,0,0,1-1.31-.56l.38-.14a6.08,6.08,0,0,1-1.4,3.75,7.73,7.73,0,0,1-3.5,2.33,10.3,10.3,0,0,1-1.73.39,3.68,3.68,0,0,0-1.58.3,2.27,2.27,0,0,0-1,1.14,10.39,10.39,0,0,1-.87,1.44A8.66,8.66,0,0,1,194,211a8,8,0,0,1-5.51-1.22,8.23,8.23,0,0,1-3.16-3.68l.21.08a4.34,4.34,0,0,1-3.69-.17,4.11,4.11,0,0,1-1.87-2.08,4.06,4.06,0,0,1-.31-1.73,2.16,2.16,0,0,1,.05-.45c0-.1,0-.15,0-.15a4.76,4.76,0,0,0,.38,2.27,3.92,3.92,0,0,0,1.82,1.92,4.12,4.12,0,0,0,3.45.11l.15-.06.06.14a8,8,0,0,0,3.07,3.49,7.64,7.64,0,0,0,5.23,1.12,8.27,8.27,0,0,0,4.81-3.53,9.58,9.58,0,0,0,.84-1.38,2.78,2.78,0,0,1,1.18-1.34,2.45,2.45,0,0,1,.88-.28l.85-.07a9.09,9.09,0,0,0,1.64-.38,7.21,7.21,0,0,0,3.3-2.18,5.61,5.61,0,0,0,1.31-3.48l0-.52.36.38a2.26,2.26,0,0,0,2.2.29,4.76,4.76,0,0,0,2.05-1.14A7.39,7.39,0,0,0,214.6,195c.38-.68.73-1.35,1.13-2a5.34,5.34,0,0,1,1.47-1.63,4,4,0,0,1,2-.51,8.4,8.4,0,0,0,1.8-.2,2,2,0,0,0,1.21-.94,6.58,6.58,0,0,0,.58-2.75c.05-.84.08-1.57.14-2.16a7.33,7.33,0,0,1,.25-1.34A1.89,1.89,0,0,1,223.36,183.05Z" style="fill:#455a64"></path><path d="M223.39,235.64c-.45,3,.84,5.87,3.66,6.9a4.37,4.37,0,0,0,5.47-2.89,7.94,7.94,0,0,0,.07-3.75C230,235.75,226,235.79,223.39,235.64Z" style="fill:#7c4236"></path><path d="M232,240.86s0,.08-.11.21a2.73,2.73,0,0,1-.44.52,4.22,4.22,0,0,1-2.23,1.11,5.38,5.38,0,0,1-3.64-.74,5.65,5.65,0,0,1-2.45-3.81,6.28,6.28,0,0,1-.06-1.22,2.53,2.53,0,0,1,.32-1.22,1.07,1.07,0,0,1,.55-.43,1.74,1.74,0,0,1,.62-.08l1.06,0c1.37.07,2.6.2,3.63.31,2.05.22,3.33.28,3.33.36a14.42,14.42,0,0,1-3.36,0c-1-.06-2.26-.16-3.62-.2h-1c-.35,0-.6.05-.75.29a2.31,2.31,0,0,0-.22,1,5.28,5.28,0,0,0,2.25,4.6,5.14,5.14,0,0,0,3.32.77,4.18,4.18,0,0,0,2.16-.9C231.78,241.09,232,240.82,232,240.86Z" style="fill:#263238"></path><path d="M292.4,206.35s12.67-1.58,31.71-16.73,29.36-36.68,31.48-36.36,11.87-3.15,26,37.14,6.27,48.6,2.75,48.19-26.88-9.35-42-9.05-35.13,6.28-35.13,6.28Z" style="fill:#FF725E"></path><polygon points="269.61 236.43 276.38 234.99 272.71 226.08 266.99 228.94 269.61 236.43" style="fill:#455a64"></polygon><path d="M270.4,225.84l2.5,7.52,1.56,3.78a10.55,10.55,0,0,0,13.26,6l27.47-7.73-11.8-34.78-27.3,11.51A10.55,10.55,0,0,0,270.4,225.84Z" style="fill:#263238"></path><path d="M280.25,237.4l9.2,16.31,4.2-1.35,28.73,21.44,7.13-15.52s-16.72-6.39-20-12.12.18-7.2.18-7.2l-8.09-8.46Z" style="fill:#263238"></path><path d="M380.08,191c7.47,21.81,9.65,40.82,4.86,42.46s-14.74-14.7-22.22-36.51-9.65-40.82-4.86-42.47S372.6,169.16,380.08,191Z" style="fill:#263238"></path><path d="M361.25,184.5s11.42-5.67,15.95,9.46-7.05,16.46-7.05,16.46A97.79,97.79,0,0,1,361.25,184.5Z" style="fill:#fafafa"></path><path d="M351.42,166.05a15,15,0,0,0,.16,2.83c.17,1.81.41,4.44.8,7.68q.47,2.41,1,5.24c.19.94.38,1.92.57,2.92q.15.75.3,1.53c.12.51.28,1,.42,1.54l1.85,6.51L357,196c.16.58.41,1.13.61,1.7.42,1.14.85,2.29,1.29,3.46l1.3,3.46c.22.56.4,1.14.66,1.68l.75,1.61,2.89,6.13c.24.48.45,1,.7,1.43l.78,1.35,1.49,2.59,2.68,4.61c1.83,2.7,3.37,4.83,4.43,6.31a15.33,15.33,0,0,0,1.74,2.24,16.54,16.54,0,0,0-1.44-2.44l-4.18-6.47L368.14,219l-1.43-2.57c-.25-.45-.5-.9-.76-1.35s-.44-.95-.67-1.44c-.9-1.95-1.85-4-2.82-6.11l-.75-1.6c-.25-.54-.43-1.11-.65-1.67l-1.28-3.43c-.43-1.16-.86-2.31-1.29-3.44-.2-.56-.45-1.11-.6-1.68s-.33-1.14-.5-1.7l-1.88-6.46c-.14-.51-.31-1-.43-1.52s-.22-1-.32-1.51c-.21-1-.42-2-.61-2.9-.4-1.86-.78-3.6-1.12-5.19-.45-3.18-.83-5.77-1.09-7.61A18.27,18.27,0,0,0,351.42,166.05Z" style="fill:#263238"></path><path d="M315.19,235.36a5.19,5.19,0,0,1-1.24.39l-3.4.9c-2.88.74-6.85,1.79-11.23,3s-8.33,2.31-11.22,3c-1.45.36-2.62.63-3.44.8a7.52,7.52,0,0,1-1.28.21,6.28,6.28,0,0,1,1.24-.41l3.38-1,11.19-3.17c4.37-1.21,8.37-2.21,11.27-2.86,1.45-.33,2.63-.58,3.45-.73A6.89,6.89,0,0,1,315.19,235.36Z" style="fill:#455a64"></path><path d="M299,229.68a13.65,13.65,0,0,1-2.68,1.15c-1.69.63-4,1.43-6.67,2.22s-5.05,1.4-6.8,1.8a14.23,14.23,0,0,1-2.87.51,18.29,18.29,0,0,1,2.78-.87c1.73-.49,4.11-1.16,6.74-1.94s5-1.53,6.7-2.07A18.23,18.23,0,0,1,299,229.68Z" style="fill:#455a64"></path><path d="M294.68,221.74a75,75,0,0,1-8.47,2.83,76.76,76.76,0,0,1-8.63,2.34,75.86,75.86,0,0,1,8.48-2.84A77.44,77.44,0,0,1,294.68,221.74Z" style="fill:#455a64"></path><path d="M290.42,214.09a61.56,61.56,0,0,1-7.22,3.44,62.05,62.05,0,0,1-7.42,3,59.08,59.08,0,0,1,7.21-3.45A59.43,59.43,0,0,1,290.42,214.09Z" style="fill:#455a64"></path><path d="M259.51,300.15,242.83,272l-43.13-1.78,0,3.92s-11.84,11.92-15.66,28.15c-2.89,12.29,9.27,59.19,12.69,75.45,4.2,20,10,45.28,10,45.28-.87,4.48-6.62,8.11-6.22,14.09l95.86-1.05-4.93-19.43Z" style="fill:#FF725E"></path><path d="M292.77,424.08c0,.15-19.08.26-42.61.26s-42.6-.11-42.6-.26,19.07-.26,42.6-.26S292.77,423.94,292.77,424.08Z" style="fill:#fff"></path><path d="M286.14,400c0,.15-18.9.27-42.21.27s-42.22-.12-42.22-.27,18.9-.26,42.22-.26S286.14,399.89,286.14,400Z" style="fill:#fff"></path><path d="M279.64,373.89c0,.14-18.5.26-41.32.26S197,374,197,373.89s18.49-.26,41.31-.26S279.64,373.74,279.64,373.89Z" style="fill:#fff"></path><path d="M275.09,347.58c0,.14-19.06.26-42.56.26s-42.55-.12-42.55-.26,19.05-.26,42.55-.26S275.09,347.43,275.09,347.58Z" style="fill:#fff"></path><path d="M265,314.94c0,.14-18,.26-40.27.26s-40.27-.12-40.27-.26,18-.27,40.27-.27S265,314.79,265,314.94Z" style="fill:#fff"></path><path d="M251.29,285c0,.14-13.31.26-29.74.26s-29.74-.12-29.74-.26,13.31-.26,29.74-.26S251.29,284.9,251.29,285Z" style="fill:#fff"></path><path d="M196.31,317.51A76.93,76.93,0,0,0,212,336.26c9.63,8,38.93,22.34,38.93,22.34l2.45-5.06,21.86,5.11-4-13.46Z" style="opacity:0.30000000000000004"></path><path d="M299.15,282l-7.63,41.44-65.36-31.07-10.53,36.86c25.69,12.56,77.69,33.47,84.38,32.87,9.52-.86,16.1-6.55,19.06-20.49,1.84-8.63,1-66.5,1-66.5Z" style="fill:#c17560"></path><path d="M230.43,286.8s-24.44-15.1-35.1,3.93c-7.62,18.56.81,33.38,19.63,42.58,9.07,4.44,21.43,9.92,33.91,15.13l18.19-40.37Z" style="fill:#FF725E"></path><path d="M230.43,286.8s.24.11.68.36l1.94,1.09,7.38,4.22,26.74,15.42.16.1-.08.17-18.14,40.38-.1.23-.23-.1c-6.4-2.66-13-5.5-19.72-8.5q-4.45-2-8.79-4c-2.88-1.35-5.72-2.7-8.45-4.19q-2-1.15-3.95-2.41c-1.24-.9-2.52-1.72-3.65-2.72a37,37,0,0,1-6.19-6.33l-1.24-1.78a17.11,17.11,0,0,1-1.09-1.84,30,30,0,0,1-1.78-3.82c-.23-.65-.4-1.33-.6-2l-.29-1c-.08-.34-.12-.67-.19-1-.11-.66-.23-1.33-.34-2s-.08-1.32-.12-2a26.49,26.49,0,0,1,.07-3.89c.1-1.27.37-2.51.55-3.73s.61-2.38.94-3.53.81-2.23,1.2-3.31h0a20,20,0,0,1,5.78-6.55,17.87,17.87,0,0,1,7.27-2.86,28.93,28.93,0,0,1,12.44,1.21,46.82,46.82,0,0,1,7.38,3c.81.42,1.41.76,1.82,1s.59.38.59.38l-.62-.33c-.41-.22-1-.54-1.85-.94a48.19,48.19,0,0,0-7.39-2.88,28.63,28.63,0,0,0-12.32-1.11,17.36,17.36,0,0,0-7.11,2.84,19.62,19.62,0,0,0-5.64,6.45v0c-.38,1.08-.78,2.17-1.18,3.29s-.61,2.3-.91,3.48-.43,2.43-.53,3.69a27.11,27.11,0,0,0-.06,3.83c0,.64.07,1.3.13,2s.22,1.3.34,1.95c.06.33.1.66.18,1l.29,1c.2.65.36,1.31.6,1.95a28.93,28.93,0,0,0,1.75,3.75,19.53,19.53,0,0,0,1.07,1.81l1.23,1.74a36.44,36.44,0,0,0,6.12,6.24,44.51,44.51,0,0,0,3.61,2.69q1.9,1.25,3.92,2.38c2.7,1.47,5.54,2.83,8.42,4.17s5.82,2.69,8.79,4c6.7,3,13.3,5.84,19.69,8.51l-.33.13c6.79-15,13-28.82,18.23-40.34l.09.26-26.65-15.58L233,288.35l-1.9-1.14C230.65,287,230.43,286.8,230.43,286.8Z" style="fill:#263238"></path><path d="M298.17,289.1l1.47-15.44s-5.9-11.88-5.78-13.07.46-7.74.46-7.74l14.75-13.28s4.78,0,4.9,4.73c0,0,4.59-1,4.66,4.54,0,0,5,.18,5.1,4.21h0s3-.4,2.9,3.81c-.08,3-1.4,14.61-1.4,14.61l-6.17,10.73-.51,10.73Z" style="fill:#c17560"></path><path d="M299.7,338.58c-.17.06-1.26-3.69-3.49-7.89s-4.82-7.14-4.69-7.25a10,10,0,0,1,1.75,1.86,33.31,33.31,0,0,1,3.4,5.14,35.49,35.49,0,0,1,2.4,5.67A11,11,0,0,1,299.7,338.58Z" style="fill:#7c4236"></path><path d="M215.63,281.67a8.66,8.66,0,0,1-.65,1.41c-.45.89-1.12,2.16-2,3.72-1.69,3.13-4.1,7.41-6.79,12.11l-6.93,12-2.1,3.64a10.28,10.28,0,0,1-.83,1.31,8.66,8.66,0,0,1,.65-1.41c.45-.88,1.12-2.16,2-3.72,1.69-3.13,4.09-7.41,6.79-12.11s5.11-8.87,6.92-12c.86-1.47,1.57-2.7,2.11-3.64A9,9,0,0,1,215.63,281.67Z" style="fill:#fff"></path><path d="M235.56,290.4a1.86,1.86,0,0,1-.16.45l-.55,1.25c-.49,1.09-1.21,2.64-2.14,4.55-1.84,3.82-4.47,9.05-7.55,14.74s-6,10.76-8.2,14.39c-1.1,1.81-2,3.27-2.64,4.27l-.74,1.15a2.58,2.58,0,0,1-.29.38s.05-.16.2-.44l.66-1.19,2.49-4.36c2.11-3.67,5-8.77,8.06-14.45s5.76-10.88,7.68-14.66l2.29-4.46.63-1.21A1.79,1.79,0,0,1,235.56,290.4Z" style="fill:#fff"></path><path d="M257.86,302.88a12.62,12.62,0,0,1-.61,1.66c-.41,1-1.05,2.56-1.87,4.41-1.65,3.69-4.09,8.73-7.1,14.13s-6,10.12-8.29,13.47c-1.14,1.67-2.09,3-2.77,3.91a10.71,10.71,0,0,1-1.09,1.38,10.86,10.86,0,0,1,.93-1.49l2.62-4c2.2-3.39,5.14-8.13,8.15-13.51s5.48-10.39,7.21-14l2-4.34A10.13,10.13,0,0,1,257.86,302.88Z" style="fill:#fff"></path><polygon points="199.75 455.62 201.83 437.11 293.28 436.1 295.61 455.62 199.75 455.62" style="fill:#263238"></polygon><path d="M313,454c0,.14-28.17.26-62.92.26s-62.92-.12-62.92-.26,28.17-.26,62.92-.26S313,453.84,313,454Z" style="fill:#455a64"></path><rect x="225.98" y="131.01" width="38.09" height="5.55" rx="2.04" style="fill:#455a64"></rect><path d="M273.31,133.79a2.78,2.78,0,1,1-2.78-2.78A2.78,2.78,0,0,1,273.31,133.79Z" style="fill:#455a64"></path><path d="M158.08,174.09h2.25a0,0,0,0,1,0,0v46.4a0,0,0,0,1,0,0h-2.25a6.2,6.2,0,0,1-6.2-6.2v-34A6.2,6.2,0,0,1,158.08,174.09Z" style="fill:#263238"></path><path d="M157.52,241.51h2.25a0,0,0,0,1,0,0v46.4a0,0,0,0,1,0,0h-2.25a6.2,6.2,0,0,1-6.2-6.2v-34A6.2,6.2,0,0,1,157.52,241.51Z" style="fill:#263238"></path><path d="M157.68,310.28c-.15,0-.26-33.68-.26-75.22s.11-75.23.26-75.23.26,33.68.26,75.23S157.82,310.28,157.68,310.28Z" style="fill:#455a64"></path></g></svg>
